<svg width="59" height="40" viewBox="0 0 59 40" fill="none" xmlns="http://www.w3.org/2000/svg">
<rect x="0.5" y="0.5" width="58" height="39" fill="white"/>
<rect x="0.5" y="0.5" width="58" height="39" stroke="black"/>
<path d="M15.62 11.2H17.08V15.48H15.62V11.2ZM22.82 11.2H24.28V15.48H22.82V11.2ZM11.24 12.76H28.84V14.1H11.24V12.76ZM22.92 17.18V19.14H26.46V17.18H22.92ZM18.22 17.18V19.14H21.68V17.18H18.22ZM13.62 17.18V19.14H16.96V17.18H13.62ZM12.28 15.94H27.88V20.4H12.28V15.94ZM15.5 24.76L16.54 23.92C17.0067 24.1467 17.4867 24.4133 17.98 24.72C18.4733 25.0133 18.94 25.32 19.38 25.64C19.82 25.96 20.1867 26.2533 20.48 26.52L19.36 27.46C19.08 27.2067 18.72 26.92 18.28 26.6C17.8533 26.2667 17.3933 25.94 16.9 25.62C16.42 25.3 15.9533 25.0133 15.5 24.76ZM16.18 21.92H25.64V23.24H16.18V21.92ZM17.82 20.3L19.24 20.82C18.76 21.4067 18.1733 21.9667 17.48 22.5C16.8 23.0333 16.06 23.52 15.26 23.96C14.46 24.3867 13.6533 24.7533 12.84 25.06C12.76 24.9533 12.6667 24.8333 12.56 24.7C12.4667 24.5667 12.3667 24.4333 12.26 24.3C12.1533 24.1667 12.0533 24.0533 11.96 23.96C12.72 23.7067 13.48 23.3867 14.24 23C15 22.6133 15.6933 22.1867 16.32 21.72C16.96 21.2533 17.46 20.78 17.82 20.3ZM25.3 21.92H25.62L25.9 21.86L26.86 22.54C26.1933 23.6733 25.3533 24.6533 24.34 25.48C23.34 26.2933 22.1933 26.9733 20.9 27.52C19.6067 28.0667 18.2267 28.5133 16.76 28.86C15.2933 29.2067 13.7867 29.4733 12.24 29.66C12.2 29.54 12.1333 29.4 12.04 29.24C11.9467 29.08 11.8467 28.92 11.74 28.76C11.6467 28.6 11.5533 28.4667 11.46 28.36C12.9933 28.2133 14.4667 27.9933 15.88 27.7C17.3067 27.4067 18.6267 27.02 19.84 26.54C21.0667 26.0467 22.1467 25.44 23.08 24.72C24.0133 24 24.7533 23.1467 25.3 22.16V21.92ZM37.4 11.24H39.08V29.58H37.4V11.24ZM38.68 18.64L39.56 17.4C40.2267 17.6933 40.9467 18.0267 41.72 18.4C42.5067 18.76 43.2867 19.1333 44.06 19.52C44.8467 19.9067 45.58 20.2867 46.26 20.66C46.94 21.0333 47.52 21.3733 48 21.68L47.04 23.14C46.5867 22.8333 46.0267 22.4867 45.36 22.1C44.6933 21.7133 43.9733 21.32 43.2 20.92C42.44 20.5067 41.6667 20.1067 40.88 19.72C40.1067 19.32 39.3733 18.96 38.68 18.64Z" fill="black"/>
</svg>
