<svg width="78" height="40" viewBox="0 0 78 40" fill="none" xmlns="http://www.w3.org/2000/svg">
<rect x="0.5" y="0.5" width="77" height="39" fill="white"/>
<rect x="0.5" y="0.5" width="77" height="39" stroke="black"/>
<path d="M19.46 11.2H20.84V19.64C20.84 20.64 20.7933 21.6067 20.7 22.54C20.62 23.4733 20.44 24.3667 20.16 25.22C19.88 26.06 19.4667 26.8533 18.92 27.6C18.3867 28.3333 17.66 29.0067 16.74 29.62C16.6733 29.5133 16.5733 29.3933 16.44 29.26C16.3067 29.14 16.1733 29.02 16.04 28.9C15.9067 28.78 15.7867 28.6867 15.68 28.62C16.52 28.06 17.1933 27.4467 17.7 26.78C18.2067 26.1133 18.5867 25.4 18.84 24.64C19.0933 23.88 19.26 23.0867 19.34 22.26C19.42 21.42 19.46 20.5467 19.46 19.64V11.2ZM22.92 11.2H24.34V29.58H22.92V11.2ZM16.18 14.62H20.08V16H16.18V14.62ZM23.66 14.62H27.86V16H23.66V14.62ZM23.74 18.8H27.66V20.16H23.74V18.8ZM23.64 23.16H28.2V24.54H23.64V23.16ZM16.32 18.8H20.12V20.16H16.32V18.8ZM15.2 24.02C15.7733 23.86 16.44 23.66 17.2 23.42C17.9733 23.18 18.7733 22.9267 19.6 22.66L19.82 23.84C19.1267 24.1067 18.4333 24.3667 17.74 24.62C17.0467 24.86 16.3933 25.0933 15.78 25.32L15.2 24.02ZM9.56 21.58C10.3333 21.3533 11.2667 21.0733 12.36 20.74C13.4667 20.3933 14.5867 20.04 15.72 19.68L15.94 21.06C14.9 21.4067 13.8533 21.7533 12.8 22.1C11.7467 22.4467 10.7933 22.7533 9.94 23.02L9.56 21.58ZM9.84 15.24H15.9V16.64H9.84V15.24ZM12.34 11.22H13.74V27.86C13.74 28.26 13.6867 28.5733 13.58 28.8C13.4867 29.0267 13.3133 29.2 13.06 29.32C12.82 29.44 12.5 29.52 12.1 29.56C11.7 29.6 11.18 29.6133 10.54 29.6C10.5267 29.4267 10.4733 29.2 10.38 28.92C10.3 28.6533 10.2133 28.4133 10.12 28.2C10.5467 28.2133 10.9333 28.22 11.28 28.22C11.64 28.2333 11.88 28.2333 12 28.22C12.12 28.22 12.2067 28.1933 12.26 28.14C12.3133 28.1 12.34 28.0067 12.34 27.86V11.22ZM30.58 17.24H47.42V21.08H45.98V18.56H31.96V21.08H30.58V17.24ZM33.38 12.06H44.6V17.88H43.1V13.26H34.82V17.86H33.38V12.06ZM33.62 19.8H43.66V21.02H35.06V29.6H33.62V19.8ZM37.88 14.52H43.66V15.56H39.22V17.96H37.88V14.52ZM42.96 19.8H44.42V28.02C44.42 28.4067 44.36 28.7 44.24 28.9C44.1333 29.1133 43.9333 29.2733 43.64 29.38C43.3467 29.4867 42.94 29.5467 42.42 29.56C41.9 29.5867 41.2533 29.6 40.48 29.6C40.4533 29.4133 40.3933 29.2 40.3 28.96C40.2067 28.7333 40.1133 28.5333 40.02 28.36C40.4067 28.3733 40.7733 28.38 41.12 28.38C41.4667 28.38 41.7667 28.3733 42.02 28.36C42.2867 28.36 42.4667 28.36 42.56 28.36C42.7067 28.3467 42.8067 28.3133 42.86 28.26C42.9267 28.22 42.96 28.1333 42.96 28V19.8ZM34.34 22.54H43.74V23.66H34.34V22.54ZM34.34 25.24H43.74V26.4H34.34V25.24ZM50.92 12.52L51.76 11.46C52.1867 11.6467 52.62 11.86 53.06 12.1C53.5133 12.34 53.94 12.5867 54.34 12.84C54.7533 13.0933 55.0867 13.3333 55.34 13.56L54.44 14.76C54.1867 14.52 53.86 14.2667 53.46 14C53.0733 13.7333 52.6533 13.4733 52.2 13.22C51.76 12.9533 51.3333 12.72 50.92 12.52ZM49.92 18.02L50.76 16.94C51.1867 17.1133 51.62 17.32 52.06 17.56C52.5133 17.8 52.94 18.0467 53.34 18.3C53.7533 18.5533 54.0867 18.7933 54.34 19.02L53.46 20.24C53.2067 20.0133 52.88 19.7667 52.48 19.5C52.0933 19.2333 51.6733 18.9733 51.22 18.72C50.7667 18.4533 50.3333 18.22 49.92 18.02ZM50.48 28.32C50.7867 27.8133 51.1267 27.2067 51.5 26.5C51.8867 25.78 52.2667 25.02 52.64 24.22C53.0267 23.42 53.38 22.6467 53.7 21.9L54.9 22.78C54.6067 23.4733 54.2867 24.2 53.94 24.96C53.5933 25.72 53.2333 26.4667 52.86 27.2C52.5 27.92 52.1533 28.5867 51.82 29.2L50.48 28.32ZM55.88 12.14H64.8V13.56H55.88V12.14ZM66.3 17.66H67.8C67.8 17.66 67.7933 17.7067 67.78 17.8C67.78 17.8933 67.78 18 67.78 18.12C67.78 18.2267 67.7733 18.32 67.76 18.4C67.6533 20.1467 67.54 21.6333 67.42 22.86C67.3133 24.0867 67.1933 25.0933 67.06 25.88C66.94 26.6667 66.8067 27.2867 66.66 27.74C66.5133 28.18 66.3533 28.5067 66.18 28.72C65.98 28.9733 65.7733 29.1467 65.56 29.24C65.36 29.3333 65.1133 29.3933 64.82 29.42C64.5667 29.4467 64.2467 29.4533 63.86 29.44C63.4867 29.44 63.0867 29.4333 62.66 29.42C62.66 29.2067 62.62 28.96 62.54 28.68C62.4733 28.4133 62.38 28.1867 62.26 28C62.6733 28.04 63.0533 28.06 63.4 28.06C63.7467 28.0733 64.0067 28.08 64.18 28.08C64.34 28.0933 64.4733 28.08 64.58 28.04C64.6867 28 64.7867 27.92 64.88 27.8C65.08 27.6 65.26 27.1533 65.42 26.46C65.5933 25.7667 65.7467 24.74 65.88 23.38C66.0267 22.0067 66.1667 20.2 66.3 17.96V17.66ZM56.62 19.32C56.5933 19.2 56.54 19.0533 56.46 18.88C56.3933 18.7067 56.3133 18.5333 56.22 18.36C56.14 18.1733 56.0667 18.02 56 17.9C56.2667 17.8467 56.5933 17.7333 56.98 17.56C57.38 17.3733 57.7867 17.1533 58.2 16.9C58.4133 16.7667 58.74 16.56 59.18 16.28C59.6333 16 60.14 15.66 60.7 15.26C61.2733 14.8467 61.86 14.4 62.46 13.92C63.0733 13.44 63.64 12.9467 64.16 12.44V12.34L64.9 12.02L66.02 12.88C64.58 14.0933 63.1667 15.1867 61.78 16.16C60.3933 17.12 59.0467 17.9267 57.74 18.58V18.64C57.74 18.64 57.68 18.66 57.56 18.7C57.4533 18.74 57.3267 18.7933 57.18 18.86C57.0333 18.9267 56.9 19 56.78 19.08C56.6733 19.16 56.62 19.24 56.62 19.32ZM56.62 19.32V18.06L57.48 17.66H66.8V19.08H58.42C57.94 19.08 57.54 19.1 57.22 19.14C56.9133 19.18 56.7133 19.24 56.62 19.32ZM63.42 18.44L64.78 18.74C64.06 21.1933 63.0667 23.3333 61.8 25.16C60.5467 26.9733 59.02 28.4533 57.22 29.6C57.14 29.52 57.0267 29.42 56.88 29.3C56.7467 29.18 56.6 29.0667 56.44 28.96C56.2933 28.8533 56.16 28.7667 56.04 28.7C57.88 27.6467 59.4067 26.2533 60.62 24.52C61.8467 22.7733 62.78 20.7467 63.42 18.44ZM59.62 18.56L60.98 18.88C60.5133 20.24 59.86 21.46 59.02 22.54C58.18 23.62 57.26 24.52 56.26 25.24C56.18 25.16 56.0667 25.0667 55.92 24.96C55.7867 24.84 55.64 24.7267 55.48 24.62C55.3333 24.5133 55.2067 24.42 55.1 24.34C56.1133 23.7133 57.0133 22.9 57.8 21.9C58.6 20.9 59.2067 19.7867 59.62 18.56Z" fill="black"/>
</svg>
