<svg width="59" height="40" viewBox="0 0 59 40" fill="none" xmlns="http://www.w3.org/2000/svg">
<rect x="0.5" y="0.5" width="58" height="39" fill="white"/>
<rect x="0.5" y="0.5" width="58" height="39" stroke="black"/>
<path d="M17.68 11.12L19.12 11.62C18.5467 12.5933 17.8733 13.5267 17.1 14.42C16.34 15.3133 15.5333 16.1333 14.68 16.88C13.84 17.6267 12.9867 18.2867 12.12 18.86C12.04 18.7533 11.92 18.6333 11.76 18.5C11.6133 18.3667 11.46 18.2333 11.3 18.1C11.14 17.9667 11 17.86 10.88 17.78C11.7733 17.2733 12.64 16.6733 13.48 15.98C14.32 15.2733 15.1 14.5067 15.82 13.68C16.54 12.8533 17.16 12 17.68 11.12ZM24.44 13.16H24.74L25.02 13.08L26.04 13.7C25.36 15.06 24.4867 16.2867 23.42 17.38C22.3533 18.4733 21.16 19.4467 19.84 20.3C18.5333 21.14 17.16 21.86 15.72 22.46C14.28 23.06 12.84 23.54 11.4 23.9C11.36 23.7533 11.2933 23.6 11.2 23.44C11.12 23.2667 11.0267 23.1 10.92 22.94C10.8133 22.78 10.7133 22.64 10.62 22.52C11.9933 22.24 13.3733 21.8267 14.76 21.28C16.1467 20.7333 17.4667 20.0733 18.72 19.3C19.9733 18.5133 21.0933 17.6267 22.08 16.64C23.08 15.6533 23.8667 14.5733 24.44 13.4V13.16ZM16.36 14.5C16.9867 15.42 17.76 16.2733 18.68 17.06C19.6133 17.8467 20.6533 18.56 21.8 19.2C22.96 19.84 24.1867 20.3933 25.48 20.86C26.7867 21.3267 28.1267 21.7 29.5 21.98C29.3933 22.0867 29.28 22.2267 29.16 22.4C29.04 22.56 28.9267 22.7267 28.82 22.9C28.7133 23.06 28.6267 23.2067 28.56 23.34C27.16 23.0333 25.8 22.6267 24.48 22.12C23.1733 21.6133 21.9333 21.0133 20.76 20.32C19.6 19.6133 18.5333 18.8267 17.56 17.96C16.5867 17.0933 15.7467 16.16 15.04 15.16L16.36 14.5ZM16.9 22.96L17.78 21.86C18.46 22.0467 19.1733 22.2733 19.92 22.54C20.68 22.8067 21.4 23.0867 22.08 23.38C22.76 23.6733 23.34 23.9467 23.82 24.2L22.96 25.42C22.5067 25.14 21.9333 24.8533 21.24 24.56C20.56 24.2533 19.84 23.96 19.08 23.68C18.3333 23.3867 17.6067 23.1467 16.9 22.96ZM13.76 27.16L14.68 25.86C15.6133 25.9933 16.5867 26.16 17.6 26.36C18.6133 26.56 19.62 26.78 20.62 27.02C21.62 27.2467 22.5667 27.48 23.46 27.72C24.3533 27.96 25.1467 28.1933 25.84 28.42L24.98 29.84C24.3133 29.6 23.5333 29.3467 22.64 29.08C21.7467 28.8267 20.8 28.58 19.8 28.34C18.8 28.1133 17.78 27.9 16.74 27.7C15.7 27.4867 14.7067 27.3067 13.76 27.16ZM16.98 13.16H24.74V14.52H16.04L16.98 13.16ZM38.88 14.58H40.34V27.02H38.88V14.58ZM33.5 12.96L35.36 13.4C35.3467 13.5467 35.2133 13.6333 34.96 13.66V17.48C34.96 18.3333 34.9267 19.2733 34.86 20.3C34.7933 21.3267 34.6533 22.3867 34.44 23.48C34.2267 24.56 33.9133 25.62 33.5 26.66C33.0867 27.7 32.54 28.6733 31.86 29.58C31.7933 29.4733 31.6867 29.36 31.54 29.24C31.4067 29.12 31.2667 29 31.12 28.88C30.9733 28.7733 30.8333 28.6933 30.7 28.64C31.34 27.8 31.84 26.9067 32.2 25.96C32.5733 25 32.8533 24.0267 33.04 23.04C33.2267 22.04 33.3467 21.0667 33.4 20.12C33.4667 19.1733 33.5 18.2867 33.5 17.46V12.96ZM45.6 12.56C45.6933 14.2533 45.8133 15.9 45.96 17.5C46.12 19.1 46.34 20.5933 46.62 21.98C46.9 23.3667 47.2667 24.6067 47.72 25.7C48.1733 26.7933 48.7267 27.6933 49.38 28.4C49.26 28.48 49.1267 28.5933 48.98 28.74C48.8467 28.9 48.7133 29.0533 48.58 29.2C48.46 29.36 48.36 29.5067 48.28 29.64C47.56 28.8267 46.96 27.84 46.48 26.68C46 25.5067 45.6067 24.1867 45.3 22.72C45.0067 21.2533 44.7733 19.6733 44.6 17.98C44.44 16.2867 44.3067 14.5067 44.2 12.64L45.6 12.56ZM34.66 26.64C35.4333 26.56 36.3333 26.4733 37.36 26.38C38.3867 26.2867 39.48 26.1867 40.64 26.08C41.8 25.96 42.96 25.84 44.12 25.72L44.16 27.12C43.04 27.24 41.92 27.3667 40.8 27.5C39.68 27.62 38.6067 27.7333 37.58 27.84C36.5667 27.9333 35.6533 28.0267 34.84 28.12L34.66 26.64ZM42.04 22.94L43.24 22.64C43.5733 23.2933 43.8933 24.0067 44.2 24.78C44.5067 25.54 44.7867 26.28 45.04 27C45.2933 27.7067 45.48 28.3333 45.6 28.88L44.3 29.28C44.18 28.7467 44 28.12 43.76 27.4C43.52 26.6667 43.2467 25.9133 42.94 25.14C42.6467 24.3533 42.3467 23.62 42.04 22.94ZM45.92 11.44L47.18 12.64C46.34 12.8533 45.4 13.06 44.36 13.26C43.3333 13.4467 42.26 13.6333 41.14 13.82C40.02 13.9933 38.8867 14.1533 37.74 14.3C36.5933 14.4333 35.48 14.5533 34.4 14.66C34.3733 14.4867 34.3133 14.28 34.22 14.04C34.14 13.7867 34.06 13.58 33.98 13.42C35.0467 13.3133 36.1333 13.1867 37.24 13.04C38.36 12.8933 39.4533 12.74 40.52 12.58C41.5867 12.4067 42.58 12.2267 43.5 12.04C44.42 11.84 45.2267 11.64 45.92 11.44Z" fill="black"/>
</svg>
