<svg width="59" height="40" viewBox="0 0 59 40" fill="none" xmlns="http://www.w3.org/2000/svg">
<rect x="0.5" y="0.5" width="58" height="39" fill="white"/>
<rect x="0.5" y="0.5" width="58" height="39" stroke="black"/>
<path d="M12.02 12.5H28V13.98H12.02V12.5ZM11.04 27.34H28.98V28.8H11.04V27.34ZM19.08 13.06H20.68V28.26H19.08V13.06ZM22.5 22.72L23.58 21.88C23.9933 22.2533 24.4333 22.66 24.9 23.1C25.38 23.54 25.8333 23.9733 26.26 24.4C26.6867 24.8133 27.04 25.18 27.32 25.5L26.18 26.5C25.9133 26.1667 25.5667 25.78 25.14 25.34C24.7267 24.9 24.2867 24.4533 23.82 24C23.3533 23.5333 22.9133 23.1067 22.5 22.72ZM12.88 19.46H27.24V20.92H12.88V19.46ZM31.16 18.9H48.82V20.4H31.16V18.9ZM39.18 11.22H40.76V29.6H39.18V11.22ZM46.26 12.18L47.88 12.84C47.56 13.4 47.2133 13.9867 46.84 14.6C46.4667 15.2133 46.0867 15.8 45.7 16.36C45.3133 16.92 44.9533 17.4067 44.62 17.82L43.34 17.22C43.6733 16.78 44.02 16.2667 44.38 15.68C44.74 15.0933 45.0867 14.4933 45.42 13.88C45.7533 13.2667 46.0333 12.7 46.26 12.18ZM32.32 12.94L33.68 12.36C34.08 12.8267 34.4667 13.34 34.84 13.9C35.2133 14.46 35.5467 15.0133 35.84 15.56C36.1467 16.1067 36.38 16.5933 36.54 17.02L35.06 17.68C34.9267 17.2533 34.7133 16.7667 34.42 16.22C34.14 15.6733 33.8133 15.1133 33.44 14.54C33.08 13.9667 32.7067 13.4333 32.32 12.94ZM38.44 19.64L39.74 20.16C39.2867 21.0133 38.7533 21.8533 38.14 22.68C37.54 23.5067 36.8867 24.2933 36.18 25.04C35.4867 25.7867 34.7667 26.4667 34.02 27.08C33.2867 27.6933 32.5533 28.2267 31.82 28.68C31.7267 28.56 31.6133 28.42 31.48 28.26C31.36 28.1 31.2267 27.9467 31.08 27.8C30.9467 27.6533 30.82 27.5267 30.7 27.42C31.4333 27.0333 32.1667 26.56 32.9 26C33.6333 25.4267 34.34 24.7933 35.02 24.1C35.7133 23.4067 36.3533 22.6867 36.94 21.94C37.5267 21.18 38.0267 20.4133 38.44 19.64ZM41.44 19.56C41.8667 20.3067 42.38 21.0533 42.98 21.8C43.58 22.5467 44.2333 23.26 44.94 23.94C45.6467 24.62 46.3733 25.24 47.12 25.8C47.88 26.36 48.6267 26.8333 49.36 27.22C49.2267 27.3133 49.0867 27.44 48.94 27.6C48.8067 27.7467 48.6733 27.9 48.54 28.06C48.4067 28.22 48.3 28.3667 48.22 28.5C47.4733 28.06 46.72 27.5333 45.96 26.92C45.2133 26.2933 44.4867 25.6133 43.78 24.88C43.0733 24.1333 42.4067 23.36 41.78 22.56C41.1667 21.7467 40.6267 20.9267 40.16 20.1L41.44 19.56Z" fill="black"/>
</svg>
