<svg width="59" height="40" viewBox="0 0 59 40" fill="none" xmlns="http://www.w3.org/2000/svg">
<rect x="0.5" y="0.5" width="58" height="39" fill="white"/>
<rect x="0.5" y="0.5" width="58" height="39" stroke="black"/>
<path d="M19.14 11.62H20.7V27.08H19.14V11.62ZM12.1 15.98H13.62V29.36H12.1V15.98ZM26.44 15.96H27.96V29.28H26.44V15.96ZM12.86 26.2H27.1V27.74H12.86V26.2ZM41.3 17.56H47.22V18.88H41.3V17.56ZM40.84 21.38L42.06 20.92C42.3933 21.32 42.7067 21.76 43 22.24C43.3067 22.7067 43.58 23.1667 43.82 23.62C44.06 24.0733 44.2333 24.4867 44.34 24.86L43.02 25.4C42.9133 25.04 42.7467 24.6267 42.52 24.16C42.2933 23.6933 42.0333 23.22 41.74 22.74C41.46 22.2467 41.16 21.7933 40.84 21.38ZM46.88 17.56H48.34C48.34 17.56 48.34 17.6067 48.34 17.7C48.34 17.7933 48.34 17.9 48.34 18.02C48.34 18.1267 48.3333 18.22 48.32 18.3C48.2533 20.0733 48.18 21.58 48.1 22.82C48.02 24.06 47.9333 25.08 47.84 25.88C47.76 26.68 47.6533 27.3 47.52 27.74C47.4 28.18 47.26 28.5067 47.1 28.72C46.9133 28.96 46.7133 29.1267 46.5 29.22C46.2867 29.3267 46.02 29.3933 45.7 29.42C45.42 29.4467 45.06 29.46 44.62 29.46C44.18 29.46 43.72 29.4467 43.24 29.42C43.2133 29.1933 43.16 28.9467 43.08 28.68C43 28.4133 42.9 28.18 42.78 27.98C43.2867 28.02 43.7467 28.04 44.16 28.04C44.5867 28.0533 44.8933 28.06 45.08 28.06C45.2667 28.0733 45.4133 28.06 45.52 28.02C45.6267 27.98 45.7267 27.9067 45.82 27.8C45.9533 27.6533 46.0667 27.3733 46.16 26.96C46.2667 26.5467 46.36 25.9533 46.44 25.18C46.5333 24.4067 46.6133 23.42 46.68 22.22C46.7467 21.02 46.8133 19.5667 46.88 17.86V17.56ZM41.44 15.3L42.86 15.62C42.5 16.7667 42.0333 17.8733 41.46 18.94C40.8867 20.0067 40.28 20.9133 39.64 21.66C39.5467 21.58 39.42 21.4867 39.26 21.38C39.1133 21.2733 38.96 21.1667 38.8 21.06C38.6533 20.9533 38.52 20.8733 38.4 20.82C39.0533 20.14 39.6467 19.3133 40.18 18.34C40.7133 17.3533 41.1333 16.34 41.44 15.3ZM35.76 11.2H37.22V15.58H35.76V11.2ZM42.66 11.2H44.12V15.48H42.66V11.2ZM31.24 12.84H48.82V14.18H31.24V12.84ZM31.58 21.54C31.5667 21.4333 31.5333 21.3 31.48 21.14C31.4267 20.98 31.3667 20.8133 31.3 20.64C31.2467 20.4667 31.1933 20.32 31.14 20.2C31.3 20.1733 31.4667 20.0867 31.64 19.94C31.8133 19.7933 32 19.6 32.2 19.36C32.3333 19.2133 32.5533 18.94 32.86 18.54C33.1667 18.14 33.4933 17.6667 33.84 17.12C34.2 16.5733 34.52 16.0133 34.8 15.44L36.12 16.02C35.5867 16.9133 35 17.78 34.36 18.62C33.7333 19.46 33.1067 20.18 32.48 20.78V20.82C32.48 20.82 32.4333 20.84 32.34 20.88C32.2467 20.92 32.14 20.98 32.02 21.06C31.9 21.1267 31.7933 21.2067 31.7 21.3C31.62 21.38 31.58 21.46 31.58 21.54ZM31.58 21.54L31.56 20.46L32.32 20.02L36.24 19.78C36.2 19.98 36.16 20.2 36.12 20.44C36.0933 20.6667 36.08 20.8533 36.08 21C35.1867 21.0667 34.46 21.1267 33.9 21.18C33.3533 21.2333 32.9267 21.28 32.62 21.32C32.3133 21.36 32.08 21.4 31.92 21.44C31.7733 21.4667 31.66 21.5 31.58 21.54ZM31.74 25.48C31.7267 25.3867 31.6933 25.26 31.64 25.1C31.6 24.94 31.5533 24.78 31.5 24.62C31.4467 24.4467 31.3867 24.3 31.32 24.18C31.5333 24.14 31.7667 24.0267 32.02 23.84C32.2733 23.6533 32.5533 23.4067 32.86 23.1C33.0333 22.9533 33.28 22.7133 33.6 22.38C33.9333 22.0467 34.3067 21.6467 34.72 21.18C35.1467 20.7 35.5733 20.1867 36 19.64C36.44 19.08 36.8467 18.5267 37.22 17.98L38.44 18.64C37.56 19.8133 36.62 20.9333 35.62 22C34.6333 23.0533 33.6467 23.9733 32.66 24.76V24.8C32.66 24.8 32.6133 24.82 32.52 24.86C32.4267 24.9 32.32 24.96 32.2 25.04C32.08 25.1067 31.9733 25.18 31.88 25.26C31.7867 25.34 31.74 25.4133 31.74 25.48ZM31.74 25.48L31.7 24.32L32.5 23.84L38.46 23.14C38.4333 23.34 38.4133 23.5667 38.4 23.82C38.3867 24.06 38.38 24.2533 38.38 24.4C37.02 24.5867 35.9267 24.74 35.1 24.86C34.2733 24.9667 33.6333 25.06 33.18 25.14C32.74 25.2067 32.42 25.2667 32.22 25.32C32.02 25.3733 31.86 25.4267 31.74 25.48ZM31.12 27.42C31.7467 27.34 32.4667 27.24 33.28 27.12C34.0933 27 34.96 26.8667 35.88 26.72C36.8133 26.5733 37.7467 26.4267 38.68 26.28L38.76 27.6C37.4267 27.8133 36.1133 28.0267 34.82 28.24C33.5267 28.4667 32.38 28.66 31.38 28.82L31.12 27.42Z" fill="black"/>
</svg>
