<svg width="59" height="40" viewBox="0 0 59 40" fill="none" xmlns="http://www.w3.org/2000/svg">
<rect x="0.5" y="0.5" width="58" height="39" fill="white"/>
<rect x="0.5" y="0.5" width="58" height="39" stroke="black"/>
<path d="M14.16 11.18L15.72 11.5C15.4267 12.6733 15.08 13.8133 14.68 14.92C14.2933 16.0267 13.86 17.0667 13.38 18.04C12.9133 19 12.4067 19.8533 11.86 20.6C11.78 20.52 11.6533 20.42 11.48 20.3C11.3067 20.18 11.1333 20.0667 10.96 19.96C10.7867 19.84 10.64 19.7467 10.52 19.68C11.0667 19 11.5667 18.2067 12.02 17.3C12.4733 16.3933 12.88 15.42 13.24 14.38C13.6133 13.3267 13.92 12.26 14.16 11.18ZM13.54 15.26H20V16.76H12.78L13.54 15.26ZM21.88 11.18L23.38 11.48C23.1 12.64 22.7667 13.78 22.38 14.9C22.0067 16.0067 21.5867 17.0467 21.12 18.02C20.6533 18.98 20.1467 19.8267 19.6 20.56C19.52 20.48 19.4 20.38 19.24 20.26C19.08 20.14 18.92 20.0267 18.76 19.92C18.6 19.8133 18.46 19.7267 18.34 19.66C18.8733 18.98 19.36 18.1867 19.8 17.28C20.2533 16.3733 20.6533 15.4 21 14.36C21.3467 13.32 21.64 12.26 21.88 11.18ZM21.68 15.26H29.22V16.76H20.94L21.68 15.26ZM14.94 15.92H16.44V29.6H14.94V15.92ZM24.64 15.84H26.18V27.62C26.18 28.1 26.12 28.4667 26 28.72C25.88 28.9733 25.6467 29.1667 25.3 29.3C24.9933 29.42 24.56 29.4933 24 29.52C23.44 29.56 22.7667 29.58 21.98 29.58C21.94 29.3533 21.8667 29.0867 21.76 28.78C21.6667 28.4867 21.56 28.22 21.44 27.98C21.8667 27.9933 22.2667 28.0067 22.64 28.02C23.0133 28.0333 23.34 28.0333 23.62 28.02C23.9 28.02 24.1 28.02 24.22 28.02C24.3933 28.0067 24.5067 27.9733 24.56 27.92C24.6133 27.8533 24.64 27.7467 24.64 27.6V15.84ZM31.06 20.2H49.08V21.52H31.06V20.2ZM33.24 23.72H46.28V25.06H33.24V23.72ZM33.48 16.72H47.06V26.32H45.56V18.04H33.48V16.72ZM38.94 17.28H40.4V21.68C40.4 22.4667 40.3 23.2467 40.1 24.02C39.9 24.78 39.5267 25.5067 38.98 26.2C38.4333 26.8933 37.6467 27.5333 36.62 28.12C35.5933 28.72 34.2467 29.2333 32.58 29.66C32.5267 29.54 32.4533 29.4 32.36 29.24C32.2667 29.08 32.1667 28.92 32.06 28.76C31.9533 28.6133 31.8467 28.4933 31.74 28.4C33.3267 28 34.5933 27.5467 35.54 27.04C36.5 26.52 37.22 25.9733 37.7 25.4C38.1933 24.8133 38.52 24.2067 38.68 23.58C38.8533 22.94 38.94 22.2867 38.94 21.62V17.28ZM33.26 12.96H39.72V14.26H33.26V12.96ZM41.08 12.96H48.82V14.26H41.08V12.96ZM33.68 11.1L35.12 11.48C34.88 12.1467 34.5867 12.8067 34.24 13.46C33.9067 14.1 33.5467 14.7067 33.16 15.28C32.7733 15.8533 32.38 16.3533 31.98 16.78C31.8867 16.7 31.76 16.6133 31.6 16.52C31.4533 16.4133 31.3 16.3067 31.14 16.2C30.98 16.0933 30.84 16.0133 30.72 15.96C31.3333 15.3467 31.9 14.6133 32.42 13.76C32.94 12.8933 33.36 12.0067 33.68 11.1ZM41.56 11.1L43 11.46C42.6533 12.46 42.1933 13.4067 41.62 14.3C41.06 15.1933 40.46 15.9533 39.82 16.58C39.7267 16.4867 39.6 16.3867 39.44 16.28C39.2933 16.1733 39.14 16.0667 38.98 15.96C38.82 15.8533 38.68 15.7733 38.56 15.72C39.2133 15.16 39.8 14.4733 40.32 13.66C40.8533 12.8467 41.2667 11.9933 41.56 11.1ZM34.8 13.94L36.06 13.52C36.3267 13.9067 36.5867 14.34 36.84 14.82C37.0933 15.2867 37.28 15.6933 37.4 16.04L36.06 16.52C35.9667 16.1733 35.7933 15.76 35.54 15.28C35.3 14.7867 35.0533 14.34 34.8 13.94ZM43.14 13.94L44.4 13.44C44.7333 13.8133 45.0667 14.24 45.4 14.72C45.7333 15.2 45.9733 15.62 46.12 15.98L44.78 16.54C44.6467 16.18 44.42 15.76 44.1 15.28C43.78 14.7867 43.46 14.34 43.14 13.94Z" fill="black"/>
</svg>
