<svg width="59" height="40" viewBox="0 0 59 40" fill="none" xmlns="http://www.w3.org/2000/svg">
<rect x="0.5" y="0.5" width="58" height="39" fill="white"/>
<rect x="0.5" y="0.5" width="58" height="39" stroke="black"/>
<path d="M18.56 24.38H26.12V25.7H18.56V24.38ZM11.02 13.5H17.32V14.86H11.02V13.5ZM16.74 13.5H17L17.24 13.44L18.16 13.74C17.8667 15.9533 17.4 17.98 16.76 19.82C16.1333 21.6467 15.38 23.2467 14.5 24.62C13.62 25.9933 12.6533 27.12 11.6 28C11.48 27.8133 11.32 27.6133 11.12 27.4C10.92 27.1733 10.7333 27 10.56 26.88C11.2933 26.32 11.9867 25.6067 12.64 24.74C13.3067 23.86 13.9133 22.8533 14.46 21.72C15.0067 20.5867 15.4733 19.3533 15.86 18.02C16.26 16.6867 16.5533 15.2933 16.74 13.84V13.5ZM11.36 16.98L12.44 16.24C12.9467 16.92 13.46 17.6467 13.98 18.42C14.5133 19.1933 15.0267 19.9733 15.52 20.76C16.0133 21.5467 16.46 22.2933 16.86 23C17.2733 23.7067 17.6067 24.3467 17.86 24.92L16.66 25.84C16.4067 25.28 16.0867 24.6333 15.7 23.9C15.3133 23.1667 14.8733 22.4067 14.38 21.62C13.9 20.82 13.4 20.02 12.88 19.22C12.3733 18.42 11.8667 17.6733 11.36 16.98ZM27.2 21.22H28.62C28.62 21.22 28.62 21.3 28.62 21.46C28.62 21.6067 28.62 21.7333 28.62 21.84C28.5533 23.4133 28.48 24.68 28.4 25.64C28.3333 26.6 28.2467 27.3267 28.14 27.82C28.0467 28.3133 27.9133 28.6533 27.74 28.84C27.5933 29.04 27.4133 29.18 27.2 29.26C27 29.34 26.76 29.3933 26.48 29.42C26.24 29.4467 25.8933 29.4533 25.44 29.44C25 29.4267 24.54 29.4133 24.06 29.4C24.0467 29.2133 24.0067 29 23.94 28.76C23.8733 28.5333 23.7867 28.34 23.68 28.18C24.16 28.2067 24.6 28.2267 25 28.24C25.4133 28.2533 25.7 28.26 25.86 28.26C26.0333 28.26 26.1667 28.2467 26.26 28.22C26.3533 28.1933 26.44 28.1333 26.52 28.04C26.64 27.9067 26.74 27.6133 26.82 27.16C26.9 26.7067 26.9667 26.02 27.02 25.1C27.0867 24.18 27.1467 22.9667 27.2 21.46V21.22ZM22.58 11.12L24.16 11.38C23.9467 11.82 23.72 12.26 23.48 12.7C23.24 13.1267 23.02 13.4933 22.82 13.8L21.6 13.54C21.7867 13.1933 21.9733 12.7933 22.16 12.34C22.3467 11.8733 22.4867 11.4667 22.58 11.12ZM26.06 13.08H27.44C27.44 13.08 27.44 13.1533 27.44 13.3C27.44 13.4467 27.4333 13.5667 27.42 13.66C27.3667 14.9267 27.3 15.9533 27.22 16.74C27.1533 17.5267 27.0733 18.1267 26.98 18.54C26.8867 18.9533 26.7667 19.2467 26.62 19.42C26.4733 19.5933 26.3133 19.7133 26.14 19.78C25.9667 19.8467 25.76 19.8933 25.52 19.92C25.32 19.9333 25.0467 19.94 24.7 19.94C24.3667 19.94 24.0133 19.9333 23.64 19.92C23.6267 19.7333 23.5867 19.5267 23.52 19.3C23.4667 19.0733 23.3933 18.88 23.3 18.72C23.6467 18.7467 23.96 18.7667 24.24 18.78C24.5333 18.78 24.7467 18.78 24.88 18.78C25 18.78 25.1067 18.7733 25.2 18.76C25.2933 18.7333 25.3733 18.68 25.44 18.6C25.5333 18.48 25.6133 18.24 25.68 17.88C25.76 17.5067 25.8267 16.9533 25.88 16.22C25.9467 15.4867 26.0067 14.5133 26.06 13.3V13.08ZM21.66 15.82L22.52 15.14C22.92 15.4467 23.3267 15.8 23.74 16.2C24.1667 16.5867 24.4933 16.9333 24.72 17.24L23.84 18C23.6133 17.6933 23.2867 17.3333 22.86 16.92C22.4467 16.5067 22.0467 16.14 21.66 15.82ZM26.8 13.08V14.28H20.64V21.22H27.8V22.42H19.22V13.08H26.8ZM31.92 12.52L32.76 11.46C33.1867 11.6467 33.62 11.86 34.06 12.1C34.5133 12.34 34.94 12.5867 35.34 12.84C35.7533 13.0933 36.0867 13.3333 36.34 13.56L35.44 14.76C35.1867 14.52 34.86 14.2667 34.46 14C34.0733 13.7333 33.6533 13.4733 33.2 13.22C32.76 12.9533 32.3333 12.72 31.92 12.52ZM30.92 18.02L31.76 16.94C32.1867 17.1133 32.62 17.32 33.06 17.56C33.5133 17.8 33.94 18.0467 34.34 18.3C34.7533 18.5533 35.0867 18.7933 35.34 19.02L34.46 20.24C34.2067 20.0133 33.88 19.7667 33.48 19.5C33.0933 19.2333 32.6733 18.9733 32.22 18.72C31.7667 18.4533 31.3333 18.22 30.92 18.02ZM31.48 28.32C31.7867 27.8133 32.1267 27.2067 32.5 26.5C32.8867 25.78 33.2667 25.02 33.64 24.22C34.0267 23.42 34.38 22.6467 34.7 21.9L35.9 22.78C35.6067 23.4733 35.2867 24.2 34.94 24.96C34.5933 25.72 34.2333 26.4667 33.86 27.2C33.5 27.92 33.1533 28.5867 32.82 29.2L31.48 28.32ZM36.88 12.14H45.8V13.56H36.88V12.14ZM47.3 17.66H48.8C48.8 17.66 48.7933 17.7067 48.78 17.8C48.78 17.8933 48.78 18 48.78 18.12C48.78 18.2267 48.7733 18.32 48.76 18.4C48.6533 20.1467 48.54 21.6333 48.42 22.86C48.3133 24.0867 48.1933 25.0933 48.06 25.88C47.94 26.6667 47.8067 27.2867 47.66 27.74C47.5133 28.18 47.3533 28.5067 47.18 28.72C46.98 28.9733 46.7733 29.1467 46.56 29.24C46.36 29.3333 46.1133 29.3933 45.82 29.42C45.5667 29.4467 45.2467 29.4533 44.86 29.44C44.4867 29.44 44.0867 29.4333 43.66 29.42C43.66 29.2067 43.62 28.96 43.54 28.68C43.4733 28.4133 43.38 28.1867 43.26 28C43.6733 28.04 44.0533 28.06 44.4 28.06C44.7467 28.0733 45.0067 28.08 45.18 28.08C45.34 28.0933 45.4733 28.08 45.58 28.04C45.6867 28 45.7867 27.92 45.88 27.8C46.08 27.6 46.26 27.1533 46.42 26.46C46.5933 25.7667 46.7467 24.74 46.88 23.38C47.0267 22.0067 47.1667 20.2 47.3 17.96V17.66ZM37.62 19.32C37.5933 19.2 37.54 19.0533 37.46 18.88C37.3933 18.7067 37.3133 18.5333 37.22 18.36C37.14 18.1733 37.0667 18.02 37 17.9C37.2667 17.8467 37.5933 17.7333 37.98 17.56C38.38 17.3733 38.7867 17.1533 39.2 16.9C39.4133 16.7667 39.74 16.56 40.18 16.28C40.6333 16 41.14 15.66 41.7 15.26C42.2733 14.8467 42.86 14.4 43.46 13.92C44.0733 13.44 44.64 12.9467 45.16 12.44V12.34L45.9 12.02L47.02 12.88C45.58 14.0933 44.1667 15.1867 42.78 16.16C41.3933 17.12 40.0467 17.9267 38.74 18.58V18.64C38.74 18.64 38.68 18.66 38.56 18.7C38.4533 18.74 38.3267 18.7933 38.18 18.86C38.0333 18.9267 37.9 19 37.78 19.08C37.6733 19.16 37.62 19.24 37.62 19.32ZM37.62 19.32V18.06L38.48 17.66H47.8V19.08H39.42C38.94 19.08 38.54 19.1 38.22 19.14C37.9133 19.18 37.7133 19.24 37.62 19.32ZM44.42 18.44L45.78 18.74C45.06 21.1933 44.0667 23.3333 42.8 25.16C41.5467 26.9733 40.02 28.4533 38.22 29.6C38.14 29.52 38.0267 29.42 37.88 29.3C37.7467 29.18 37.6 29.0667 37.44 28.96C37.2933 28.8533 37.16 28.7667 37.04 28.7C38.88 27.6467 40.4067 26.2533 41.62 24.52C42.8467 22.7733 43.78 20.7467 44.42 18.44ZM40.62 18.56L41.98 18.88C41.5133 20.24 40.86 21.46 40.02 22.54C39.18 23.62 38.26 24.52 37.26 25.24C37.18 25.16 37.0667 25.0667 36.92 24.96C36.7867 24.84 36.64 24.7267 36.48 24.62C36.3333 24.5133 36.2067 24.42 36.1 24.34C37.1133 23.7133 38.0133 22.9 38.8 21.9C39.6 20.9 40.2067 19.7867 40.62 18.56Z" fill="black"/>
</svg>
