<svg width="59" height="40" viewBox="0 0 59 40" fill="none" xmlns="http://www.w3.org/2000/svg">
<rect x="0.5" y="0.5" width="58" height="39" fill="white"/>
<rect x="0.5" y="0.5" width="58" height="39" stroke="black"/>
<path d="M11.14 12.6H28.88V13.86H11.14V12.6ZM15.78 11.2H17.26V15.32H15.78V11.2ZM22.64 11.2H24.14V15.28H22.64V11.2ZM14.98 20.32V26.56H13.58V21.6H11.06V20.32H14.98ZM11.3 16.12L12.38 15.4C12.7133 15.6533 13.06 15.94 13.42 16.26C13.78 16.5667 14.1133 16.88 14.42 17.2C14.7267 17.5067 14.9667 17.7867 15.14 18.04L14 18.88C13.8267 18.6267 13.5867 18.34 13.28 18.02C12.9867 17.6867 12.6667 17.3533 12.32 17.02C11.9733 16.6867 11.6333 16.3867 11.3 16.12ZM14.34 25.88C14.6733 25.88 14.9867 26 15.28 26.24C15.5733 26.4667 15.9933 26.7533 16.54 27.1C17.2067 27.5133 17.9667 27.78 18.82 27.9C19.6867 28.02 20.6733 28.08 21.78 28.08C22.38 28.08 23 28.0667 23.64 28.04C24.2933 28.0267 24.9533 28.0067 25.62 27.98C26.2867 27.94 26.9267 27.9 27.54 27.86C28.1667 27.8067 28.7333 27.7533 29.24 27.7C29.1867 27.82 29.1267 27.9667 29.06 28.14C29.0067 28.3133 28.96 28.4867 28.92 28.66C28.88 28.8467 28.8533 29.0133 28.84 29.16C28.48 29.1733 28.0133 29.1933 27.44 29.22C26.8667 29.2467 26.24 29.2667 25.56 29.28C24.8933 29.3067 24.2267 29.3267 23.56 29.34C22.8933 29.3533 22.2933 29.36 21.76 29.36C20.52 29.36 19.46 29.28 18.58 29.12C17.7133 28.9733 16.9333 28.6867 16.24 28.26C15.8533 28.0067 15.4933 27.7533 15.16 27.5C14.8267 27.2333 14.5467 27.1 14.32 27.1C14.1067 27.1 13.86 27.22 13.58 27.46C13.3133 27.6867 13.02 27.9867 12.7 28.36C12.3933 28.7333 12.08 29.14 11.76 29.58L10.82 28.36C11.46 27.64 12.0867 27.0467 12.7 26.58C13.3133 26.1133 13.86 25.88 14.34 25.88ZM16.18 23.66H28.86V24.98H16.18V23.66ZM16.4 16.6H28.44V17.88H16.4V16.6ZM22.32 18.66H23.78V27.42H22.32V18.66ZM17.66 21.84C17.6333 21.7333 17.5933 21.5933 17.54 21.42C17.4867 21.2467 17.4267 21.0733 17.36 20.9C17.3067 20.7267 17.2467 20.5733 17.18 20.44C17.34 20.4 17.5 20.2933 17.66 20.12C17.82 19.9467 17.9867 19.7267 18.16 19.46C18.2933 19.2733 18.4867 18.9467 18.74 18.48C19.0067 18 19.2867 17.4467 19.58 16.82C19.8867 16.18 20.1533 15.54 20.38 14.9L21.88 15.34C21.4533 16.38 20.9533 17.4067 20.38 18.42C19.82 19.4333 19.2667 20.3 18.72 21.02V21.04C18.72 21.04 18.6667 21.0667 18.56 21.12C18.4533 21.1733 18.3267 21.2467 18.18 21.34C18.0467 21.42 17.9267 21.5067 17.82 21.6C17.7133 21.68 17.66 21.76 17.66 21.84ZM17.66 21.84V20.72L18.5 20.28H27.84V21.56H19.44C18.96 21.56 18.5667 21.5867 18.26 21.64C17.9533 21.68 17.7533 21.7467 17.66 21.84ZM31.16 12.68H48.96V14.02H31.16V12.68ZM35.86 11.2H37.34V15.36H35.86V11.2ZM42.58 11.2H44.06V15.36H42.58V11.2ZM31.04 21.78H38.6V23.02H31.04V21.78ZM31.54 19.18H38.22V20.4H31.54V19.18ZM34.2 15.08H35.62V29.6H34.2V15.08ZM43.02 16.12H44.2V26.4H43.02V16.12ZM40.84 19.32V20.78H46.5V19.32H40.84ZM40.84 16.88V18.32H46.5V16.88H40.84ZM39.56 15.84H47.82V21.82H39.56V15.84ZM45.06 24.94L45.78 24.72C46.0467 25.16 46.2867 25.64 46.5 26.16C46.7133 26.68 46.86 27.1333 46.94 27.52L46.12 27.78C46.0667 27.3933 45.9333 26.9333 45.72 26.4C45.52 25.8667 45.3 25.38 45.06 24.94ZM37.76 16L38.78 17C38.1133 17.1867 37.36 17.3533 36.52 17.5C35.6933 17.6467 34.8333 17.7733 33.94 17.88C33.0467 17.9733 32.18 18.0533 31.34 18.12C31.3267 17.9733 31.28 17.8 31.2 17.6C31.12 17.3867 31.0467 17.2133 30.98 17.08C31.78 17 32.6 16.9067 33.44 16.8C34.2933 16.6933 35.1 16.5733 35.86 16.44C36.62 16.3067 37.2533 16.16 37.76 16ZM34.14 22.32L35.14 22.66C34.9 23.42 34.5933 24.18 34.22 24.94C33.8467 25.6867 33.4333 26.38 32.98 27.02C32.54 27.66 32.0933 28.1933 31.64 28.62C31.52 28.46 31.36 28.2733 31.16 28.06C30.96 27.8467 30.78 27.6733 30.62 27.54C31.0867 27.18 31.54 26.72 31.98 26.16C32.42 25.6 32.8267 24.9867 33.2 24.32C33.5867 23.6533 33.9 22.9867 34.14 22.32ZM35.56 23.58C35.6933 23.6733 35.9 23.84 36.18 24.08C36.46 24.32 36.76 24.5867 37.08 24.88C37.4 25.16 37.6933 25.42 37.96 25.66C38.24 25.9 38.4333 26.0733 38.54 26.18L37.62 27.24C37.4867 27.0667 37.2933 26.84 37.04 26.56C36.8 26.28 36.5333 25.9933 36.24 25.7C35.96 25.3933 35.6867 25.1067 35.42 24.84C35.1533 24.5733 34.9333 24.36 34.76 24.2L35.56 23.58ZM38.92 22.9H47.76V24H40.18V29.64H38.92V22.9ZM40.64 26.14C41.3467 26.1133 42.1867 26.0733 43.16 26.02C44.1333 25.9533 45.1467 25.88 46.2 25.8V26.84C45.2133 26.92 44.2533 27 43.32 27.08C42.4 27.16 41.5533 27.2333 40.78 27.3L40.64 26.14ZM47.26 22.9H48.52V28.34C48.52 28.6467 48.48 28.88 48.4 29.04C48.3333 29.2133 48.1867 29.3467 47.96 29.44C47.7333 29.52 47.44 29.5667 47.08 29.58C46.7333 29.6067 46.2867 29.62 45.74 29.62C45.7133 29.46 45.66 29.2867 45.58 29.1C45.5133 28.9133 45.44 28.74 45.36 28.58C45.7467 28.5933 46.0867 28.6 46.38 28.6C46.6867 28.6 46.8933 28.5933 47 28.58C47.1733 28.58 47.26 28.5 47.26 28.34V22.9Z" fill="black"/>
</svg>
