<svg width="59" height="40" viewBox="0 0 59 40" fill="none" xmlns="http://www.w3.org/2000/svg">
<rect x="0.5" y="0.5" width="58" height="39" fill="white"/>
<rect x="0.5" y="0.5" width="58" height="39" stroke="black"/>
<path d="M14.1 21.68H26.2V29.56H24.66V22.9H15.58V29.6H14.1V21.68ZM14.98 24.68H25.18V25.8H14.98V24.68ZM14.98 27.68H25.32V28.88H14.98V27.68ZM11.14 15.8H28.88V17.16H11.14V15.8ZM19.2 13.06H20.76V21.14H19.2V13.06ZM18.46 16.12L19.66 16.62C19.22 17.2733 18.6933 17.9067 18.08 18.52C17.4667 19.1333 16.8067 19.7067 16.1 20.24C15.4067 20.7733 14.6867 21.26 13.94 21.7C13.2067 22.14 12.4733 22.5067 11.74 22.8C11.6733 22.6667 11.58 22.5267 11.46 22.38C11.3533 22.2333 11.2333 22.0933 11.1 21.96C10.98 21.8133 10.86 21.6867 10.74 21.58C11.46 21.3267 12.1867 21.0067 12.92 20.62C13.6667 20.2333 14.38 19.8 15.06 19.32C15.7533 18.84 16.3933 18.3333 16.98 17.8C17.5667 17.2533 18.06 16.6933 18.46 16.12ZM21.48 16.16C21.8933 16.6933 22.4 17.22 23 17.74C23.6133 18.2467 24.2667 18.7267 24.96 19.18C25.6533 19.6333 26.3733 20.0467 27.12 20.42C27.8667 20.7933 28.5933 21.1067 29.3 21.36C29.1933 21.4533 29.0733 21.5733 28.94 21.72C28.82 21.8667 28.7 22.0133 28.58 22.16C28.4733 22.3067 28.3867 22.44 28.32 22.56C27.6 22.28 26.8667 21.9333 26.12 21.52C25.3867 21.0933 24.66 20.6267 23.94 20.12C23.2333 19.6 22.5667 19.0533 21.94 18.48C21.3133 17.8933 20.7667 17.3 20.3 16.7L21.48 16.16ZM25.56 11.34L26.7 12.54C25.8333 12.7667 24.8533 12.9667 23.76 13.14C22.68 13.3133 21.54 13.4667 20.34 13.6C19.14 13.7333 17.9267 13.8467 16.7 13.94C15.4733 14.02 14.2867 14.0867 13.14 14.14C13.1267 13.9533 13.08 13.74 13 13.5C12.92 13.2467 12.84 13.0333 12.76 12.86C13.8933 12.8067 15.06 12.7333 16.26 12.64C17.46 12.5467 18.6333 12.44 19.78 12.32C20.9267 12.1867 21.9933 12.04 22.98 11.88C23.98 11.72 24.84 11.54 25.56 11.34ZM31.14 12.88H48.88V14.3H31.14V12.88ZM35.88 11.2H37.36V16.34H35.88V11.2ZM42.56 11.2H44.04V16.34H42.56V11.2ZM43.24 16.1H44.74V23.5H43.24V16.1ZM40.72 27.28H47.56V28.6H40.72V27.28ZM30.88 18.8H37.94V20.16H30.88V18.8ZM39.24 18.7H49.04V20.04H39.24V18.7ZM40 22.8H48.28V29.48H46.82V24.1H41.38V29.6H40V22.8ZM34.42 16.02L35.86 16.26C35.6067 17.0067 35.3333 17.8 35.04 18.64C34.76 19.48 34.4667 20.32 34.16 21.16C33.8533 22 33.5533 22.8067 33.26 23.58C32.9667 24.3533 32.6933 25.0467 32.44 25.66L31.16 25.06C31.4133 24.4867 31.68 23.8267 31.96 23.08C32.2533 22.3333 32.5467 21.5533 32.84 20.74C33.1333 19.9133 33.4133 19.1 33.68 18.3C33.96 17.4867 34.2067 16.7267 34.42 16.02ZM32.04 24.2L32.86 23.12C33.4333 23.4 34.02 23.72 34.62 24.08C35.2333 24.4267 35.8267 24.7933 36.4 25.18C36.9867 25.5533 37.52 25.9333 38 26.32C38.4933 26.6933 38.9067 27.06 39.24 27.42L38.36 28.64C37.9333 28.1733 37.3733 27.6733 36.68 27.14C35.9867 26.6067 35.2333 26.0867 34.42 25.58C33.6067 25.06 32.8133 24.6 32.04 24.2ZM37.46 18.8H37.76L38.02 18.78L38.92 19.06C38.64 21.06 38.1867 22.7533 37.56 24.14C36.9467 25.5133 36.18 26.6467 35.26 27.54C34.34 28.4333 33.2933 29.1267 32.12 29.62C32.04 29.5133 31.9333 29.3933 31.8 29.26C31.6667 29.1267 31.5267 28.9933 31.38 28.86C31.2333 28.74 31.1 28.64 30.98 28.56C32.14 28.1067 33.16 27.48 34.04 26.68C34.92 25.88 35.6533 24.86 36.24 23.62C36.8267 22.38 37.2333 20.8733 37.46 19.1V18.8Z" fill="black"/>
</svg>
