<svg width="22" height="13" viewBox="0 0 22 13" fill="none" xmlns="http://www.w3.org/2000/svg">
<path d="M4.70403 12.672C3.66403 12.672 2.79203 12.424 2.08803 11.928C1.40003 11.432 0.880027 10.784 0.528027 9.984C0.192027 9.168 0.0160274 8.296 2.74181e-05 7.368C2.74181e-05 6.552 0.120027 5.728 0.360027 4.896C0.600027 4.048 0.976027 3.272 1.48803 2.568C2.00003 1.848 2.65603 1.272 3.45603 0.839998C4.25603 0.391998 5.21603 0.167998 6.33603 0.167998C7.39203 0.167998 8.26403 0.423998 8.95203 0.935998C9.65603 1.432 10.176 2.088 10.512 2.904C10.864 3.72 11.04 4.6 11.04 5.544C11.04 6.824 10.776 8.008 10.248 9.096C9.73603 10.168 9.00003 11.032 8.04003 11.688C7.09603 12.344 5.98403 12.672 4.70403 12.672ZM4.92003 11.184C5.75203 11.184 6.48803 10.936 7.12803 10.44C7.76803 9.928 8.27203 9.264 8.64003 8.448C9.00803 7.616 9.19203 6.72 9.19203 5.76C9.19203 4.592 8.94403 3.616 8.44803 2.832C7.96803 2.048 7.20803 1.656 6.16803 1.656C5.44803 1.656 4.81603 1.824 4.27203 2.16C3.74403 2.496 3.30403 2.936 2.95203 3.48C2.60003 4.024 2.33603 4.616 2.16003 5.256C2.00003 5.896 1.92003 6.52 1.92003 7.128C1.92003 8.296 2.16003 9.264 2.64003 10.032C3.12003 10.8 3.88003 11.184 4.92003 11.184ZM14.1102 12.672C13.8862 12.672 13.7182 12.64 13.6062 12.576C13.5102 12.512 13.4622 12.384 13.4622 12.192L14.8302 0.767998C14.8622 0.495998 14.9742 0.327998 15.1662 0.263998C15.3742 0.199998 15.6142 0.167998 15.8862 0.167998C16.1102 0.167998 16.2862 0.207998 16.4142 0.287998C16.5582 0.351998 16.6302 0.471998 16.6302 0.647998L16.3902 2.448H16.5102C16.9582 1.712 17.5422 1.12 18.2622 0.671998C18.9822 0.223998 19.7342 -1.43051e-06 20.5182 -1.43051e-06C20.8222 -1.43051e-06 21.0142 0.0479984 21.0942 0.143998C21.1742 0.239998 21.2142 0.359998 21.2142 0.503998C21.2142 0.871998 21.1422 1.144 20.9982 1.32C20.8702 1.496 20.7182 1.616 20.5422 1.68C20.3662 1.728 20.2222 1.752 20.1102 1.752C19.2942 1.752 18.5822 2.04 17.9742 2.616C17.3662 3.192 16.8782 3.928 16.5102 4.824C16.1582 5.72 15.9182 6.664 15.7902 7.656L15.2382 12.072C15.2062 12.328 15.0782 12.488 14.8542 12.552C14.6302 12.632 14.3822 12.672 14.1102 12.672Z" fill="black"/>
</svg>
