<svg width="113" height="40" viewBox="0 0 113 40" fill="none" xmlns="http://www.w3.org/2000/svg">
<rect x="0.5" y="0.5" width="112" height="39" fill="white"/>
<rect x="0.5" y="0.5" width="112" height="39" stroke="black"/>
<path d="M11.16 18.34H18.18V19.66H11.16V18.34ZM18.66 18.34H25.96V19.64H18.66V18.34ZM14.14 15.4H15.5V29.56H14.14V15.4ZM21.34 15.4H22.72V29.56H21.34V15.4ZM14 19.06L14.98 19.36C14.7267 20.32 14.4067 21.28 14.02 22.24C13.6467 23.1867 13.22 24.06 12.74 24.86C12.2733 25.6467 11.7867 26.3067 11.28 26.84C11.16 26.68 11.0067 26.5 10.82 26.3C10.6333 26.0867 10.4533 25.92 10.28 25.8C10.8 25.3467 11.2933 24.76 11.76 24.04C12.24 23.32 12.6733 22.5267 13.06 21.66C13.4467 20.7933 13.76 19.9267 14 19.06ZM21.2 19.06L22.14 19.36C21.86 20.3333 21.5133 21.3 21.1 22.26C20.6867 23.2067 20.2333 24.0867 19.74 24.9C19.2467 25.7 18.7333 26.3667 18.2 26.9C18.08 26.74 17.92 26.56 17.72 26.36C17.5333 26.16 17.3667 26 17.22 25.88C17.7533 25.4267 18.2733 24.8333 18.78 24.1C19.2867 23.3667 19.7467 22.5667 20.16 21.7C20.5867 20.82 20.9333 19.94 21.2 19.06ZM22.98 19C23.22 19.8267 23.5267 20.6733 23.9 21.54C24.2733 22.3933 24.6867 23.18 25.14 23.9C25.5933 24.62 26.0533 25.2133 26.52 25.68C26.36 25.8 26.18 25.96 25.98 26.16C25.78 26.36 25.6133 26.5533 25.48 26.74C25.04 26.1933 24.6 25.5133 24.16 24.7C23.7333 23.8867 23.3333 23.0133 22.96 22.08C22.6 21.1333 22.3 20.2067 22.06 19.3L22.98 19ZM15.34 20.26C15.4733 20.3667 15.68 20.5533 15.96 20.82C16.2533 21.0733 16.5667 21.36 16.9 21.68C17.2333 21.9867 17.5333 22.2733 17.8 22.54C18.08 22.8067 18.2733 23 18.38 23.12L17.58 24.32C17.42 24.12 17.2067 23.8667 16.94 23.56C16.6867 23.2533 16.4067 22.9333 16.1 22.6C15.7933 22.2667 15.5 21.96 15.22 21.68C14.9533 21.3867 14.7333 21.1533 14.56 20.98L15.34 20.26ZM16.82 11.2H18.36V14.4H16.82V11.2ZM9.98 13.5H25.96V14.94H9.98V13.5ZM9.08 13.5H10.58V18.92C10.58 19.68 10.5533 20.5133 10.5 21.42C10.46 22.3267 10.3733 23.26 10.24 24.22C10.12 25.1667 9.94 26.0933 9.7 27C9.46 27.8933 9.13333 28.72 8.72 29.48C8.64 29.3867 8.52 29.28 8.36 29.16C8.21333 29.04 8.05333 28.92 7.88 28.8C7.72 28.6933 7.58667 28.6133 7.48 28.56C7.85333 27.8533 8.14667 27.0933 8.36 26.28C8.57333 25.4533 8.73333 24.6133 8.84 23.76C8.94667 22.9067 9.01333 22.0667 9.04 21.24C9.06667 20.4133 9.08 19.64 9.08 18.92V13.5ZM31.22 11.18H32.66V14.4H31.22V11.18ZM40.16 11.18H41.62V29.62H40.16V11.18ZM28.14 13.8H35.64V15.08H28.14V13.8ZM36 13.54H46.06V14.88H36V13.54ZM27.88 19.24H35.84V20.5H27.88V19.24ZM29.14 15.7L30.26 15.38C30.4733 15.9 30.6467 16.4733 30.78 17.1C30.9133 17.7133 30.9933 18.24 31.02 18.68L29.82 19.04C29.7933 18.6 29.72 18.0667 29.6 17.44C29.48 16.8 29.3267 16.22 29.14 15.7ZM33.56 15.28L34.92 15.62C34.7067 16.2067 34.48 16.8267 34.24 17.48C34 18.12 33.78 18.66 33.58 19.1L32.5 18.78C32.6333 18.46 32.7667 18.1 32.9 17.7C33.0333 17.2867 33.16 16.8667 33.28 16.44C33.4 16.0133 33.4933 15.6267 33.56 15.28ZM27.8 23.58C28.48 23.4733 29.2533 23.3467 30.12 23.2C31 23.04 31.9267 22.8733 32.9 22.7C33.8733 22.5133 34.8467 22.3333 35.82 22.16L35.9 23.4C34.5267 23.6667 33.16 23.94 31.8 24.22C30.44 24.4867 29.22 24.7267 28.14 24.94L27.8 23.58ZM37.74 18V21.02H44.28V18H37.74ZM36.4 16.8H45.68V22.2H36.4V16.8ZM41.9 21.72C42.2467 22.4267 42.6733 23.1467 43.18 23.88C43.6867 24.6 44.2333 25.2733 44.82 25.9C45.42 26.5133 46 27.0133 46.56 27.4C46.4133 27.5333 46.2333 27.7133 46.02 27.94C45.82 28.1533 45.66 28.3533 45.54 28.54C44.9667 28.0733 44.3867 27.4933 43.8 26.8C43.2267 26.0933 42.68 25.3333 42.16 24.52C41.6533 23.7067 41.2133 22.9 40.84 22.1L41.9 21.72ZM39.84 21.74L41.02 22.2C40.6067 23.08 40.0933 23.9333 39.48 24.76C38.88 25.5867 38.22 26.3467 37.5 27.04C36.7933 27.72 36.08 28.28 35.36 28.72C35.28 28.6133 35.18 28.4867 35.06 28.34C34.94 28.2067 34.82 28.0733 34.7 27.94C34.58 27.8067 34.46 27.6933 34.34 27.6C35.06 27.2267 35.7667 26.7333 36.46 26.12C37.1667 25.4933 37.8133 24.8067 38.4 24.06C38.9867 23.3 39.4667 22.5267 39.84 21.74ZM31.22 19.74H32.66V23.1C32.66 23.6067 32.62 24.1533 32.54 24.74C32.46 25.3133 32.3067 25.8933 32.08 26.48C31.8667 27.0667 31.5533 27.6267 31.14 28.16C30.74 28.7067 30.2067 29.2 29.54 29.64C29.4867 29.5467 29.4 29.4333 29.28 29.3C29.1733 29.1667 29.06 29.04 28.94 28.92C28.82 28.8 28.7 28.7 28.58 28.62C29.1933 28.26 29.6733 27.8533 30.02 27.4C30.3667 26.9333 30.6267 26.4467 30.8 25.94C30.9733 25.4333 31.0867 24.94 31.14 24.46C31.1933 23.9667 31.22 23.5067 31.22 23.08V19.74ZM48.1 16.32H54.1V17.84H48.1V16.32ZM56.24 11.24H57.82V27.48C57.82 28.0133 57.74 28.4133 57.58 28.68C57.4333 28.9467 57.1933 29.1533 56.86 29.3C56.5267 29.42 56.06 29.5 55.46 29.54C54.86 29.5933 54.1 29.62 53.18 29.62C53.1533 29.46 53.1067 29.28 53.04 29.08C52.9733 28.8933 52.9 28.7 52.82 28.5C52.74 28.3 52.6533 28.1267 52.56 27.98C53.2933 27.9933 53.9467 28 54.52 28C55.1067 28.0133 55.5 28.0133 55.7 28C55.9 27.9867 56.04 27.9467 56.12 27.88C56.2 27.8 56.24 27.6667 56.24 27.48V11.24ZM53.58 16.32H53.9L54.18 16.26L55.2 16.66C54.8533 18.4067 54.3667 19.9867 53.74 21.4C53.1133 22.8133 52.38 24.0467 51.54 25.1C50.7 26.1533 49.7867 27.0067 48.8 27.66C48.72 27.54 48.6067 27.4067 48.46 27.26C48.3133 27.1 48.16 26.9467 48 26.8C47.84 26.6533 47.7 26.5467 47.58 26.48C48.54 25.88 49.42 25.1067 50.22 24.16C51.02 23.2133 51.7067 22.1133 52.28 20.86C52.8667 19.5933 53.3 18.2 53.58 16.68V16.32ZM57.72 14.52C58.0667 15.8533 58.5067 17.1467 59.04 18.4C59.5733 19.6533 60.2 20.82 60.92 21.9C61.64 22.9667 62.46 23.9133 63.38 24.74C64.3 25.5667 65.32 26.22 66.44 26.7C66.32 26.7933 66.1867 26.92 66.04 27.08C65.8933 27.24 65.7533 27.4067 65.62 27.58C65.4867 27.7533 65.3733 27.9133 65.28 28.06C63.76 27.3133 62.4333 26.28 61.3 24.96C60.18 23.6267 59.2267 22.0933 58.44 20.36C57.6667 18.6133 57.0333 16.7533 56.54 14.78L57.72 14.52ZM64.26 14.44L65.64 15.42C65.0933 16.0333 64.4867 16.6733 63.82 17.34C63.1667 17.9933 62.5067 18.62 61.84 19.22C61.1733 19.82 60.5467 20.3467 59.96 20.8L58.9 19.96C59.4733 19.4933 60.0867 18.9467 60.74 18.32C61.4067 17.68 62.0467 17.0267 62.66 16.36C63.2867 15.68 63.82 15.04 64.26 14.44ZM74.98 11.2H76.48V16.64H74.98V11.2ZM69.9 12.78H80.98V14.04H69.9V12.78ZM68.16 15.96H85.9V17.26H68.16V15.96ZM83.44 11.86L84.7 12.6C83.7267 13.64 82.6133 14.6 81.36 15.48C80.1067 16.3467 78.76 17.1333 77.32 17.84C75.8933 18.5467 74.4133 19.18 72.88 19.74C71.36 20.3 69.8333 20.7933 68.3 21.22C68.26 21.1 68.1867 20.96 68.08 20.8C67.9867 20.6267 67.8867 20.46 67.78 20.3C67.6867 20.1267 67.5933 19.9867 67.5 19.88C69.0333 19.52 70.5533 19.08 72.06 18.56C73.58 18.04 75.04 17.4467 76.44 16.78C77.84 16.1 79.1333 15.3533 80.32 14.54C81.52 13.7133 82.56 12.82 83.44 11.86ZM73.1 22.44V24.04H81.9V22.44H73.1ZM73.1 19.8V21.38H81.9V19.8H73.1ZM71.64 18.72H83.42V25.14H71.64V18.72ZM73.8 26.1L75.18 25.98C75.3133 26.5133 75.42 27.0867 75.5 27.7C75.5933 28.3 75.6467 28.8067 75.66 29.22L74.16 29.42C74.16 28.9933 74.1267 28.4667 74.06 27.84C73.9933 27.2133 73.9067 26.6333 73.8 26.1ZM77.98 26.08L79.36 25.8C79.6133 26.3067 79.86 26.8667 80.1 27.48C80.34 28.08 80.5067 28.5933 80.6 29.02L79.12 29.36C79.04 28.9333 78.8867 28.4067 78.66 27.78C78.4467 27.1533 78.22 26.5867 77.98 26.08ZM82.14 25.98L83.46 25.46C83.78 25.8067 84.1 26.1933 84.42 26.62C84.7533 27.0467 85.06 27.4667 85.34 27.88C85.62 28.28 85.84 28.64 86 28.96L84.6 29.56C84.44 29.24 84.22 28.8733 83.94 28.46C83.6733 28.0467 83.38 27.6267 83.06 27.2C82.7533 26.76 82.4467 26.3533 82.14 25.98ZM70.48 25.46L71.92 25.86C71.6133 26.5267 71.2333 27.1933 70.78 27.86C70.3267 28.5267 69.84 29.0867 69.32 29.54L67.96 28.84C68.4533 28.4667 68.9267 27.9733 69.38 27.36C69.8333 26.7333 70.2 26.1 70.48 25.46ZM91.78 21.5V24.1H102.48V21.5H91.78ZM91.78 17.7V20.28H102.48V17.7H91.78ZM90.32 16.4H103.98V25.4H90.32V16.4ZM96.3 17.1H97.76V24.5H96.3V17.1ZM94 12.84H99.88V14.18H93.04L94 12.84ZM93.84 11.12L95.5 11.46C95.0333 12.2333 94.4867 13.0267 93.86 13.84C93.2333 14.6533 92.52 15.4533 91.72 16.24C90.9333 17.0133 90.0533 17.74 89.08 18.42C89.0133 18.3 88.92 18.1667 88.8 18.02C88.68 17.86 88.5533 17.7133 88.42 17.58C88.3 17.4333 88.1867 17.32 88.08 17.24C88.9867 16.6533 89.8067 16.0133 90.54 15.32C91.2733 14.6133 91.92 13.9 92.48 13.18C93.04 12.46 93.4933 11.7733 93.84 11.12ZM99.52 12.84H99.86L100.1 12.78L101.1 13.42C100.873 13.8733 100.587 14.3467 100.24 14.84C99.8933 15.3333 99.5267 15.8133 99.14 16.28C98.7667 16.7333 98.4 17.1333 98.04 17.48C97.8933 17.36 97.7067 17.2333 97.48 17.1C97.2533 16.9533 97.0533 16.8333 96.88 16.74C97.2267 16.42 97.5667 16.0467 97.9 15.62C98.2467 15.1933 98.56 14.76 98.84 14.32C99.1333 13.88 99.36 13.4867 99.52 13.14V12.84ZM88.22 27.28H105.8V28.7H88.22V27.28Z" fill="black"/>
</svg>
