<svg width="97" height="40" viewBox="0 0 97 40" fill="none" xmlns="http://www.w3.org/2000/svg">
<rect x="0.5" y="0.5" width="96" height="39" fill="white"/>
<rect x="0.5" y="0.5" width="96" height="39" stroke="black"/>
<path d="M17.18 25.92H26.72V27.36H17.18V25.92ZM17.22 20.06H26.68V21.52H17.22V20.06ZM21.06 10.24H22.52V26.82H21.06V10.24ZM16.34 14.38H27.42V28.42H25.96V15.84H17.76V28.54H16.34V14.38ZM10.86 11.54L11.72 10.44C12.16 10.6267 12.62 10.8467 13.1 11.1C13.5933 11.3533 14.06 11.6133 14.5 11.88C14.9533 12.1333 15.3267 12.3667 15.62 12.58L14.72 13.84C14.4533 13.6133 14.0933 13.3667 13.64 13.1C13.2 12.82 12.7333 12.54 12.24 12.26C11.76 11.98 11.3 11.74 10.86 11.54ZM9.84 17.02L10.66 15.92C11.0867 16.0933 11.5333 16.3 12 16.54C12.48 16.78 12.94 17.0267 13.38 17.28C13.82 17.5333 14.1733 17.7667 14.44 17.98L13.6 19.24C13.3333 19.0133 12.9867 18.7667 12.56 18.5C12.1333 18.2333 11.68 17.9733 11.2 17.72C10.72 17.4533 10.2667 17.22 9.84 17.02ZM10.52 27.32C10.8267 26.8667 11.1733 26.3267 11.56 25.7C11.9467 25.06 12.3333 24.3933 12.72 23.7C13.1067 22.9933 13.4667 22.3067 13.8 21.64L14.94 22.6C14.6333 23.2133 14.3 23.8533 13.94 24.52C13.5933 25.1867 13.24 25.8467 12.88 26.5C12.52 27.14 12.1667 27.74 11.82 28.3L10.52 27.32ZM43.34 15.88H44.74V20.78H43.34V15.88ZM41.22 21.68H42.56V27.24C42.56 27.5733 42.5133 27.8267 42.42 28C42.34 28.1733 42.18 28.3067 41.94 28.4C41.7 28.4933 41.3867 28.5467 41 28.56C40.6133 28.5867 40.12 28.5933 39.52 28.58C39.48 28.42 39.4067 28.2333 39.3 28.02C39.2067 27.82 39.1133 27.64 39.02 27.48C39.46 27.4933 39.8533 27.5 40.2 27.5C40.56 27.5133 40.7933 27.5133 40.9 27.5C41.1133 27.4867 41.22 27.3933 41.22 27.22V21.68ZM44.76 20.58C45.04 20.9667 45.38 21.36 45.78 21.76C46.1933 22.1467 46.6333 22.5 47.1 22.82C47.58 23.14 48.06 23.4 48.54 23.6C48.3933 23.7067 48.2333 23.86 48.06 24.06C47.9 24.26 47.76 24.4333 47.64 24.58C47.16 24.3267 46.68 24.0067 46.2 23.62C45.72 23.2333 45.2667 22.8067 44.84 22.34C44.4267 21.8733 44.0733 21.4133 43.78 20.96L44.76 20.58ZM42.84 25.68L43.54 24.86C44.3 25.18 45.0533 25.54 45.8 25.94C46.56 26.34 47.1867 26.7133 47.68 27.06L46.82 27.94C46.3533 27.5933 45.76 27.2133 45.04 26.8C44.32 26.3867 43.5867 26.0133 42.84 25.68ZM44.9 22.36L45.86 22.92C45.58 23.2533 45.2933 23.5733 45 23.88C44.7067 24.1867 44.4333 24.4533 44.18 24.68L43.34 24.16C43.5933 23.92 43.8667 23.6267 44.16 23.28C44.4667 22.92 44.7133 22.6133 44.9 22.36ZM36.36 17.42H47.52V18.54H36.36V17.42ZM35.64 19.98H48.16V21.1H35.64V19.98ZM38.92 15.88H40.28V20.74H38.92V15.88ZM35.6 26.76C36.2 26.56 36.9067 26.2933 37.72 25.96C38.5467 25.6267 39.38 25.2867 40.22 24.94L40.46 25.88C39.7 26.2267 38.9467 26.5733 38.2 26.92C37.4667 27.2533 36.7733 27.56 36.12 27.84L35.6 26.76ZM39.24 20.54L40.28 20.98C39.9733 21.42 39.5933 21.8667 39.14 22.32C38.6867 22.76 38.2 23.1733 37.68 23.56C37.1733 23.9333 36.68 24.24 36.2 24.48C36.0933 24.3333 35.9533 24.16 35.78 23.96C35.62 23.76 35.46 23.6 35.3 23.48C35.78 23.2933 36.2667 23.0467 36.76 22.74C37.2533 22.42 37.72 22.0733 38.16 21.7C38.6 21.3133 38.96 20.9267 39.24 20.54ZM37.98 23.14L38.9 22.56C39.18 22.7867 39.4533 23.0533 39.72 23.36C39.9867 23.6667 40.1867 23.9467 40.32 24.2L39.34 24.84C39.22 24.6 39.0267 24.32 38.76 24C38.5067 23.68 38.2467 23.3933 37.98 23.14ZM38.24 13.96V15.18H45.62V13.96H38.24ZM38.24 11.8V13H45.62V11.8H38.24ZM36.9 10.78H47V16.22H36.9V10.78ZM32.68 10.42H34.02V17.24C34.02 18.5867 33.9467 19.9333 33.8 21.28C33.6667 22.6133 33.3733 23.9067 32.92 25.16C32.4667 26.4 31.7533 27.5533 30.78 28.62C30.7133 28.5267 30.62 28.4133 30.5 28.28C30.38 28.1467 30.2533 28.02 30.12 27.9C30 27.78 29.8867 27.6867 29.78 27.62C30.66 26.6333 31.3 25.5733 31.7 24.44C32.1133 23.2933 32.38 22.1133 32.5 20.9C32.62 19.6733 32.68 18.4533 32.68 17.24V10.42ZM30.92 14.3L31.96 14.46C31.96 15.1133 31.92 15.7667 31.84 16.42C31.76 17.0733 31.6267 17.6933 31.44 18.28C31.2667 18.8667 31.0267 19.3667 30.72 19.78L29.76 19.16C30.0267 18.8 30.24 18.36 30.4 17.84C30.56 17.32 30.68 16.7533 30.76 16.14C30.8533 15.5267 30.9067 14.9133 30.92 14.3ZM35.52 13.52L36.74 14C36.4733 14.6933 36.1867 15.4333 35.88 16.22C35.5867 16.9933 35.3 17.6467 35.02 18.18L34.14 17.78C34.3 17.3933 34.4667 16.9467 34.64 16.44C34.8133 15.9333 34.9733 15.4267 35.12 14.92C35.28 14.4 35.4133 13.9333 35.52 13.52ZM33.62 21.46C33.74 21.5933 33.9333 21.8267 34.2 22.16C34.4667 22.4933 34.7467 22.86 35.04 23.26C35.3333 23.6467 35.6 24.0067 35.84 24.34C36.0933 24.6733 36.2733 24.9133 36.38 25.06L35.38 26.1C35.2467 25.86 35.06 25.56 34.82 25.2C34.5933 24.8267 34.3467 24.4467 34.08 24.06C33.8133 23.66 33.5533 23.2933 33.3 22.96C33.06 22.6133 32.86 22.34 32.7 22.14L33.62 21.46ZM55.2 11.46H68.28V12.92H55.2V11.46ZM57.16 15.7H62.72V22.98H57.16V21.62H61.32V17.08H57.16V15.7ZM56.4 15.7H57.78V24.38H56.4V15.7ZM65.22 12H66.7V26.42C66.7 26.9667 66.62 27.38 66.46 27.66C66.3 27.94 66.0267 28.1467 65.64 28.28C65.2533 28.4133 64.6933 28.4933 63.96 28.52C63.24 28.5467 62.3267 28.56 61.22 28.56C61.1933 28.4133 61.1467 28.24 61.08 28.04C61.0133 27.8533 60.94 27.66 60.86 27.46C60.78 27.2733 60.7 27.1067 60.62 26.96C61.2067 26.9867 61.7733 27 62.32 27C62.8667 27.0133 63.34 27.0133 63.74 27C64.14 27 64.4267 27 64.6 27C64.8267 26.9867 64.9867 26.94 65.08 26.86C65.1733 26.78 65.22 26.6267 65.22 26.4V12ZM50.58 11.56L51.44 10.48C51.8533 10.6933 52.2933 10.9333 52.76 11.2C53.24 11.4533 53.6933 11.7067 54.12 11.96C54.56 12.2 54.9267 12.4133 55.22 12.6L54.32 13.82C54.04 13.62 53.6867 13.3933 53.26 13.14C52.8333 12.8733 52.38 12.6 51.9 12.32C51.4333 12.04 50.9933 11.7867 50.58 11.56ZM49.64 17.02L50.46 15.92C50.86 16.1067 51.2933 16.3267 51.76 16.58C52.2267 16.8333 52.6733 17.08 53.1 17.32C53.54 17.56 53.9 17.7733 54.18 17.96L53.34 19.2C53.0733 19.0133 52.7267 18.7933 52.3 18.54C51.8733 18.2867 51.4267 18.0267 50.96 17.76C50.4933 17.48 50.0533 17.2333 49.64 17.02ZM50.24 27.32C50.6 26.8133 51 26.2067 51.44 25.5C51.88 24.78 52.3267 24.02 52.78 23.22C53.2333 22.4067 53.6533 21.6267 54.04 20.88L55.14 21.86C54.7933 22.5667 54.4067 23.3 53.98 24.06C53.5667 24.82 53.1467 25.5667 52.72 26.3C52.3067 27.0333 51.9 27.7133 51.5 28.34L50.24 27.32ZM77.22 11.58H88.12V13.04H77.22V11.58ZM81.38 12.28H82.86V28.58H81.38V12.28ZM81.7 17.02L82.68 16.06C83.2533 16.46 83.8667 16.9067 84.52 17.4C85.1733 17.88 85.7933 18.36 86.38 18.84C86.9667 19.3067 87.4533 19.7267 87.84 20.1L86.82 21.22C86.46 20.8333 85.9867 20.3933 85.4 19.9C84.8267 19.4067 84.2133 18.9067 83.56 18.4C82.9067 17.8933 82.2867 17.4333 81.7 17.02ZM73.36 10.36H74.74V14.62H73.36V10.36ZM71.44 13.94H77.56V21.12H71.44V19.88H76.3V15.18H71.44V13.94ZM70.6 13.94H71.86V22.18H70.6V13.94ZM73.46 14.46H74.64V20.5H74.74V25.92H73.38V20.5H73.46V14.46ZM69.64 25.98C70.28 25.9 71.0067 25.8 71.82 25.68C72.6467 25.56 73.5133 25.4267 74.42 25.28C75.34 25.1333 76.2667 24.9867 77.2 24.84L77.28 26.18C75.96 26.3933 74.6467 26.6133 73.34 26.84C72.0467 27.0533 70.8933 27.2467 69.88 27.42L69.64 25.98ZM75.66 22.64L76.86 22.28C77.0867 22.8133 77.3 23.38 77.5 23.98C77.7133 24.5667 77.8933 25.1467 78.04 25.72C78.1867 26.2933 78.2933 26.8067 78.36 27.26L77.1 27.64C77.0333 27.1867 76.9267 26.6733 76.78 26.1C76.6333 25.5133 76.46 24.92 76.26 24.32C76.0733 23.72 75.8733 23.16 75.66 22.64Z" fill="black"/>
</svg>
