<svg width="92" height="37" viewBox="0 0 92 37" fill="none" xmlns="http://www.w3.org/2000/svg">
<rect x="0.5" y="0.5" width="91" height="36" fill="white"/>
<rect x="0.5" y="0.5" width="91" height="36" stroke="black"/>
<path d="M24.96 20.28H32.72V21.36H24.96V20.28ZM22.86 10.48H34.58V11.64H22.86V10.48ZM23.34 12.88H34.08V13.98H23.34V12.88ZM22.2 15.36H35.22V16.52H22.2V15.36ZM24.96 22.88H32.76V23.96H24.96V22.88ZM24.04 17.66H32.86V18.82H25.44V27.56H24.04V17.66ZM32.24 17.66H33.68V25.92C33.68 26.3067 33.6333 26.6067 33.54 26.82C33.4467 27.0333 33.2533 27.1933 32.96 27.3C32.68 27.4067 32.3067 27.4667 31.84 27.48C31.3733 27.5067 30.7867 27.52 30.08 27.52C30.0533 27.3333 29.9933 27.1133 29.9 26.86C29.82 26.62 29.7333 26.4067 29.64 26.22C30.1467 26.2333 30.6133 26.24 31.04 26.24C31.4667 26.2533 31.7467 26.2533 31.88 26.24C32.0133 26.2267 32.1067 26.1933 32.16 26.14C32.2133 26.1 32.24 26.02 32.24 25.9V17.66ZM27.84 9.2H29.32V16.04H27.84V9.2ZM17.76 10.46L18.58 9.38C19.0067 9.55333 19.4467 9.76 19.9 10C20.3667 10.24 20.8 10.4933 21.2 10.76C21.6133 11.0267 21.9467 11.2733 22.2 11.5L21.32 12.74C21.08 12.4867 20.76 12.2267 20.36 11.96C19.96 11.68 19.5333 11.4067 19.08 11.14C18.6267 10.8733 18.1867 10.6467 17.76 10.46ZM16.76 15.88L17.58 14.76C18.0067 14.92 18.4533 15.12 18.92 15.36C19.3867 15.5867 19.8267 15.82 20.24 16.06C20.6533 16.3 20.9933 16.5333 21.26 16.76L20.4 18.02C20.1467 17.7933 19.8133 17.5533 19.4 17.3C18.9867 17.0333 18.5467 16.78 18.08 16.54C17.6267 16.2867 17.1867 16.0667 16.76 15.88ZM17.34 26.36C17.6867 25.84 18.0667 25.22 18.48 24.5C18.8933 23.78 19.3133 23.02 19.74 22.22C20.1667 21.4067 20.56 20.62 20.92 19.86L22.06 20.8C21.7267 21.5067 21.3667 22.2467 20.98 23.02C20.5933 23.78 20.2 24.5333 19.8 25.28C19.4 26.0133 19.0133 26.6933 18.64 27.32L17.34 26.36ZM37.14 10.56H54.88V11.86H37.14V10.56ZM40.28 13.76H49.92V14.98H40.28V13.76ZM40.5 22.24H51.46V23.52H40.5V22.24ZM37.28 16.4H42.58V17.64H37.28V16.4ZM41.88 9.18H43.36V13.3H41.88V9.18ZM48.58 9.18H50.06V13.3H48.58V9.18ZM45.24 16.32H46.7V20.26C46.7 20.6067 46.6533 20.8733 46.56 21.06C46.48 21.2467 46.3067 21.3933 46.04 21.5C45.7867 21.5933 45.4467 21.6533 45.02 21.68C44.6067 21.6933 44.0933 21.7 43.48 21.7C43.4533 21.5133 43.3933 21.3133 43.3 21.1C43.2067 20.8733 43.1133 20.6733 43.02 20.5C43.4733 20.5133 43.88 20.52 44.24 20.52C44.6 20.52 44.84 20.52 44.96 20.52C45.1467 20.52 45.24 20.4267 45.24 20.24V16.32ZM39.7 23.82L40.92 24.4C40.6267 24.9867 40.2533 25.58 39.8 26.18C39.36 26.78 38.82 27.28 38.18 27.68L37 26.88C37.6133 26.52 38.1467 26.06 38.6 25.5C39.0667 24.94 39.4333 24.38 39.7 23.82ZM42.82 24.46L44.18 24.28C44.3667 24.76 44.5267 25.28 44.66 25.84C44.7933 26.3867 44.8667 26.8533 44.88 27.24L43.44 27.5C43.4267 27.1 43.36 26.6133 43.24 26.04C43.1333 25.48 42.9933 24.9533 42.82 24.46ZM46.66 24.48L47.9 24.08C48.22 24.5333 48.5133 25.04 48.78 25.6C49.06 26.1467 49.26 26.62 49.38 27.02L48.06 27.48C47.9667 27.08 47.7867 26.5933 47.52 26.02C47.2533 25.46 46.9667 24.9467 46.66 24.48ZM50.64 24.52L51.76 23.8C52.1467 24.08 52.5467 24.4 52.96 24.76C53.3867 25.1067 53.78 25.46 54.14 25.82C54.5133 26.1667 54.8067 26.4933 55.02 26.8L53.86 27.6C53.6467 27.2933 53.36 26.96 53 26.6C52.6533 26.24 52.2733 25.88 51.86 25.52C51.46 25.1467 51.0533 24.8133 50.64 24.52ZM42.3 16.4H42.56L42.82 16.34L43.74 16.72C43.38 17.76 42.8867 18.6933 42.26 19.52C41.6333 20.3467 40.92 21.06 40.12 21.66C39.3333 22.26 38.5133 22.74 37.66 23.1C37.6067 22.98 37.5267 22.8533 37.42 22.72C37.3267 22.5733 37.2267 22.4333 37.12 22.3C37.0133 22.1533 36.9067 22.0333 36.8 21.94C37.5733 21.66 38.3267 21.26 39.06 20.74C39.7933 20.22 40.4467 19.6133 41.02 18.92C41.5933 18.2133 42.02 17.4467 42.3 16.62V16.4ZM49.5 13.76H49.86L50.16 13.68L51.08 14.44C50.48 15 49.7667 15.54 48.94 16.06C48.1267 16.58 47.3333 17.02 46.56 17.38C46.4667 17.2467 46.34 17.1 46.18 16.94C46.02 16.7667 45.88 16.6333 45.76 16.54C46.2133 16.3267 46.6733 16.08 47.14 15.8C47.62 15.52 48.0667 15.2267 48.48 14.92C48.8933 14.6 49.2333 14.3067 49.5 14.04V13.76ZM48.78 15.9C49.1667 16.7667 49.68 17.58 50.32 18.34C50.96 19.0867 51.7 19.74 52.54 20.3C53.38 20.86 54.2733 21.3 55.22 21.62C55.1 21.7133 54.9733 21.8333 54.84 21.98C54.72 22.1133 54.6067 22.26 54.5 22.42C54.3933 22.5667 54.3 22.7067 54.22 22.84C53.2467 22.4667 52.3333 21.9533 51.48 21.3C50.6267 20.6467 49.8667 19.8933 49.2 19.04C48.5467 18.1867 48.0067 17.2667 47.58 16.28L48.78 15.9ZM53.44 15.02L54.64 15.84C54.2133 16.1867 53.7467 16.54 53.24 16.9C52.7467 17.26 52.2467 17.6 51.74 17.92C51.2467 18.24 50.7733 18.52 50.32 18.76L49.38 18.04C49.8067 17.7867 50.2667 17.4867 50.76 17.14C51.2667 16.78 51.7533 16.42 52.22 16.06C52.7 15.6867 53.1067 15.34 53.44 15.02ZM60.78 19.5V22.1H71.48V19.5H60.78ZM60.78 15.7V18.28H71.48V15.7H60.78ZM59.32 14.4H72.98V23.4H59.32V14.4ZM65.3 15.1H66.76V22.5H65.3V15.1ZM63 10.84H68.88V12.18H62.04L63 10.84ZM62.84 9.12L64.5 9.46C64.0333 10.2333 63.4867 11.0267 62.86 11.84C62.2333 12.6533 61.52 13.4533 60.72 14.24C59.9333 15.0133 59.0533 15.74 58.08 16.42C58.0133 16.3 57.92 16.1667 57.8 16.02C57.68 15.86 57.5533 15.7133 57.42 15.58C57.3 15.4333 57.1867 15.32 57.08 15.24C57.9867 14.6533 58.8067 14.0133 59.54 13.32C60.2733 12.6133 60.92 11.9 61.48 11.18C62.04 10.46 62.4933 9.77333 62.84 9.12ZM68.52 10.84H68.86L69.1 10.78L70.1 11.42C69.8733 11.8733 69.5867 12.3467 69.24 12.84C68.8933 13.3333 68.5267 13.8133 68.14 14.28C67.7667 14.7333 67.4 15.1333 67.04 15.48C66.8933 15.36 66.7067 15.2333 66.48 15.1C66.2533 14.9533 66.0533 14.8333 65.88 14.74C66.2267 14.42 66.5667 14.0467 66.9 13.62C67.2467 13.1933 67.56 12.76 67.84 12.32C68.1333 11.88 68.36 11.4867 68.52 11.14V10.84ZM57.22 25.28H74.8V26.7H57.22V25.28Z" fill="black"/>
</svg>
