<svg width="97" height="40" viewBox="0 0 97 40" fill="none" xmlns="http://www.w3.org/2000/svg">
<rect x="0.5" y="0.5" width="96" height="39" fill="white"/>
<rect x="0.5" y="0.5" width="96" height="39" stroke="black"/>
<path d="M23.34 15.88H24.74V20.78H23.34V15.88ZM21.22 21.68H22.56V27.24C22.56 27.5733 22.5133 27.8267 22.42 28C22.34 28.1733 22.18 28.3067 21.94 28.4C21.7 28.4933 21.3867 28.5467 21 28.56C20.6133 28.5867 20.12 28.5933 19.52 28.58C19.48 28.42 19.4067 28.2333 19.3 28.02C19.2067 27.82 19.1133 27.64 19.02 27.48C19.46 27.4933 19.8533 27.5 20.2 27.5C20.56 27.5133 20.7933 27.5133 20.9 27.5C21.1133 27.4867 21.22 27.3933 21.22 27.22V21.68ZM24.76 20.58C25.04 20.9667 25.38 21.36 25.78 21.76C26.1933 22.1467 26.6333 22.5 27.1 22.82C27.58 23.14 28.06 23.4 28.54 23.6C28.3933 23.7067 28.2333 23.86 28.06 24.06C27.9 24.26 27.76 24.4333 27.64 24.58C27.16 24.3267 26.68 24.0067 26.2 23.62C25.72 23.2333 25.2667 22.8067 24.84 22.34C24.4267 21.8733 24.0733 21.4133 23.78 20.96L24.76 20.58ZM22.84 25.68L23.54 24.86C24.3 25.18 25.0533 25.54 25.8 25.94C26.56 26.34 27.1867 26.7133 27.68 27.06L26.82 27.94C26.3533 27.5933 25.76 27.2133 25.04 26.8C24.32 26.3867 23.5867 26.0133 22.84 25.68ZM24.9 22.36L25.86 22.92C25.58 23.2533 25.2933 23.5733 25 23.88C24.7067 24.1867 24.4333 24.4533 24.18 24.68L23.34 24.16C23.5933 23.92 23.8667 23.6267 24.16 23.28C24.4667 22.92 24.7133 22.6133 24.9 22.36ZM16.36 17.42H27.52V18.54H16.36V17.42ZM15.64 19.98H28.16V21.1H15.64V19.98ZM18.92 15.88H20.28V20.74H18.92V15.88ZM15.6 26.76C16.2 26.56 16.9067 26.2933 17.72 25.96C18.5467 25.6267 19.38 25.2867 20.22 24.94L20.46 25.88C19.7 26.2267 18.9467 26.5733 18.2 26.92C17.4667 27.2533 16.7733 27.56 16.12 27.84L15.6 26.76ZM19.24 20.54L20.28 20.98C19.9733 21.42 19.5933 21.8667 19.14 22.32C18.6867 22.76 18.2 23.1733 17.68 23.56C17.1733 23.9333 16.68 24.24 16.2 24.48C16.0933 24.3333 15.9533 24.16 15.78 23.96C15.62 23.76 15.46 23.6 15.3 23.48C15.78 23.2933 16.2667 23.0467 16.76 22.74C17.2533 22.42 17.72 22.0733 18.16 21.7C18.6 21.3133 18.96 20.9267 19.24 20.54ZM17.98 23.14L18.9 22.56C19.18 22.7867 19.4533 23.0533 19.72 23.36C19.9867 23.6667 20.1867 23.9467 20.32 24.2L19.34 24.84C19.22 24.6 19.0267 24.32 18.76 24C18.5067 23.68 18.2467 23.3933 17.98 23.14ZM18.24 13.96V15.18H25.62V13.96H18.24ZM18.24 11.8V13H25.62V11.8H18.24ZM16.9 10.78H27V16.22H16.9V10.78ZM12.68 10.42H14.02V17.24C14.02 18.5867 13.9467 19.9333 13.8 21.28C13.6667 22.6133 13.3733 23.9067 12.92 25.16C12.4667 26.4 11.7533 27.5533 10.78 28.62C10.7133 28.5267 10.62 28.4133 10.5 28.28C10.38 28.1467 10.2533 28.02 10.12 27.9C10 27.78 9.88667 27.6867 9.78 27.62C10.66 26.6333 11.3 25.5733 11.7 24.44C12.1133 23.2933 12.38 22.1133 12.5 20.9C12.62 19.6733 12.68 18.4533 12.68 17.24V10.42ZM10.92 14.3L11.96 14.46C11.96 15.1133 11.92 15.7667 11.84 16.42C11.76 17.0733 11.6267 17.6933 11.44 18.28C11.2667 18.8667 11.0267 19.3667 10.72 19.78L9.76 19.16C10.0267 18.8 10.24 18.36 10.4 17.84C10.56 17.32 10.68 16.7533 10.76 16.14C10.8533 15.5267 10.9067 14.9133 10.92 14.3ZM15.52 13.52L16.74 14C16.4733 14.6933 16.1867 15.4333 15.88 16.22C15.5867 16.9933 15.3 17.6467 15.02 18.18L14.14 17.78C14.3 17.3933 14.4667 16.9467 14.64 16.44C14.8133 15.9333 14.9733 15.4267 15.12 14.92C15.28 14.4 15.4133 13.9333 15.52 13.52ZM13.62 21.46C13.74 21.5933 13.9333 21.8267 14.2 22.16C14.4667 22.4933 14.7467 22.86 15.04 23.26C15.3333 23.6467 15.6 24.0067 15.84 24.34C16.0933 24.6733 16.2733 24.9133 16.38 25.06L15.38 26.1C15.2467 25.86 15.06 25.56 14.82 25.2C14.5933 24.8267 14.3467 24.4467 14.08 24.06C13.8133 23.66 13.5533 23.2933 13.3 22.96C13.06 22.6133 12.86 22.34 12.7 22.14L13.62 21.46ZM42.02 10.36H43.44V20.46C43.44 20.8333 43.3867 21.1267 43.28 21.34C43.1867 21.5533 43.0067 21.72 42.74 21.84C42.4867 21.9467 42.1467 22.02 41.72 22.06C41.3067 22.0867 40.78 22.1 40.14 22.1C40.1 21.9 40.02 21.6733 39.9 21.42C39.7933 21.1667 39.6933 20.9467 39.6 20.76C40.0667 20.7733 40.4933 20.7867 40.88 20.8C41.2667 20.8 41.5267 20.7933 41.66 20.78C41.7933 20.7667 41.8867 20.74 41.94 20.7C41.9933 20.66 42.02 20.5733 42.02 20.44V10.36ZM44.66 13.26L45.9 12.86C46.2467 13.46 46.5733 14.1067 46.88 14.8C47.2 15.48 47.4867 16.14 47.74 16.78C48.0067 17.42 48.2 17.9867 48.32 18.48L46.96 18.98C46.8533 18.4867 46.68 17.9133 46.44 17.26C46.2 16.6067 45.9267 15.9267 45.62 15.22C45.3133 14.5133 44.9933 13.86 44.66 13.26ZM33.12 10.48H34.52V17.14C34.52 18.1533 34.48 19.1667 34.4 20.18C34.32 21.1933 34.1533 22.1867 33.9 23.16C33.66 24.1333 33.2867 25.0667 32.78 25.96C32.2867 26.8533 31.62 27.6933 30.78 28.48C30.7133 28.3733 30.6133 28.2533 30.48 28.12C30.36 27.9867 30.2267 27.8533 30.08 27.72C29.9467 27.6 29.8267 27.5 29.72 27.42C30.48 26.7133 31.0867 25.9533 31.54 25.14C32.0067 24.3133 32.3533 23.46 32.58 22.58C32.8067 21.6867 32.9533 20.7867 33.02 19.88C33.0867 18.96 33.12 18.0467 33.12 17.14V10.48ZM31 14.28L32.1 14.44C32.0867 15.0533 32.0333 15.6867 31.94 16.34C31.8467 16.98 31.7067 17.5867 31.52 18.16C31.3333 18.7333 31.0933 19.2267 30.8 19.64L29.72 19.12C29.9867 18.76 30.2067 18.32 30.38 17.8C30.5667 17.2667 30.7067 16.6933 30.8 16.08C30.8933 15.4667 30.96 14.8667 31 14.28ZM36.32 13.68L37.66 14.24C37.3267 14.9333 36.9867 15.66 36.64 16.42C36.2933 17.1667 35.9667 17.8067 35.66 18.34L34.68 17.84C34.8667 17.4667 35.06 17.04 35.26 16.56C35.4733 16.0667 35.6733 15.5667 35.86 15.06C36.0467 14.54 36.2 14.08 36.32 13.68ZM34.06 21.48C34.22 21.6267 34.4533 21.8667 34.76 22.2C35.0667 22.5333 35.3933 22.9 35.74 23.3C36.1 23.7 36.4267 24.0733 36.72 24.42C37.0267 24.7533 37.24 24.9933 37.36 25.14L36.32 26.24C36.16 25.9867 35.9333 25.6733 35.64 25.3C35.36 24.9267 35.06 24.5467 34.74 24.16C34.42 23.76 34.1133 23.3867 33.82 23.04C33.54 22.6933 33.3067 22.42 33.12 22.22L34.06 21.48ZM39.4 12.96L40.8 13.2C40.5333 14.4 40.1733 15.54 39.72 16.62C39.2667 17.7 38.7533 18.6133 38.18 19.36C38.0867 19.2933 37.96 19.22 37.8 19.14C37.6533 19.0467 37.5 18.9533 37.34 18.86C37.18 18.7667 37.0333 18.7 36.9 18.66C37.5133 17.9667 38.0267 17.12 38.44 16.12C38.8533 15.1067 39.1733 14.0533 39.4 12.96ZM45.7 19.4L47.1 19.8C46.6733 21.3467 46.06 22.6933 45.26 23.84C44.4733 24.9867 43.48 25.9667 42.28 26.78C41.08 27.58 39.6333 28.22 37.94 28.7C37.8467 28.4867 37.7133 28.2533 37.54 28C37.3667 27.76 37.2 27.56 37.04 27.4C38.64 26.9867 40.0067 26.4267 41.14 25.72C42.2867 25.0133 43.2333 24.1333 43.98 23.08C44.7267 22.0267 45.3 20.8 45.7 19.4ZM58.68 20.4H66.82V28.56H65.42V21.78H60.04V28.62H58.68V20.4ZM59.32 26.26H66.2V27.62H59.32V26.26ZM59.52 16.88H65.84V18.2H59.52V16.88ZM62.7 11.86C62.3933 12.5933 61.9933 13.3533 61.5 14.14C61.0067 14.9267 60.4467 15.6867 59.82 16.42C59.2067 17.1533 58.56 17.7933 57.88 18.34C57.7867 18.14 57.66 17.92 57.5 17.68C57.3533 17.4267 57.2133 17.22 57.08 17.06C57.76 16.5267 58.4133 15.8867 59.04 15.14C59.6667 14.38 60.2267 13.58 60.72 12.74C61.2267 11.8867 61.6267 11.0667 61.92 10.28H63.36C63.76 11.12 64.2333 11.9667 64.78 12.82C65.34 13.66 65.94 14.4333 66.58 15.14C67.22 15.8333 67.8533 16.4133 68.48 16.88C68.3333 17.0667 68.18 17.2933 68.02 17.56C67.8733 17.8133 67.7467 18.0467 67.64 18.26C66.9867 17.74 66.3467 17.1267 65.72 16.42C65.1067 15.7 64.5333 14.9467 64 14.16C63.48 13.36 63.0467 12.5933 62.7 11.86ZM53.16 10.42H54.48V14.68H53.16V10.42ZM51.28 13.66H57.2V20.86H51.28V19.6H56.02V14.9H51.28V13.66ZM50.5 13.66H51.7V21.9H50.5V13.66ZM53.26 14.18H54.38V20.24H54.48V25.66H53.16V20.24H53.26V14.18ZM49.68 25.76C50.2933 25.68 50.9933 25.5867 51.78 25.48C52.58 25.3733 53.4267 25.2467 54.32 25.1C55.2133 24.9533 56.1133 24.8067 57.02 24.66L57.1 25.98C55.82 26.1933 54.5467 26.4133 53.28 26.64C52.0267 26.8533 50.9 27.0467 49.9 27.22L49.68 25.76ZM55.48 22.4L56.6 22.08C56.8133 22.6133 57.0133 23.1867 57.2 23.8C57.4 24.4 57.5733 24.9933 57.72 25.58C57.8667 26.1533 57.9667 26.6667 58.02 27.12L56.82 27.48C56.7667 27.0133 56.6667 26.4867 56.52 25.9C56.3867 25.3133 56.2267 24.72 56.04 24.12C55.8667 23.5067 55.68 22.9333 55.48 22.4ZM82.96 12.48H84.2V24.12H82.96V12.48ZM86.04 10.52H87.38V26.9C87.38 27.3133 87.32 27.6267 87.2 27.84C87.0933 28.0667 86.9133 28.2333 86.66 28.34C86.4067 28.46 86.06 28.5333 85.62 28.56C85.1933 28.6 84.6467 28.62 83.98 28.62C83.9533 28.4467 83.8933 28.2267 83.8 27.96C83.72 27.6933 83.6267 27.4667 83.52 27.28C84.0267 27.2933 84.4733 27.3 84.86 27.3C85.26 27.3133 85.5267 27.3133 85.66 27.3C85.8067 27.3 85.9067 27.2733 85.96 27.22C86.0133 27.1667 86.04 27.0667 86.04 26.92V10.52ZM72.66 10.32H73.8V14.46H72.66V10.32ZM71.12 13.78H76.1V20.86H71.12V19.62H75.04V15.02H71.12V13.78ZM70.38 13.78H71.46V21.6H70.38V13.78ZM72.76 14.34H73.68V20.22H73.8V25.38H72.64V20.22H72.76V14.34ZM69.7 25.44C70.4733 25.3333 71.3867 25.2 72.44 25.04C73.5067 24.88 74.6 24.7067 75.72 24.52L75.8 25.72C74.7467 25.9067 73.7067 26.0867 72.68 26.26C71.6667 26.4333 70.7467 26.5933 69.92 26.74L69.7 25.44ZM74.56 22.34L75.56 22.08C75.7467 22.5467 75.9133 23.0533 76.06 23.6C76.2067 24.1467 76.3267 24.68 76.42 25.2C76.5267 25.7067 76.5933 26.1667 76.62 26.58L75.54 26.84C75.5133 26.4267 75.4533 25.9667 75.36 25.46C75.2667 24.94 75.1533 24.4067 75.02 23.86C74.8867 23.3133 74.7333 22.8067 74.56 22.34ZM76.56 16.18H82.38V17.48H76.56V16.18ZM78.92 12.08H80.26V28.6H78.92V12.08ZM78.92 16.88L79.8 17.14C79.6 18.06 79.34 18.9933 79.02 19.94C78.7 20.8733 78.3467 21.74 77.96 22.54C77.5867 23.34 77.1933 24.0067 76.78 24.54C76.6733 24.3933 76.52 24.2267 76.32 24.04C76.1333 23.84 75.9667 23.68 75.82 23.56C76.2333 23.1067 76.64 22.52 77.04 21.8C77.44 21.0667 77.8 20.2733 78.12 19.42C78.4533 18.5533 78.72 17.7067 78.92 16.88ZM80.22 18.84C80.34 18.9333 80.52 19.1 80.76 19.34C81 19.5667 81.2533 19.8133 81.52 20.08C81.7867 20.3467 82.0333 20.5933 82.26 20.82C82.4867 21.0333 82.6467 21.1933 82.74 21.3L81.88 22.44C81.76 22.2533 81.5933 22.0267 81.38 21.76C81.18 21.4933 80.9533 21.2133 80.7 20.92C80.46 20.6133 80.2267 20.3333 80 20.08C79.7733 19.8133 79.5933 19.6133 79.46 19.48L80.22 18.84ZM81.38 10.54L82.54 11.52C82.02 11.7867 81.4333 12.0467 80.78 12.3C80.1267 12.54 79.4533 12.76 78.76 12.96C78.08 13.16 77.4133 13.34 76.76 13.5C76.72 13.3533 76.6533 13.18 76.56 12.98C76.4667 12.78 76.38 12.6067 76.3 12.46C76.9133 12.3 77.5333 12.12 78.16 11.92C78.8 11.7067 79.4 11.48 79.96 11.24C80.5333 11 81.0067 10.7667 81.38 10.54Z" fill="black"/>
</svg>
