<svg width="97" height="40" viewBox="0 0 97 40" fill="none" xmlns="http://www.w3.org/2000/svg">
<rect x="0.5" y="0.5" width="96" height="39" fill="white"/>
<rect x="0.5" y="0.5" width="96" height="39" stroke="black"/>
<path d="M17.18 25.92H26.72V27.36H17.18V25.92ZM17.22 20.06H26.68V21.52H17.22V20.06ZM21.06 10.24H22.52V26.82H21.06V10.24ZM16.34 14.38H27.42V28.42H25.96V15.84H17.76V28.54H16.34V14.38ZM10.86 11.54L11.72 10.44C12.16 10.6267 12.62 10.8467 13.1 11.1C13.5933 11.3533 14.06 11.6133 14.5 11.88C14.9533 12.1333 15.3267 12.3667 15.62 12.58L14.72 13.84C14.4533 13.6133 14.0933 13.3667 13.64 13.1C13.2 12.82 12.7333 12.54 12.24 12.26C11.76 11.98 11.3 11.74 10.86 11.54ZM9.84 17.02L10.66 15.92C11.0867 16.0933 11.5333 16.3 12 16.54C12.48 16.78 12.94 17.0267 13.38 17.28C13.82 17.5333 14.1733 17.7667 14.44 17.98L13.6 19.24C13.3333 19.0133 12.9867 18.7667 12.56 18.5C12.1333 18.2333 11.68 17.9733 11.2 17.72C10.72 17.4533 10.2667 17.22 9.84 17.02ZM10.52 27.32C10.8267 26.8667 11.1733 26.3267 11.56 25.7C11.9467 25.06 12.3333 24.3933 12.72 23.7C13.1067 22.9933 13.4667 22.3067 13.8 21.64L14.94 22.6C14.6333 23.2133 14.3 23.8533 13.94 24.52C13.5933 25.1867 13.24 25.8467 12.88 26.5C12.52 27.14 12.1667 27.74 11.82 28.3L10.52 27.32ZM32.2 10.44H33.48V17.28C33.48 18.6133 33.42 19.9467 33.3 21.28C33.18 22.6 32.92 23.88 32.52 25.12C32.12 26.3467 31.4933 27.5 30.64 28.58C30.5733 28.4733 30.48 28.36 30.36 28.24C30.24 28.12 30.1133 28 29.98 27.88C29.86 27.7733 29.7467 27.6867 29.64 27.62C30.4133 26.62 30.9733 25.5533 31.32 24.42C31.68 23.2867 31.9133 22.12 32.02 20.92C32.14 19.7067 32.2 18.5 32.2 17.3V10.44ZM30.68 14.38L31.68 14.5C31.6533 15.0467 31.6 15.64 31.52 16.28C31.4533 16.92 31.3533 17.54 31.22 18.14C31.0867 18.7267 30.92 19.2533 30.72 19.72L29.74 19.22C29.9267 18.82 30.08 18.3467 30.2 17.8C30.3333 17.24 30.44 16.6667 30.52 16.08C30.6 15.48 30.6533 14.9133 30.68 14.38ZM34.82 13.42L36 13.8C35.8533 14.2667 35.6933 14.7667 35.52 15.3C35.36 15.82 35.2 16.3267 35.04 16.82C34.8933 17.3 34.7467 17.72 34.6 18.08L33.74 17.78C33.8733 17.3933 34.0067 16.94 34.14 16.42C34.2867 15.9 34.42 15.38 34.54 14.86C34.66 14.3267 34.7533 13.8467 34.82 13.42ZM33.14 21.5C33.2467 21.6333 33.4133 21.8667 33.64 22.2C33.88 22.5333 34.1333 22.9 34.4 23.3C34.6667 23.6867 34.9133 24.0533 35.14 24.4C35.3667 24.7333 35.5267 24.9733 35.62 25.12L34.64 26.18C34.52 25.9267 34.3533 25.62 34.14 25.26C33.9267 24.8867 33.7 24.5067 33.46 24.12C33.2333 23.72 33.0067 23.3467 32.78 23C32.5667 22.6533 32.3867 22.38 32.24 22.18L33.14 21.5ZM40.28 15.46L41.08 14.8C41.4533 15.0267 41.8333 15.2867 42.22 15.58C42.6067 15.8733 42.9667 16.1667 43.3 16.46C43.6333 16.7533 43.9 17.0333 44.1 17.3L43.28 18.02C43.08 17.7533 42.8133 17.4733 42.48 17.18C42.16 16.8733 41.8067 16.5667 41.42 16.26C41.0467 15.9533 40.6667 15.6867 40.28 15.46ZM43.46 18.62L44.34 18.3C44.5933 18.7667 44.8267 19.28 45.04 19.84C45.2667 20.3867 45.46 20.92 45.62 21.44C45.7933 21.9467 45.92 22.4 46 22.8L45.04 23.2C44.9867 22.8133 44.88 22.36 44.72 21.84C44.56 21.3067 44.3667 20.76 44.14 20.2C43.9267 19.6267 43.7 19.1 43.46 18.62ZM40.2 17.76H41.26V23.34C41.26 23.5533 41.2867 23.6867 41.34 23.74C41.3933 23.7933 41.5067 23.82 41.68 23.82C41.7333 23.82 41.8333 23.82 41.98 23.82C42.1267 23.82 42.28 23.82 42.44 23.82C42.6 23.82 42.7067 23.82 42.76 23.82C42.8933 23.82 42.9867 23.7733 43.04 23.68C43.0933 23.5867 43.1333 23.3867 43.16 23.08C43.1867 22.7733 43.2067 22.3067 43.22 21.68C43.34 21.7733 43.4933 21.86 43.68 21.94C43.88 22.02 44.06 22.08 44.22 22.12C44.1933 22.84 44.1333 23.4 44.04 23.8C43.96 24.1867 43.8267 24.46 43.64 24.62C43.4667 24.7667 43.22 24.84 42.9 24.84C42.8333 24.84 42.7 24.84 42.5 24.84C42.3133 24.84 42.1267 24.84 41.94 24.84C41.7533 24.84 41.62 24.84 41.54 24.84C41.0067 24.84 40.6467 24.74 40.46 24.54C40.2867 24.34 40.2 23.9467 40.2 23.36V17.76ZM38.72 18.44L39.66 18.68C39.6067 19.2267 39.54 19.8067 39.46 20.42C39.38 21.02 39.2667 21.5933 39.12 22.14C38.9867 22.6867 38.8133 23.1667 38.6 23.58L37.72 23.1C37.92 22.7133 38.08 22.26 38.2 21.74C38.3333 21.22 38.44 20.6733 38.52 20.1C38.6133 19.5267 38.68 18.9733 38.72 18.44ZM40.5 10.98H46.5V12.34H40.5V10.98ZM46.12 10.98H47.5V26.72C47.5 27.1467 47.44 27.4733 47.32 27.7C47.2 27.94 46.9933 28.12 46.7 28.24C46.4067 28.3467 46 28.4133 45.48 28.44C44.9733 28.4667 44.3267 28.48 43.54 28.48C43.5133 28.2933 43.4533 28.0667 43.36 27.8C43.28 27.5333 43.1933 27.3133 43.1 27.14C43.6733 27.1533 44.2067 27.16 44.7 27.16C45.1933 27.1733 45.52 27.1733 45.68 27.16C45.84 27.1467 45.9533 27.1067 46.02 27.04C46.0867 26.9867 46.12 26.88 46.12 26.72V10.98ZM36.6 10.94L37.72 10.34C37.9867 10.7 38.26 11.0933 38.54 11.52C38.82 11.9467 39.08 12.3667 39.32 12.78C39.56 13.18 39.7467 13.5333 39.88 13.84L38.7 14.54C38.5667 14.22 38.38 13.8533 38.14 13.44C37.9133 13.0267 37.6667 12.6 37.4 12.16C37.1333 11.72 36.8667 11.3133 36.6 10.94ZM36.16 14.24H37.48V28.6H36.16V14.24ZM50.24 15.94H67.84V17.48H50.24V15.94ZM59.98 16.56C60.4333 18.1733 61.0267 19.68 61.76 21.08C62.5067 22.4667 63.4133 23.68 64.48 24.72C65.56 25.76 66.7867 26.5733 68.16 27.16C68.04 27.2667 67.9067 27.4 67.76 27.56C67.6267 27.7333 67.4933 27.9067 67.36 28.08C67.2267 28.2533 67.12 28.4133 67.04 28.56C65.6 27.8667 64.3267 26.9533 63.22 25.82C62.1267 24.6867 61.1933 23.3667 60.42 21.86C59.6467 20.3533 59.0067 18.7067 58.5 16.92L59.98 16.56ZM58.22 10.22H59.84C59.84 11.0867 59.8133 12.0533 59.76 13.12C59.72 14.1733 59.62 15.2733 59.46 16.42C59.3 17.5533 59.0333 18.7 58.66 19.86C58.3 21.0067 57.7933 22.12 57.14 23.2C56.5 24.2667 55.68 25.26 54.68 26.18C53.68 27.1 52.4533 27.8933 51 28.56C50.88 28.36 50.7067 28.14 50.48 27.9C50.2667 27.6733 50.06 27.48 49.86 27.32C51.2733 26.7067 52.46 25.9733 53.42 25.12C54.3933 24.2667 55.1867 23.3333 55.8 22.32C56.4133 21.3067 56.8867 20.26 57.22 19.18C57.5533 18.1 57.7867 17.0267 57.92 15.96C58.0533 14.88 58.1333 13.8533 58.16 12.88C58.2 11.9067 58.22 11.02 58.22 10.22ZM77.22 11.58H88.12V13.04H77.22V11.58ZM81.38 12.28H82.86V28.58H81.38V12.28ZM81.7 17.02L82.68 16.06C83.2533 16.46 83.8667 16.9067 84.52 17.4C85.1733 17.88 85.7933 18.36 86.38 18.84C86.9667 19.3067 87.4533 19.7267 87.84 20.1L86.82 21.22C86.46 20.8333 85.9867 20.3933 85.4 19.9C84.8267 19.4067 84.2133 18.9067 83.56 18.4C82.9067 17.8933 82.2867 17.4333 81.7 17.02ZM73.36 10.36H74.74V14.62H73.36V10.36ZM71.44 13.94H77.56V21.12H71.44V19.88H76.3V15.18H71.44V13.94ZM70.6 13.94H71.86V22.18H70.6V13.94ZM73.46 14.46H74.64V20.5H74.74V25.92H73.38V20.5H73.46V14.46ZM69.64 25.98C70.28 25.9 71.0067 25.8 71.82 25.68C72.6467 25.56 73.5133 25.4267 74.42 25.28C75.34 25.1333 76.2667 24.9867 77.2 24.84L77.28 26.18C75.96 26.3933 74.6467 26.6133 73.34 26.84C72.0467 27.0533 70.8933 27.2467 69.88 27.42L69.64 25.98ZM75.66 22.64L76.86 22.28C77.0867 22.8133 77.3 23.38 77.5 23.98C77.7133 24.5667 77.8933 25.1467 78.04 25.72C78.1867 26.2933 78.2933 26.8067 78.36 27.26L77.1 27.64C77.0333 27.1867 76.9267 26.6733 76.78 26.1C76.6333 25.5133 76.46 24.92 76.26 24.32C76.0733 23.72 75.8733 23.16 75.66 22.64Z" fill="black"/>
</svg>
