<svg width="92" height="37" viewBox="0 0 92 37" fill="none" xmlns="http://www.w3.org/2000/svg">
<rect x="0.5" y="0.5" width="91" height="36" fill="white"/>
<rect x="0.5" y="0.5" width="91" height="36" stroke="black"/>
<path d="M18.28 11.3H22.88V22.06H18.28V20.68H21.52V12.66H18.28V11.3ZM17.48 11.3H18.82V23.78H17.48V11.3ZM23.08 22.18H35.2V23.54H23.08V22.18ZM28.5 9.2L30.22 9.4C30.0333 9.88 29.8267 10.36 29.6 10.84C29.3867 11.3067 29.1933 11.7133 29.02 12.06L27.72 11.8C27.8667 11.4267 28.0133 10.9933 28.16 10.5C28.32 10.0067 28.4333 9.57333 28.5 9.2ZM25.68 15.78V17.78H32.84V15.78H25.68ZM25.68 12.68V14.62H32.84V12.68H25.68ZM24.3 11.44H34.28V19H24.3V11.44ZM29.94 19.08H31.38V27.6H29.94V19.08ZM28.48 11.98H29.84V15.88C29.84 16.4267 29.78 16.9867 29.66 17.56C29.54 18.1333 29.3133 18.7 28.98 19.26C28.6467 19.82 28.16 20.3467 27.52 20.84C26.88 21.3333 26.0467 21.7733 25.02 22.16C24.9267 22.0133 24.7933 21.8333 24.62 21.62C24.46 21.4067 24.3067 21.2467 24.16 21.14C25.1467 20.82 25.9267 20.4533 26.5 20.04C27.0867 19.6267 27.52 19.1867 27.8 18.72C28.08 18.24 28.26 17.76 28.34 17.28C28.4333 16.8 28.48 16.3333 28.48 15.88V11.98ZM41.82 10.3H55.1V11.68H41.82V10.3ZM43.28 21.7H53.56V23H43.28V21.7ZM43.28 25.3H53.56V26.62H43.28V25.3ZM42.54 14.38H54.36V27.52H52.92V15.72H43.92V27.58H42.54V14.38ZM37.42 10.62L38.26 9.54C38.62 9.74 39 9.96 39.4 10.2C39.8133 10.44 40.2067 10.6733 40.58 10.9C40.9667 11.1267 41.2867 11.3333 41.54 11.52L40.64 12.74C40.4 12.54 40.0933 12.32 39.72 12.08C39.36 11.8267 38.9733 11.5733 38.56 11.32C38.1467 11.0667 37.7667 10.8333 37.42 10.62ZM36.68 16L37.52 14.9C37.8933 15.0733 38.2867 15.2733 38.7 15.5C39.1267 15.7267 39.54 15.9533 39.94 16.18C40.34 16.3933 40.6667 16.5867 40.92 16.76L40.08 18C39.8267 17.8267 39.5 17.6267 39.1 17.4C38.7133 17.16 38.3067 16.92 37.88 16.68C37.4667 16.4267 37.0667 16.2 36.68 16ZM37.06 26.42C37.38 25.8867 37.7267 25.26 38.1 24.54C38.4867 23.82 38.88 23.06 39.28 22.26C39.68 21.4467 40.04 20.66 40.36 19.9L41.54 20.76C41.2467 21.4667 40.92 22.2067 40.56 22.98C40.2 23.7533 39.8333 24.5133 39.46 25.26C39.0867 25.9933 38.7333 26.6733 38.4 27.3L37.06 26.42ZM45.96 11.02H47.3V15.22H45.96V11.02ZM49.22 11H50.58V15.26H49.22V11ZM46.14 15.12H47.34V16.42C47.34 16.8867 47.2667 17.38 47.12 17.9C46.9733 18.4067 46.7 18.9 46.3 19.38C45.9133 19.86 45.3533 20.2933 44.62 20.68C44.5667 20.6 44.48 20.5067 44.36 20.4C44.2533 20.2933 44.14 20.1867 44.02 20.08C43.9133 19.9733 43.82 19.8933 43.74 19.84C44.3933 19.4933 44.8933 19.1267 45.24 18.74C45.5867 18.3533 45.82 17.96 45.94 17.56C46.0733 17.16 46.14 16.7733 46.14 16.4V15.12ZM49.18 15.16H50.38V18.16C50.38 18.3333 50.4067 18.4467 50.46 18.5C50.5267 18.54 50.68 18.56 50.92 18.56C50.9733 18.56 51.0667 18.56 51.2 18.56C51.3467 18.56 51.5067 18.56 51.68 18.56C51.8667 18.56 52.04 18.56 52.2 18.56C52.36 18.56 52.4733 18.56 52.54 18.56C52.6867 18.56 52.7867 18.5533 52.84 18.54C52.8933 18.5267 52.9333 18.5067 52.96 18.48C53.0667 18.5733 53.2267 18.6667 53.44 18.76C53.6667 18.84 53.8733 18.9 54.06 18.94C53.98 19.2467 53.8333 19.4667 53.62 19.6C53.42 19.72 53.12 19.78 52.72 19.78C52.6533 19.78 52.5267 19.78 52.34 19.78C52.1667 19.78 51.9667 19.78 51.74 19.78C51.5267 19.78 51.3267 19.78 51.14 19.78C50.9667 19.78 50.8467 19.78 50.78 19.78C50.3533 19.78 50.02 19.74 49.78 19.66C49.5533 19.5667 49.3933 19.4067 49.3 19.18C49.22 18.94 49.18 18.6067 49.18 18.18V15.16ZM58.04 14.98H64.42V16.26H58.04V14.98ZM58.04 19.42H64.42V20.72H58.04V19.42ZM57.4 10.56H65.3V21.58H64.04V11.86H58.64V21.86H57.4V10.56ZM60.74 11.18H62.04V27.6H60.74V11.18ZM73.48 19.34H74.78C74.78 19.34 74.7733 19.42 74.76 19.58C74.76 19.7267 74.76 19.8467 74.76 19.94C74.7067 21.5533 74.64 22.8467 74.56 23.82C74.4933 24.7933 74.4067 25.5333 74.3 26.04C74.2067 26.5467 74.0733 26.9 73.9 27.1C73.74 27.2867 73.5667 27.4133 73.38 27.48C73.2067 27.56 72.9867 27.6067 72.72 27.62C72.4933 27.6467 72.1867 27.66 71.8 27.66C71.4133 27.66 71.02 27.6467 70.62 27.62C70.6067 27.4467 70.5667 27.24 70.5 27C70.4333 26.7733 70.3467 26.5733 70.24 26.4C70.6533 26.44 71.04 26.46 71.4 26.46C71.76 26.4733 72.0133 26.48 72.16 26.48C72.3067 26.4933 72.4267 26.4867 72.52 26.46C72.6267 26.4333 72.72 26.3733 72.8 26.28C72.9067 26.1467 73 25.8533 73.08 25.4C73.1733 24.9333 73.2467 24.2333 73.3 23.3C73.3667 22.3533 73.4267 21.1133 73.48 19.58V19.34ZM69.82 9.22L71.24 9.48C71.0667 9.92 70.8867 10.3533 70.7 10.78C70.5267 11.2067 70.36 11.58 70.2 11.9L69.08 11.66C69.2133 11.3 69.3533 10.8933 69.5 10.44C69.6467 9.97333 69.7533 9.56667 69.82 9.22ZM72.9 11.18H74.14C74.14 11.18 74.1333 11.2533 74.12 11.4C74.12 11.5333 74.12 11.6467 74.12 11.74C74.08 13.06 74.0333 14.12 73.98 14.92C73.94 15.72 73.88 16.3267 73.8 16.74C73.7333 17.1533 73.6333 17.4467 73.5 17.62C73.3667 17.78 73.22 17.8933 73.06 17.96C72.9 18.0267 72.7067 18.0733 72.48 18.1C72.28 18.1267 72.0133 18.14 71.68 18.14C71.3467 18.14 70.9933 18.1267 70.62 18.1C70.62 17.9267 70.5867 17.7333 70.52 17.52C70.4667 17.3067 70.4 17.12 70.32 16.96C70.6667 17 70.9867 17.0267 71.28 17.04C71.5733 17.04 71.7867 17.04 71.92 17.04C72.04 17.04 72.14 17.0267 72.22 17C72.3133 16.9733 72.3867 16.92 72.44 16.84C72.5333 16.7333 72.6 16.4933 72.64 16.12C72.6933 15.7467 72.74 15.1867 72.78 14.44C72.82 13.68 72.86 12.6667 72.9 11.4V11.18ZM73.36 11.18V12.48H68.08V19.34H74.18V20.64H66.76V11.18H73.36ZM68.96 13.84L69.72 13.18C70.12 13.5133 70.5267 13.88 70.94 14.28C71.3533 14.68 71.68 15.02 71.92 15.3L71.1 16.08C70.8733 15.7867 70.5533 15.4267 70.14 15C69.7267 14.56 69.3333 14.1733 68.96 13.84ZM65.9 22.28H72.36V23.52H65.9V22.28Z" fill="black"/>
</svg>
