<svg width="113" height="40" viewBox="0 0 113 40" fill="none" xmlns="http://www.w3.org/2000/svg">
<rect x="0.5" y="0.5" width="112" height="39" fill="white"/>
<rect x="0.5" y="0.5" width="112" height="39" stroke="black"/>
<path d="M19.26 21.5H24.16V22.68H19.26V21.5ZM16.18 14.88C16.9267 14.8533 17.7733 14.82 18.72 14.78C19.68 14.74 20.6933 14.6933 21.76 14.64C22.8267 14.5867 23.9 14.5333 24.98 14.48L24.96 15.7C23.9333 15.7667 22.8933 15.8333 21.84 15.9C20.8 15.9533 19.8067 16.0067 18.86 16.06C17.9133 16.1133 17.0533 16.16 16.28 16.2L16.18 14.88ZM19.96 19.58L21.34 19.92C20.8467 21.0667 20.1933 22.1133 19.38 23.06C18.58 24.0067 17.72 24.8 16.8 25.44C16.7333 25.3467 16.6333 25.24 16.5 25.12C16.38 24.9867 16.2467 24.86 16.1 24.74C15.9667 24.62 15.8467 24.52 15.74 24.44C16.66 23.8933 17.4933 23.2 18.24 22.36C18.9867 21.52 19.56 20.5933 19.96 19.58ZM23.8 21.5H24.08L24.32 21.44L25.22 21.82C24.7667 23.22 24.1067 24.4333 23.24 25.46C22.3867 26.4733 21.4 27.3133 20.28 27.98C19.1733 28.6467 17.9933 29.1733 16.74 29.56C16.66 29.4 16.54 29.2 16.38 28.96C16.2333 28.72 16.0933 28.5333 15.96 28.4C17.12 28.0933 18.22 27.64 19.26 27.04C20.3133 26.44 21.24 25.7 22.04 24.82C22.84 23.9267 23.4267 22.9 23.8 21.74V21.5ZM19.44 22.56C19.84 23.4933 20.38 24.3533 21.06 25.14C21.7533 25.9133 22.56 26.58 23.48 27.14C24.4133 27.6867 25.4333 28.1 26.54 28.38C26.3933 28.5267 26.2267 28.72 26.04 28.96C25.8667 29.2 25.7333 29.4133 25.64 29.6C24.4667 29.2533 23.4 28.76 22.44 28.12C21.4933 27.4933 20.66 26.74 19.94 25.86C19.2333 24.98 18.66 23.9933 18.22 22.9L19.44 22.56ZM18.72 15.8H20.04C19.9733 16.5867 19.8333 17.2867 19.62 17.9C19.4067 18.5133 19.0733 19.0467 18.62 19.5C18.18 19.9533 17.56 20.3333 16.76 20.64C16.6933 20.48 16.58 20.2933 16.42 20.08C16.26 19.8667 16.1067 19.7 15.96 19.58C16.64 19.3533 17.1667 19.0667 17.54 18.72C17.9267 18.3733 18.2067 17.96 18.38 17.48C18.5533 16.9867 18.6667 16.4267 18.72 15.8ZM21.68 15.76H23V18.34C23 18.5267 23.0267 18.6467 23.08 18.7C23.1333 18.74 23.26 18.76 23.46 18.76C23.5133 18.76 23.62 18.76 23.78 18.76C23.9533 18.76 24.1267 18.76 24.3 18.76C24.4867 18.76 24.62 18.76 24.7 18.76C24.82 18.76 24.9067 18.7333 24.96 18.68C25.0267 18.6133 25.0733 18.4733 25.1 18.26C25.14 18.0467 25.1667 17.7133 25.18 17.26C25.3133 17.3667 25.4933 17.46 25.72 17.54C25.9467 17.62 26.1533 17.6867 26.34 17.74C26.2733 18.62 26.1333 19.2067 25.92 19.5C25.72 19.7933 25.3733 19.94 24.88 19.94C24.8133 19.94 24.7067 19.94 24.56 19.94C24.4133 19.94 24.2467 19.94 24.06 19.94C23.8867 19.94 23.7267 19.94 23.58 19.94C23.4333 19.94 23.3333 19.94 23.28 19.94C22.8533 19.94 22.52 19.8933 22.28 19.8C22.0533 19.7067 21.8933 19.5467 21.8 19.32C21.72 19.08 21.68 18.7533 21.68 18.34V15.76ZM19.52 11.16L20.98 11.62C20.7533 12.0733 20.5067 12.5533 20.24 13.06C19.9867 13.5533 19.7267 14.0333 19.46 14.5C19.1933 14.9533 18.94 15.36 18.7 15.72L17.56 15.3C17.7867 14.9267 18.02 14.5 18.26 14.02C18.5133 13.5267 18.7467 13.0267 18.96 12.52C19.1867 12.0133 19.3733 11.56 19.52 11.16ZM22.42 13.16L23.5 12.58C23.8733 12.9133 24.2467 13.2867 24.62 13.7C25.0067 14.1 25.36 14.5067 25.68 14.92C26 15.32 26.2533 15.6867 26.44 16.02L25.28 16.68C25.1067 16.36 24.8667 15.9933 24.56 15.58C24.2533 15.1667 23.9133 14.7533 23.54 14.34C23.1667 13.9133 22.7933 13.52 22.42 13.16ZM8.26 15.86H15.98V29.26H14.78V17.14H9.44V29.52H8.26V15.86ZM8.78 23.7H15.48V24.88H8.78V23.7ZM8.78 26.9H15.48V28.12H8.78V26.9ZM8.08 12.1H16.06V13.38H8.08V12.1ZM10.4 12.5H11.5V16.86H10.4V12.5ZM12.66 12.5H13.76V16.86H12.66V12.5ZM10.66 16.78H11.52V18.66C11.52 19.0467 11.48 19.4667 11.4 19.92C11.32 20.3733 11.1667 20.82 10.94 21.26C10.7133 21.7 10.3933 22.1067 9.98 22.48C9.91333 22.3867 9.80667 22.28 9.66 22.16C9.52667 22.04 9.41333 21.9533 9.32 21.9C9.70667 21.5667 9.99333 21.22 10.18 20.86C10.38 20.4867 10.5067 20.1133 10.56 19.74C10.6267 19.3533 10.66 18.9867 10.66 18.64V16.78ZM12.62 16.78H13.48V20.28C13.48 20.4 13.4933 20.48 13.52 20.52C13.5467 20.5467 13.62 20.56 13.74 20.56C13.78 20.56 13.8467 20.56 13.94 20.56C14.0467 20.56 14.1467 20.56 14.24 20.56C14.3467 20.56 14.4267 20.56 14.48 20.56C14.5867 20.56 14.66 20.5533 14.7 20.54C14.7533 20.5267 14.7867 20.5133 14.8 20.5C14.88 20.58 14.9933 20.6467 15.14 20.7C15.3 20.7533 15.4467 20.8 15.58 20.84C15.4733 21.24 15.16 21.44 14.64 21.44C14.6 21.44 14.5067 21.44 14.36 21.44C14.2267 21.44 14.0867 21.44 13.94 21.44C13.8067 21.44 13.7133 21.44 13.66 21.44C13.26 21.44 12.9867 21.3667 12.84 21.22C12.6933 21.0733 12.62 20.7667 12.62 20.3V16.78ZM28.22 12.6H45.84V13.94H28.22V12.6ZM32.88 11.2H34.4V15.54H32.88V11.2ZM39.58 11.2H41.1V15.32H39.58V11.2ZM28.16 22.72H45.92V24.08H28.16V22.72ZM36.18 21.18H37.74V29.6H36.18V21.18ZM35.58 23.3L36.82 23.86C36.2067 24.6333 35.4533 25.3667 34.56 26.06C33.6667 26.74 32.7133 27.3533 31.7 27.9C30.6867 28.4467 29.6933 28.8867 28.72 29.22C28.64 29.0867 28.54 28.94 28.42 28.78C28.3 28.62 28.1733 28.46 28.04 28.3C27.9067 28.14 27.7867 28.0133 27.68 27.92C28.4133 27.7067 29.1533 27.44 29.9 27.12C30.66 26.8 31.3933 26.44 32.1 26.04C32.8067 25.6267 33.46 25.1933 34.06 24.74C34.66 24.2733 35.1667 23.7933 35.58 23.3ZM38.36 23.38C38.9067 24.0333 39.6067 24.6467 40.46 25.22C41.3133 25.7933 42.24 26.3 43.24 26.74C44.24 27.18 45.24 27.5267 46.24 27.78C46.1333 27.8733 46.0133 28 45.88 28.16C45.7467 28.32 45.62 28.48 45.5 28.64C45.3933 28.8 45.3 28.9533 45.22 29.1C44.22 28.78 43.2133 28.3667 42.2 27.86C41.2 27.34 40.2667 26.74 39.4 26.06C38.5333 25.38 37.8 24.66 37.2 23.9L38.36 23.38ZM43.22 15.1L44.42 16.28C43.4333 16.5067 42.3267 16.7067 41.1 16.88C39.8867 17.04 38.6 17.18 37.24 17.3C35.8933 17.42 34.5267 17.5133 33.14 17.58C31.7667 17.6467 30.44 17.6933 29.16 17.72C29.1467 17.5333 29.1 17.3133 29.02 17.06C28.9533 16.7933 28.8867 16.58 28.82 16.42C30.0733 16.3933 31.3733 16.3467 32.72 16.28C34.0667 16.2 35.3867 16.1067 36.68 16C37.9867 15.8933 39.2 15.7667 40.32 15.62C41.44 15.46 42.4067 15.2867 43.22 15.1ZM29.72 18.76L30.98 18.22C31.38 18.66 31.7533 19.16 32.1 19.72C32.4467 20.28 32.6933 20.7667 32.84 21.18L31.5 21.76C31.3667 21.3333 31.1333 20.84 30.8 20.28C30.4667 19.72 30.1067 19.2133 29.72 18.76ZM35.24 18.22L36.56 17.8C36.8533 18.2267 37.12 18.7 37.36 19.22C37.6 19.74 37.76 20.1933 37.84 20.58L36.42 21.06C36.3533 20.6733 36.2067 20.22 35.98 19.7C35.7667 19.1667 35.52 18.6733 35.24 18.22ZM43.14 17.48L44.66 18.04C44.2467 18.7067 43.8 19.3933 43.32 20.1C42.8533 20.8067 42.4267 21.4067 42.04 21.9L40.88 21.36C41.1333 21.0267 41.4 20.6333 41.68 20.18C41.96 19.7133 42.2267 19.2467 42.48 18.78C42.7467 18.3 42.9667 17.8667 43.14 17.48ZM48.1 16.32H54.1V17.84H48.1V16.32ZM56.24 11.24H57.82V27.48C57.82 28.0133 57.74 28.4133 57.58 28.68C57.4333 28.9467 57.1933 29.1533 56.86 29.3C56.5267 29.42 56.06 29.5 55.46 29.54C54.86 29.5933 54.1 29.62 53.18 29.62C53.1533 29.46 53.1067 29.28 53.04 29.08C52.9733 28.8933 52.9 28.7 52.82 28.5C52.74 28.3 52.6533 28.1267 52.56 27.98C53.2933 27.9933 53.9467 28 54.52 28C55.1067 28.0133 55.5 28.0133 55.7 28C55.9 27.9867 56.04 27.9467 56.12 27.88C56.2 27.8 56.24 27.6667 56.24 27.48V11.24ZM53.58 16.32H53.9L54.18 16.26L55.2 16.66C54.8533 18.4067 54.3667 19.9867 53.74 21.4C53.1133 22.8133 52.38 24.0467 51.54 25.1C50.7 26.1533 49.7867 27.0067 48.8 27.66C48.72 27.54 48.6067 27.4067 48.46 27.26C48.3133 27.1 48.16 26.9467 48 26.8C47.84 26.6533 47.7 26.5467 47.58 26.48C48.54 25.88 49.42 25.1067 50.22 24.16C51.02 23.2133 51.7067 22.1133 52.28 20.86C52.8667 19.5933 53.3 18.2 53.58 16.68V16.32ZM57.72 14.52C58.0667 15.8533 58.5067 17.1467 59.04 18.4C59.5733 19.6533 60.2 20.82 60.92 21.9C61.64 22.9667 62.46 23.9133 63.38 24.74C64.3 25.5667 65.32 26.22 66.44 26.7C66.32 26.7933 66.1867 26.92 66.04 27.08C65.8933 27.24 65.7533 27.4067 65.62 27.58C65.4867 27.7533 65.3733 27.9133 65.28 28.06C63.76 27.3133 62.4333 26.28 61.3 24.96C60.18 23.6267 59.2267 22.0933 58.44 20.36C57.6667 18.6133 57.0333 16.7533 56.54 14.78L57.72 14.52ZM64.26 14.44L65.64 15.42C65.0933 16.0333 64.4867 16.6733 63.82 17.34C63.1667 17.9933 62.5067 18.62 61.84 19.22C61.1733 19.82 60.5467 20.3467 59.96 20.8L58.9 19.96C59.4733 19.4933 60.0867 18.9467 60.74 18.32C61.4067 17.68 62.0467 17.0267 62.66 16.36C63.2867 15.68 63.82 15.04 64.26 14.44ZM74.98 11.2H76.48V16.64H74.98V11.2ZM69.9 12.78H80.98V14.04H69.9V12.78ZM68.16 15.96H85.9V17.26H68.16V15.96ZM83.44 11.86L84.7 12.6C83.7267 13.64 82.6133 14.6 81.36 15.48C80.1067 16.3467 78.76 17.1333 77.32 17.84C75.8933 18.5467 74.4133 19.18 72.88 19.74C71.36 20.3 69.8333 20.7933 68.3 21.22C68.26 21.1 68.1867 20.96 68.08 20.8C67.9867 20.6267 67.8867 20.46 67.78 20.3C67.6867 20.1267 67.5933 19.9867 67.5 19.88C69.0333 19.52 70.5533 19.08 72.06 18.56C73.58 18.04 75.04 17.4467 76.44 16.78C77.84 16.1 79.1333 15.3533 80.32 14.54C81.52 13.7133 82.56 12.82 83.44 11.86ZM73.1 22.44V24.04H81.9V22.44H73.1ZM73.1 19.8V21.38H81.9V19.8H73.1ZM71.64 18.72H83.42V25.14H71.64V18.72ZM73.8 26.1L75.18 25.98C75.3133 26.5133 75.42 27.0867 75.5 27.7C75.5933 28.3 75.6467 28.8067 75.66 29.22L74.16 29.42C74.16 28.9933 74.1267 28.4667 74.06 27.84C73.9933 27.2133 73.9067 26.6333 73.8 26.1ZM77.98 26.08L79.36 25.8C79.6133 26.3067 79.86 26.8667 80.1 27.48C80.34 28.08 80.5067 28.5933 80.6 29.02L79.12 29.36C79.04 28.9333 78.8867 28.4067 78.66 27.78C78.4467 27.1533 78.22 26.5867 77.98 26.08ZM82.14 25.98L83.46 25.46C83.78 25.8067 84.1 26.1933 84.42 26.62C84.7533 27.0467 85.06 27.4667 85.34 27.88C85.62 28.28 85.84 28.64 86 28.96L84.6 29.56C84.44 29.24 84.22 28.8733 83.94 28.46C83.6733 28.0467 83.38 27.6267 83.06 27.2C82.7533 26.76 82.4467 26.3533 82.14 25.98ZM70.48 25.46L71.92 25.86C71.6133 26.5267 71.2333 27.1933 70.78 27.86C70.3267 28.5267 69.84 29.0867 69.32 29.54L67.96 28.84C68.4533 28.4667 68.9267 27.9733 69.38 27.36C69.8333 26.7333 70.2 26.1 70.48 25.46ZM91.78 21.5V24.1H102.48V21.5H91.78ZM91.78 17.7V20.28H102.48V17.7H91.78ZM90.32 16.4H103.98V25.4H90.32V16.4ZM96.3 17.1H97.76V24.5H96.3V17.1ZM94 12.84H99.88V14.18H93.04L94 12.84ZM93.84 11.12L95.5 11.46C95.0333 12.2333 94.4867 13.0267 93.86 13.84C93.2333 14.6533 92.52 15.4533 91.72 16.24C90.9333 17.0133 90.0533 17.74 89.08 18.42C89.0133 18.3 88.92 18.1667 88.8 18.02C88.68 17.86 88.5533 17.7133 88.42 17.58C88.3 17.4333 88.1867 17.32 88.08 17.24C88.9867 16.6533 89.8067 16.0133 90.54 15.32C91.2733 14.6133 91.92 13.9 92.48 13.18C93.04 12.46 93.4933 11.7733 93.84 11.12ZM99.52 12.84H99.86L100.1 12.78L101.1 13.42C100.873 13.8733 100.587 14.3467 100.24 14.84C99.8933 15.3333 99.5267 15.8133 99.14 16.28C98.7667 16.7333 98.4 17.1333 98.04 17.48C97.8933 17.36 97.7067 17.2333 97.48 17.1C97.2533 16.9533 97.0533 16.8333 96.88 16.74C97.2267 16.42 97.5667 16.0467 97.9 15.62C98.2467 15.1933 98.56 14.76 98.84 14.32C99.1333 13.88 99.36 13.4867 99.52 13.14V12.84ZM88.22 27.28H105.8V28.7H88.22V27.28Z" fill="black"/>
</svg>
