<svg width="113" height="40" viewBox="0 0 113 40" fill="none" xmlns="http://www.w3.org/2000/svg">
<rect x="0.5" y="0.5" width="112" height="39" fill="white"/>
<rect x="0.5" y="0.5" width="112" height="39" stroke="black"/>
<path d="M11.1 21.68H23.2V29.56H21.66V22.9H12.58V29.6H11.1V21.68ZM11.98 24.68H22.18V25.8H11.98V24.68ZM11.98 27.68H22.32V28.88H11.98V27.68ZM8.14 15.8H25.88V17.16H8.14V15.8ZM16.2 13.06H17.76V21.14H16.2V13.06ZM15.46 16.12L16.66 16.62C16.22 17.2733 15.6933 17.9067 15.08 18.52C14.4667 19.1333 13.8067 19.7067 13.1 20.24C12.4067 20.7733 11.6867 21.26 10.94 21.7C10.2067 22.14 9.47333 22.5067 8.74 22.8C8.67333 22.6667 8.58 22.5267 8.46 22.38C8.35333 22.2333 8.23333 22.0933 8.1 21.96C7.98 21.8133 7.86 21.6867 7.74 21.58C8.46 21.3267 9.18667 21.0067 9.92 20.62C10.6667 20.2333 11.38 19.8 12.06 19.32C12.7533 18.84 13.3933 18.3333 13.98 17.8C14.5667 17.2533 15.06 16.6933 15.46 16.12ZM18.48 16.16C18.8933 16.6933 19.4 17.22 20 17.74C20.6133 18.2467 21.2667 18.7267 21.96 19.18C22.6533 19.6333 23.3733 20.0467 24.12 20.42C24.8667 20.7933 25.5933 21.1067 26.3 21.36C26.1933 21.4533 26.0733 21.5733 25.94 21.72C25.82 21.8667 25.7 22.0133 25.58 22.16C25.4733 22.3067 25.3867 22.44 25.32 22.56C24.6 22.28 23.8667 21.9333 23.12 21.52C22.3867 21.0933 21.66 20.6267 20.94 20.12C20.2333 19.6 19.5667 19.0533 18.94 18.48C18.3133 17.8933 17.7667 17.3 17.3 16.7L18.48 16.16ZM22.56 11.34L23.7 12.54C22.8333 12.7667 21.8533 12.9667 20.76 13.14C19.68 13.3133 18.54 13.4667 17.34 13.6C16.14 13.7333 14.9267 13.8467 13.7 13.94C12.4733 14.02 11.2867 14.0867 10.14 14.14C10.1267 13.9533 10.08 13.74 10 13.5C9.92 13.2467 9.84 13.0333 9.76 12.86C10.8933 12.8067 12.06 12.7333 13.26 12.64C14.46 12.5467 15.6333 12.44 16.78 12.32C17.9267 12.1867 18.9933 12.04 19.98 11.88C20.98 11.72 21.84 11.54 22.56 11.34ZM31.22 11.18H32.66V14.4H31.22V11.18ZM40.16 11.18H41.62V29.62H40.16V11.18ZM28.14 13.8H35.64V15.08H28.14V13.8ZM36 13.54H46.06V14.88H36V13.54ZM27.88 19.24H35.84V20.5H27.88V19.24ZM29.14 15.7L30.26 15.38C30.4733 15.9 30.6467 16.4733 30.78 17.1C30.9133 17.7133 30.9933 18.24 31.02 18.68L29.82 19.04C29.7933 18.6 29.72 18.0667 29.6 17.44C29.48 16.8 29.3267 16.22 29.14 15.7ZM33.56 15.28L34.92 15.62C34.7067 16.2067 34.48 16.8267 34.24 17.48C34 18.12 33.78 18.66 33.58 19.1L32.5 18.78C32.6333 18.46 32.7667 18.1 32.9 17.7C33.0333 17.2867 33.16 16.8667 33.28 16.44C33.4 16.0133 33.4933 15.6267 33.56 15.28ZM27.8 23.58C28.48 23.4733 29.2533 23.3467 30.12 23.2C31 23.04 31.9267 22.8733 32.9 22.7C33.8733 22.5133 34.8467 22.3333 35.82 22.16L35.9 23.4C34.5267 23.6667 33.16 23.94 31.8 24.22C30.44 24.4867 29.22 24.7267 28.14 24.94L27.8 23.58ZM37.74 18V21.02H44.28V18H37.74ZM36.4 16.8H45.68V22.2H36.4V16.8ZM41.9 21.72C42.2467 22.4267 42.6733 23.1467 43.18 23.88C43.6867 24.6 44.2333 25.2733 44.82 25.9C45.42 26.5133 46 27.0133 46.56 27.4C46.4133 27.5333 46.2333 27.7133 46.02 27.94C45.82 28.1533 45.66 28.3533 45.54 28.54C44.9667 28.0733 44.3867 27.4933 43.8 26.8C43.2267 26.0933 42.68 25.3333 42.16 24.52C41.6533 23.7067 41.2133 22.9 40.84 22.1L41.9 21.72ZM39.84 21.74L41.02 22.2C40.6067 23.08 40.0933 23.9333 39.48 24.76C38.88 25.5867 38.22 26.3467 37.5 27.04C36.7933 27.72 36.08 28.28 35.36 28.72C35.28 28.6133 35.18 28.4867 35.06 28.34C34.94 28.2067 34.82 28.0733 34.7 27.94C34.58 27.8067 34.46 27.6933 34.34 27.6C35.06 27.2267 35.7667 26.7333 36.46 26.12C37.1667 25.4933 37.8133 24.8067 38.4 24.06C38.9867 23.3 39.4667 22.5267 39.84 21.74ZM31.22 19.74H32.66V23.1C32.66 23.6067 32.62 24.1533 32.54 24.74C32.46 25.3133 32.3067 25.8933 32.08 26.48C31.8667 27.0667 31.5533 27.6267 31.14 28.16C30.74 28.7067 30.2067 29.2 29.54 29.64C29.4867 29.5467 29.4 29.4333 29.28 29.3C29.1733 29.1667 29.06 29.04 28.94 28.92C28.82 28.8 28.7 28.7 28.58 28.62C29.1933 28.26 29.6733 27.8533 30.02 27.4C30.3667 26.9333 30.6267 26.4467 30.8 25.94C30.9733 25.4333 31.0867 24.94 31.14 24.46C31.1933 23.9667 31.22 23.5067 31.22 23.08V19.74ZM56.56 16.48H66.12V17.88H56.56V16.48ZM62.22 12.26L63.36 11.74C63.7733 12.2333 64.18 12.78 64.58 13.38C64.98 13.98 65.2733 14.5 65.46 14.94L64.26 15.56C64.14 15.2533 63.9667 14.9133 63.74 14.54C63.5133 14.1533 63.2667 13.76 63 13.36C62.7467 12.96 62.4867 12.5933 62.22 12.26ZM59.82 11.18H61.22V15.38C61.22 16.22 61.1933 17.12 61.14 18.08C61.0867 19.0267 60.9867 20 60.84 21C60.6933 22 60.4667 23 60.16 24C59.8533 24.9867 59.4467 25.96 58.94 26.92C58.4333 27.8667 57.8 28.7667 57.04 29.62C56.9467 29.5133 56.8333 29.4 56.7 29.28C56.5667 29.1733 56.42 29.06 56.26 28.94C56.1133 28.8333 55.9733 28.7467 55.84 28.68C56.5867 27.8933 57.2 27.0533 57.68 26.16C58.16 25.2667 58.54 24.3533 58.82 23.42C59.1133 22.4867 59.3267 21.5533 59.46 20.62C59.6067 19.6867 59.7 18.78 59.74 17.9C59.7933 17.0067 59.82 16.1733 59.82 15.4V11.18ZM61.28 18.94H62.68V27.24C62.68 27.5067 62.7067 27.68 62.76 27.76C62.8133 27.84 62.9467 27.88 63.16 27.88C63.2267 27.88 63.3533 27.88 63.54 27.88C63.7267 27.88 63.9133 27.88 64.1 27.88C64.3 27.88 64.44 27.88 64.52 27.88C64.6667 27.88 64.7733 27.82 64.84 27.7C64.9067 27.5667 64.9533 27.3067 64.98 26.92C65.02 26.5333 65.0467 25.9533 65.06 25.18C65.2067 25.3 65.4067 25.42 65.66 25.54C65.9133 25.6467 66.1333 25.7267 66.32 25.78C66.28 26.66 66.2067 27.3533 66.1 27.86C65.9933 28.3533 65.8267 28.7 65.6 28.9C65.3733 29.1 65.0533 29.2 64.64 29.2C64.5733 29.2 64.46 29.2 64.3 29.2C64.14 29.2 63.9667 29.2 63.78 29.2C63.6067 29.2 63.44 29.2 63.28 29.2C63.1333 29.2 63.02 29.2 62.94 29.2C62.5 29.2 62.1533 29.14 61.9 29.02C61.66 28.9133 61.4933 28.7133 61.4 28.42C61.32 28.14 61.28 27.7467 61.28 27.24V18.94ZM50.9 12.94H54.54V14.12H50.9V12.94ZM51.84 17.1H52.92V24.04H51.84V17.1ZM54.18 12.94H54.48L54.76 12.86L55.6 13.46C55.2933 14.1 54.9267 14.7667 54.5 15.46C54.0733 16.1533 53.6667 16.74 53.28 17.22C53.1867 17.1133 53.06 16.9867 52.9 16.84C52.7533 16.6933 52.6267 16.58 52.52 16.5C52.72 16.1933 52.9267 15.8533 53.14 15.48C53.3533 15.0933 53.5467 14.7 53.72 14.3C53.9067 13.9 54.06 13.5333 54.18 13.2V12.94ZM49.98 21.24V23.84H54.8V21.24H49.98ZM49.98 17.54V20.1H54.8V17.54H49.98ZM48.8 16.34H56.02V25.04H48.8V16.34ZM50.84 11.18L52.18 11.38C51.8333 12.42 51.38 13.5133 50.82 14.66C50.26 15.8067 49.5667 16.88 48.74 17.88C48.62 17.7467 48.46 17.6 48.26 17.44C48.06 17.28 47.8733 17.1533 47.7 17.06C48.22 16.4733 48.68 15.84 49.08 15.16C49.48 14.48 49.8267 13.7933 50.12 13.1C50.4133 12.4067 50.6533 11.7667 50.84 11.18ZM47.94 27.26C48.6467 27.1933 49.4533 27.1133 50.36 27.02C51.2667 26.9133 52.2333 26.8 53.26 26.68C54.2867 26.56 55.32 26.44 56.36 26.32L56.4 27.54C54.92 27.74 53.4533 27.9333 52 28.12C50.5467 28.3067 49.2733 28.4733 48.18 28.62L47.94 27.26ZM71.78 21.5V24.1H82.48V21.5H71.78ZM71.78 17.7V20.28H82.48V17.7H71.78ZM70.32 16.4H83.98V25.4H70.32V16.4ZM76.3 17.1H77.76V24.5H76.3V17.1ZM74 12.84H79.88V14.18H73.04L74 12.84ZM73.84 11.12L75.5 11.46C75.0333 12.2333 74.4867 13.0267 73.86 13.84C73.2333 14.6533 72.52 15.4533 71.72 16.24C70.9333 17.0133 70.0533 17.74 69.08 18.42C69.0133 18.3 68.92 18.1667 68.8 18.02C68.68 17.86 68.5533 17.7133 68.42 17.58C68.3 17.4333 68.1867 17.32 68.08 17.24C68.9867 16.6533 69.8067 16.0133 70.54 15.32C71.2733 14.6133 71.92 13.9 72.48 13.18C73.04 12.46 73.4933 11.7733 73.84 11.12ZM79.52 12.84H79.86L80.1 12.78L81.1 13.42C80.8733 13.8733 80.5867 14.3467 80.24 14.84C79.8933 15.3333 79.5267 15.8133 79.14 16.28C78.7667 16.7333 78.4 17.1333 78.04 17.48C77.8933 17.36 77.7067 17.2333 77.48 17.1C77.2533 16.9533 77.0533 16.8333 76.88 16.74C77.2267 16.42 77.5667 16.0467 77.9 15.62C78.2467 15.1933 78.56 14.76 78.84 14.32C79.1333 13.88 79.36 13.4867 79.52 13.14V12.84ZM68.22 27.28H85.8V28.7H68.22V27.28ZM89.14 19.92C89.1133 19.8267 89.0733 19.6933 89.02 19.52C88.9667 19.3467 88.9067 19.1733 88.84 19C88.7733 18.8133 88.7133 18.66 88.66 18.54C88.8467 18.5 89.0333 18.3667 89.22 18.14C89.42 17.9 89.64 17.6 89.88 17.24C90.0133 17.0667 90.1933 16.78 90.42 16.38C90.66 15.98 90.9267 15.5067 91.22 14.96C91.5267 14.4133 91.8267 13.8267 92.12 13.2C92.4267 12.56 92.6933 11.92 92.92 11.28L94.34 11.84C93.9533 12.72 93.52 13.6 93.04 14.48C92.5733 15.3467 92.0933 16.18 91.6 16.98C91.1067 17.7667 90.6067 18.48 90.1 19.12V19.14C90.1 19.14 90.0533 19.1667 89.96 19.22C89.8667 19.2733 89.7533 19.3467 89.62 19.44C89.4867 19.52 89.3733 19.6067 89.28 19.7C89.1867 19.78 89.14 19.8533 89.14 19.92ZM89.14 19.92V18.82L89.92 18.36L94.42 18.16C94.3133 18.36 94.2067 18.5867 94.1 18.84C93.9933 19.0933 93.9133 19.3 93.86 19.46C92.9133 19.5133 92.1533 19.56 91.58 19.6C91.0067 19.64 90.5533 19.68 90.22 19.72C89.9 19.76 89.66 19.7933 89.5 19.82C89.3533 19.8467 89.2333 19.88 89.14 19.92ZM89.38 25.16C89.3667 25.0533 89.3267 24.9133 89.26 24.74C89.2067 24.5667 89.1467 24.3933 89.08 24.22C89.0133 24.0333 88.9467 23.88 88.88 23.76C89.12 23.6933 89.38 23.5267 89.66 23.26C89.9533 22.9933 90.28 22.6467 90.64 22.22C90.84 22.02 91.1333 21.68 91.52 21.2C91.92 20.7067 92.3667 20.1267 92.86 19.46C93.3533 18.78 93.8533 18.0533 94.36 17.28C94.8667 16.5067 95.3267 15.7267 95.74 14.94L97.08 15.64C96.4267 16.7333 95.7267 17.8067 94.98 18.86C94.2467 19.9 93.4867 20.8867 92.7 21.82C91.9133 22.74 91.1333 23.58 90.36 24.34V24.38C90.36 24.38 90.3133 24.4067 90.22 24.46C90.1267 24.5133 90.0133 24.58 89.88 24.66C89.7467 24.7267 89.6267 24.8067 89.52 24.9C89.4267 24.9933 89.38 25.08 89.38 25.16ZM89.38 25.16V23.98L90.24 23.48L96.48 23.16C96.44 23.36 96.4067 23.5933 96.38 23.86C96.3667 24.1267 96.3667 24.34 96.38 24.5C94.94 24.5933 93.78 24.6733 92.9 24.74C92.0333 24.8067 91.36 24.86 90.88 24.9C90.4133 24.94 90.0733 24.98 89.86 25.02C89.66 25.06 89.5 25.1067 89.38 25.16ZM97.36 19.8C97.3333 19.6933 97.2933 19.56 97.24 19.4C97.1867 19.2267 97.1267 19.0533 97.06 18.88C96.9933 18.6933 96.9333 18.54 96.88 18.42C97.0667 18.38 97.26 18.2467 97.46 18.02C97.66 17.7933 97.8867 17.5 98.14 17.14C98.26 16.9667 98.44 16.6867 98.68 16.3C98.92 15.9 99.1933 15.4333 99.5 14.9C99.8067 14.3533 100.113 13.7667 100.42 13.14C100.727 12.5133 101 11.8867 101.24 11.26L102.66 11.82C102.26 12.7 101.82 13.5733 101.34 14.44C100.86 15.2933 100.367 16.1133 99.86 16.9C99.3533 17.6733 98.84 18.3733 98.32 19V19.04C98.32 19.04 98.2733 19.0667 98.18 19.12C98.0867 19.1733 97.9733 19.24 97.84 19.32C97.7067 19.3867 97.5933 19.4667 97.5 19.56C97.4067 19.6533 97.36 19.7333 97.36 19.8ZM97.36 19.8V18.7L98.14 18.24L102.62 18.06C102.527 18.2467 102.427 18.4667 102.32 18.72C102.213 18.9733 102.133 19.18 102.08 19.34C101.147 19.4067 100.387 19.46 99.8 19.5C99.2267 19.54 98.7733 19.58 98.44 19.62C98.12 19.6467 97.88 19.6733 97.72 19.7C97.5733 19.7267 97.4533 19.76 97.36 19.8ZM97.56 25.04C97.5333 24.9467 97.4933 24.8133 97.44 24.64C97.3867 24.4667 97.3267 24.2933 97.26 24.12C97.1933 23.9333 97.1333 23.78 97.08 23.66C97.3067 23.5933 97.5667 23.4333 97.86 23.18C98.1533 22.9133 98.4933 22.58 98.88 22.18C99.0933 21.98 99.4 21.6467 99.8 21.18C100.213 20.7 100.673 20.1333 101.18 19.48C101.687 18.8267 102.2 18.12 102.72 17.36C103.24 16.6 103.727 15.8333 104.18 15.06L105.52 15.78C104.827 16.8467 104.093 17.8933 103.32 18.92C102.547 19.9467 101.753 20.9133 100.94 21.82C100.14 22.7133 99.34 23.5267 98.54 24.26V24.3C98.54 24.3 98.4933 24.3267 98.4 24.38C98.3067 24.42 98.1867 24.48 98.04 24.56C97.9067 24.6267 97.7933 24.7067 97.7 24.8C97.6067 24.88 97.56 24.96 97.56 25.04ZM97.56 25.04L97.54 23.88L98.44 23.38L105.3 23.08C105.273 23.28 105.247 23.5133 105.22 23.78C105.193 24.0467 105.18 24.26 105.18 24.42C103.927 24.4867 102.873 24.5467 102.02 24.6C101.167 24.6533 100.467 24.7 99.92 24.74C99.3867 24.7667 98.96 24.8 98.64 24.84C98.3333 24.8667 98.1 24.9 97.94 24.94C97.7933 24.98 97.6667 25.0133 97.56 25.04ZM88.04 27.02H105.92V28.44H88.04V27.02Z" fill="black"/>
</svg>
