<svg width="113" height="40" viewBox="0 0 113 40" fill="none" xmlns="http://www.w3.org/2000/svg">
<rect x="0.5" y="0.5" width="112" height="39" fill="white"/>
<rect x="0.5" y="0.5" width="112" height="39" stroke="black"/>
<path d="M8.14 12.6H25.88V13.86H8.14V12.6ZM12.86 11.2H14.34V15.34H12.86V11.2ZM19.58 11.2H21.06V15.3H19.58V11.2ZM9.62 15.7H13.22V16.94H9.62V15.7ZM15.08 17.68H25.44V18.74H15.08V17.68ZM14.52 20.32H26V21.42H14.52V20.32ZM9.62 19.22H13.22V20.42H9.62V19.22ZM9.58 22.84H13.2V24.02H9.58V22.84ZM9.06 15.7H10.32V21.08C10.32 21.72 10.3 22.4133 10.26 23.16C10.22 23.8933 10.1467 24.6467 10.04 25.42C9.93333 26.18 9.77333 26.9267 9.56 27.66C9.34667 28.38 9.07333 29.0467 8.74 29.66C8.66 29.58 8.55333 29.4933 8.42 29.4C8.28667 29.3067 8.14667 29.22 8 29.14C7.86667 29.06 7.74667 29 7.64 28.96C8.08 28.1867 8.39333 27.34 8.58 26.42C8.78 25.5 8.90667 24.58 8.96 23.66C9.02667 22.7267 9.06 21.8667 9.06 21.08V15.7ZM12.7 15.7H14V28.06C14 28.4067 13.96 28.68 13.88 28.88C13.8 29.08 13.6467 29.2333 13.42 29.34C13.1933 29.4333 12.9 29.4933 12.54 29.52C12.1933 29.5467 11.7533 29.56 11.22 29.56C11.1933 29.3867 11.14 29.18 11.06 28.94C10.98 28.7 10.8933 28.5 10.8 28.34C11.1733 28.3533 11.5067 28.36 11.8 28.36C12.1067 28.36 12.3067 28.36 12.4 28.36C12.6 28.36 12.7 28.26 12.7 28.06V15.7ZM21.9 18.26C22.2733 19.4067 22.8467 20.44 23.62 21.36C24.3933 22.2667 25.3333 22.92 26.44 23.32C26.3067 23.44 26.1533 23.6067 25.98 23.82C25.82 24.0333 25.6933 24.22 25.6 24.38C24.8133 24.0467 24.1067 23.5933 23.48 23.02C22.8667 22.4333 22.3333 21.76 21.88 21C21.4267 20.2267 21.06 19.3933 20.78 18.5L21.9 18.26ZM19.2 15.24L20.52 15.36C20.1733 17.6133 19.54 19.4933 18.62 21C17.7133 22.4933 16.4667 23.7 14.88 24.62C14.8267 24.5267 14.7467 24.42 14.64 24.3C14.5333 24.18 14.42 24.06 14.3 23.94C14.18 23.8067 14.0733 23.7 13.98 23.62C15.5133 22.8333 16.6933 21.7467 17.52 20.36C18.36 18.9733 18.92 17.2667 19.2 15.24ZM19.4 22.1H20.7V28.24C20.7 28.56 20.66 28.8067 20.58 28.98C20.5133 29.1533 20.3667 29.2867 20.14 29.38C19.9 29.4867 19.6133 29.5467 19.28 29.56C18.9467 29.5733 18.54 29.58 18.06 29.58C18.0333 29.42 17.98 29.2333 17.9 29.02C17.8333 28.82 17.76 28.6333 17.68 28.46C18.0133 28.4733 18.32 28.48 18.6 28.48C18.88 28.48 19.0667 28.4733 19.16 28.46C19.32 28.46 19.4 28.38 19.4 28.22V22.1ZM14.48 27.54C15.04 27.3267 15.7 27.0533 16.46 26.72C17.2333 26.3867 18.0267 26.0467 18.84 25.7L19.1 26.72C18.4067 27.0533 17.7133 27.3867 17.02 27.72C16.3267 28.0533 15.6733 28.36 15.06 28.64L14.48 27.54ZM16 23.54L16.96 23C17.2667 23.28 17.5533 23.6067 17.82 23.98C18.1 24.34 18.2933 24.6667 18.4 24.96L17.38 25.54C17.2733 25.2467 17.0867 24.9133 16.82 24.54C16.5533 24.1667 16.28 23.8333 16 23.54ZM15.64 15.78L16.74 15.44C16.9533 15.7467 17.1533 16.0867 17.34 16.46C17.5267 16.8333 17.6533 17.16 17.72 17.44L16.58 17.84C16.5133 17.56 16.3933 17.2267 16.22 16.84C16.0467 16.4533 15.8533 16.1 15.64 15.78ZM20.56 26.32L21.4 25.54C21.88 25.7533 22.3867 26.0067 22.92 26.3C23.4667 26.5933 23.9867 26.8867 24.48 27.18C24.9733 27.4733 25.38 27.74 25.7 27.98L24.84 28.86C24.5333 28.62 24.14 28.3467 23.66 28.04C23.18 27.7467 22.6667 27.4467 22.12 27.14C21.5733 26.8333 21.0533 26.56 20.56 26.32ZM23.16 22.9L24.26 23.46C23.9667 23.8333 23.66 24.1933 23.34 24.54C23.02 24.8867 22.7267 25.1867 22.46 25.44L21.56 24.94C21.8267 24.66 22.1133 24.3267 22.42 23.94C22.7267 23.54 22.9733 23.1933 23.16 22.9ZM23.04 15.38L24.32 15.74C24.0933 16.1533 23.8667 16.5533 23.64 16.94C23.4133 17.3133 23.1933 17.64 22.98 17.92L21.98 17.56C22.1667 17.2533 22.36 16.8933 22.56 16.48C22.7733 16.0533 22.9333 15.6867 23.04 15.38ZM39.88 12.64H45.14V13.96H39.88V12.64ZM36.58 14.02H39.62V15.28H36.58V14.02ZM33.38 17.94H40.16V19.24H33.38V17.94ZM35.96 11.22H37.34V18.86H35.96V11.22ZM36.2 18.82H37.54V28.06C37.54 28.4067 37.5 28.68 37.42 28.88C37.34 29.0933 37.18 29.26 36.94 29.38C36.7133 29.4733 36.4067 29.5333 36.02 29.56C35.6467 29.5867 35.1933 29.6 34.66 29.6C34.6333 29.4133 34.5733 29.1933 34.48 28.94C34.4 28.7 34.3133 28.4933 34.22 28.32C34.62 28.3333 34.9733 28.34 35.28 28.34C35.6 28.34 35.82 28.3333 35.94 28.32C36.0467 28.32 36.1133 28.3 36.14 28.26C36.18 28.22 36.2 28.1467 36.2 28.04V18.82ZM44.64 12.64H44.86L45.1 12.6L45.94 12.76C45.78 15.6933 45.4333 18.2533 44.9 20.44C44.3667 22.6267 43.66 24.4733 42.78 25.98C41.9133 27.4733 40.8733 28.6733 39.66 29.58C39.5533 29.4067 39.4067 29.2067 39.22 28.98C39.0467 28.7533 38.8733 28.5733 38.7 28.44C39.82 27.6933 40.7933 26.6133 41.62 25.2C42.4467 23.7867 43.1133 22.0533 43.62 20C44.14 17.9467 44.48 15.6 44.64 12.96V12.64ZM34.24 21.04L35.44 21.3C35.3333 21.8733 35.1933 22.4933 35.02 23.16C34.86 23.8133 34.6667 24.4533 34.44 25.08C34.2267 25.6933 33.98 26.2467 33.7 26.74C33.58 26.6467 33.42 26.54 33.22 26.42C33.0333 26.3 32.8667 26.2067 32.72 26.14C32.9867 25.6867 33.22 25.1667 33.42 24.58C33.62 23.98 33.7867 23.3733 33.92 22.76C34.0533 22.1333 34.16 21.56 34.24 21.04ZM38.26 21.42L39.32 21.04C39.52 21.5067 39.7133 22.0067 39.9 22.54C40.0867 23.0733 40.2533 23.5867 40.4 24.08C40.5467 24.56 40.6533 24.98 40.72 25.34L39.6 25.8C39.5333 25.4267 39.4267 24.9867 39.28 24.48C39.1467 23.9733 38.9933 23.4533 38.82 22.92C38.6467 22.3733 38.46 21.8733 38.26 21.42ZM41.62 14.26C41.7667 15.82 41.96 17.3267 42.2 18.78C42.44 20.22 42.7533 21.56 43.14 22.8C43.5267 24.04 43.9933 25.1467 44.54 26.12C45.1 27.0933 45.7667 27.8867 46.54 28.5C46.4333 28.58 46.3133 28.6867 46.18 28.82C46.06 28.9533 45.94 29.0867 45.82 29.22C45.7133 29.3667 45.62 29.5 45.54 29.62C44.46 28.6733 43.58 27.44 42.9 25.92C42.22 24.4 41.6867 22.66 41.3 20.7C40.9133 18.74 40.6133 16.64 40.4 14.4L41.62 14.26ZM28.04 15.54H33.54V16.94H28.04V15.54ZM30.38 11.2H31.72V29.58H30.38V11.2ZM30.38 16.38L31.24 16.64C31.1067 17.4267 30.94 18.2533 30.74 19.12C30.54 19.9733 30.3133 20.8133 30.06 21.64C29.82 22.4667 29.5533 23.24 29.26 23.96C28.9667 24.6667 28.6667 25.2733 28.36 25.78C28.28 25.6067 28.1667 25.4 28.02 25.16C27.8733 24.9067 27.7467 24.7067 27.64 24.56C27.9333 24.1067 28.22 23.56 28.5 22.92C28.78 22.28 29.04 21.5933 29.28 20.86C29.52 20.1133 29.7333 19.36 29.92 18.6C30.12 17.8267 30.2733 17.0867 30.38 16.38ZM31.62 18.16C31.7133 18.2933 31.86 18.52 32.06 18.84C32.26 19.16 32.4733 19.5067 32.7 19.88C32.9267 20.2533 33.1333 20.6067 33.32 20.94C33.5067 21.26 33.6333 21.4867 33.7 21.62L32.96 22.72C32.8667 22.48 32.7333 22.18 32.56 21.82C32.3867 21.4467 32.2 21.06 32 20.66C31.8133 20.2467 31.6333 19.8667 31.46 19.52C31.2867 19.1733 31.1467 18.9067 31.04 18.72L31.62 18.16ZM48.1 16.32H54.1V17.84H48.1V16.32ZM56.24 11.24H57.82V27.48C57.82 28.0133 57.74 28.4133 57.58 28.68C57.4333 28.9467 57.1933 29.1533 56.86 29.3C56.5267 29.42 56.06 29.5 55.46 29.54C54.86 29.5933 54.1 29.62 53.18 29.62C53.1533 29.46 53.1067 29.28 53.04 29.08C52.9733 28.8933 52.9 28.7 52.82 28.5C52.74 28.3 52.6533 28.1267 52.56 27.98C53.2933 27.9933 53.9467 28 54.52 28C55.1067 28.0133 55.5 28.0133 55.7 28C55.9 27.9867 56.04 27.9467 56.12 27.88C56.2 27.8 56.24 27.6667 56.24 27.48V11.24ZM53.58 16.32H53.9L54.18 16.26L55.2 16.66C54.8533 18.4067 54.3667 19.9867 53.74 21.4C53.1133 22.8133 52.38 24.0467 51.54 25.1C50.7 26.1533 49.7867 27.0067 48.8 27.66C48.72 27.54 48.6067 27.4067 48.46 27.26C48.3133 27.1 48.16 26.9467 48 26.8C47.84 26.6533 47.7 26.5467 47.58 26.48C48.54 25.88 49.42 25.1067 50.22 24.16C51.02 23.2133 51.7067 22.1133 52.28 20.86C52.8667 19.5933 53.3 18.2 53.58 16.68V16.32ZM57.72 14.52C58.0667 15.8533 58.5067 17.1467 59.04 18.4C59.5733 19.6533 60.2 20.82 60.92 21.9C61.64 22.9667 62.46 23.9133 63.38 24.74C64.3 25.5667 65.32 26.22 66.44 26.7C66.32 26.7933 66.1867 26.92 66.04 27.08C65.8933 27.24 65.7533 27.4067 65.62 27.58C65.4867 27.7533 65.3733 27.9133 65.28 28.06C63.76 27.3133 62.4333 26.28 61.3 24.96C60.18 23.6267 59.2267 22.0933 58.44 20.36C57.6667 18.6133 57.0333 16.7533 56.54 14.78L57.72 14.52ZM64.26 14.44L65.64 15.42C65.0933 16.0333 64.4867 16.6733 63.82 17.34C63.1667 17.9933 62.5067 18.62 61.84 19.22C61.1733 19.82 60.5467 20.3467 59.96 20.8L58.9 19.96C59.4733 19.4933 60.0867 18.9467 60.74 18.32C61.4067 17.68 62.0467 17.0267 62.66 16.36C63.2867 15.68 63.82 15.04 64.26 14.44ZM74.98 11.2H76.48V16.64H74.98V11.2ZM69.9 12.78H80.98V14.04H69.9V12.78ZM68.16 15.96H85.9V17.26H68.16V15.96ZM83.44 11.86L84.7 12.6C83.7267 13.64 82.6133 14.6 81.36 15.48C80.1067 16.3467 78.76 17.1333 77.32 17.84C75.8933 18.5467 74.4133 19.18 72.88 19.74C71.36 20.3 69.8333 20.7933 68.3 21.22C68.26 21.1 68.1867 20.96 68.08 20.8C67.9867 20.6267 67.8867 20.46 67.78 20.3C67.6867 20.1267 67.5933 19.9867 67.5 19.88C69.0333 19.52 70.5533 19.08 72.06 18.56C73.58 18.04 75.04 17.4467 76.44 16.78C77.84 16.1 79.1333 15.3533 80.32 14.54C81.52 13.7133 82.56 12.82 83.44 11.86ZM73.1 22.44V24.04H81.9V22.44H73.1ZM73.1 19.8V21.38H81.9V19.8H73.1ZM71.64 18.72H83.42V25.14H71.64V18.72ZM73.8 26.1L75.18 25.98C75.3133 26.5133 75.42 27.0867 75.5 27.7C75.5933 28.3 75.6467 28.8067 75.66 29.22L74.16 29.42C74.16 28.9933 74.1267 28.4667 74.06 27.84C73.9933 27.2133 73.9067 26.6333 73.8 26.1ZM77.98 26.08L79.36 25.8C79.6133 26.3067 79.86 26.8667 80.1 27.48C80.34 28.08 80.5067 28.5933 80.6 29.02L79.12 29.36C79.04 28.9333 78.8867 28.4067 78.66 27.78C78.4467 27.1533 78.22 26.5867 77.98 26.08ZM82.14 25.98L83.46 25.46C83.78 25.8067 84.1 26.1933 84.42 26.62C84.7533 27.0467 85.06 27.4667 85.34 27.88C85.62 28.28 85.84 28.64 86 28.96L84.6 29.56C84.44 29.24 84.22 28.8733 83.94 28.46C83.6733 28.0467 83.38 27.6267 83.06 27.2C82.7533 26.76 82.4467 26.3533 82.14 25.98ZM70.48 25.46L71.92 25.86C71.6133 26.5267 71.2333 27.1933 70.78 27.86C70.3267 28.5267 69.84 29.0867 69.32 29.54L67.96 28.84C68.4533 28.4667 68.9267 27.9733 69.38 27.36C69.8333 26.7333 70.2 26.1 70.48 25.46ZM91.78 21.5V24.1H102.48V21.5H91.78ZM91.78 17.7V20.28H102.48V17.7H91.78ZM90.32 16.4H103.98V25.4H90.32V16.4ZM96.3 17.1H97.76V24.5H96.3V17.1ZM94 12.84H99.88V14.18H93.04L94 12.84ZM93.84 11.12L95.5 11.46C95.0333 12.2333 94.4867 13.0267 93.86 13.84C93.2333 14.6533 92.52 15.4533 91.72 16.24C90.9333 17.0133 90.0533 17.74 89.08 18.42C89.0133 18.3 88.92 18.1667 88.8 18.02C88.68 17.86 88.5533 17.7133 88.42 17.58C88.3 17.4333 88.1867 17.32 88.08 17.24C88.9867 16.6533 89.8067 16.0133 90.54 15.32C91.2733 14.6133 91.92 13.9 92.48 13.18C93.04 12.46 93.4933 11.7733 93.84 11.12ZM99.52 12.84H99.86L100.1 12.78L101.1 13.42C100.873 13.8733 100.587 14.3467 100.24 14.84C99.8933 15.3333 99.5267 15.8133 99.14 16.28C98.7667 16.7333 98.4 17.1333 98.04 17.48C97.8933 17.36 97.7067 17.2333 97.48 17.1C97.2533 16.9533 97.0533 16.8333 96.88 16.74C97.2267 16.42 97.5667 16.0467 97.9 15.62C98.2467 15.1933 98.56 14.76 98.84 14.32C99.1333 13.88 99.36 13.4867 99.52 13.14V12.84ZM88.22 27.28H105.8V28.7H88.22V27.28Z" fill="black"/>
</svg>
