<svg width="97" height="40" viewBox="0 0 97 40" fill="none" xmlns="http://www.w3.org/2000/svg">
<rect x="0.5" y="0.5" width="96" height="39" fill="white"/>
<rect x="0.5" y="0.5" width="96" height="39" stroke="black"/>
<path d="M13.16 17.34H20.18V18.66H13.16V17.34ZM20.66 17.34H27.96V18.64H20.66V17.34ZM16.14 14.4H17.5V28.56H16.14V14.4ZM23.34 14.4H24.72V28.56H23.34V14.4ZM16 18.06L16.98 18.36C16.7267 19.32 16.4067 20.28 16.02 21.24C15.6467 22.1867 15.22 23.06 14.74 23.86C14.2733 24.6467 13.7867 25.3067 13.28 25.84C13.16 25.68 13.0067 25.5 12.82 25.3C12.6333 25.0867 12.4533 24.92 12.28 24.8C12.8 24.3467 13.2933 23.76 13.76 23.04C14.24 22.32 14.6733 21.5267 15.06 20.66C15.4467 19.7933 15.76 18.9267 16 18.06ZM23.2 18.06L24.14 18.36C23.86 19.3333 23.5133 20.3 23.1 21.26C22.6867 22.2067 22.2333 23.0867 21.74 23.9C21.2467 24.7 20.7333 25.3667 20.2 25.9C20.08 25.74 19.92 25.56 19.72 25.36C19.5333 25.16 19.3667 25 19.22 24.88C19.7533 24.4267 20.2733 23.8333 20.78 23.1C21.2867 22.3667 21.7467 21.5667 22.16 20.7C22.5867 19.82 22.9333 18.94 23.2 18.06ZM24.98 18C25.22 18.8267 25.5267 19.6733 25.9 20.54C26.2733 21.3933 26.6867 22.18 27.14 22.9C27.5933 23.62 28.0533 24.2133 28.52 24.68C28.36 24.8 28.18 24.96 27.98 25.16C27.78 25.36 27.6133 25.5533 27.48 25.74C27.04 25.1933 26.6 24.5133 26.16 23.7C25.7333 22.8867 25.3333 22.0133 24.96 21.08C24.6 20.1333 24.3 19.2067 24.06 18.3L24.98 18ZM17.34 19.26C17.4733 19.3667 17.68 19.5533 17.96 19.82C18.2533 20.0733 18.5667 20.36 18.9 20.68C19.2333 20.9867 19.5333 21.2733 19.8 21.54C20.08 21.8067 20.2733 22 20.38 22.12L19.58 23.32C19.42 23.12 19.2067 22.8667 18.94 22.56C18.6867 22.2533 18.4067 21.9333 18.1 21.6C17.7933 21.2667 17.5 20.96 17.22 20.68C16.9533 20.3867 16.7333 20.1533 16.56 19.98L17.34 19.26ZM18.82 10.2H20.36V13.4H18.82V10.2ZM11.98 12.5H27.96V13.94H11.98V12.5ZM11.08 12.5H12.58V17.92C12.58 18.68 12.5533 19.5133 12.5 20.42C12.46 21.3267 12.3733 22.26 12.24 23.22C12.12 24.1667 11.94 25.0933 11.7 26C11.46 26.8933 11.1333 27.72 10.72 28.48C10.64 28.3867 10.52 28.28 10.36 28.16C10.2133 28.04 10.0533 27.92 9.88 27.8C9.72 27.6933 9.58667 27.6133 9.48 27.56C9.85333 26.8533 10.1467 26.0933 10.36 25.28C10.5733 24.4533 10.7333 23.6133 10.84 22.76C10.9467 21.9067 11.0133 21.0667 11.04 20.24C11.0667 19.4133 11.08 18.64 11.08 17.92V12.5ZM29.92 21.64H48.1V22.86H29.92V21.64ZM36.72 11.74H46.5V12.94H36.72V11.74ZM36.7 14.56H45.52V15.7H36.7V14.56ZM36.62 20.02L38.06 20.42C37.6733 21.02 37.2467 21.66 36.78 22.34C36.3133 23.0067 35.8533 23.6533 35.4 24.28C34.9467 24.8933 34.5333 25.4467 34.16 25.94L32.78 25.46C33.1667 24.98 33.5867 24.4267 34.04 23.8C34.4933 23.1733 34.9467 22.5333 35.4 21.88C35.8533 21.2133 36.26 20.5933 36.62 20.02ZM42.86 22.08L44.28 22.42C43.84 23.4867 43.24 24.3933 42.48 25.14C41.7333 25.8733 40.8 26.4733 39.68 26.94C38.5733 27.4067 37.2733 27.7667 35.78 28.02C34.2867 28.2867 32.5867 28.48 30.68 28.6C30.6267 28.3867 30.5533 28.16 30.46 27.92C30.3667 27.6933 30.26 27.4933 30.14 27.32C31.9533 27.2533 33.56 27.1133 34.96 26.9C36.3733 26.6867 37.5933 26.3867 38.62 26C39.66 25.6 40.5267 25.08 41.22 24.44C41.9267 23.8 42.4733 23.0133 42.86 22.08ZM33.72 25.3L34.46 24.22C36.0867 24.4733 37.7067 24.78 39.32 25.14C40.9333 25.4867 42.4467 25.86 43.86 26.26C45.2733 26.6467 46.4933 27.0333 47.52 27.42L46.66 28.62C45.6467 28.22 44.4533 27.82 43.08 27.42C41.7067 27.02 40.2267 26.64 38.64 26.28C37.0533 25.92 35.4133 25.5933 33.72 25.3ZM29.84 13.82L30.54 12.9C30.9 13.0333 31.2733 13.1867 31.66 13.36C32.06 13.5333 32.4267 13.72 32.76 13.92C33.1067 14.1067 33.3867 14.2933 33.6 14.48L32.9 15.48C32.5667 15.2133 32.1067 14.92 31.52 14.6C30.9467 14.28 30.3867 14.02 29.84 13.82ZM31.06 11.14L31.76 10.24C32.12 10.3467 32.4867 10.4867 32.86 10.66C33.2333 10.8333 33.5867 11.02 33.92 11.22C34.2533 11.4067 34.5333 11.5867 34.76 11.76L34.04 12.78C33.84 12.5933 33.5667 12.4067 33.22 12.22C32.8867 12.02 32.5267 11.8267 32.14 11.64C31.7667 11.4533 31.4067 11.2867 31.06 11.14ZM30.08 19.66C30.4 19.3533 30.76 18.9867 31.16 18.56C31.5733 18.12 31.9867 17.6533 32.4 17.16C32.8267 16.6667 33.2267 16.18 33.6 15.7L34.4 16.62C33.8933 17.2867 33.34 17.98 32.74 18.7C32.1533 19.4067 31.58 20.0533 31.02 20.64L30.08 19.66ZM36.08 11.74H37.46V13.92C37.46 14.6 37.3933 15.3333 37.26 16.12C37.1267 16.9067 36.8667 17.6867 36.48 18.46C36.0933 19.22 35.5333 19.9067 34.8 20.52C34.7333 20.4267 34.6267 20.3267 34.48 20.22C34.3467 20.1 34.2067 19.9867 34.06 19.88C33.9133 19.76 33.78 19.6733 33.66 19.62C34.3533 19.06 34.8667 18.4467 35.2 17.78C35.5467 17.1133 35.78 16.4467 35.9 15.78C36.02 15.1 36.08 14.4733 36.08 13.9V11.74ZM40.88 10.2H42.32V15.1H40.88V10.2ZM46.22 11.74H46.44L46.68 11.68L47.68 11.94C47.4933 12.34 47.2933 12.76 47.08 13.2C46.8667 13.6267 46.6667 13.9933 46.48 14.3L45.24 14.04C45.4133 13.76 45.5867 13.4267 45.76 13.04C45.9333 12.6533 46.0867 12.28 46.22 11.92V11.74ZM39.2 15.1C39.68 15.8867 40.3533 16.5733 41.22 17.16C42.0867 17.7467 43.0933 18.2267 44.24 18.6C45.4 18.96 46.66 19.22 48.02 19.38C47.8733 19.5133 47.72 19.7 47.56 19.94C47.4 20.1667 47.2733 20.3733 47.18 20.56C45.7933 20.3467 44.5133 20.02 43.34 19.58C42.1667 19.14 41.1267 18.58 40.22 17.9C39.3267 17.2067 38.6 16.3933 38.04 15.46L39.2 15.1ZM45.04 14.56H45.3L45.54 14.5L46.38 14.88C46.0067 15.6667 45.5 16.3667 44.86 16.98C44.2333 17.58 43.52 18.1067 42.72 18.56C41.92 19 41.0667 19.3667 40.16 19.66C39.2533 19.9533 38.3333 20.1933 37.4 20.38C37.3333 20.22 37.2333 20.0267 37.1 19.8C36.98 19.5733 36.8533 19.3933 36.72 19.26C37.6 19.1267 38.46 18.94 39.3 18.7C40.1533 18.4467 40.9533 18.1333 41.7 17.76C42.4467 17.3867 43.1067 16.9533 43.68 16.46C44.2667 15.9667 44.72 15.4 45.04 14.76V14.56ZM50.46 11.46H67.62V12.88H50.46V11.46ZM50.08 26.44H67.94V27.84H50.08V26.44ZM62.42 21.92L64.06 22.34C63.7533 23.0067 63.42 23.6867 63.06 24.38C62.7133 25.0733 62.3867 25.6667 62.08 26.16L60.78 25.74C60.9667 25.3933 61.16 25 61.36 24.56C61.5733 24.1067 61.7733 23.6467 61.96 23.18C62.1467 22.7133 62.3 22.2933 62.42 21.92ZM54.26 22.44L55.62 22.06C55.8333 22.4333 56.04 22.8467 56.24 23.3C56.44 23.74 56.6133 24.1733 56.76 24.6C56.92 25.0133 57.02 25.3867 57.06 25.72L55.62 26.14C55.5667 25.82 55.4733 25.4467 55.34 25.02C55.2067 24.5933 55.0467 24.1533 54.86 23.7C54.6733 23.2333 54.4733 22.8133 54.26 22.44ZM54.2 16.36V20.26H63.92V16.36H54.2ZM52.74 15.02H65.44V21.6H52.74V15.02ZM78.36 14.72H87.84V15.88H78.36V14.72ZM84.02 13.4H85.42V18.72C85.42 19.08 85.3667 19.3467 85.26 19.52C85.1667 19.6933 84.9867 19.8267 84.72 19.92C84.4533 20 84.1 20.0533 83.66 20.08C83.22 20.0933 82.6533 20.1 81.96 20.1C81.9333 19.9267 81.88 19.74 81.8 19.54C81.72 19.34 81.6333 19.1533 81.54 18.98C82.0467 18.9933 82.4933 19.0067 82.88 19.02C83.28 19.02 83.5467 19.0133 83.68 19C83.8133 18.9867 83.9 18.96 83.94 18.92C83.9933 18.88 84.02 18.8067 84.02 18.7V13.4ZM74.04 20.86H86.22V21.98H75.42V28.58H74.04V20.86ZM79.58 22.72L80.46 22C80.9133 22.1867 81.3933 22.4067 81.9 22.66C82.42 22.9 82.92 23.14 83.4 23.38C83.88 23.62 84.28 23.84 84.6 24.04L83.72 24.84C83.4133 24.6267 83.02 24.3933 82.54 24.14C82.0733 23.8867 81.58 23.6333 81.06 23.38C80.54 23.1267 80.0467 22.9067 79.58 22.72ZM79.52 25.44L80.44 24.72C80.8933 24.9333 81.36 25.18 81.84 25.46C82.3333 25.74 82.8 26.0133 83.24 26.28C83.6933 26.5467 84.0733 26.7867 84.38 27L83.44 27.8C83.1333 27.5733 82.76 27.3133 82.32 27.02C81.88 26.74 81.4133 26.46 80.92 26.18C80.4267 25.9 79.96 25.6533 79.52 25.44ZM79 16.76L79.9 16.06C80.3 16.34 80.7133 16.66 81.14 17.02C81.58 17.38 81.9133 17.7067 82.14 18L81.2 18.76C80.9733 18.4667 80.6467 18.1267 80.22 17.74C79.8067 17.3533 79.4 17.0267 79 16.76ZM77.14 13.2L78.4 13.62C77.8267 14.46 77.1133 15.2667 76.26 16.04C75.4067 16.8 74.5533 17.4333 73.7 17.94C73.6333 17.86 73.5333 17.76 73.4 17.64C73.28 17.52 73.1533 17.4 73.02 17.28C72.9 17.1467 72.7933 17.0467 72.7 16.98C73.5533 16.5267 74.38 15.9733 75.18 15.32C75.98 14.6533 76.6333 13.9467 77.14 13.2ZM79.96 19.56H81.18C81.0867 20.5067 80.8933 21.32 80.6 22C80.32 22.68 79.8733 23.2533 79.26 23.72C78.66 24.1733 77.8267 24.5333 76.76 24.8C76.7067 24.6667 76.6133 24.52 76.48 24.36C76.3467 24.1867 76.22 24.0467 76.1 23.94C77.06 23.7133 77.8067 23.4133 78.34 23.04C78.8733 22.6667 79.2533 22.1933 79.48 21.62C79.72 21.0333 79.88 20.3467 79.96 19.56ZM79.84 23.92H81.08C80.9333 24.5867 80.6867 25.1733 80.34 25.68C80.0067 26.1733 79.5467 26.6 78.96 26.96C78.3733 27.3067 77.62 27.6067 76.7 27.86C76.6333 27.7133 76.5267 27.5467 76.38 27.36C76.2467 27.1733 76.12 27.0267 76 26.92C76.8133 26.7333 77.4733 26.5067 77.98 26.24C78.5 25.96 78.9067 25.6333 79.2 25.26C79.4933 24.8733 79.7067 24.4267 79.84 23.92ZM85.66 20.86H87.06V27.12C87.06 27.48 87.0133 27.7533 86.92 27.94C86.8267 28.14 86.6467 28.2867 86.38 28.38C86.1 28.4733 85.72 28.5333 85.24 28.56C84.76 28.5867 84.16 28.6 83.44 28.6C83.4133 28.4133 83.36 28.2133 83.28 28C83.2133 27.7867 83.1333 27.5933 83.04 27.42C83.5733 27.4333 84.0467 27.44 84.46 27.44C84.8867 27.44 85.1667 27.44 85.3 27.44C85.4467 27.4267 85.54 27.3933 85.58 27.34C85.6333 27.3 85.66 27.22 85.66 27.1V20.86ZM78.82 10.2H80.36V12.5H78.82V10.2ZM72.08 11.76H87.98V13.02H72.08V11.76ZM71.36 11.76H72.74V17.8C72.74 18.5867 72.7133 19.4533 72.66 20.4C72.62 21.3333 72.5333 22.2867 72.4 23.26C72.2667 24.22 72.0667 25.1667 71.8 26.1C71.5467 27.02 71.2133 27.8667 70.8 28.64C70.7333 28.5467 70.62 28.44 70.46 28.32C70.3133 28.2133 70.1667 28.1067 70.02 28C69.8733 27.9067 69.74 27.8333 69.62 27.78C70.02 27.06 70.3333 26.2733 70.56 25.42C70.8 24.5667 70.9733 23.7 71.08 22.82C71.2 21.94 71.2733 21.0733 71.3 20.22C71.34 19.3533 71.36 18.5467 71.36 17.8V11.76ZM75.54 15.78L76.56 14.74L76.86 14.86V20.06H75.54V15.78Z" fill="black"/>
</svg>
