<svg width="113" height="40" viewBox="0 0 113 40" fill="none" xmlns="http://www.w3.org/2000/svg">
<rect x="0.5" y="0.5" width="112" height="39" fill="white"/>
<rect x="0.5" y="0.5" width="112" height="39" stroke="black"/>
<path d="M8.16 12.6H25.9V13.92H8.16V12.6ZM12.76 11.2H14.22V15.5H12.76V11.2ZM19.7 11.2H21.2V15.5H19.7V11.2ZM14.82 17.18H24.8V18.46H14.82V17.18ZM14.96 20.86H23.6V22.1H14.96V20.86ZM19.06 15.46H20.52V21.5H19.06V15.46ZM23.22 20.86H23.52L23.8 20.8L24.74 21.18C24.3533 22.3933 23.8333 23.46 23.18 24.38C22.5267 25.3 21.7733 26.1 20.92 26.78C20.0667 27.46 19.1333 28.0333 18.12 28.5C17.12 28.9667 16.0733 29.3467 14.98 29.64C14.9 29.4533 14.78 29.2333 14.62 28.98C14.4733 28.7267 14.3267 28.52 14.18 28.36C15.2067 28.1333 16.1933 27.82 17.14 27.42C18.0867 27.0067 18.96 26.5 19.76 25.9C20.56 25.3 21.2533 24.6 21.84 23.8C22.44 23 22.9 22.1 23.22 21.1V20.86ZM14.12 17.18H15.54V20.98C15.54 21.6333 15.5067 22.34 15.44 23.1C15.3733 23.8467 15.2467 24.6067 15.06 25.38C14.8867 26.14 14.6267 26.8867 14.28 27.62C13.9333 28.34 13.4867 29 12.94 29.6C12.86 29.52 12.74 29.4267 12.58 29.32C12.4333 29.2133 12.28 29.1133 12.12 29.02C11.96 28.9267 11.82 28.86 11.7 28.82C12.2467 28.2467 12.68 27.6267 13 26.96C13.32 26.2933 13.56 25.6133 13.72 24.92C13.88 24.2267 13.9867 23.5467 14.04 22.88C14.0933 22.2 14.12 21.56 14.12 20.96V17.18ZM24.4 17.18H24.66L24.88 17.12L25.94 17.42C25.7667 17.9533 25.58 18.5067 25.38 19.08C25.1933 19.6533 25 20.14 24.8 20.54L23.56 20.12C23.6933 19.76 23.8333 19.3333 23.98 18.84C24.14 18.3333 24.28 17.8467 24.4 17.38V17.18ZM17.06 21.5C17.5533 22.6333 18.24 23.6533 19.12 24.56C20 25.4533 21.04 26.2067 22.24 26.82C23.4533 27.4333 24.8 27.8867 26.28 28.18C26.1867 28.2733 26.0733 28.3933 25.94 28.54C25.82 28.7 25.7067 28.86 25.6 29.02C25.5067 29.18 25.42 29.3267 25.34 29.46C23.06 28.94 21.1133 28.0333 19.5 26.74C17.9 25.4333 16.6733 23.82 15.82 21.9L17.06 21.5ZM8.82 16.32L9.64 15.36C10.0133 15.5333 10.4 15.74 10.8 15.98C11.2133 16.22 11.6 16.4667 11.96 16.72C12.3333 16.96 12.64 17.1867 12.88 17.4L12 18.5C11.7867 18.2867 11.5 18.0533 11.14 17.8C10.78 17.5333 10.3933 17.2733 9.98 17.02C9.58 16.7533 9.19333 16.52 8.82 16.32ZM7.76 20.26L8.6 19.26C8.97333 19.4467 9.36667 19.6533 9.78 19.88C10.2067 20.1067 10.6067 20.3467 10.98 20.6C11.3533 20.84 11.66 21.0667 11.9 21.28L11.04 22.4C10.8 22.1867 10.4933 21.9533 10.12 21.7C9.76 21.4333 9.36667 21.18 8.94 20.94C8.52667 20.6867 8.13333 20.46 7.76 20.26ZM8.18 28.54C8.47333 28.14 8.79333 27.6733 9.14 27.14C9.48667 26.5933 9.84 26.02 10.2 25.42C10.5733 24.8067 10.9133 24.2067 11.22 23.62L12.22 24.54C11.9533 25.0733 11.6533 25.6333 11.32 26.22C11 26.8067 10.6733 27.38 10.34 27.94C10.02 28.5 9.69333 29.02 9.36 29.5L8.18 28.54ZM28.22 12.6H45.84V13.94H28.22V12.6ZM32.88 11.2H34.4V15.54H32.88V11.2ZM39.58 11.2H41.1V15.32H39.58V11.2ZM28.16 22.72H45.92V24.08H28.16V22.72ZM36.18 21.18H37.74V29.6H36.18V21.18ZM35.58 23.3L36.82 23.86C36.2067 24.6333 35.4533 25.3667 34.56 26.06C33.6667 26.74 32.7133 27.3533 31.7 27.9C30.6867 28.4467 29.6933 28.8867 28.72 29.22C28.64 29.0867 28.54 28.94 28.42 28.78C28.3 28.62 28.1733 28.46 28.04 28.3C27.9067 28.14 27.7867 28.0133 27.68 27.92C28.4133 27.7067 29.1533 27.44 29.9 27.12C30.66 26.8 31.3933 26.44 32.1 26.04C32.8067 25.6267 33.46 25.1933 34.06 24.74C34.66 24.2733 35.1667 23.7933 35.58 23.3ZM38.36 23.38C38.9067 24.0333 39.6067 24.6467 40.46 25.22C41.3133 25.7933 42.24 26.3 43.24 26.74C44.24 27.18 45.24 27.5267 46.24 27.78C46.1333 27.8733 46.0133 28 45.88 28.16C45.7467 28.32 45.62 28.48 45.5 28.64C45.3933 28.8 45.3 28.9533 45.22 29.1C44.22 28.78 43.2133 28.3667 42.2 27.86C41.2 27.34 40.2667 26.74 39.4 26.06C38.5333 25.38 37.8 24.66 37.2 23.9L38.36 23.38ZM43.22 15.1L44.42 16.28C43.4333 16.5067 42.3267 16.7067 41.1 16.88C39.8867 17.04 38.6 17.18 37.24 17.3C35.8933 17.42 34.5267 17.5133 33.14 17.58C31.7667 17.6467 30.44 17.6933 29.16 17.72C29.1467 17.5333 29.1 17.3133 29.02 17.06C28.9533 16.7933 28.8867 16.58 28.82 16.42C30.0733 16.3933 31.3733 16.3467 32.72 16.28C34.0667 16.2 35.3867 16.1067 36.68 16C37.9867 15.8933 39.2 15.7667 40.32 15.62C41.44 15.46 42.4067 15.2867 43.22 15.1ZM29.72 18.76L30.98 18.22C31.38 18.66 31.7533 19.16 32.1 19.72C32.4467 20.28 32.6933 20.7667 32.84 21.18L31.5 21.76C31.3667 21.3333 31.1333 20.84 30.8 20.28C30.4667 19.72 30.1067 19.2133 29.72 18.76ZM35.24 18.22L36.56 17.8C36.8533 18.2267 37.12 18.7 37.36 19.22C37.6 19.74 37.76 20.1933 37.84 20.58L36.42 21.06C36.3533 20.6733 36.2067 20.22 35.98 19.7C35.7667 19.1667 35.52 18.6733 35.24 18.22ZM43.14 17.48L44.66 18.04C44.2467 18.7067 43.8 19.3933 43.32 20.1C42.8533 20.8067 42.4267 21.4067 42.04 21.9L40.88 21.36C41.1333 21.0267 41.4 20.6333 41.68 20.18C41.96 19.7133 42.2267 19.2467 42.48 18.78C42.7467 18.3 42.9667 17.8667 43.14 17.48ZM55.54 17.94H65.4V19.34H55.54V17.94ZM54.36 22.32H66.22V23.74H54.36V22.32ZM59.72 11.22H61.18V29.6H59.72V11.22ZM57.16 12.54L58.56 12.88C58.24 13.72 57.8333 14.54 57.34 15.34C56.86 16.14 56.3667 16.82 55.86 17.38C55.7533 17.3 55.62 17.2133 55.46 17.12C55.3133 17.0267 55.16 16.94 55 16.86C54.8533 16.7667 54.72 16.6933 54.6 16.64C55.1333 16.12 55.62 15.5 56.06 14.78C56.5133 14.0467 56.88 13.3 57.16 12.54ZM62.22 13L63.36 12.36C63.72 12.7733 64.0733 13.2333 64.42 13.74C64.78 14.2467 65.1067 14.74 65.4 15.22C65.6933 15.7 65.92 16.1267 66.08 16.5L64.86 17.24C64.7 16.8533 64.4733 16.42 64.18 15.94C63.9 15.4467 63.5867 14.94 63.24 14.42C62.8933 13.9 62.5533 13.4267 62.22 13ZM47.56 21.84C48.4267 21.6 49.46 21.3133 50.66 20.98C51.8733 20.6333 53.0933 20.28 54.32 19.92L54.52 21.26C53.3733 21.62 52.2267 21.98 51.08 22.34C49.9467 22.7 48.9133 23.02 47.98 23.3L47.56 21.84ZM47.84 15.22H54.3V16.64H47.84V15.22ZM50.62 11.2H52.06V27.86C52.06 28.2733 52.0067 28.5933 51.9 28.82C51.7933 29.0467 51.6133 29.22 51.36 29.34C51.0933 29.4467 50.7467 29.5133 50.32 29.54C49.9067 29.58 49.3667 29.6 48.7 29.6C48.6733 29.4133 48.6133 29.1867 48.52 28.92C48.4267 28.6667 48.3333 28.44 48.24 28.24C48.6933 28.2533 49.1067 28.26 49.48 28.26C49.8533 28.26 50.1067 28.2533 50.24 28.24C50.3733 28.24 50.4667 28.2133 50.52 28.16C50.5867 28.1067 50.62 28.0067 50.62 27.86V11.2ZM68.34 16.12H85.7V17.62H68.34V16.12ZM76.2 11.22H77.78V29.6H76.2V11.22ZM75.86 16.88L77.16 17.34C76.6933 18.38 76.1467 19.3933 75.52 20.38C74.8933 21.3667 74.2133 22.3067 73.48 23.2C72.7467 24.08 71.9733 24.8867 71.16 25.62C70.36 26.34 69.5333 26.9533 68.68 27.46C68.6 27.3267 68.4867 27.1867 68.34 27.04C68.2067 26.88 68.0733 26.7267 67.94 26.58C67.8067 26.4333 67.68 26.3067 67.56 26.2C68.3867 25.7467 69.2 25.1867 70 24.52C70.8133 23.8533 71.58 23.1067 72.3 22.28C73.0333 21.44 73.7 20.5667 74.3 19.66C74.9133 18.74 75.4333 17.8133 75.86 16.88ZM78.08 16.92C78.52 17.8133 79.0467 18.7133 79.66 19.62C80.2733 20.5133 80.9467 21.3733 81.68 22.2C82.4267 23.0267 83.2 23.7733 84 24.44C84.8 25.1067 85.6 25.6667 86.4 26.12C86.28 26.2133 86.1467 26.34 86 26.5C85.8533 26.6467 85.7133 26.8 85.58 26.96C85.4467 27.12 85.34 27.2733 85.26 27.42C84.4467 26.9 83.64 26.28 82.84 25.56C82.04 24.8267 81.2667 24.02 80.52 23.14C79.7867 22.2467 79.1 21.3133 78.46 20.34C77.8333 19.3533 77.28 18.3667 76.8 17.38L78.08 16.92ZM88.3 12.36H105.76V13.86H88.3V12.36ZM92.14 16.8H101.66V18.2H92.14V16.8ZM92.14 21.2H101.66V22.62H92.14V21.2ZM87.96 25.94C89.0533 25.8867 90.3 25.82 91.7 25.74C93.1 25.66 94.5933 25.5667 96.18 25.46C97.7667 25.3533 99.3867 25.2467 101.04 25.14C102.707 25.02 104.347 24.9067 105.96 24.8L105.92 26.26C104.32 26.3667 102.707 26.48 101.08 26.6C99.4533 26.72 97.86 26.84 96.3 26.96C94.74 27.0667 93.2667 27.1667 91.88 27.26C90.5067 27.3533 89.2667 27.44 88.16 27.52L87.96 25.94ZM91.42 13.42H93V26.32H91.42V13.42ZM101.04 13.4H102.64V29.58H101.04V13.4Z" fill="black"/>
</svg>
