<svg width="113" height="40" viewBox="0 0 113 40" fill="none" xmlns="http://www.w3.org/2000/svg">
<rect x="0.5" y="0.5" width="112" height="39" fill="white"/>
<rect x="0.5" y="0.5" width="112" height="39" stroke="black"/>
<path d="M18.84 26.72H24.5V28.12H18.84V26.72ZM8.16 18.58H15.76V19.98H8.16V18.58ZM18.16 17.82H25.16V29.18H23.68V19.22H19.58V29.44H18.16V17.82ZM15.32 18.58H16.74C16.74 18.58 16.74 18.6267 16.74 18.72C16.74 18.8 16.74 18.9 16.74 19.02C16.74 19.1267 16.74 19.2133 16.74 19.28C16.6867 20.9333 16.6267 22.3333 16.56 23.48C16.5067 24.6133 16.44 25.5467 16.36 26.28C16.2933 27.0133 16.2067 27.5867 16.1 28C16.0067 28.4 15.8867 28.6867 15.74 28.86C15.5667 29.0867 15.3867 29.24 15.2 29.32C15.0133 29.4133 14.7867 29.4733 14.52 29.5C14.28 29.54 13.9667 29.56 13.58 29.56C13.2067 29.56 12.8067 29.5467 12.38 29.52C12.3667 29.3067 12.3267 29.0667 12.26 28.8C12.1933 28.5467 12.1 28.3267 11.98 28.14C12.3933 28.18 12.7667 28.2 13.1 28.2C13.4467 28.2133 13.7 28.22 13.86 28.22C14.0067 28.22 14.1267 28.2 14.22 28.16C14.3133 28.1333 14.4067 28.06 14.5 27.94C14.6333 27.78 14.7467 27.3933 14.84 26.78C14.9467 26.1533 15.0333 25.2133 15.1 23.96C15.18 22.6933 15.2533 21 15.32 18.88V18.58ZM11.04 15.9H12.52C12.48 17.3 12.4133 18.6667 12.32 20C12.2267 21.3333 12.0533 22.6 11.8 23.8C11.56 24.9867 11.1933 26.08 10.7 27.08C10.2067 28.08 9.54667 28.9467 8.72 29.68C8.61333 29.5067 8.45333 29.3133 8.24 29.1C8.02667 28.9 7.82667 28.7467 7.64 28.64C8.41333 27.9733 9.02 27.18 9.46 26.26C9.91333 25.34 10.2467 24.3267 10.46 23.22C10.6733 22.1133 10.82 20.94 10.9 19.7C10.98 18.46 11.0267 17.1933 11.04 15.9ZM8.24 13.02H25.82V14.42H8.24V13.02ZM12.74 11.2H14.22V16.5H12.74V11.2ZM19.7 11.2H21.18V16.5H19.7V11.2ZM27.94 20.14H46.1V21.64H27.94V20.14ZM36.26 16.92H37.82V27.66C37.82 28.1667 37.74 28.5467 37.58 28.8C37.4333 29.0533 37.1733 29.24 36.8 29.36C36.4267 29.48 35.9067 29.56 35.24 29.6C34.5867 29.64 33.78 29.6533 32.82 29.64C32.7933 29.4933 32.74 29.3267 32.66 29.14C32.5933 28.9667 32.5133 28.78 32.42 28.58C32.34 28.3933 32.26 28.2333 32.18 28.1C32.7133 28.1133 33.22 28.12 33.7 28.12C34.1933 28.1333 34.6133 28.14 34.96 28.14C35.32 28.14 35.5733 28.14 35.72 28.14C35.9333 28.1133 36.0733 28.0667 36.14 28C36.22 27.9467 36.26 27.8267 36.26 27.64V16.92ZM30.02 12.58H43.06V14.08H30.02V12.58ZM42.56 12.58H42.94L43.28 12.5L44.42 13.36C43.82 13.96 43.12 14.5733 42.32 15.2C41.5333 15.8133 40.7133 16.3933 39.86 16.94C39.02 17.4867 38.2133 17.96 37.44 18.36C37.36 18.2533 37.26 18.1333 37.14 18C37.0333 17.8667 36.9133 17.74 36.78 17.62C36.66 17.4867 36.5533 17.38 36.46 17.3C37.1933 16.94 37.9467 16.5133 38.72 16.02C39.4933 15.5133 40.22 14.9933 40.9 14.46C41.58 13.9133 42.1333 13.4067 42.56 12.94V12.58ZM50.8 11.34H52.1V18.1C52.1 19.1133 52.06 20.12 51.98 21.12C51.9133 22.12 51.7667 23.1067 51.54 24.08C51.3267 25.04 50.9933 25.9667 50.54 26.86C50.1 27.7533 49.5 28.6 48.74 29.4C48.6867 29.2933 48.6 29.18 48.48 29.06C48.36 28.94 48.2333 28.82 48.1 28.7C47.98 28.58 47.8667 28.4867 47.76 28.42C48.6667 27.46 49.3333 26.4133 49.76 25.28C50.2 24.1467 50.48 22.9667 50.6 21.74C50.7333 20.5133 50.8 19.3 50.8 18.1V11.34ZM53.6 14.64L54.78 15.14C54.5267 15.8067 54.2667 16.52 54 17.28C53.7467 18.04 53.5 18.6867 53.26 19.22L52.42 18.8C52.5533 18.44 52.6933 18.0133 52.84 17.52C53 17.0267 53.1467 16.5267 53.28 16.02C53.4133 15.5133 53.52 15.0533 53.6 14.64ZM51.74 22.46C51.8733 22.5933 52.08 22.8267 52.36 23.16C52.64 23.4933 52.9333 23.86 53.24 24.26C53.56 24.6467 53.8533 25.0067 54.12 25.34C54.3867 25.6733 54.58 25.9067 54.7 26.04L53.68 27.1C53.5333 26.86 53.3333 26.56 53.08 26.2C52.8267 25.84 52.5533 25.46 52.26 25.06C51.9667 24.66 51.6867 24.2933 51.42 23.96C51.1667 23.6133 50.9533 23.34 50.78 23.14L51.74 22.46ZM49.1 15.26L50.22 15.42C50.1933 15.98 50.1333 16.5733 50.04 17.2C49.9467 17.8267 49.8267 18.4333 49.68 19.02C49.5333 19.6067 49.3467 20.1333 49.12 20.6L48.02 20.1C48.2333 19.7 48.4133 19.2267 48.56 18.68C48.7067 18.1333 48.8267 17.5667 48.92 16.98C49.0133 16.38 49.0733 15.8067 49.1 15.26ZM54.96 14.16L65.36 13.12L65.56 14.38L55.16 15.44L54.96 14.16ZM57.46 11.3H58.84C58.9067 12.5 59.1067 13.62 59.44 14.66C59.7733 15.7 60.1867 16.6067 60.68 17.38C61.1867 18.1533 61.7267 18.7533 62.3 19.18C62.8867 19.6067 63.4733 19.8133 64.06 19.8C64.3267 19.8 64.5133 19.6533 64.62 19.36C64.7267 19.0533 64.8067 18.5333 64.86 17.8C64.9933 17.9333 65.16 18.0533 65.36 18.16C65.56 18.2667 65.7533 18.3467 65.94 18.4C65.86 19.12 65.7467 19.68 65.6 20.08C65.4533 20.4667 65.2467 20.74 64.98 20.9C64.7267 21.06 64.3933 21.14 63.98 21.14C63.1667 21.14 62.3867 20.8867 61.64 20.38C60.8933 19.8733 60.22 19.1733 59.62 18.28C59.0333 17.3733 58.5467 16.3267 58.16 15.14C57.7867 13.9533 57.5533 12.6733 57.46 11.3ZM63.94 15.02L65.26 15.54C64.5933 16.3933 63.7467 17.1533 62.72 17.82C61.6933 18.4733 60.5733 19.04 59.36 19.52C58.16 19.9867 56.9533 20.38 55.74 20.7C55.6867 20.6067 55.6 20.48 55.48 20.32C55.3733 20.16 55.26 20.0067 55.14 19.86C55.0333 19.7133 54.9267 19.5933 54.82 19.5C56.0333 19.2333 57.2267 18.9 58.4 18.5C59.5733 18.0867 60.64 17.5933 61.6 17.02C62.5733 16.4333 63.3533 15.7667 63.94 15.02ZM54.46 21.9H65.8V23.2H54.46V21.9ZM60.92 22.52H62.38V27.52C62.38 27.76 62.4133 27.9133 62.48 27.98C62.56 28.0467 62.7067 28.08 62.92 28.08C63 28.08 63.14 28.08 63.34 28.08C63.5533 28.08 63.7667 28.08 63.98 28.08C64.1933 28.08 64.34 28.08 64.42 28.08C64.5667 28.08 64.6733 28.0333 64.74 27.94C64.8067 27.8467 64.86 27.6533 64.9 27.36C64.94 27.0533 64.9667 26.6067 64.98 26.02C65.1267 26.1267 65.32 26.2267 65.56 26.32C65.8133 26.4133 66.04 26.4867 66.24 26.54C66.2 27.26 66.12 27.82 66 28.22C65.8933 28.62 65.7267 28.9 65.5 29.06C65.2733 29.22 64.9667 29.3 64.58 29.3C64.5133 29.3 64.3867 29.3 64.2 29.3C64.0267 29.3 63.8333 29.3 63.62 29.3C63.42 29.3 63.2333 29.3 63.06 29.3C62.8867 29.3 62.7667 29.3 62.7 29.3C62.22 29.3 61.8533 29.2467 61.6 29.14C61.3467 29.0333 61.1667 28.8467 61.06 28.58C60.9667 28.3267 60.92 27.9733 60.92 27.52V22.52ZM57.56 22.5H59.04C58.9733 23.42 58.8667 24.2533 58.72 25C58.5733 25.7467 58.34 26.4067 58.02 26.98C57.7 27.5533 57.2533 28.06 56.68 28.5C56.1067 28.94 55.3667 29.3133 54.46 29.62C54.4067 29.4867 54.3267 29.34 54.22 29.18C54.1267 29.0333 54.02 28.88 53.9 28.72C53.7933 28.5733 53.68 28.4533 53.56 28.36C54.3733 28.12 55.0267 27.8267 55.52 27.48C56.0267 27.12 56.42 26.7067 56.7 26.24C56.98 25.76 57.18 25.2133 57.3 24.6C57.42 23.9867 57.5067 23.2867 57.56 22.5ZM68.46 12.46H85.62V13.88H68.46V12.46ZM68.08 27.44H85.94V28.84H68.08V27.44ZM80.42 22.92L82.06 23.34C81.7533 24.0067 81.42 24.6867 81.06 25.38C80.7133 26.0733 80.3867 26.6667 80.08 27.16L78.78 26.74C78.9667 26.3933 79.16 26 79.36 25.56C79.5733 25.1067 79.7733 24.6467 79.96 24.18C80.1467 23.7133 80.3 23.2933 80.42 22.92ZM72.26 23.44L73.62 23.06C73.8333 23.4333 74.04 23.8467 74.24 24.3C74.44 24.74 74.6133 25.1733 74.76 25.6C74.92 26.0133 75.02 26.3867 75.06 26.72L73.62 27.14C73.5667 26.82 73.4733 26.4467 73.34 26.02C73.2067 25.5933 73.0467 25.1533 72.86 24.7C72.6733 24.2333 72.4733 23.8133 72.26 23.44ZM72.2 17.36V21.26H81.92V17.36H72.2ZM70.74 16.02H83.44V22.6H70.74V16.02ZM91.66 15.78H103.74V17.12H91.66V15.78ZM91.66 19.78H103.5V21.08H91.66V19.78ZM91.3 23.86H103.56V25.18H91.3V23.86ZM90.82 15.78H92.3V20.8C92.3 21.5067 92.2533 22.2533 92.16 23.04C92.08 23.8267 91.9133 24.62 91.66 25.42C91.4067 26.2067 91.04 26.9667 90.56 27.7C90.0933 28.4333 89.48 29.1 88.72 29.7C88.64 29.5933 88.5333 29.4667 88.4 29.32C88.28 29.1867 88.1533 29.0533 88.02 28.92C87.8867 28.7867 87.7667 28.6867 87.66 28.62C88.38 28.0733 88.9467 27.48 89.36 26.84C89.7867 26.1867 90.1 25.52 90.3 24.84C90.5133 24.1467 90.6533 23.4533 90.72 22.76C90.7867 22.0667 90.82 21.4067 90.82 20.78V15.78ZM102.94 15.78H104.42V27.7C104.42 28.18 104.347 28.5467 104.2 28.8C104.053 29.0667 103.793 29.26 103.42 29.38C103.033 29.4867 102.507 29.5533 101.84 29.58C101.173 29.62 100.333 29.64 99.32 29.64C99.2933 29.5067 99.2467 29.3467 99.18 29.16C99.1267 28.9867 99.06 28.8133 98.98 28.64C98.9 28.4667 98.82 28.3133 98.74 28.18C99.2867 28.1933 99.8067 28.2 100.3 28.2C100.793 28.2133 101.227 28.2133 101.6 28.2C101.973 28.2 102.233 28.2 102.38 28.2C102.607 28.1867 102.753 28.14 102.82 28.06C102.9 27.9933 102.94 27.8667 102.94 27.68V15.78ZM96.72 16.34H98.16V24.54H96.72V16.34ZM93.56 12.38H99.86V13.64H93.56V12.38ZM93.74 11.14L95.36 11.44C94.9333 12.2267 94.42 13.0333 93.82 13.86C93.22 14.6867 92.54 15.5 91.78 16.3C91.02 17.0867 90.1667 17.8267 89.22 18.52C89.1267 18.4 89.0133 18.2733 88.88 18.14C88.76 17.9933 88.6333 17.86 88.5 17.74C88.3667 17.62 88.24 17.5267 88.12 17.46C89.0267 16.8467 89.84 16.18 90.56 15.46C91.28 14.74 91.9067 14.0067 92.44 13.26C92.9733 12.5133 93.4067 11.8067 93.74 11.14ZM99.34 12.38H99.68L99.92 12.3L100.94 12.96C100.713 13.4133 100.44 13.88 100.12 14.36C99.8133 14.8267 99.4933 15.28 99.16 15.72C98.8267 16.1467 98.5 16.5267 98.18 16.86C98.0467 16.74 97.8733 16.6133 97.66 16.48C97.46 16.3467 97.28 16.24 97.12 16.16C97.3867 15.8533 97.66 15.4933 97.94 15.08C98.2333 14.6667 98.5 14.2467 98.74 13.82C98.9933 13.3933 99.1933 13.0067 99.34 12.66V12.38Z" fill="black"/>
</svg>
