<svg width="97" height="40" viewBox="0 0 97 40" fill="none" xmlns="http://www.w3.org/2000/svg">
<rect x="0.5" y="0.5" width="96" height="39" fill="white"/>
<rect x="0.5" y="0.5" width="96" height="39" stroke="black"/>
<path d="M24.96 10.22L26.06 11.44C25.1667 11.7067 24.14 11.9467 22.98 12.16C21.8333 12.36 20.6133 12.5333 19.32 12.68C18.04 12.8267 16.7467 12.9467 15.44 13.04C14.1467 13.1333 12.8933 13.2 11.68 13.24C11.6533 13.0533 11.6 12.8333 11.52 12.58C11.4533 12.3133 11.3867 12.1 11.32 11.94C12.5067 11.8733 13.74 11.7933 15.02 11.7C16.3 11.6067 17.5533 11.4933 18.78 11.36C20.0067 11.2133 21.1467 11.0467 22.2 10.86C23.2667 10.6733 24.1867 10.46 24.96 10.22ZM11.34 15.88H26.92V17.32H11.34V15.88ZM10 20.56H28.06V22.04H10V20.56ZM18.26 12.36H19.8V26.5C19.8 27.0333 19.7133 27.4267 19.54 27.68C19.38 27.9467 19.1133 28.14 18.74 28.26C18.3533 28.38 17.82 28.4533 17.14 28.48C16.4733 28.52 15.6133 28.5333 14.56 28.52C14.52 28.3733 14.4667 28.2067 14.4 28.02C14.3333 27.8467 14.2533 27.6667 14.16 27.48C14.08 27.3067 14 27.16 13.92 27.04C14.48 27.0533 15.0133 27.06 15.52 27.06C16.0267 27.06 16.4667 27.06 16.84 27.06C17.2133 27.06 17.48 27.06 17.64 27.06C17.8667 27.0467 18.0267 27 18.12 26.92C18.2133 26.84 18.26 26.7 18.26 26.5V12.36ZM34.88 13H41.7V14.26H34.88V13ZM35.98 10.22H37.2V23.04H35.98V10.22ZM39.62 10.22H40.86V23H39.62V10.22ZM36.52 16.18H40.32V17.32H36.52V16.18ZM36.26 24.08L37.62 24.42C37.3533 25.18 37.0067 25.9333 36.58 26.68C36.1667 27.4133 35.7267 28.0333 35.26 28.54C35.18 28.4733 35.0733 28.3867 34.94 28.28C34.8067 28.1733 34.6667 28.0667 34.52 27.96C34.3733 27.8533 34.2467 27.7733 34.14 27.72C34.58 27.24 34.9867 26.68 35.36 26.04C35.7333 25.4 36.0333 24.7467 36.26 24.08ZM38.92 24.48L40.02 24.02C40.3133 24.38 40.5933 24.78 40.86 25.22C41.14 25.66 41.3333 26.0467 41.44 26.38L40.28 26.94C40.16 26.5933 39.9733 26.1933 39.72 25.74C39.4667 25.2867 39.2 24.8667 38.92 24.48ZM46.52 10.2L47.78 11.18C47.14 11.58 46.4 11.9533 45.56 12.3C44.7333 12.6333 43.9267 12.9133 43.14 13.14C43.1 12.9933 43.0267 12.82 42.92 12.62C42.8267 12.4067 42.7333 12.2267 42.64 12.08C43.3467 11.8267 44.06 11.5333 44.78 11.2C45.5 10.8667 46.08 10.5333 46.52 10.2ZM42.88 16.7H48.2V18.02H42.88V16.7ZM34.42 22.4H41.84V23.66H34.42V22.4ZM42.2 11.8L43.9 12.38C43.8867 12.5133 43.76 12.5933 43.52 12.62V18.2C43.52 18.9333 43.5 19.74 43.46 20.62C43.42 21.5 43.3333 22.4067 43.2 23.34C43.08 24.26 42.9 25.1733 42.66 26.08C42.42 26.9733 42.0933 27.8133 41.68 28.6C41.6267 28.4933 41.5333 28.38 41.4 28.26C41.28 28.1533 41.1467 28.0467 41 27.94C40.8667 27.8467 40.74 27.7733 40.62 27.72C41.1 26.76 41.4533 25.7267 41.68 24.62C41.9067 23.5 42.0467 22.3867 42.1 21.28C42.1667 20.16 42.2 19.1267 42.2 18.18V11.8ZM45.42 17.16H46.72V28.6H45.42V17.16ZM36.52 19.26H40.32V20.4H36.52V19.26ZM29.54 20.46C30.2733 20.2467 31.1467 19.9733 32.16 19.64C33.1733 19.3067 34.2067 18.9667 35.26 18.62L35.48 20C34.52 20.3333 33.5533 20.6667 32.58 21C31.62 21.3333 30.74 21.64 29.94 21.92L29.54 20.46ZM29.84 14.24H35.16V15.64H29.84V14.24ZM32.18 10.2H33.5V26.92C33.5 27.3067 33.4467 27.6067 33.34 27.82C33.2467 28.0467 33.08 28.22 32.84 28.34C32.6133 28.4467 32.3067 28.5133 31.92 28.54C31.5333 28.58 31.04 28.6 30.44 28.6C30.4 28.4267 30.34 28.2067 30.26 27.94C30.18 27.6867 30.0933 27.4667 30 27.28C30.4267 27.2933 30.8067 27.3 31.14 27.3C31.4867 27.3 31.72 27.2933 31.84 27.28C32.0667 27.28 32.18 27.16 32.18 26.92V10.2ZM54.64 10.1L56.2 10.54C55.7867 11.5667 55.3 12.5733 54.74 13.56C54.18 14.5333 53.5733 15.4467 52.92 16.3C52.28 17.14 51.62 17.8867 50.94 18.54C50.8467 18.4333 50.72 18.3133 50.56 18.18C50.4 18.0467 50.2333 17.9133 50.06 17.78C49.9 17.6467 49.7533 17.54 49.62 17.46C50.3133 16.8867 50.9667 16.2067 51.58 15.42C52.2067 14.6333 52.78 13.7867 53.3 12.88C53.8333 11.9733 54.28 11.0467 54.64 10.1ZM54.4 12.48H65.68V13.92H53.68L54.4 12.48ZM65.22 12.48H66.72C66.72 12.48 66.72 12.5267 66.72 12.62C66.72 12.7133 66.72 12.82 66.72 12.94C66.72 13.0467 66.7133 13.14 66.7 13.22C66.66 14.9 66.6067 16.3267 66.54 17.5C66.4867 18.6733 66.4267 19.64 66.36 20.4C66.2933 21.1467 66.2067 21.7333 66.1 22.16C65.9933 22.5867 65.8667 22.8933 65.72 23.08C65.5467 23.3067 65.3533 23.4667 65.14 23.56C64.94 23.6533 64.6867 23.7133 64.38 23.74C64.0867 23.78 63.7067 23.8 63.24 23.8C62.7733 23.7867 62.2733 23.7733 61.74 23.76C61.7267 23.5333 61.68 23.2867 61.6 23.02C61.5333 22.7533 61.44 22.52 61.32 22.32C61.8267 22.3733 62.2933 22.4067 62.72 22.42C63.16 22.42 63.4733 22.42 63.66 22.42C63.8333 22.42 63.9733 22.4 64.08 22.36C64.2 22.32 64.3 22.2533 64.38 22.16C64.4867 22.0133 64.58 21.7533 64.66 21.38C64.7533 20.9933 64.8333 20.4467 64.9 19.74C64.9667 19.02 65.02 18.0933 65.06 16.96C65.1133 15.8133 65.1667 14.4267 65.22 12.8V12.48ZM53.34 20.8H59.58V17.38H52.92V16.04H61.08V22.16H53.34V20.8ZM52.64 20.8H54.12V25.94C54.12 26.2067 54.18 26.42 54.3 26.58C54.4333 26.7267 54.6867 26.8267 55.06 26.88C55.4333 26.9333 55.98 26.96 56.7 26.96C56.9 26.96 57.24 26.96 57.72 26.96C58.2133 26.96 58.7733 26.96 59.4 26.96C60.0267 26.96 60.66 26.96 61.3 26.96C61.94 26.96 62.52 26.96 63.04 26.96C63.56 26.96 63.96 26.96 64.24 26.96C64.84 26.96 65.2933 26.8933 65.6 26.76C65.9067 26.6267 66.12 26.3667 66.24 25.98C66.3733 25.58 66.4667 25 66.52 24.24C66.6533 24.32 66.8067 24.4 66.98 24.48C67.1533 24.5467 67.3267 24.6067 67.5 24.66C67.6867 24.7133 67.8467 24.76 67.98 24.8C67.9 25.52 67.7933 26.1133 67.66 26.58C67.5267 27.0333 67.3267 27.3933 67.06 27.66C66.8067 27.9267 66.4533 28.1133 66 28.22C65.5467 28.3267 64.96 28.38 64.24 28.38C64.12 28.38 63.8667 28.38 63.48 28.38C63.1067 28.38 62.66 28.38 62.14 28.38C61.62 28.38 61.0733 28.38 60.5 28.38C59.9267 28.38 59.3733 28.38 58.84 28.38C58.32 28.38 57.8733 28.38 57.5 28.38C57.1267 28.38 56.88 28.38 56.76 28.38C55.7067 28.38 54.88 28.3133 54.28 28.18C53.68 28.0467 53.2533 27.8067 53 27.46C52.76 27.1133 52.64 26.6133 52.64 25.96V20.8ZM70.22 11.6H87.84V12.94H70.22V11.6ZM74.88 10.2H76.4V14.54H74.88V10.2ZM81.58 10.2H83.1V14.32H81.58V10.2ZM70.16 21.72H87.92V23.08H70.16V21.72ZM78.18 20.18H79.74V28.6H78.18V20.18ZM77.58 22.3L78.82 22.86C78.2067 23.6333 77.4533 24.3667 76.56 25.06C75.6667 25.74 74.7133 26.3533 73.7 26.9C72.6867 27.4467 71.6933 27.8867 70.72 28.22C70.64 28.0867 70.54 27.94 70.42 27.78C70.3 27.62 70.1733 27.46 70.04 27.3C69.9067 27.14 69.7867 27.0133 69.68 26.92C70.4133 26.7067 71.1533 26.44 71.9 26.12C72.66 25.8 73.3933 25.44 74.1 25.04C74.8067 24.6267 75.46 24.1933 76.06 23.74C76.66 23.2733 77.1667 22.7933 77.58 22.3ZM80.36 22.38C80.9067 23.0333 81.6067 23.6467 82.46 24.22C83.3133 24.7933 84.24 25.3 85.24 25.74C86.24 26.18 87.24 26.5267 88.24 26.78C88.1333 26.8733 88.0133 27 87.88 27.16C87.7467 27.32 87.62 27.48 87.5 27.64C87.3933 27.8 87.3 27.9533 87.22 28.1C86.22 27.78 85.2133 27.3667 84.2 26.86C83.2 26.34 82.2667 25.74 81.4 25.06C80.5333 24.38 79.8 23.66 79.2 22.9L80.36 22.38ZM85.22 14.1L86.42 15.28C85.4333 15.5067 84.3267 15.7067 83.1 15.88C81.8867 16.04 80.6 16.18 79.24 16.3C77.8933 16.42 76.5267 16.5133 75.14 16.58C73.7667 16.6467 72.44 16.6933 71.16 16.72C71.1467 16.5333 71.1 16.3133 71.02 16.06C70.9533 15.7933 70.8867 15.58 70.82 15.42C72.0733 15.3933 73.3733 15.3467 74.72 15.28C76.0667 15.2 77.3867 15.1067 78.68 15C79.9867 14.8933 81.2 14.7667 82.32 14.62C83.44 14.46 84.4067 14.2867 85.22 14.1ZM71.72 17.76L72.98 17.22C73.38 17.66 73.7533 18.16 74.1 18.72C74.4467 19.28 74.6933 19.7667 74.84 20.18L73.5 20.76C73.3667 20.3333 73.1333 19.84 72.8 19.28C72.4667 18.72 72.1067 18.2133 71.72 17.76ZM77.24 17.22L78.56 16.8C78.8533 17.2267 79.12 17.7 79.36 18.22C79.6 18.74 79.76 19.1933 79.84 19.58L78.42 20.06C78.3533 19.6733 78.2067 19.22 77.98 18.7C77.7667 18.1667 77.52 17.6733 77.24 17.22ZM85.14 16.48L86.66 17.04C86.2467 17.7067 85.8 18.3933 85.32 19.1C84.8533 19.8067 84.4267 20.4067 84.04 20.9L82.88 20.36C83.1333 20.0267 83.4 19.6333 83.68 19.18C83.96 18.7133 84.2267 18.2467 84.48 17.78C84.7467 17.3 84.9667 16.8667 85.14 16.48Z" fill="black"/>
</svg>
