<svg width="113" height="40" viewBox="0 0 113 40" fill="none" xmlns="http://www.w3.org/2000/svg">
<rect x="0.5" y="0.5" width="112" height="39" fill="white"/>
<rect x="0.5" y="0.5" width="112" height="39" stroke="black"/>
<path d="M15.86 18.04V21.22H22.9V18.04H15.86ZM14.44 16.72H24.38V22.56H14.44V16.72ZM21.94 24.42L23.12 23.78C23.5067 24.18 23.9 24.62 24.3 25.1C24.7133 25.5667 25.0867 26.0267 25.42 26.48C25.7667 26.92 26.04 27.32 26.24 27.68L24.98 28.46C24.7933 28.0867 24.5267 27.6667 24.18 27.2C23.8467 26.72 23.48 26.24 23.08 25.76C22.6933 25.2667 22.3133 24.82 21.94 24.42ZM12.86 13.5H25.9V14.92H12.86V13.5ZM18.6 11.2H20.08V14.3H18.6V11.2ZM18.6 21.94H20.08V27.94C20.08 28.3267 20.0267 28.6333 19.92 28.86C19.8267 29.0867 19.6333 29.2533 19.34 29.36C19.0467 29.48 18.6733 29.5533 18.22 29.58C17.7667 29.62 17.2 29.64 16.52 29.64C16.48 29.4267 16.4067 29.1867 16.3 28.92C16.1933 28.6533 16.08 28.42 15.96 28.22C16.4933 28.2333 16.9733 28.24 17.4 28.24C17.8267 28.24 18.1067 28.24 18.24 28.24C18.3867 28.2267 18.48 28.1933 18.52 28.14C18.5733 28.1 18.6 28.0267 18.6 27.92V21.94ZM15.04 23.86L16.46 24.26C16.0333 25.06 15.5133 25.8533 14.9 26.64C14.3 27.4267 13.7 28.0867 13.1 28.62C13.02 28.54 12.9067 28.44 12.76 28.32C12.6133 28.2133 12.4667 28.1067 12.32 28C12.1733 27.9067 12.04 27.8267 11.92 27.76C12.52 27.2667 13.1 26.6733 13.66 25.98C14.22 25.2867 14.68 24.58 15.04 23.86ZM8.04 13.48L9.06 12.5C9.46 12.8067 9.86667 13.14 10.28 13.5C10.7067 13.86 11.1 14.2267 11.46 14.6C11.8333 14.9733 12.1267 15.3133 12.34 15.62L11.26 16.72C11.0467 16.4 10.7667 16.0533 10.42 15.68C10.0733 15.2933 9.68667 14.9067 9.26 14.52C8.84667 14.1333 8.44 13.7867 8.04 13.48ZM7.74 26.24C8.1 25.7333 8.49333 25.1333 8.92 24.44C9.36 23.7333 9.80667 22.9867 10.26 22.2C10.7133 21.4133 11.1267 20.6467 11.5 19.9L12.66 20.84C12.3 21.5333 11.9133 22.26 11.5 23.02C11.1 23.7667 10.6867 24.5 10.26 25.22C9.83333 25.9267 9.42667 26.5867 9.04 27.2L7.74 26.24ZM35.54 17.94H45.4V19.34H35.54V17.94ZM34.36 22.32H46.22V23.74H34.36V22.32ZM39.72 11.22H41.18V29.6H39.72V11.22ZM37.16 12.54L38.56 12.88C38.24 13.72 37.8333 14.54 37.34 15.34C36.86 16.14 36.3667 16.82 35.86 17.38C35.7533 17.3 35.62 17.2133 35.46 17.12C35.3133 17.0267 35.16 16.94 35 16.86C34.8533 16.7667 34.72 16.6933 34.6 16.64C35.1333 16.12 35.62 15.5 36.06 14.78C36.5133 14.0467 36.88 13.3 37.16 12.54ZM42.22 13L43.36 12.36C43.72 12.7733 44.0733 13.2333 44.42 13.74C44.78 14.2467 45.1067 14.74 45.4 15.22C45.6933 15.7 45.92 16.1267 46.08 16.5L44.86 17.24C44.7 16.8533 44.4733 16.42 44.18 15.94C43.9 15.4467 43.5867 14.94 43.24 14.42C42.8933 13.9 42.5533 13.4267 42.22 13ZM27.56 21.84C28.4267 21.6 29.46 21.3133 30.66 20.98C31.8733 20.6333 33.0933 20.28 34.32 19.92L34.52 21.26C33.3733 21.62 32.2267 21.98 31.08 22.34C29.9467 22.7 28.9133 23.02 27.98 23.3L27.56 21.84ZM27.84 15.22H34.3V16.64H27.84V15.22ZM30.62 11.2H32.06V27.86C32.06 28.2733 32.0067 28.5933 31.9 28.82C31.7933 29.0467 31.6133 29.22 31.36 29.34C31.0933 29.4467 30.7467 29.5133 30.32 29.54C29.9067 29.58 29.3667 29.6 28.7 29.6C28.6733 29.4133 28.6133 29.1867 28.52 28.92C28.4267 28.6667 28.3333 28.44 28.24 28.24C28.6933 28.2533 29.1067 28.26 29.48 28.26C29.8533 28.26 30.1067 28.2533 30.24 28.24C30.3733 28.24 30.4667 28.2133 30.52 28.16C30.5867 28.1067 30.62 28.0067 30.62 27.86V11.2ZM55.4 13.7H66.06V15.06H55.4V13.7ZM55.9 16.88H63.9V18.18H55.9V16.88ZM52.7 21H66.44V22.38H52.7V21ZM54.78 25.44H66.3V26.76H54.78V25.44ZM55.86 11.18L57.34 11.52C56.94 12.8133 56.4267 14.0533 55.8 15.24C55.1867 16.4267 54.5267 17.4267 53.82 18.24C53.7267 18.1467 53.6 18.0467 53.44 17.94C53.28 17.8333 53.1133 17.7267 52.94 17.62C52.78 17.5133 52.64 17.4267 52.52 17.36C53.2533 16.6267 53.9067 15.7133 54.48 14.62C55.0533 13.5133 55.5133 12.3667 55.86 11.18ZM55.26 16.88H56.66C56.5667 17.7333 56.4533 18.6467 56.32 19.62C56.2 20.5933 56.0733 21.5733 55.94 22.56C55.8067 23.5333 55.6667 24.46 55.52 25.34C55.3867 26.22 55.26 27 55.14 27.68L53.7 27.54C53.8333 26.8733 53.9733 26.1 54.12 25.22C54.2667 24.34 54.4133 23.42 54.56 22.46C54.7067 21.4867 54.84 20.52 54.96 19.56C55.08 18.6 55.18 17.7067 55.26 16.88ZM59.24 17.42H60.56C60.5067 18.1133 60.44 18.8533 60.36 19.64C60.2933 20.4133 60.22 21.1933 60.14 21.98C60.06 22.7667 59.9733 23.5133 59.88 24.22C59.8 24.9267 59.72 25.5533 59.64 26.1H58.34C58.42 25.54 58.5 24.9067 58.58 24.2C58.6733 23.48 58.76 22.7267 58.84 21.94C58.9333 21.1533 59.0133 20.3733 59.08 19.6C59.1467 18.8267 59.2 18.1 59.24 17.42ZM63.46 16.88H64.86C64.86 16.88 64.8533 16.9267 64.84 17.02C64.84 17.1133 64.84 17.2133 64.84 17.32C64.84 17.4267 64.84 17.5133 64.84 17.58C64.76 19.5267 64.68 21.1733 64.6 22.52C64.52 23.8533 64.4267 24.9533 64.32 25.82C64.2267 26.6733 64.1133 27.34 63.98 27.82C63.8467 28.2867 63.7 28.6267 63.54 28.84C63.34 29.08 63.1267 29.2467 62.9 29.34C62.6867 29.4467 62.4333 29.5133 62.14 29.54C61.8467 29.5667 61.4733 29.5733 61.02 29.56C60.5667 29.56 60.0867 29.5467 59.58 29.52C59.5667 29.32 59.5267 29.1 59.46 28.86C59.4067 28.62 59.32 28.4133 59.2 28.24C59.72 28.2933 60.1867 28.32 60.6 28.32C61.0267 28.3333 61.34 28.34 61.54 28.34C61.7267 28.34 61.8733 28.32 61.98 28.28C62.1 28.2533 62.2067 28.1733 62.3 28.04C62.4333 27.8933 62.5533 27.5933 62.66 27.14C62.78 26.6867 62.8867 26.04 62.98 25.2C63.0733 24.36 63.16 23.2867 63.24 21.98C63.32 20.66 63.3933 19.06 63.46 17.18V16.88ZM48.76 12.48L49.62 11.4C50.02 11.5867 50.4333 11.8067 50.86 12.06C51.2867 12.3133 51.6867 12.5733 52.06 12.84C52.4333 13.0933 52.74 13.34 52.98 13.58L52.08 14.78C51.8533 14.5267 51.5533 14.2667 51.18 14C50.8067 13.72 50.4067 13.4467 49.98 13.18C49.5667 12.9133 49.16 12.68 48.76 12.48ZM47.78 17.84L48.62 16.74C49.0333 16.9 49.4533 17.0933 49.88 17.32C50.32 17.5467 50.7267 17.7867 51.1 18.04C51.4867 18.2933 51.8 18.5267 52.04 18.74L51.16 19.96C50.9333 19.7333 50.6267 19.4933 50.24 19.24C49.8667 18.9733 49.4667 18.72 49.04 18.48C48.6133 18.2267 48.1933 18.0133 47.78 17.84ZM48.26 28.48C48.5533 27.96 48.88 27.34 49.24 26.62C49.6133 25.9 49.98 25.14 50.34 24.34C50.7133 23.5267 51.06 22.74 51.38 21.98L52.56 22.82C52.28 23.5267 51.9667 24.2667 51.62 25.04C51.2867 25.8133 50.9467 26.5733 50.6 27.32C50.2533 28.0533 49.9133 28.7267 49.58 29.34L48.26 28.48ZM76.16 18.96H77.7V29.6H76.16V18.96ZM76.2 11.3H77.7V16.9H76.2V11.3ZM70.74 21.48H82.5V22.82H72.24V27.8H70.74V21.48ZM82.08 21.48H83.6V26.2C83.6 26.5733 83.5467 26.8667 83.44 27.08C83.3467 27.2933 83.1533 27.4533 82.86 27.56C82.58 27.68 82.2067 27.7533 81.74 27.78C81.2867 27.7933 80.7133 27.8 80.02 27.8C79.9933 27.6 79.9333 27.38 79.84 27.14C79.7467 26.8867 79.64 26.6667 79.52 26.48C80.0533 26.4933 80.52 26.5 80.92 26.5C81.3333 26.5 81.6067 26.5 81.74 26.5C81.8733 26.4867 81.96 26.46 82 26.42C82.0533 26.38 82.08 26.3 82.08 26.18V21.48ZM68.56 17.92H85.48V21.98H83.94V19.22H70.02V21.98H68.56V17.92ZM68.02 13.58H86.02V14.9H68.02V13.58ZM71.28 11.3H72.78V16.94H71.28V11.3ZM81.32 11.3H82.8V17H81.32V11.3ZM89.14 19.92C89.1133 19.8267 89.0733 19.6933 89.02 19.52C88.9667 19.3467 88.9067 19.1733 88.84 19C88.7733 18.8133 88.7133 18.66 88.66 18.54C88.8467 18.5 89.0333 18.3667 89.22 18.14C89.42 17.9 89.64 17.6 89.88 17.24C90.0133 17.0667 90.1933 16.78 90.42 16.38C90.66 15.98 90.9267 15.5067 91.22 14.96C91.5267 14.4133 91.8267 13.8267 92.12 13.2C92.4267 12.56 92.6933 11.92 92.92 11.28L94.34 11.84C93.9533 12.72 93.52 13.6 93.04 14.48C92.5733 15.3467 92.0933 16.18 91.6 16.98C91.1067 17.7667 90.6067 18.48 90.1 19.12V19.14C90.1 19.14 90.0533 19.1667 89.96 19.22C89.8667 19.2733 89.7533 19.3467 89.62 19.44C89.4867 19.52 89.3733 19.6067 89.28 19.7C89.1867 19.78 89.14 19.8533 89.14 19.92ZM89.14 19.92V18.82L89.92 18.36L94.42 18.16C94.3133 18.36 94.2067 18.5867 94.1 18.84C93.9933 19.0933 93.9133 19.3 93.86 19.46C92.9133 19.5133 92.1533 19.56 91.58 19.6C91.0067 19.64 90.5533 19.68 90.22 19.72C89.9 19.76 89.66 19.7933 89.5 19.82C89.3533 19.8467 89.2333 19.88 89.14 19.92ZM89.38 25.16C89.3667 25.0533 89.3267 24.9133 89.26 24.74C89.2067 24.5667 89.1467 24.3933 89.08 24.22C89.0133 24.0333 88.9467 23.88 88.88 23.76C89.12 23.6933 89.38 23.5267 89.66 23.26C89.9533 22.9933 90.28 22.6467 90.64 22.22C90.84 22.02 91.1333 21.68 91.52 21.2C91.92 20.7067 92.3667 20.1267 92.86 19.46C93.3533 18.78 93.8533 18.0533 94.36 17.28C94.8667 16.5067 95.3267 15.7267 95.74 14.94L97.08 15.64C96.4267 16.7333 95.7267 17.8067 94.98 18.86C94.2467 19.9 93.4867 20.8867 92.7 21.82C91.9133 22.74 91.1333 23.58 90.36 24.34V24.38C90.36 24.38 90.3133 24.4067 90.22 24.46C90.1267 24.5133 90.0133 24.58 89.88 24.66C89.7467 24.7267 89.6267 24.8067 89.52 24.9C89.4267 24.9933 89.38 25.08 89.38 25.16ZM89.38 25.16V23.98L90.24 23.48L96.48 23.16C96.44 23.36 96.4067 23.5933 96.38 23.86C96.3667 24.1267 96.3667 24.34 96.38 24.5C94.94 24.5933 93.78 24.6733 92.9 24.74C92.0333 24.8067 91.36 24.86 90.88 24.9C90.4133 24.94 90.0733 24.98 89.86 25.02C89.66 25.06 89.5 25.1067 89.38 25.16ZM97.36 19.8C97.3333 19.6933 97.2933 19.56 97.24 19.4C97.1867 19.2267 97.1267 19.0533 97.06 18.88C96.9933 18.6933 96.9333 18.54 96.88 18.42C97.0667 18.38 97.26 18.2467 97.46 18.02C97.66 17.7933 97.8867 17.5 98.14 17.14C98.26 16.9667 98.44 16.6867 98.68 16.3C98.92 15.9 99.1933 15.4333 99.5 14.9C99.8067 14.3533 100.113 13.7667 100.42 13.14C100.727 12.5133 101 11.8867 101.24 11.26L102.66 11.82C102.26 12.7 101.82 13.5733 101.34 14.44C100.86 15.2933 100.367 16.1133 99.86 16.9C99.3533 17.6733 98.84 18.3733 98.32 19V19.04C98.32 19.04 98.2733 19.0667 98.18 19.12C98.0867 19.1733 97.9733 19.24 97.84 19.32C97.7067 19.3867 97.5933 19.4667 97.5 19.56C97.4067 19.6533 97.36 19.7333 97.36 19.8ZM97.36 19.8V18.7L98.14 18.24L102.62 18.06C102.527 18.2467 102.427 18.4667 102.32 18.72C102.213 18.9733 102.133 19.18 102.08 19.34C101.147 19.4067 100.387 19.46 99.8 19.5C99.2267 19.54 98.7733 19.58 98.44 19.62C98.12 19.6467 97.88 19.6733 97.72 19.7C97.5733 19.7267 97.4533 19.76 97.36 19.8ZM97.56 25.04C97.5333 24.9467 97.4933 24.8133 97.44 24.64C97.3867 24.4667 97.3267 24.2933 97.26 24.12C97.1933 23.9333 97.1333 23.78 97.08 23.66C97.3067 23.5933 97.5667 23.4333 97.86 23.18C98.1533 22.9133 98.4933 22.58 98.88 22.18C99.0933 21.98 99.4 21.6467 99.8 21.18C100.213 20.7 100.673 20.1333 101.18 19.48C101.687 18.8267 102.2 18.12 102.72 17.36C103.24 16.6 103.727 15.8333 104.18 15.06L105.52 15.78C104.827 16.8467 104.093 17.8933 103.32 18.92C102.547 19.9467 101.753 20.9133 100.94 21.82C100.14 22.7133 99.34 23.5267 98.54 24.26V24.3C98.54 24.3 98.4933 24.3267 98.4 24.38C98.3067 24.42 98.1867 24.48 98.04 24.56C97.9067 24.6267 97.7933 24.7067 97.7 24.8C97.6067 24.88 97.56 24.96 97.56 25.04ZM97.56 25.04L97.54 23.88L98.44 23.38L105.3 23.08C105.273 23.28 105.247 23.5133 105.22 23.78C105.193 24.0467 105.18 24.26 105.18 24.42C103.927 24.4867 102.873 24.5467 102.02 24.6C101.167 24.6533 100.467 24.7 99.92 24.74C99.3867 24.7667 98.96 24.8 98.64 24.84C98.3333 24.8667 98.1 24.9 97.94 24.94C97.7933 24.98 97.6667 25.0133 97.56 25.04ZM88.04 27.02H105.92V28.44H88.04V27.02Z" fill="black"/>
</svg>
