<svg width="113" height="40" viewBox="0 0 113 40" fill="none" xmlns="http://www.w3.org/2000/svg">
<rect x="0.5" y="0.5" width="112" height="39" fill="white"/>
<rect x="0.5" y="0.5" width="112" height="39" stroke="black"/>
<path d="M15.86 18.04V21.22H22.9V18.04H15.86ZM14.44 16.72H24.38V22.56H14.44V16.72ZM21.94 24.42L23.12 23.78C23.5067 24.18 23.9 24.62 24.3 25.1C24.7133 25.5667 25.0867 26.0267 25.42 26.48C25.7667 26.92 26.04 27.32 26.24 27.68L24.98 28.46C24.7933 28.0867 24.5267 27.6667 24.18 27.2C23.8467 26.72 23.48 26.24 23.08 25.76C22.6933 25.2667 22.3133 24.82 21.94 24.42ZM12.86 13.5H25.9V14.92H12.86V13.5ZM18.6 11.2H20.08V14.3H18.6V11.2ZM18.6 21.94H20.08V27.94C20.08 28.3267 20.0267 28.6333 19.92 28.86C19.8267 29.0867 19.6333 29.2533 19.34 29.36C19.0467 29.48 18.6733 29.5533 18.22 29.58C17.7667 29.62 17.2 29.64 16.52 29.64C16.48 29.4267 16.4067 29.1867 16.3 28.92C16.1933 28.6533 16.08 28.42 15.96 28.22C16.4933 28.2333 16.9733 28.24 17.4 28.24C17.8267 28.24 18.1067 28.24 18.24 28.24C18.3867 28.2267 18.48 28.1933 18.52 28.14C18.5733 28.1 18.6 28.0267 18.6 27.92V21.94ZM15.04 23.86L16.46 24.26C16.0333 25.06 15.5133 25.8533 14.9 26.64C14.3 27.4267 13.7 28.0867 13.1 28.62C13.02 28.54 12.9067 28.44 12.76 28.32C12.6133 28.2133 12.4667 28.1067 12.32 28C12.1733 27.9067 12.04 27.8267 11.92 27.76C12.52 27.2667 13.1 26.6733 13.66 25.98C14.22 25.2867 14.68 24.58 15.04 23.86ZM8.04 13.48L9.06 12.5C9.46 12.8067 9.86667 13.14 10.28 13.5C10.7067 13.86 11.1 14.2267 11.46 14.6C11.8333 14.9733 12.1267 15.3133 12.34 15.62L11.26 16.72C11.0467 16.4 10.7667 16.0533 10.42 15.68C10.0733 15.2933 9.68667 14.9067 9.26 14.52C8.84667 14.1333 8.44 13.7867 8.04 13.48ZM7.74 26.24C8.1 25.7333 8.49333 25.1333 8.92 24.44C9.36 23.7333 9.80667 22.9867 10.26 22.2C10.7133 21.4133 11.1267 20.6467 11.5 19.9L12.66 20.84C12.3 21.5333 11.9133 22.26 11.5 23.02C11.1 23.7667 10.6867 24.5 10.26 25.22C9.83333 25.9267 9.42667 26.5867 9.04 27.2L7.74 26.24ZM35.54 17.94H45.4V19.34H35.54V17.94ZM34.36 22.32H46.22V23.74H34.36V22.32ZM39.72 11.22H41.18V29.6H39.72V11.22ZM37.16 12.54L38.56 12.88C38.24 13.72 37.8333 14.54 37.34 15.34C36.86 16.14 36.3667 16.82 35.86 17.38C35.7533 17.3 35.62 17.2133 35.46 17.12C35.3133 17.0267 35.16 16.94 35 16.86C34.8533 16.7667 34.72 16.6933 34.6 16.64C35.1333 16.12 35.62 15.5 36.06 14.78C36.5133 14.0467 36.88 13.3 37.16 12.54ZM42.22 13L43.36 12.36C43.72 12.7733 44.0733 13.2333 44.42 13.74C44.78 14.2467 45.1067 14.74 45.4 15.22C45.6933 15.7 45.92 16.1267 46.08 16.5L44.86 17.24C44.7 16.8533 44.4733 16.42 44.18 15.94C43.9 15.4467 43.5867 14.94 43.24 14.42C42.8933 13.9 42.5533 13.4267 42.22 13ZM27.56 21.84C28.4267 21.6 29.46 21.3133 30.66 20.98C31.8733 20.6333 33.0933 20.28 34.32 19.92L34.52 21.26C33.3733 21.62 32.2267 21.98 31.08 22.34C29.9467 22.7 28.9133 23.02 27.98 23.3L27.56 21.84ZM27.84 15.22H34.3V16.64H27.84V15.22ZM30.62 11.2H32.06V27.86C32.06 28.2733 32.0067 28.5933 31.9 28.82C31.7933 29.0467 31.6133 29.22 31.36 29.34C31.0933 29.4467 30.7467 29.5133 30.32 29.54C29.9067 29.58 29.3667 29.6 28.7 29.6C28.6733 29.4133 28.6133 29.1867 28.52 28.92C28.4267 28.6667 28.3333 28.44 28.24 28.24C28.6933 28.2533 29.1067 28.26 29.48 28.26C29.8533 28.26 30.1067 28.2533 30.24 28.24C30.3733 28.24 30.4667 28.2133 30.52 28.16C30.5867 28.1067 30.62 28.0067 30.62 27.86V11.2ZM48.46 12.46H65.62V13.88H48.46V12.46ZM48.08 27.44H65.94V28.84H48.08V27.44ZM60.42 22.92L62.06 23.34C61.7533 24.0067 61.42 24.6867 61.06 25.38C60.7133 26.0733 60.3867 26.6667 60.08 27.16L58.78 26.74C58.9667 26.3933 59.16 26 59.36 25.56C59.5733 25.1067 59.7733 24.6467 59.96 24.18C60.1467 23.7133 60.3 23.2933 60.42 22.92ZM52.26 23.44L53.62 23.06C53.8333 23.4333 54.04 23.8467 54.24 24.3C54.44 24.74 54.6133 25.1733 54.76 25.6C54.92 26.0133 55.02 26.3867 55.06 26.72L53.62 27.14C53.5667 26.82 53.4733 26.4467 53.34 26.02C53.2067 25.5933 53.0467 25.1533 52.86 24.7C52.6733 24.2333 52.4733 23.8133 52.26 23.44ZM52.2 17.36V21.26H61.92V17.36H52.2ZM50.74 16.02H63.44V22.6H50.74V16.02ZM76.36 15.72H85.84V16.88H76.36V15.72ZM82.02 14.4H83.42V19.72C83.42 20.08 83.3667 20.3467 83.26 20.52C83.1667 20.6933 82.9867 20.8267 82.72 20.92C82.4533 21 82.1 21.0533 81.66 21.08C81.22 21.0933 80.6533 21.1 79.96 21.1C79.9333 20.9267 79.88 20.74 79.8 20.54C79.72 20.34 79.6333 20.1533 79.54 19.98C80.0467 19.9933 80.4933 20.0067 80.88 20.02C81.28 20.02 81.5467 20.0133 81.68 20C81.8133 19.9867 81.9 19.96 81.94 19.92C81.9933 19.88 82.02 19.8067 82.02 19.7V14.4ZM72.04 21.86H84.22V22.98H73.42V29.58H72.04V21.86ZM77.58 23.72L78.46 23C78.9133 23.1867 79.3933 23.4067 79.9 23.66C80.42 23.9 80.92 24.14 81.4 24.38C81.88 24.62 82.28 24.84 82.6 25.04L81.72 25.84C81.4133 25.6267 81.02 25.3933 80.54 25.14C80.0733 24.8867 79.58 24.6333 79.06 24.38C78.54 24.1267 78.0467 23.9067 77.58 23.72ZM77.52 26.44L78.44 25.72C78.8933 25.9333 79.36 26.18 79.84 26.46C80.3333 26.74 80.8 27.0133 81.24 27.28C81.6933 27.5467 82.0733 27.7867 82.38 28L81.44 28.8C81.1333 28.5733 80.76 28.3133 80.32 28.02C79.88 27.74 79.4133 27.46 78.92 27.18C78.4267 26.9 77.96 26.6533 77.52 26.44ZM77 17.76L77.9 17.06C78.3 17.34 78.7133 17.66 79.14 18.02C79.58 18.38 79.9133 18.7067 80.14 19L79.2 19.76C78.9733 19.4667 78.6467 19.1267 78.22 18.74C77.8067 18.3533 77.4 18.0267 77 17.76ZM75.14 14.2L76.4 14.62C75.8267 15.46 75.1133 16.2667 74.26 17.04C73.4067 17.8 72.5533 18.4333 71.7 18.94C71.6333 18.86 71.5333 18.76 71.4 18.64C71.28 18.52 71.1533 18.4 71.02 18.28C70.9 18.1467 70.7933 18.0467 70.7 17.98C71.5533 17.5267 72.38 16.9733 73.18 16.32C73.98 15.6533 74.6333 14.9467 75.14 14.2ZM77.96 20.56H79.18C79.0867 21.5067 78.8933 22.32 78.6 23C78.32 23.68 77.8733 24.2533 77.26 24.72C76.66 25.1733 75.8267 25.5333 74.76 25.8C74.7067 25.6667 74.6133 25.52 74.48 25.36C74.3467 25.1867 74.22 25.0467 74.1 24.94C75.06 24.7133 75.8067 24.4133 76.34 24.04C76.8733 23.6667 77.2533 23.1933 77.48 22.62C77.72 22.0333 77.88 21.3467 77.96 20.56ZM77.84 24.92H79.08C78.9333 25.5867 78.6867 26.1733 78.34 26.68C78.0067 27.1733 77.5467 27.6 76.96 27.96C76.3733 28.3067 75.62 28.6067 74.7 28.86C74.6333 28.7133 74.5267 28.5467 74.38 28.36C74.2467 28.1733 74.12 28.0267 74 27.92C74.8133 27.7333 75.4733 27.5067 75.98 27.24C76.5 26.96 76.9067 26.6333 77.2 26.26C77.4933 25.8733 77.7067 25.4267 77.84 24.92ZM83.66 21.86H85.06V28.12C85.06 28.48 85.0133 28.7533 84.92 28.94C84.8267 29.14 84.6467 29.2867 84.38 29.38C84.1 29.4733 83.72 29.5333 83.24 29.56C82.76 29.5867 82.16 29.6 81.44 29.6C81.4133 29.4133 81.36 29.2133 81.28 29C81.2133 28.7867 81.1333 28.5933 81.04 28.42C81.5733 28.4333 82.0467 28.44 82.46 28.44C82.8867 28.44 83.1667 28.44 83.3 28.44C83.4467 28.4267 83.54 28.3933 83.58 28.34C83.6333 28.3 83.66 28.22 83.66 28.1V21.86ZM76.82 11.2H78.36V13.5H76.82V11.2ZM70.08 12.76H85.98V14.02H70.08V12.76ZM69.36 12.76H70.74V18.8C70.74 19.5867 70.7133 20.4533 70.66 21.4C70.62 22.3333 70.5333 23.2867 70.4 24.26C70.2667 25.22 70.0667 26.1667 69.8 27.1C69.5467 28.02 69.2133 28.8667 68.8 29.64C68.7333 29.5467 68.62 29.44 68.46 29.32C68.3133 29.2133 68.1667 29.1067 68.02 29C67.8733 28.9067 67.74 28.8333 67.62 28.78C68.02 28.06 68.3333 27.2733 68.56 26.42C68.8 25.5667 68.9733 24.7 69.08 23.82C69.2 22.94 69.2733 22.0733 69.3 21.22C69.34 20.3533 69.36 19.5467 69.36 18.8V12.76ZM73.54 16.78L74.56 15.74L74.86 15.86V21.06H73.54V16.78ZM89.14 19.92C89.1133 19.8267 89.0733 19.6933 89.02 19.52C88.9667 19.3467 88.9067 19.1733 88.84 19C88.7733 18.8133 88.7133 18.66 88.66 18.54C88.8467 18.5 89.0333 18.3667 89.22 18.14C89.42 17.9 89.64 17.6 89.88 17.24C90.0133 17.0667 90.1933 16.78 90.42 16.38C90.66 15.98 90.9267 15.5067 91.22 14.96C91.5267 14.4133 91.8267 13.8267 92.12 13.2C92.4267 12.56 92.6933 11.92 92.92 11.28L94.34 11.84C93.9533 12.72 93.52 13.6 93.04 14.48C92.5733 15.3467 92.0933 16.18 91.6 16.98C91.1067 17.7667 90.6067 18.48 90.1 19.12V19.14C90.1 19.14 90.0533 19.1667 89.96 19.22C89.8667 19.2733 89.7533 19.3467 89.62 19.44C89.4867 19.52 89.3733 19.6067 89.28 19.7C89.1867 19.78 89.14 19.8533 89.14 19.92ZM89.14 19.92V18.82L89.92 18.36L94.42 18.16C94.3133 18.36 94.2067 18.5867 94.1 18.84C93.9933 19.0933 93.9133 19.3 93.86 19.46C92.9133 19.5133 92.1533 19.56 91.58 19.6C91.0067 19.64 90.5533 19.68 90.22 19.72C89.9 19.76 89.66 19.7933 89.5 19.82C89.3533 19.8467 89.2333 19.88 89.14 19.92ZM89.38 25.16C89.3667 25.0533 89.3267 24.9133 89.26 24.74C89.2067 24.5667 89.1467 24.3933 89.08 24.22C89.0133 24.0333 88.9467 23.88 88.88 23.76C89.12 23.6933 89.38 23.5267 89.66 23.26C89.9533 22.9933 90.28 22.6467 90.64 22.22C90.84 22.02 91.1333 21.68 91.52 21.2C91.92 20.7067 92.3667 20.1267 92.86 19.46C93.3533 18.78 93.8533 18.0533 94.36 17.28C94.8667 16.5067 95.3267 15.7267 95.74 14.94L97.08 15.64C96.4267 16.7333 95.7267 17.8067 94.98 18.86C94.2467 19.9 93.4867 20.8867 92.7 21.82C91.9133 22.74 91.1333 23.58 90.36 24.34V24.38C90.36 24.38 90.3133 24.4067 90.22 24.46C90.1267 24.5133 90.0133 24.58 89.88 24.66C89.7467 24.7267 89.6267 24.8067 89.52 24.9C89.4267 24.9933 89.38 25.08 89.38 25.16ZM89.38 25.16V23.98L90.24 23.48L96.48 23.16C96.44 23.36 96.4067 23.5933 96.38 23.86C96.3667 24.1267 96.3667 24.34 96.38 24.5C94.94 24.5933 93.78 24.6733 92.9 24.74C92.0333 24.8067 91.36 24.86 90.88 24.9C90.4133 24.94 90.0733 24.98 89.86 25.02C89.66 25.06 89.5 25.1067 89.38 25.16ZM97.36 19.8C97.3333 19.6933 97.2933 19.56 97.24 19.4C97.1867 19.2267 97.1267 19.0533 97.06 18.88C96.9933 18.6933 96.9333 18.54 96.88 18.42C97.0667 18.38 97.26 18.2467 97.46 18.02C97.66 17.7933 97.8867 17.5 98.14 17.14C98.26 16.9667 98.44 16.6867 98.68 16.3C98.92 15.9 99.1933 15.4333 99.5 14.9C99.8067 14.3533 100.113 13.7667 100.42 13.14C100.727 12.5133 101 11.8867 101.24 11.26L102.66 11.82C102.26 12.7 101.82 13.5733 101.34 14.44C100.86 15.2933 100.367 16.1133 99.86 16.9C99.3533 17.6733 98.84 18.3733 98.32 19V19.04C98.32 19.04 98.2733 19.0667 98.18 19.12C98.0867 19.1733 97.9733 19.24 97.84 19.32C97.7067 19.3867 97.5933 19.4667 97.5 19.56C97.4067 19.6533 97.36 19.7333 97.36 19.8ZM97.36 19.8V18.7L98.14 18.24L102.62 18.06C102.527 18.2467 102.427 18.4667 102.32 18.72C102.213 18.9733 102.133 19.18 102.08 19.34C101.147 19.4067 100.387 19.46 99.8 19.5C99.2267 19.54 98.7733 19.58 98.44 19.62C98.12 19.6467 97.88 19.6733 97.72 19.7C97.5733 19.7267 97.4533 19.76 97.36 19.8ZM97.56 25.04C97.5333 24.9467 97.4933 24.8133 97.44 24.64C97.3867 24.4667 97.3267 24.2933 97.26 24.12C97.1933 23.9333 97.1333 23.78 97.08 23.66C97.3067 23.5933 97.5667 23.4333 97.86 23.18C98.1533 22.9133 98.4933 22.58 98.88 22.18C99.0933 21.98 99.4 21.6467 99.8 21.18C100.213 20.7 100.673 20.1333 101.18 19.48C101.687 18.8267 102.2 18.12 102.72 17.36C103.24 16.6 103.727 15.8333 104.18 15.06L105.52 15.78C104.827 16.8467 104.093 17.8933 103.32 18.92C102.547 19.9467 101.753 20.9133 100.94 21.82C100.14 22.7133 99.34 23.5267 98.54 24.26V24.3C98.54 24.3 98.4933 24.3267 98.4 24.38C98.3067 24.42 98.1867 24.48 98.04 24.56C97.9067 24.6267 97.7933 24.7067 97.7 24.8C97.6067 24.88 97.56 24.96 97.56 25.04ZM97.56 25.04L97.54 23.88L98.44 23.38L105.3 23.08C105.273 23.28 105.247 23.5133 105.22 23.78C105.193 24.0467 105.18 24.26 105.18 24.42C103.927 24.4867 102.873 24.5467 102.02 24.6C101.167 24.6533 100.467 24.7 99.92 24.74C99.3867 24.7667 98.96 24.8 98.64 24.84C98.3333 24.8667 98.1 24.9 97.94 24.94C97.7933 24.98 97.6667 25.0133 97.56 25.04ZM88.04 27.02H105.92V28.44H88.04V27.02Z" fill="black"/>
</svg>
