<svg width="97" height="40" viewBox="0 0 97 40" fill="none" xmlns="http://www.w3.org/2000/svg">
<rect x="0.5" y="0.5" width="96" height="39" fill="white"/>
<rect x="0.5" y="0.5" width="96" height="39" stroke="black"/>
<path d="M25.52 10.32L26.78 11.4C26.02 11.7467 25.16 12.0867 24.2 12.42C23.24 12.74 22.24 13.0333 21.2 13.3C20.1733 13.5667 19.1667 13.8067 18.18 14.02C18.14 13.86 18.0667 13.6667 17.96 13.44C17.8667 13.2133 17.78 13.02 17.7 12.86C18.6467 12.6467 19.6067 12.4067 20.58 12.14C21.5533 11.86 22.4733 11.5667 23.34 11.26C24.2067 10.94 24.9333 10.6267 25.52 10.32ZM18.16 17.16L27.2 15.42L27.44 16.74L18.4 18.5L18.16 17.16ZM17.8 21.76L28.02 19.88L28.24 21.18L18 23.1L17.8 21.76ZM21.38 12.66H22.8V26C22.8 26.4133 22.8533 26.68 22.96 26.8C23.0667 26.92 23.2867 26.98 23.62 26.98C23.7 26.98 23.8467 26.98 24.06 26.98C24.2867 26.98 24.5267 26.98 24.78 26.98C25.0467 26.98 25.3 26.98 25.54 26.98C25.78 26.98 25.9467 26.98 26.04 26.98C26.2533 26.98 26.4133 26.9 26.52 26.74C26.6267 26.58 26.7 26.2933 26.74 25.88C26.7933 25.4667 26.8333 24.88 26.86 24.12C27.02 24.2533 27.2267 24.3733 27.48 24.48C27.7333 24.5867 27.96 24.6667 28.16 24.72C28.12 25.6267 28.0333 26.3467 27.9 26.88C27.7667 27.4 27.56 27.7733 27.28 28C27.0133 28.2267 26.6267 28.34 26.12 28.34C26.04 28.34 25.8733 28.34 25.62 28.34C25.3667 28.34 25.0867 28.34 24.78 28.34C24.4733 28.34 24.1933 28.34 23.94 28.34C23.7 28.34 23.54 28.34 23.46 28.34C22.9133 28.34 22.4867 28.2667 22.18 28.12C21.8867 27.9867 21.68 27.7467 21.56 27.4C21.44 27.0667 21.38 26.5933 21.38 25.98V12.66ZM13.18 10.28H14.56V14.54H13.18V10.28ZM11.1 13.84H17.2V21.12H11.1V19.86H15.94V15.1H11.1V13.84ZM10.46 13.84H11.72V22.08H10.46V13.84ZM13.34 14.38H14.44V20.4H14.56V25.72H13.2V20.4H13.34V14.38ZM9.82 25.78C10.42 25.6867 11.1 25.5667 11.86 25.42C12.62 25.2733 13.42 25.1133 14.26 24.94C15.1133 24.7667 15.9733 24.6 16.84 24.44L16.98 25.76C15.7533 26.0133 14.5333 26.2667 13.32 26.52C12.12 26.7733 11.04 27.0067 10.08 27.22L9.82 25.78ZM15.2 22.5L16.32 22.1C16.5867 22.6067 16.8333 23.1533 17.06 23.74C17.3 24.3133 17.5 24.88 17.66 25.44C17.8333 25.9867 17.9667 26.4867 18.06 26.94L16.82 27.36C16.7533 26.92 16.6333 26.42 16.46 25.86C16.3 25.3 16.1067 24.7267 15.88 24.14C15.6667 23.5533 15.44 23.0067 15.2 22.5ZM37.18 25.92H46.72V27.36H37.18V25.92ZM37.22 20.06H46.68V21.52H37.22V20.06ZM41.06 10.24H42.52V26.82H41.06V10.24ZM36.34 14.38H47.42V28.42H45.96V15.84H37.76V28.54H36.34V14.38ZM30.86 11.54L31.72 10.44C32.16 10.6267 32.62 10.8467 33.1 11.1C33.5933 11.3533 34.06 11.6133 34.5 11.88C34.9533 12.1333 35.3267 12.3667 35.62 12.58L34.72 13.84C34.4533 13.6133 34.0933 13.3667 33.64 13.1C33.2 12.82 32.7333 12.54 32.24 12.26C31.76 11.98 31.3 11.74 30.86 11.54ZM29.84 17.02L30.66 15.92C31.0867 16.0933 31.5333 16.3 32 16.54C32.48 16.78 32.94 17.0267 33.38 17.28C33.82 17.5333 34.1733 17.7667 34.44 17.98L33.6 19.24C33.3333 19.0133 32.9867 18.7667 32.56 18.5C32.1333 18.2333 31.68 17.9733 31.2 17.72C30.72 17.4533 30.2667 17.22 29.84 17.02ZM30.52 27.32C30.8267 26.8667 31.1733 26.3267 31.56 25.7C31.9467 25.06 32.3333 24.3933 32.72 23.7C33.1067 22.9933 33.4667 22.3067 33.8 21.64L34.94 22.6C34.6333 23.2133 34.3 23.8533 33.94 24.52C33.5933 25.1867 33.24 25.8467 32.88 26.5C32.52 27.14 32.1667 27.74 31.82 28.3L30.52 27.32ZM53.18 14.08H67.02V15.54H53.18V14.08ZM52.3 19.96H66.3V21.4H52.3V19.96ZM50.1 26.5H67.98V27.96H50.1V26.5ZM58.26 10.2H59.82V27.22H58.26V10.2ZM53.78 10.52L55.3 10.86C55.02 11.8867 54.68 12.8933 54.28 13.88C53.88 14.8533 53.44 15.7667 52.96 16.62C52.48 17.46 51.9667 18.2 51.42 18.84C51.3267 18.7467 51.1933 18.6467 51.02 18.54C50.86 18.4333 50.6933 18.3267 50.52 18.22C50.36 18.1 50.2133 18.0067 50.08 17.94C50.6267 17.3533 51.1267 16.6667 51.58 15.88C52.0467 15.08 52.4667 14.2267 52.84 13.32C53.2133 12.4133 53.5267 11.48 53.78 10.52ZM70.22 11.6H87.84V12.94H70.22V11.6ZM74.88 10.2H76.4V14.54H74.88V10.2ZM81.58 10.2H83.1V14.32H81.58V10.2ZM70.16 21.72H87.92V23.08H70.16V21.72ZM78.18 20.18H79.74V28.6H78.18V20.18ZM77.58 22.3L78.82 22.86C78.2067 23.6333 77.4533 24.3667 76.56 25.06C75.6667 25.74 74.7133 26.3533 73.7 26.9C72.6867 27.4467 71.6933 27.8867 70.72 28.22C70.64 28.0867 70.54 27.94 70.42 27.78C70.3 27.62 70.1733 27.46 70.04 27.3C69.9067 27.14 69.7867 27.0133 69.68 26.92C70.4133 26.7067 71.1533 26.44 71.9 26.12C72.66 25.8 73.3933 25.44 74.1 25.04C74.8067 24.6267 75.46 24.1933 76.06 23.74C76.66 23.2733 77.1667 22.7933 77.58 22.3ZM80.36 22.38C80.9067 23.0333 81.6067 23.6467 82.46 24.22C83.3133 24.7933 84.24 25.3 85.24 25.74C86.24 26.18 87.24 26.5267 88.24 26.78C88.1333 26.8733 88.0133 27 87.88 27.16C87.7467 27.32 87.62 27.48 87.5 27.64C87.3933 27.8 87.3 27.9533 87.22 28.1C86.22 27.78 85.2133 27.3667 84.2 26.86C83.2 26.34 82.2667 25.74 81.4 25.06C80.5333 24.38 79.8 23.66 79.2 22.9L80.36 22.38ZM85.22 14.1L86.42 15.28C85.4333 15.5067 84.3267 15.7067 83.1 15.88C81.8867 16.04 80.6 16.18 79.24 16.3C77.8933 16.42 76.5267 16.5133 75.14 16.58C73.7667 16.6467 72.44 16.6933 71.16 16.72C71.1467 16.5333 71.1 16.3133 71.02 16.06C70.9533 15.7933 70.8867 15.58 70.82 15.42C72.0733 15.3933 73.3733 15.3467 74.72 15.28C76.0667 15.2 77.3867 15.1067 78.68 15C79.9867 14.8933 81.2 14.7667 82.32 14.62C83.44 14.46 84.4067 14.2867 85.22 14.1ZM71.72 17.76L72.98 17.22C73.38 17.66 73.7533 18.16 74.1 18.72C74.4467 19.28 74.6933 19.7667 74.84 20.18L73.5 20.76C73.3667 20.3333 73.1333 19.84 72.8 19.28C72.4667 18.72 72.1067 18.2133 71.72 17.76ZM77.24 17.22L78.56 16.8C78.8533 17.2267 79.12 17.7 79.36 18.22C79.6 18.74 79.76 19.1933 79.84 19.58L78.42 20.06C78.3533 19.6733 78.2067 19.22 77.98 18.7C77.7667 18.1667 77.52 17.6733 77.24 17.22ZM85.14 16.48L86.66 17.04C86.2467 17.7067 85.8 18.3933 85.32 19.1C84.8533 19.8067 84.4267 20.4067 84.04 20.9L82.88 20.36C83.1333 20.0267 83.4 19.6333 83.68 19.18C83.96 18.7133 84.2267 18.2467 84.48 17.78C84.7467 17.3 84.9667 16.8667 85.14 16.48Z" fill="black"/>
</svg>
