<svg width="97" height="40" viewBox="0 0 97 40" fill="none" xmlns="http://www.w3.org/2000/svg">
<rect x="0.5" y="0.5" width="96" height="39" fill="white"/>
<rect x="0.5" y="0.5" width="96" height="39" stroke="black"/>
<path d="M21.26 20.5H26.16V21.68H21.26V20.5ZM18.18 13.88C18.9267 13.8533 19.7733 13.82 20.72 13.78C21.68 13.74 22.6933 13.6933 23.76 13.64C24.8267 13.5867 25.9 13.5333 26.98 13.48L26.96 14.7C25.9333 14.7667 24.8933 14.8333 23.84 14.9C22.8 14.9533 21.8067 15.0067 20.86 15.06C19.9133 15.1133 19.0533 15.16 18.28 15.2L18.18 13.88ZM21.96 18.58L23.34 18.92C22.8467 20.0667 22.1933 21.1133 21.38 22.06C20.58 23.0067 19.72 23.8 18.8 24.44C18.7333 24.3467 18.6333 24.24 18.5 24.12C18.38 23.9867 18.2467 23.86 18.1 23.74C17.9667 23.62 17.8467 23.52 17.74 23.44C18.66 22.8933 19.4933 22.2 20.24 21.36C20.9867 20.52 21.56 19.5933 21.96 18.58ZM25.8 20.5H26.08L26.32 20.44L27.22 20.82C26.7667 22.22 26.1067 23.4333 25.24 24.46C24.3867 25.4733 23.4 26.3133 22.28 26.98C21.1733 27.6467 19.9933 28.1733 18.74 28.56C18.66 28.4 18.54 28.2 18.38 27.96C18.2333 27.72 18.0933 27.5333 17.96 27.4C19.12 27.0933 20.22 26.64 21.26 26.04C22.3133 25.44 23.24 24.7 24.04 23.82C24.84 22.9267 25.4267 21.9 25.8 20.74V20.5ZM21.44 21.56C21.84 22.4933 22.38 23.3533 23.06 24.14C23.7533 24.9133 24.56 25.58 25.48 26.14C26.4133 26.6867 27.4333 27.1 28.54 27.38C28.3933 27.5267 28.2267 27.72 28.04 27.96C27.8667 28.2 27.7333 28.4133 27.64 28.6C26.4667 28.2533 25.4 27.76 24.44 27.12C23.4933 26.4933 22.66 25.74 21.94 24.86C21.2333 23.98 20.66 22.9933 20.22 21.9L21.44 21.56ZM20.72 14.8H22.04C21.9733 15.5867 21.8333 16.2867 21.62 16.9C21.4067 17.5133 21.0733 18.0467 20.62 18.5C20.18 18.9533 19.56 19.3333 18.76 19.64C18.6933 19.48 18.58 19.2933 18.42 19.08C18.26 18.8667 18.1067 18.7 17.96 18.58C18.64 18.3533 19.1667 18.0667 19.54 17.72C19.9267 17.3733 20.2067 16.96 20.38 16.48C20.5533 15.9867 20.6667 15.4267 20.72 14.8ZM23.68 14.76H25V17.34C25 17.5267 25.0267 17.6467 25.08 17.7C25.1333 17.74 25.26 17.76 25.46 17.76C25.5133 17.76 25.62 17.76 25.78 17.76C25.9533 17.76 26.1267 17.76 26.3 17.76C26.4867 17.76 26.62 17.76 26.7 17.76C26.82 17.76 26.9067 17.7333 26.96 17.68C27.0267 17.6133 27.0733 17.4733 27.1 17.26C27.14 17.0467 27.1667 16.7133 27.18 16.26C27.3133 16.3667 27.4933 16.46 27.72 16.54C27.9467 16.62 28.1533 16.6867 28.34 16.74C28.2733 17.62 28.1333 18.2067 27.92 18.5C27.72 18.7933 27.3733 18.94 26.88 18.94C26.8133 18.94 26.7067 18.94 26.56 18.94C26.4133 18.94 26.2467 18.94 26.06 18.94C25.8867 18.94 25.7267 18.94 25.58 18.94C25.4333 18.94 25.3333 18.94 25.28 18.94C24.8533 18.94 24.52 18.8933 24.28 18.8C24.0533 18.7067 23.8933 18.5467 23.8 18.32C23.72 18.08 23.68 17.7533 23.68 17.34V14.76ZM21.52 10.16L22.98 10.62C22.7533 11.0733 22.5067 11.5533 22.24 12.06C21.9867 12.5533 21.7267 13.0333 21.46 13.5C21.1933 13.9533 20.94 14.36 20.7 14.72L19.56 14.3C19.7867 13.9267 20.02 13.5 20.26 13.02C20.5133 12.5267 20.7467 12.0267 20.96 11.52C21.1867 11.0133 21.3733 10.56 21.52 10.16ZM24.42 12.16L25.5 11.58C25.8733 11.9133 26.2467 12.2867 26.62 12.7C27.0067 13.1 27.36 13.5067 27.68 13.92C28 14.32 28.2533 14.6867 28.44 15.02L27.28 15.68C27.1067 15.36 26.8667 14.9933 26.56 14.58C26.2533 14.1667 25.9133 13.7533 25.54 13.34C25.1667 12.9133 24.7933 12.52 24.42 12.16ZM10.26 14.86H17.98V28.26H16.78V16.14H11.44V28.52H10.26V14.86ZM10.78 22.7H17.48V23.88H10.78V22.7ZM10.78 25.9H17.48V27.12H10.78V25.9ZM10.08 11.1H18.06V12.38H10.08V11.1ZM12.4 11.5H13.5V15.86H12.4V11.5ZM14.66 11.5H15.76V15.86H14.66V11.5ZM12.66 15.78H13.52V17.66C13.52 18.0467 13.48 18.4667 13.4 18.92C13.32 19.3733 13.1667 19.82 12.94 20.26C12.7133 20.7 12.3933 21.1067 11.98 21.48C11.9133 21.3867 11.8067 21.28 11.66 21.16C11.5267 21.04 11.4133 20.9533 11.32 20.9C11.7067 20.5667 11.9933 20.22 12.18 19.86C12.38 19.4867 12.5067 19.1133 12.56 18.74C12.6267 18.3533 12.66 17.9867 12.66 17.64V15.78ZM14.62 15.78H15.48V19.28C15.48 19.4 15.4933 19.48 15.52 19.52C15.5467 19.5467 15.62 19.56 15.74 19.56C15.78 19.56 15.8467 19.56 15.94 19.56C16.0467 19.56 16.1467 19.56 16.24 19.56C16.3467 19.56 16.4267 19.56 16.48 19.56C16.5867 19.56 16.66 19.5533 16.7 19.54C16.7533 19.5267 16.7867 19.5133 16.8 19.5C16.88 19.58 16.9933 19.6467 17.14 19.7C17.3 19.7533 17.4467 19.8 17.58 19.84C17.4733 20.24 17.16 20.44 16.64 20.44C16.6 20.44 16.5067 20.44 16.36 20.44C16.2267 20.44 16.0867 20.44 15.94 20.44C15.8067 20.44 15.7133 20.44 15.66 20.44C15.26 20.44 14.9867 20.3667 14.84 20.22C14.6933 20.0733 14.62 19.7667 14.62 19.3V15.78ZM33.22 10.18H34.66V13.4H33.22V10.18ZM42.16 10.18H43.62V28.62H42.16V10.18ZM30.14 12.8H37.64V14.08H30.14V12.8ZM38 12.54H48.06V13.88H38V12.54ZM29.88 18.24H37.84V19.5H29.88V18.24ZM31.14 14.7L32.26 14.38C32.4733 14.9 32.6467 15.4733 32.78 16.1C32.9133 16.7133 32.9933 17.24 33.02 17.68L31.82 18.04C31.7933 17.6 31.72 17.0667 31.6 16.44C31.48 15.8 31.3267 15.22 31.14 14.7ZM35.56 14.28L36.92 14.62C36.7067 15.2067 36.48 15.8267 36.24 16.48C36 17.12 35.78 17.66 35.58 18.1L34.5 17.78C34.6333 17.46 34.7667 17.1 34.9 16.7C35.0333 16.2867 35.16 15.8667 35.28 15.44C35.4 15.0133 35.4933 14.6267 35.56 14.28ZM29.8 22.58C30.48 22.4733 31.2533 22.3467 32.12 22.2C33 22.04 33.9267 21.8733 34.9 21.7C35.8733 21.5133 36.8467 21.3333 37.82 21.16L37.9 22.4C36.5267 22.6667 35.16 22.94 33.8 23.22C32.44 23.4867 31.22 23.7267 30.14 23.94L29.8 22.58ZM39.74 17V20.02H46.28V17H39.74ZM38.4 15.8H47.68V21.2H38.4V15.8ZM43.9 20.72C44.2467 21.4267 44.6733 22.1467 45.18 22.88C45.6867 23.6 46.2333 24.2733 46.82 24.9C47.42 25.5133 48 26.0133 48.56 26.4C48.4133 26.5333 48.2333 26.7133 48.02 26.94C47.82 27.1533 47.66 27.3533 47.54 27.54C46.9667 27.0733 46.3867 26.4933 45.8 25.8C45.2267 25.0933 44.68 24.3333 44.16 23.52C43.6533 22.7067 43.2133 21.9 42.84 21.1L43.9 20.72ZM41.84 20.74L43.02 21.2C42.6067 22.08 42.0933 22.9333 41.48 23.76C40.88 24.5867 40.22 25.3467 39.5 26.04C38.7933 26.72 38.08 27.28 37.36 27.72C37.28 27.6133 37.18 27.4867 37.06 27.34C36.94 27.2067 36.82 27.0733 36.7 26.94C36.58 26.8067 36.46 26.6933 36.34 26.6C37.06 26.2267 37.7667 25.7333 38.46 25.12C39.1667 24.4933 39.8133 23.8067 40.4 23.06C40.9867 22.3 41.4667 21.5267 41.84 20.74ZM33.22 18.74H34.66V22.1C34.66 22.6067 34.62 23.1533 34.54 23.74C34.46 24.3133 34.3067 24.8933 34.08 25.48C33.8667 26.0667 33.5533 26.6267 33.14 27.16C32.74 27.7067 32.2067 28.2 31.54 28.64C31.4867 28.5467 31.4 28.4333 31.28 28.3C31.1733 28.1667 31.06 28.04 30.94 27.92C30.82 27.8 30.7 27.7 30.58 27.62C31.1933 27.26 31.6733 26.8533 32.02 26.4C32.3667 25.9333 32.6267 25.4467 32.8 24.94C32.9733 24.4333 33.0867 23.94 33.14 23.46C33.1933 22.9667 33.22 22.5067 33.22 22.08V18.74ZM54.64 10.1L56.2 10.54C55.7867 11.5667 55.3 12.5733 54.74 13.56C54.18 14.5333 53.5733 15.4467 52.92 16.3C52.28 17.14 51.62 17.8867 50.94 18.54C50.8467 18.4333 50.72 18.3133 50.56 18.18C50.4 18.0467 50.2333 17.9133 50.06 17.78C49.9 17.6467 49.7533 17.54 49.62 17.46C50.3133 16.8867 50.9667 16.2067 51.58 15.42C52.2067 14.6333 52.78 13.7867 53.3 12.88C53.8333 11.9733 54.28 11.0467 54.64 10.1ZM54.4 12.48H65.68V13.92H53.68L54.4 12.48ZM65.22 12.48H66.72C66.72 12.48 66.72 12.5267 66.72 12.62C66.72 12.7133 66.72 12.82 66.72 12.94C66.72 13.0467 66.7133 13.14 66.7 13.22C66.66 14.9 66.6067 16.3267 66.54 17.5C66.4867 18.6733 66.4267 19.64 66.36 20.4C66.2933 21.1467 66.2067 21.7333 66.1 22.16C65.9933 22.5867 65.8667 22.8933 65.72 23.08C65.5467 23.3067 65.3533 23.4667 65.14 23.56C64.94 23.6533 64.6867 23.7133 64.38 23.74C64.0867 23.78 63.7067 23.8 63.24 23.8C62.7733 23.7867 62.2733 23.7733 61.74 23.76C61.7267 23.5333 61.68 23.2867 61.6 23.02C61.5333 22.7533 61.44 22.52 61.32 22.32C61.8267 22.3733 62.2933 22.4067 62.72 22.42C63.16 22.42 63.4733 22.42 63.66 22.42C63.8333 22.42 63.9733 22.4 64.08 22.36C64.2 22.32 64.3 22.2533 64.38 22.16C64.4867 22.0133 64.58 21.7533 64.66 21.38C64.7533 20.9933 64.8333 20.4467 64.9 19.74C64.9667 19.02 65.02 18.0933 65.06 16.96C65.1133 15.8133 65.1667 14.4267 65.22 12.8V12.48ZM53.34 20.8H59.58V17.38H52.92V16.04H61.08V22.16H53.34V20.8ZM52.64 20.8H54.12V25.94C54.12 26.2067 54.18 26.42 54.3 26.58C54.4333 26.7267 54.6867 26.8267 55.06 26.88C55.4333 26.9333 55.98 26.96 56.7 26.96C56.9 26.96 57.24 26.96 57.72 26.96C58.2133 26.96 58.7733 26.96 59.4 26.96C60.0267 26.96 60.66 26.96 61.3 26.96C61.94 26.96 62.52 26.96 63.04 26.96C63.56 26.96 63.96 26.96 64.24 26.96C64.84 26.96 65.2933 26.8933 65.6 26.76C65.9067 26.6267 66.12 26.3667 66.24 25.98C66.3733 25.58 66.4667 25 66.52 24.24C66.6533 24.32 66.8067 24.4 66.98 24.48C67.1533 24.5467 67.3267 24.6067 67.5 24.66C67.6867 24.7133 67.8467 24.76 67.98 24.8C67.9 25.52 67.7933 26.1133 67.66 26.58C67.5267 27.0333 67.3267 27.3933 67.06 27.66C66.8067 27.9267 66.4533 28.1133 66 28.22C65.5467 28.3267 64.96 28.38 64.24 28.38C64.12 28.38 63.8667 28.38 63.48 28.38C63.1067 28.38 62.66 28.38 62.14 28.38C61.62 28.38 61.0733 28.38 60.5 28.38C59.9267 28.38 59.3733 28.38 58.84 28.38C58.32 28.38 57.8733 28.38 57.5 28.38C57.1267 28.38 56.88 28.38 56.76 28.38C55.7067 28.38 54.88 28.3133 54.28 28.18C53.68 28.0467 53.2533 27.8067 53 27.46C52.76 27.1133 52.64 26.6133 52.64 25.96V20.8ZM70.22 11.6H87.84V12.94H70.22V11.6ZM74.88 10.2H76.4V14.54H74.88V10.2ZM81.58 10.2H83.1V14.32H81.58V10.2ZM70.16 21.72H87.92V23.08H70.16V21.72ZM78.18 20.18H79.74V28.6H78.18V20.18ZM77.58 22.3L78.82 22.86C78.2067 23.6333 77.4533 24.3667 76.56 25.06C75.6667 25.74 74.7133 26.3533 73.7 26.9C72.6867 27.4467 71.6933 27.8867 70.72 28.22C70.64 28.0867 70.54 27.94 70.42 27.78C70.3 27.62 70.1733 27.46 70.04 27.3C69.9067 27.14 69.7867 27.0133 69.68 26.92C70.4133 26.7067 71.1533 26.44 71.9 26.12C72.66 25.8 73.3933 25.44 74.1 25.04C74.8067 24.6267 75.46 24.1933 76.06 23.74C76.66 23.2733 77.1667 22.7933 77.58 22.3ZM80.36 22.38C80.9067 23.0333 81.6067 23.6467 82.46 24.22C83.3133 24.7933 84.24 25.3 85.24 25.74C86.24 26.18 87.24 26.5267 88.24 26.78C88.1333 26.8733 88.0133 27 87.88 27.16C87.7467 27.32 87.62 27.48 87.5 27.64C87.3933 27.8 87.3 27.9533 87.22 28.1C86.22 27.78 85.2133 27.3667 84.2 26.86C83.2 26.34 82.2667 25.74 81.4 25.06C80.5333 24.38 79.8 23.66 79.2 22.9L80.36 22.38ZM85.22 14.1L86.42 15.28C85.4333 15.5067 84.3267 15.7067 83.1 15.88C81.8867 16.04 80.6 16.18 79.24 16.3C77.8933 16.42 76.5267 16.5133 75.14 16.58C73.7667 16.6467 72.44 16.6933 71.16 16.72C71.1467 16.5333 71.1 16.3133 71.02 16.06C70.9533 15.7933 70.8867 15.58 70.82 15.42C72.0733 15.3933 73.3733 15.3467 74.72 15.28C76.0667 15.2 77.3867 15.1067 78.68 15C79.9867 14.8933 81.2 14.7667 82.32 14.62C83.44 14.46 84.4067 14.2867 85.22 14.1ZM71.72 17.76L72.98 17.22C73.38 17.66 73.7533 18.16 74.1 18.72C74.4467 19.28 74.6933 19.7667 74.84 20.18L73.5 20.76C73.3667 20.3333 73.1333 19.84 72.8 19.28C72.4667 18.72 72.1067 18.2133 71.72 17.76ZM77.24 17.22L78.56 16.8C78.8533 17.2267 79.12 17.7 79.36 18.22C79.6 18.74 79.76 19.1933 79.84 19.58L78.42 20.06C78.3533 19.6733 78.2067 19.22 77.98 18.7C77.7667 18.1667 77.52 17.6733 77.24 17.22ZM85.14 16.48L86.66 17.04C86.2467 17.7067 85.8 18.3933 85.32 19.1C84.8533 19.8067 84.4267 20.4067 84.04 20.9L82.88 20.36C83.1333 20.0267 83.4 19.6333 83.68 19.18C83.96 18.7133 84.2267 18.2467 84.48 17.78C84.7467 17.3 84.9667 16.8667 85.14 16.48Z" fill="black"/>
</svg>
