<svg width="97" height="40" viewBox="0 0 97 40" fill="none" xmlns="http://www.w3.org/2000/svg">
<rect x="0.5" y="0.5" width="96" height="39" fill="white"/>
<rect x="0.5" y="0.5" width="96" height="39" stroke="black"/>
<path d="M9.98 11.56H17.08V12.86H9.98V11.56ZM11.86 16.12V19.12H15.04V16.12H11.86ZM10.56 14.92H16.4V20.32H10.56V14.92ZM10.78 21.46L11.94 21.22C12.1667 21.7933 12.3533 22.4267 12.5 23.12C12.66 23.8133 12.7533 24.4067 12.78 24.9L11.56 25.2C11.5333 24.6933 11.4467 24.0933 11.3 23.4C11.1667 22.7067 10.9933 22.06 10.78 21.46ZM14.78 21.06L16.12 21.36C15.9467 22 15.76 22.6667 15.56 23.36C15.3733 24.0533 15.1933 24.6533 15.02 25.16L13.9 24.86C14.0067 24.5133 14.1133 24.12 14.22 23.68C14.34 23.2267 14.4467 22.7733 14.54 22.32C14.6333 21.8533 14.7133 21.4333 14.78 21.06ZM9.7 26.22C10.3267 26.1133 11.0533 25.9867 11.88 25.84C12.7067 25.6933 13.5867 25.5333 14.52 25.36C15.4533 25.1733 16.3933 24.9933 17.34 24.82L17.44 26.06C16.1067 26.34 14.78 26.62 13.46 26.9C12.1533 27.1667 11 27.4067 10 27.62L9.7 26.22ZM23.64 16.7H27V17.92H23.64V16.7ZM21.84 10.2H23.34V13.24H21.84V10.2ZM17.3 12.66H27.96V16.14H26.56V13.94H18.64V16.18H17.3V12.66ZM18.76 15.28L20.04 15.5C19.8 16.9267 19.46 18.2867 19.02 19.58C18.58 20.86 18.04 21.9467 17.4 22.84C17.3467 22.76 17.2533 22.6667 17.12 22.56C16.9867 22.4533 16.8533 22.3467 16.72 22.24C16.6 22.1333 16.4933 22.0467 16.4 21.98C17 21.1667 17.4933 20.1733 17.88 19C18.2667 17.8133 18.56 16.5733 18.76 15.28ZM18.86 17.06H21.9V18.26H18.62L18.86 17.06ZM21.42 17.06H21.68L21.92 17.02L22.7 17.22C22.5 19.3 22.16 21.0867 21.68 22.58C21.2 24.0733 20.5867 25.3133 19.84 26.3C19.0933 27.2867 18.22 28.0667 17.22 28.64C17.1667 28.5333 17.08 28.4133 16.96 28.28C16.8533 28.16 16.74 28.04 16.62 27.92C16.5133 27.8 16.4133 27.7 16.32 27.62C17.2667 27.1 18.0933 26.4 18.8 25.52C19.5067 24.6267 20.08 23.5067 20.52 22.16C20.96 20.8133 21.26 19.2 21.42 17.32V17.06ZM17.8 21.06L18.44 20.02C18.9467 20.34 19.4467 20.7 19.94 21.1C20.4333 21.5 20.82 21.8667 21.1 22.2L20.38 23.34C20.2067 23.1267 19.98 22.8867 19.7 22.62C19.42 22.34 19.1133 22.0667 18.78 21.8C18.46 21.52 18.1333 21.2733 17.8 21.06ZM23.14 16.7H24.38V26.34C24.38 26.6067 24.3933 26.8267 24.42 27C24.46 27.16 24.5133 27.26 24.58 27.3C24.7133 27.3667 24.8933 27.4 25.12 27.4C25.2267 27.4 25.38 27.4 25.58 27.4C25.78 27.4 25.9467 27.4 26.08 27.4C26.2 27.4 26.32 27.3867 26.44 27.36C26.56 27.3467 26.66 27.3267 26.74 27.3C26.8067 27.2733 26.8733 27.22 26.94 27.14C27.0067 27.06 27.0467 26.9467 27.06 26.8C27.0867 26.6267 27.1067 26.3733 27.12 26.04C27.1467 25.7067 27.16 25.3 27.16 24.82C27.3067 24.9533 27.4867 25.0733 27.7 25.18C27.9267 25.2867 28.1333 25.3733 28.32 25.44C28.3067 25.8667 28.28 26.2933 28.24 26.72C28.2 27.1467 28.1533 27.44 28.1 27.6C28.02 27.8 27.92 27.96 27.8 28.08C27.6933 28.2 27.56 28.2933 27.4 28.36C27.2533 28.4133 27.0667 28.4533 26.84 28.48C26.6267 28.5067 26.42 28.52 26.22 28.52C26.1133 28.52 25.9733 28.52 25.8 28.52C25.6267 28.52 25.4533 28.52 25.28 28.52C25.1067 28.52 24.9733 28.52 24.88 28.52C24.68 28.52 24.46 28.4933 24.22 28.44C23.9933 28.4 23.7933 28.3267 23.62 28.22C23.4333 28.0867 23.3067 27.8933 23.24 27.64C23.1733 27.3867 23.14 26.9067 23.14 26.2V16.7ZM26.4 16.7H27.62V22.6C27.62 22.8933 27.5867 23.1333 27.52 23.32C27.4533 23.4933 27.3267 23.6333 27.14 23.74C26.94 23.8467 26.6933 23.9133 26.4 23.94C26.1067 23.9667 25.7467 23.98 25.32 23.98C25.3067 23.8067 25.2667 23.6067 25.2 23.38C25.1333 23.1533 25.06 22.96 24.98 22.8C25.2733 22.8 25.5267 22.8 25.74 22.8C25.9667 22.8 26.1133 22.8 26.18 22.8C26.3267 22.7867 26.4 22.7133 26.4 22.58V16.7ZM30.46 11.46H47.62V12.88H30.46V11.46ZM30.08 26.44H47.94V27.84H30.08V26.44ZM42.42 21.92L44.06 22.34C43.7533 23.0067 43.42 23.6867 43.06 24.38C42.7133 25.0733 42.3867 25.6667 42.08 26.16L40.78 25.74C40.9667 25.3933 41.16 25 41.36 24.56C41.5733 24.1067 41.7733 23.6467 41.96 23.18C42.1467 22.7133 42.3 22.2933 42.42 21.92ZM34.26 22.44L35.62 22.06C35.8333 22.4333 36.04 22.8467 36.24 23.3C36.44 23.74 36.6133 24.1733 36.76 24.6C36.92 25.0133 37.02 25.3867 37.06 25.72L35.62 26.14C35.5667 25.82 35.4733 25.4467 35.34 25.02C35.2067 24.5933 35.0467 24.1533 34.86 23.7C34.6733 23.2333 34.4733 22.8133 34.26 22.44ZM34.2 16.36V20.26H43.92V16.36H34.2ZM32.74 15.02H45.44V21.6H32.74V15.02ZM58.56 10.26H60.14C60.06 11.4333 59.92 12.5333 59.72 13.56C59.5333 14.5867 59.2333 15.5267 58.82 16.38C58.4067 17.22 57.8267 17.9733 57.08 18.64C56.3333 19.3067 55.36 19.8667 54.16 20.32C54.08 20.1467 53.9467 19.9533 53.76 19.74C53.5867 19.5133 53.42 19.3333 53.26 19.2C54.3533 18.8 55.2333 18.3067 55.9 17.72C56.5667 17.1333 57.08 16.46 57.44 15.7C57.8 14.94 58.06 14.1067 58.22 13.2C58.38 12.2933 58.4933 11.3133 58.56 10.26ZM58.04 16.3L59 15.28C59.6267 15.6267 60.2933 16.02 61 16.46C61.7067 16.8867 62.38 17.3133 63.02 17.74C63.66 18.1667 64.1867 18.5533 64.6 18.9L63.6 20.08C63.2 19.7333 62.6867 19.34 62.06 18.9C61.4333 18.4467 60.7667 17.9933 60.06 17.54C59.3533 17.0733 58.68 16.66 58.04 16.3ZM58.44 18.9H59.98C59.7933 19.8867 59.4867 20.84 59.06 21.76C58.6467 22.68 58.0467 23.5133 57.26 24.26C56.4733 24.9933 55.4133 25.6067 54.08 26.1C53.9867 25.9267 53.8533 25.7333 53.68 25.52C53.52 25.2933 53.3533 25.1133 53.18 24.98C54.1 24.6733 54.8667 24.3 55.48 23.86C56.1067 23.4067 56.6133 22.9133 57 22.38C57.4 21.8467 57.7067 21.2867 57.92 20.7C58.1467 20.1 58.32 19.5 58.44 18.9ZM58.18 22L59.22 21.04C59.8067 21.44 60.4267 21.88 61.08 22.36C61.7467 22.8267 62.38 23.2933 62.98 23.76C63.58 24.2267 64.0733 24.6467 64.46 25.02L63.36 26.12C62.9867 25.7467 62.5067 25.32 61.92 24.84C61.3333 24.36 60.7133 23.8667 60.06 23.36C59.4067 22.8533 58.78 22.4 58.18 22ZM50.92 13.16H66.2V14.62H52.42V28.6H50.92V13.16ZM65.6 13.16H67.08V26.7C67.08 27.1667 67.02 27.5267 66.9 27.78C66.78 28.0467 66.5533 28.24 66.22 28.36C65.9 28.48 65.4467 28.5533 64.86 28.58C64.2733 28.62 63.5533 28.64 62.7 28.64C62.6733 28.4267 62.6133 28.1667 62.52 27.86C62.4267 27.5667 62.3267 27.3133 62.22 27.1C62.8733 27.1267 63.4733 27.14 64.02 27.14C64.58 27.1533 64.9533 27.1533 65.14 27.14C65.3267 27.1267 65.4467 27.0867 65.5 27.02C65.5667 26.9533 65.6 26.8333 65.6 26.66V13.16ZM70.24 13.58H87.84V15.06H70.24V13.58ZM71.28 18.56H86.8V20.04H71.28V18.56ZM78.18 10.2H79.76V28.58H78.18V10.2ZM77.8 19.3L79 19.82C78.5333 20.5933 77.9867 21.36 77.36 22.12C76.7333 22.8667 76.06 23.5733 75.34 24.24C74.62 24.9067 73.8733 25.5133 73.1 26.06C72.34 26.6067 71.58 27.0733 70.82 27.46C70.74 27.34 70.6333 27.1933 70.5 27.02C70.38 26.86 70.2467 26.7067 70.1 26.56C69.9667 26.4 69.84 26.2667 69.72 26.16C70.4667 25.8267 71.2267 25.42 72 24.94C72.7733 24.4467 73.52 23.9 74.24 23.3C74.96 22.6867 75.62 22.04 76.22 21.36C76.8333 20.68 77.36 19.9933 77.8 19.3ZM80.14 19.22C80.58 19.9133 81.1067 20.6 81.72 21.28C82.3467 21.9467 83.02 22.5867 83.74 23.2C84.4733 23.8133 85.2333 24.3667 86.02 24.86C86.8067 25.3533 87.58 25.7667 88.34 26.1C88.22 26.1933 88.0867 26.32 87.94 26.48C87.7933 26.64 87.6533 26.8 87.52 26.96C87.4 27.12 87.2933 27.2733 87.2 27.42C86.44 27.0333 85.6733 26.56 84.9 26C84.1267 25.44 83.3733 24.8267 82.64 24.16C81.9067 23.48 81.2267 22.7667 80.6 22.02C79.9733 21.2733 79.42 20.5133 78.94 19.74L80.14 19.22Z" fill="black"/>
</svg>
