<svg width="97" height="40" viewBox="0 0 97 40" fill="none" xmlns="http://www.w3.org/2000/svg">
<rect x="0.5" y="0.5" width="96" height="39" fill="white"/>
<rect x="0.5" y="0.5" width="96" height="39" stroke="black"/>
<path d="M11.46 12.14H26.58V13.66H11.46V12.14ZM12.74 18.68H25.02V20.18H12.74V18.68ZM10.3 25.62H27.68V27.14H10.3V25.62ZM36.44 18.32H48.02V19.76H36.44V18.32ZM37.22 13.5H47.2V14.94H37.22V13.5ZM41.3 10.3H42.82V28.58H41.3V10.3ZM41 19.12L42.18 19.48C41.7667 20.5733 41.2467 21.6267 40.62 22.64C39.9933 23.6533 39.3 24.5733 38.54 25.4C37.7933 26.2133 37.0067 26.8933 36.18 27.44C36.1133 27.32 36.02 27.1867 35.9 27.04C35.78 26.8933 35.6533 26.7533 35.52 26.62C35.3867 26.4733 35.2667 26.3533 35.16 26.26C35.96 25.8067 36.7333 25.2067 37.48 24.46C38.2267 23.7 38.9 22.86 39.5 21.94C40.1133 21.02 40.6133 20.08 41 19.12ZM43.14 19.1C43.5 20.02 43.9467 20.9333 44.48 21.84C45.0267 22.7467 45.62 23.58 46.26 24.34C46.9133 25.0867 47.58 25.6933 48.26 26.16C48.1533 26.2533 48.0267 26.3733 47.88 26.52C47.7333 26.6667 47.5933 26.82 47.46 26.98C47.34 27.1267 47.2333 27.2667 47.14 27.4C46.46 26.8267 45.7933 26.12 45.14 25.28C44.5 24.44 43.9067 23.52 43.36 22.52C42.8267 21.52 42.3667 20.5067 41.98 19.48L43.14 19.1ZM31.22 12.04H35.72V23.68H31.22V22.22H34.34V13.48H31.22V12.04ZM30.46 12.04H31.84V25.24H30.46V12.04ZM60.84 25.72H66.5V27.12H60.84V25.72ZM50.16 17.58H57.76V18.98H50.16V17.58ZM60.16 16.82H67.16V28.18H65.68V18.22H61.58V28.44H60.16V16.82ZM57.32 17.58H58.74C58.74 17.58 58.74 17.6267 58.74 17.72C58.74 17.8 58.74 17.9 58.74 18.02C58.74 18.1267 58.74 18.2133 58.74 18.28C58.6867 19.9333 58.6267 21.3333 58.56 22.48C58.5067 23.6133 58.44 24.5467 58.36 25.28C58.2933 26.0133 58.2067 26.5867 58.1 27C58.0067 27.4 57.8867 27.6867 57.74 27.86C57.5667 28.0867 57.3867 28.24 57.2 28.32C57.0133 28.4133 56.7867 28.4733 56.52 28.5C56.28 28.54 55.9667 28.56 55.58 28.56C55.2067 28.56 54.8067 28.5467 54.38 28.52C54.3667 28.3067 54.3267 28.0667 54.26 27.8C54.1933 27.5467 54.1 27.3267 53.98 27.14C54.3933 27.18 54.7667 27.2 55.1 27.2C55.4467 27.2133 55.7 27.22 55.86 27.22C56.0067 27.22 56.1267 27.2 56.22 27.16C56.3133 27.1333 56.4067 27.06 56.5 26.94C56.6333 26.78 56.7467 26.3933 56.84 25.78C56.9467 25.1533 57.0333 24.2133 57.1 22.96C57.18 21.6933 57.2533 20 57.32 17.88V17.58ZM53.04 14.9H54.52C54.48 16.3 54.4133 17.6667 54.32 19C54.2267 20.3333 54.0533 21.6 53.8 22.8C53.56 23.9867 53.1933 25.08 52.7 26.08C52.2067 27.08 51.5467 27.9467 50.72 28.68C50.6133 28.5067 50.4533 28.3133 50.24 28.1C50.0267 27.9 49.8267 27.7467 49.64 27.64C50.4133 26.9733 51.02 26.18 51.46 25.26C51.9133 24.34 52.2467 23.3267 52.46 22.22C52.6733 21.1133 52.82 19.94 52.9 18.7C52.98 17.46 53.0267 16.1933 53.04 14.9ZM50.24 12.02H67.82V13.42H50.24V12.02ZM54.74 10.2H56.22V15.5H54.74V10.2ZM61.7 10.2H63.18V15.5H61.7V10.2ZM69.94 19.14H88.1V20.64H69.94V19.14ZM78.26 15.92H79.82V26.66C79.82 27.1667 79.74 27.5467 79.58 27.8C79.4333 28.0533 79.1733 28.24 78.8 28.36C78.4267 28.48 77.9067 28.56 77.24 28.6C76.5867 28.64 75.78 28.6533 74.82 28.64C74.7933 28.4933 74.74 28.3267 74.66 28.14C74.5933 27.9667 74.5133 27.78 74.42 27.58C74.34 27.3933 74.26 27.2333 74.18 27.1C74.7133 27.1133 75.22 27.12 75.7 27.12C76.1933 27.1333 76.6133 27.14 76.96 27.14C77.32 27.14 77.5733 27.14 77.72 27.14C77.9333 27.1133 78.0733 27.0667 78.14 27C78.22 26.9467 78.26 26.8267 78.26 26.64V15.92ZM72.02 11.58H85.06V13.08H72.02V11.58ZM84.56 11.58H84.94L85.28 11.5L86.42 12.36C85.82 12.96 85.12 13.5733 84.32 14.2C83.5333 14.8133 82.7133 15.3933 81.86 15.94C81.02 16.4867 80.2133 16.96 79.44 17.36C79.36 17.2533 79.26 17.1333 79.14 17C79.0333 16.8667 78.9133 16.74 78.78 16.62C78.66 16.4867 78.5533 16.38 78.46 16.3C79.1933 15.94 79.9467 15.5133 80.72 15.02C81.4933 14.5133 82.22 13.9933 82.9 13.46C83.58 12.9133 84.1333 12.4067 84.56 11.94V11.58Z" fill="black"/>
</svg>
