<svg width="113" height="40" viewBox="0 0 113 40" fill="none" xmlns="http://www.w3.org/2000/svg">
<rect x="0.5" y="0.5" width="112" height="39" fill="white"/>
<rect x="0.5" y="0.5" width="112" height="39" stroke="black"/>
<path d="M19.26 21.5H24.16V22.68H19.26V21.5ZM16.18 14.88C16.9267 14.8533 17.7733 14.82 18.72 14.78C19.68 14.74 20.6933 14.6933 21.76 14.64C22.8267 14.5867 23.9 14.5333 24.98 14.48L24.96 15.7C23.9333 15.7667 22.8933 15.8333 21.84 15.9C20.8 15.9533 19.8067 16.0067 18.86 16.06C17.9133 16.1133 17.0533 16.16 16.28 16.2L16.18 14.88ZM19.96 19.58L21.34 19.92C20.8467 21.0667 20.1933 22.1133 19.38 23.06C18.58 24.0067 17.72 24.8 16.8 25.44C16.7333 25.3467 16.6333 25.24 16.5 25.12C16.38 24.9867 16.2467 24.86 16.1 24.74C15.9667 24.62 15.8467 24.52 15.74 24.44C16.66 23.8933 17.4933 23.2 18.24 22.36C18.9867 21.52 19.56 20.5933 19.96 19.58ZM23.8 21.5H24.08L24.32 21.44L25.22 21.82C24.7667 23.22 24.1067 24.4333 23.24 25.46C22.3867 26.4733 21.4 27.3133 20.28 27.98C19.1733 28.6467 17.9933 29.1733 16.74 29.56C16.66 29.4 16.54 29.2 16.38 28.96C16.2333 28.72 16.0933 28.5333 15.96 28.4C17.12 28.0933 18.22 27.64 19.26 27.04C20.3133 26.44 21.24 25.7 22.04 24.82C22.84 23.9267 23.4267 22.9 23.8 21.74V21.5ZM19.44 22.56C19.84 23.4933 20.38 24.3533 21.06 25.14C21.7533 25.9133 22.56 26.58 23.48 27.14C24.4133 27.6867 25.4333 28.1 26.54 28.38C26.3933 28.5267 26.2267 28.72 26.04 28.96C25.8667 29.2 25.7333 29.4133 25.64 29.6C24.4667 29.2533 23.4 28.76 22.44 28.12C21.4933 27.4933 20.66 26.74 19.94 25.86C19.2333 24.98 18.66 23.9933 18.22 22.9L19.44 22.56ZM18.72 15.8H20.04C19.9733 16.5867 19.8333 17.2867 19.62 17.9C19.4067 18.5133 19.0733 19.0467 18.62 19.5C18.18 19.9533 17.56 20.3333 16.76 20.64C16.6933 20.48 16.58 20.2933 16.42 20.08C16.26 19.8667 16.1067 19.7 15.96 19.58C16.64 19.3533 17.1667 19.0667 17.54 18.72C17.9267 18.3733 18.2067 17.96 18.38 17.48C18.5533 16.9867 18.6667 16.4267 18.72 15.8ZM21.68 15.76H23V18.34C23 18.5267 23.0267 18.6467 23.08 18.7C23.1333 18.74 23.26 18.76 23.46 18.76C23.5133 18.76 23.62 18.76 23.78 18.76C23.9533 18.76 24.1267 18.76 24.3 18.76C24.4867 18.76 24.62 18.76 24.7 18.76C24.82 18.76 24.9067 18.7333 24.96 18.68C25.0267 18.6133 25.0733 18.4733 25.1 18.26C25.14 18.0467 25.1667 17.7133 25.18 17.26C25.3133 17.3667 25.4933 17.46 25.72 17.54C25.9467 17.62 26.1533 17.6867 26.34 17.74C26.2733 18.62 26.1333 19.2067 25.92 19.5C25.72 19.7933 25.3733 19.94 24.88 19.94C24.8133 19.94 24.7067 19.94 24.56 19.94C24.4133 19.94 24.2467 19.94 24.06 19.94C23.8867 19.94 23.7267 19.94 23.58 19.94C23.4333 19.94 23.3333 19.94 23.28 19.94C22.8533 19.94 22.52 19.8933 22.28 19.8C22.0533 19.7067 21.8933 19.5467 21.8 19.32C21.72 19.08 21.68 18.7533 21.68 18.34V15.76ZM19.52 11.16L20.98 11.62C20.7533 12.0733 20.5067 12.5533 20.24 13.06C19.9867 13.5533 19.7267 14.0333 19.46 14.5C19.1933 14.9533 18.94 15.36 18.7 15.72L17.56 15.3C17.7867 14.9267 18.02 14.5 18.26 14.02C18.5133 13.5267 18.7467 13.0267 18.96 12.52C19.1867 12.0133 19.3733 11.56 19.52 11.16ZM22.42 13.16L23.5 12.58C23.8733 12.9133 24.2467 13.2867 24.62 13.7C25.0067 14.1 25.36 14.5067 25.68 14.92C26 15.32 26.2533 15.6867 26.44 16.02L25.28 16.68C25.1067 16.36 24.8667 15.9933 24.56 15.58C24.2533 15.1667 23.9133 14.7533 23.54 14.34C23.1667 13.9133 22.7933 13.52 22.42 13.16ZM8.26 15.86H15.98V29.26H14.78V17.14H9.44V29.52H8.26V15.86ZM8.78 23.7H15.48V24.88H8.78V23.7ZM8.78 26.9H15.48V28.12H8.78V26.9ZM8.08 12.1H16.06V13.38H8.08V12.1ZM10.4 12.5H11.5V16.86H10.4V12.5ZM12.66 12.5H13.76V16.86H12.66V12.5ZM10.66 16.78H11.52V18.66C11.52 19.0467 11.48 19.4667 11.4 19.92C11.32 20.3733 11.1667 20.82 10.94 21.26C10.7133 21.7 10.3933 22.1067 9.98 22.48C9.91333 22.3867 9.80667 22.28 9.66 22.16C9.52667 22.04 9.41333 21.9533 9.32 21.9C9.70667 21.5667 9.99333 21.22 10.18 20.86C10.38 20.4867 10.5067 20.1133 10.56 19.74C10.6267 19.3533 10.66 18.9867 10.66 18.64V16.78ZM12.62 16.78H13.48V20.28C13.48 20.4 13.4933 20.48 13.52 20.52C13.5467 20.5467 13.62 20.56 13.74 20.56C13.78 20.56 13.8467 20.56 13.94 20.56C14.0467 20.56 14.1467 20.56 14.24 20.56C14.3467 20.56 14.4267 20.56 14.48 20.56C14.5867 20.56 14.66 20.5533 14.7 20.54C14.7533 20.5267 14.7867 20.5133 14.8 20.5C14.88 20.58 14.9933 20.6467 15.14 20.7C15.3 20.7533 15.4467 20.8 15.58 20.84C15.4733 21.24 15.16 21.44 14.64 21.44C14.6 21.44 14.5067 21.44 14.36 21.44C14.2267 21.44 14.0867 21.44 13.94 21.44C13.8067 21.44 13.7133 21.44 13.66 21.44C13.26 21.44 12.9867 21.3667 12.84 21.22C12.6933 21.0733 12.62 20.7667 12.62 20.3V16.78ZM31.22 11.18H32.66V14.4H31.22V11.18ZM40.16 11.18H41.62V29.62H40.16V11.18ZM28.14 13.8H35.64V15.08H28.14V13.8ZM36 13.54H46.06V14.88H36V13.54ZM27.88 19.24H35.84V20.5H27.88V19.24ZM29.14 15.7L30.26 15.38C30.4733 15.9 30.6467 16.4733 30.78 17.1C30.9133 17.7133 30.9933 18.24 31.02 18.68L29.82 19.04C29.7933 18.6 29.72 18.0667 29.6 17.44C29.48 16.8 29.3267 16.22 29.14 15.7ZM33.56 15.28L34.92 15.62C34.7067 16.2067 34.48 16.8267 34.24 17.48C34 18.12 33.78 18.66 33.58 19.1L32.5 18.78C32.6333 18.46 32.7667 18.1 32.9 17.7C33.0333 17.2867 33.16 16.8667 33.28 16.44C33.4 16.0133 33.4933 15.6267 33.56 15.28ZM27.8 23.58C28.48 23.4733 29.2533 23.3467 30.12 23.2C31 23.04 31.9267 22.8733 32.9 22.7C33.8733 22.5133 34.8467 22.3333 35.82 22.16L35.9 23.4C34.5267 23.6667 33.16 23.94 31.8 24.22C30.44 24.4867 29.22 24.7267 28.14 24.94L27.8 23.58ZM37.74 18V21.02H44.28V18H37.74ZM36.4 16.8H45.68V22.2H36.4V16.8ZM41.9 21.72C42.2467 22.4267 42.6733 23.1467 43.18 23.88C43.6867 24.6 44.2333 25.2733 44.82 25.9C45.42 26.5133 46 27.0133 46.56 27.4C46.4133 27.5333 46.2333 27.7133 46.02 27.94C45.82 28.1533 45.66 28.3533 45.54 28.54C44.9667 28.0733 44.3867 27.4933 43.8 26.8C43.2267 26.0933 42.68 25.3333 42.16 24.52C41.6533 23.7067 41.2133 22.9 40.84 22.1L41.9 21.72ZM39.84 21.74L41.02 22.2C40.6067 23.08 40.0933 23.9333 39.48 24.76C38.88 25.5867 38.22 26.3467 37.5 27.04C36.7933 27.72 36.08 28.28 35.36 28.72C35.28 28.6133 35.18 28.4867 35.06 28.34C34.94 28.2067 34.82 28.0733 34.7 27.94C34.58 27.8067 34.46 27.6933 34.34 27.6C35.06 27.2267 35.7667 26.7333 36.46 26.12C37.1667 25.4933 37.8133 24.8067 38.4 24.06C38.9867 23.3 39.4667 22.5267 39.84 21.74ZM31.22 19.74H32.66V23.1C32.66 23.6067 32.62 24.1533 32.54 24.74C32.46 25.3133 32.3067 25.8933 32.08 26.48C31.8667 27.0667 31.5533 27.6267 31.14 28.16C30.74 28.7067 30.2067 29.2 29.54 29.64C29.4867 29.5467 29.4 29.4333 29.28 29.3C29.1733 29.1667 29.06 29.04 28.94 28.92C28.82 28.8 28.7 28.7 28.58 28.62C29.1933 28.26 29.6733 27.8533 30.02 27.4C30.3667 26.9333 30.6267 26.4467 30.8 25.94C30.9733 25.4333 31.0867 24.94 31.14 24.46C31.1933 23.9667 31.22 23.5067 31.22 23.08V19.74ZM49.32 17.64H64.7V19.1H49.32V17.64ZM48.04 27.24H65.98V28.7H48.04V27.24ZM56.16 11.26H57.76V28.18H56.16V11.26ZM68.46 12.46H85.62V13.88H68.46V12.46ZM68.08 27.44H85.94V28.84H68.08V27.44ZM80.42 22.92L82.06 23.34C81.7533 24.0067 81.42 24.6867 81.06 25.38C80.7133 26.0733 80.3867 26.6667 80.08 27.16L78.78 26.74C78.9667 26.3933 79.16 26 79.36 25.56C79.5733 25.1067 79.7733 24.6467 79.96 24.18C80.1467 23.7133 80.3 23.2933 80.42 22.92ZM72.26 23.44L73.62 23.06C73.8333 23.4333 74.04 23.8467 74.24 24.3C74.44 24.74 74.6133 25.1733 74.76 25.6C74.92 26.0133 75.02 26.3867 75.06 26.72L73.62 27.14C73.5667 26.82 73.4733 26.4467 73.34 26.02C73.2067 25.5933 73.0467 25.1533 72.86 24.7C72.6733 24.2333 72.4733 23.8133 72.26 23.44ZM72.2 17.36V21.26H81.92V17.36H72.2ZM70.74 16.02H83.44V22.6H70.74V16.02ZM89.14 19.92C89.1133 19.8267 89.0733 19.6933 89.02 19.52C88.9667 19.3467 88.9067 19.1733 88.84 19C88.7733 18.8133 88.7133 18.66 88.66 18.54C88.8467 18.5 89.0333 18.3667 89.22 18.14C89.42 17.9 89.64 17.6 89.88 17.24C90.0133 17.0667 90.1933 16.78 90.42 16.38C90.66 15.98 90.9267 15.5067 91.22 14.96C91.5267 14.4133 91.8267 13.8267 92.12 13.2C92.4267 12.56 92.6933 11.92 92.92 11.28L94.34 11.84C93.9533 12.72 93.52 13.6 93.04 14.48C92.5733 15.3467 92.0933 16.18 91.6 16.98C91.1067 17.7667 90.6067 18.48 90.1 19.12V19.14C90.1 19.14 90.0533 19.1667 89.96 19.22C89.8667 19.2733 89.7533 19.3467 89.62 19.44C89.4867 19.52 89.3733 19.6067 89.28 19.7C89.1867 19.78 89.14 19.8533 89.14 19.92ZM89.14 19.92V18.82L89.92 18.36L94.42 18.16C94.3133 18.36 94.2067 18.5867 94.1 18.84C93.9933 19.0933 93.9133 19.3 93.86 19.46C92.9133 19.5133 92.1533 19.56 91.58 19.6C91.0067 19.64 90.5533 19.68 90.22 19.72C89.9 19.76 89.66 19.7933 89.5 19.82C89.3533 19.8467 89.2333 19.88 89.14 19.92ZM89.38 25.16C89.3667 25.0533 89.3267 24.9133 89.26 24.74C89.2067 24.5667 89.1467 24.3933 89.08 24.22C89.0133 24.0333 88.9467 23.88 88.88 23.76C89.12 23.6933 89.38 23.5267 89.66 23.26C89.9533 22.9933 90.28 22.6467 90.64 22.22C90.84 22.02 91.1333 21.68 91.52 21.2C91.92 20.7067 92.3667 20.1267 92.86 19.46C93.3533 18.78 93.8533 18.0533 94.36 17.28C94.8667 16.5067 95.3267 15.7267 95.74 14.94L97.08 15.64C96.4267 16.7333 95.7267 17.8067 94.98 18.86C94.2467 19.9 93.4867 20.8867 92.7 21.82C91.9133 22.74 91.1333 23.58 90.36 24.34V24.38C90.36 24.38 90.3133 24.4067 90.22 24.46C90.1267 24.5133 90.0133 24.58 89.88 24.66C89.7467 24.7267 89.6267 24.8067 89.52 24.9C89.4267 24.9933 89.38 25.08 89.38 25.16ZM89.38 25.16V23.98L90.24 23.48L96.48 23.16C96.44 23.36 96.4067 23.5933 96.38 23.86C96.3667 24.1267 96.3667 24.34 96.38 24.5C94.94 24.5933 93.78 24.6733 92.9 24.74C92.0333 24.8067 91.36 24.86 90.88 24.9C90.4133 24.94 90.0733 24.98 89.86 25.02C89.66 25.06 89.5 25.1067 89.38 25.16ZM97.36 19.8C97.3333 19.6933 97.2933 19.56 97.24 19.4C97.1867 19.2267 97.1267 19.0533 97.06 18.88C96.9933 18.6933 96.9333 18.54 96.88 18.42C97.0667 18.38 97.26 18.2467 97.46 18.02C97.66 17.7933 97.8867 17.5 98.14 17.14C98.26 16.9667 98.44 16.6867 98.68 16.3C98.92 15.9 99.1933 15.4333 99.5 14.9C99.8067 14.3533 100.113 13.7667 100.42 13.14C100.727 12.5133 101 11.8867 101.24 11.26L102.66 11.82C102.26 12.7 101.82 13.5733 101.34 14.44C100.86 15.2933 100.367 16.1133 99.86 16.9C99.3533 17.6733 98.84 18.3733 98.32 19V19.04C98.32 19.04 98.2733 19.0667 98.18 19.12C98.0867 19.1733 97.9733 19.24 97.84 19.32C97.7067 19.3867 97.5933 19.4667 97.5 19.56C97.4067 19.6533 97.36 19.7333 97.36 19.8ZM97.36 19.8V18.7L98.14 18.24L102.62 18.06C102.527 18.2467 102.427 18.4667 102.32 18.72C102.213 18.9733 102.133 19.18 102.08 19.34C101.147 19.4067 100.387 19.46 99.8 19.5C99.2267 19.54 98.7733 19.58 98.44 19.62C98.12 19.6467 97.88 19.6733 97.72 19.7C97.5733 19.7267 97.4533 19.76 97.36 19.8ZM97.56 25.04C97.5333 24.9467 97.4933 24.8133 97.44 24.64C97.3867 24.4667 97.3267 24.2933 97.26 24.12C97.1933 23.9333 97.1333 23.78 97.08 23.66C97.3067 23.5933 97.5667 23.4333 97.86 23.18C98.1533 22.9133 98.4933 22.58 98.88 22.18C99.0933 21.98 99.4 21.6467 99.8 21.18C100.213 20.7 100.673 20.1333 101.18 19.48C101.687 18.8267 102.2 18.12 102.72 17.36C103.24 16.6 103.727 15.8333 104.18 15.06L105.52 15.78C104.827 16.8467 104.093 17.8933 103.32 18.92C102.547 19.9467 101.753 20.9133 100.94 21.82C100.14 22.7133 99.34 23.5267 98.54 24.26V24.3C98.54 24.3 98.4933 24.3267 98.4 24.38C98.3067 24.42 98.1867 24.48 98.04 24.56C97.9067 24.6267 97.7933 24.7067 97.7 24.8C97.6067 24.88 97.56 24.96 97.56 25.04ZM97.56 25.04L97.54 23.88L98.44 23.38L105.3 23.08C105.273 23.28 105.247 23.5133 105.22 23.78C105.193 24.0467 105.18 24.26 105.18 24.42C103.927 24.4867 102.873 24.5467 102.02 24.6C101.167 24.6533 100.467 24.7 99.92 24.74C99.3867 24.7667 98.96 24.8 98.64 24.84C98.3333 24.8667 98.1 24.9 97.94 24.94C97.7933 24.98 97.6667 25.0133 97.56 25.04ZM88.04 27.02H105.92V28.44H88.04V27.02Z" fill="black"/>
</svg>
