<svg width="139" height="40" viewBox="0 0 139 40" fill="none" xmlns="http://www.w3.org/2000/svg">
<rect x="0.5" y="0.5" width="138" height="39" fill="white"/>
<rect x="0.5" y="0.5" width="138" height="39" stroke="black"/>
<path d="M21.96 16.54H28.92V17.88H21.96V16.54ZM21.04 20.08H29.44V21.42H21.04V20.08ZM24.84 20.64H26.26V28.04C26.26 28.4 26.22 28.68 26.14 28.88C26.06 29.08 25.9 29.2333 25.66 29.34C25.42 29.4467 25.12 29.5067 24.76 29.52C24.4 29.5467 23.9467 29.56 23.4 29.56C23.3733 29.3867 23.3133 29.1733 23.22 28.92C23.14 28.68 23.0533 28.4667 22.96 28.28C23.3333 28.2933 23.6667 28.3 23.96 28.3C24.2533 28.3 24.46 28.2933 24.58 28.28C24.7533 28.28 24.84 28.2 24.84 28.04V20.64ZM22.34 22.58L23.68 22.84C23.4667 23.7733 23.2 24.6933 22.88 25.6C22.5733 26.4933 22.2333 27.2533 21.86 27.88C21.78 27.8133 21.6667 27.7467 21.52 27.68C21.3733 27.6 21.22 27.5267 21.06 27.46C20.9133 27.38 20.78 27.3133 20.66 27.26C21.0467 26.66 21.38 25.9467 21.66 25.12C21.9533 24.28 22.18 23.4333 22.34 22.58ZM27.14 22.92L28.26 22.5C28.5533 23.0333 28.8267 23.62 29.08 24.26C29.3333 24.9 29.52 25.4533 29.64 25.92L28.4 26.42C28.3067 25.94 28.14 25.3733 27.9 24.72C27.66 24.0533 27.4067 23.4533 27.14 22.92ZM30.8 16.56H38.12V17.92H30.8V16.56ZM30.02 20.12H39.04V21.48H30.02V20.12ZM33.74 20.74H35.18V28.08C35.18 28.44 35.14 28.72 35.06 28.92C34.98 29.12 34.8133 29.2733 34.56 29.38C34.3067 29.4867 33.9933 29.5533 33.62 29.58C33.2467 29.6067 32.7733 29.62 32.2 29.62C32.1733 29.4333 32.1133 29.2133 32.02 28.96C31.94 28.72 31.8533 28.5067 31.76 28.32C32.1467 28.3333 32.5 28.34 32.82 28.34C33.14 28.34 33.3533 28.34 33.46 28.34C33.6467 28.34 33.74 28.2467 33.74 28.06V20.74ZM31.22 22.62L32.56 22.88C32.3333 23.8267 32.0333 24.7467 31.66 25.64C31.2867 26.52 30.8733 27.2733 30.42 27.9C30.3267 27.8333 30.2067 27.76 30.06 27.68C29.9133 27.5867 29.7667 27.5 29.62 27.42C29.4733 27.34 29.3467 27.28 29.24 27.24C29.6933 26.6533 30.0867 25.9533 30.42 25.14C30.7667 24.3267 31.0333 23.4867 31.22 22.62ZM36.28 22.98L37.5 22.54C37.78 23.02 38.04 23.54 38.28 24.1C38.5333 24.66 38.7533 25.2 38.94 25.72C39.14 26.24 39.2867 26.7133 39.38 27.14L38.08 27.64C38 27.2133 37.8667 26.7333 37.68 26.2C37.4933 25.6667 37.2733 25.12 37.02 24.56C36.78 23.9867 36.5333 23.46 36.28 22.98ZM25.76 11.2H27.22V15.78H25.76V11.2ZM32.66 11.2H34.12V15.78H32.66V11.2ZM21.24 12.86H38.82V14.2H21.24V12.86ZM45.26 27.68H54.92V28.94H45.26V27.68ZM44.54 23.46H55.64V29.6H54.16V24.72H45.98V29.6H44.54V23.46ZM50.02 20.62C49.4467 21.26 48.72 21.9067 47.84 22.56C46.96 23.2133 45.9867 23.8333 44.92 24.42C43.8667 24.9933 42.78 25.4867 41.66 25.9C41.58 25.7267 41.4667 25.5267 41.32 25.3C41.1867 25.06 41.0467 24.86 40.9 24.7C42.0333 24.3133 43.1333 23.8333 44.2 23.26C45.2667 22.6867 46.2333 22.0667 47.1 21.4C47.9667 20.7333 48.68 20.06 49.24 19.38H50.64C51.3733 20.14 52.2133 20.8467 53.16 21.5C54.12 22.1533 55.1267 22.72 56.18 23.2C57.2333 23.68 58.2667 24.0667 59.28 24.36C59.1333 24.5333 58.98 24.74 58.82 24.98C58.66 25.22 58.5267 25.44 58.42 25.64C57.6867 25.3867 56.9267 25.08 56.14 24.72C55.3667 24.36 54.6 23.96 53.84 23.52C53.0933 23.08 52.3867 22.6133 51.72 22.12C51.0667 21.6267 50.5 21.1267 50.02 20.62ZM49.22 14.46H50.7V16.54H49.22V14.46ZM41.84 16H58.28V19.38H56.82V17.22H43.24V19.38H41.84V16ZM46.54 17.76L47.86 18.2C47.3 18.8667 46.6067 19.5133 45.78 20.14C44.9667 20.7533 44.1733 21.26 43.4 21.66C43.3333 21.5667 43.2333 21.46 43.1 21.34C42.98 21.2067 42.8533 21.08 42.72 20.96C42.6 20.8267 42.4867 20.72 42.38 20.64C43.1533 20.2933 43.9133 19.8667 44.66 19.36C45.42 18.8533 46.0467 18.32 46.54 17.76ZM52.16 18.46L53.22 17.7C53.74 17.9667 54.2733 18.28 54.82 18.64C55.38 19 55.9067 19.36 56.4 19.72C56.8933 20.0667 57.3 20.3867 57.62 20.68L56.52 21.54C56.2 21.2333 55.7933 20.8933 55.3 20.52C54.82 20.1467 54.3 19.78 53.74 19.42C53.1933 19.0467 52.6667 18.7267 52.16 18.46ZM45.76 11.2H47.22V15.22H45.76V11.2ZM52.66 11.2H54.12V15.22H52.66V11.2ZM41.24 12.46H58.82V13.76H41.24V12.46ZM73.02 11.36H74.44V21.46C74.44 21.8333 74.3867 22.1267 74.28 22.34C74.1867 22.5533 74.0067 22.72 73.74 22.84C73.4867 22.9467 73.1467 23.02 72.72 23.06C72.3067 23.0867 71.78 23.1 71.14 23.1C71.1 22.9 71.02 22.6733 70.9 22.42C70.7933 22.1667 70.6933 21.9467 70.6 21.76C71.0667 21.7733 71.4933 21.7867 71.88 21.8C72.2667 21.8 72.5267 21.7933 72.66 21.78C72.7933 21.7667 72.8867 21.74 72.94 21.7C72.9933 21.66 73.02 21.5733 73.02 21.44V11.36ZM75.66 14.26L76.9 13.86C77.2467 14.46 77.5733 15.1067 77.88 15.8C78.2 16.48 78.4867 17.14 78.74 17.78C79.0067 18.42 79.2 18.9867 79.32 19.48L77.96 19.98C77.8533 19.4867 77.68 18.9133 77.44 18.26C77.2 17.6067 76.9267 16.9267 76.62 16.22C76.3133 15.5133 75.9933 14.86 75.66 14.26ZM64.12 11.48H65.52V18.14C65.52 19.1533 65.48 20.1667 65.4 21.18C65.32 22.1933 65.1533 23.1867 64.9 24.16C64.66 25.1333 64.2867 26.0667 63.78 26.96C63.2867 27.8533 62.62 28.6933 61.78 29.48C61.7133 29.3733 61.6133 29.2533 61.48 29.12C61.36 28.9867 61.2267 28.8533 61.08 28.72C60.9467 28.6 60.8267 28.5 60.72 28.42C61.48 27.7133 62.0867 26.9533 62.54 26.14C63.0067 25.3133 63.3533 24.46 63.58 23.58C63.8067 22.6867 63.9533 21.7867 64.02 20.88C64.0867 19.96 64.12 19.0467 64.12 18.14V11.48ZM62 15.28L63.1 15.44C63.0867 16.0533 63.0333 16.6867 62.94 17.34C62.8467 17.98 62.7067 18.5867 62.52 19.16C62.3333 19.7333 62.0933 20.2267 61.8 20.64L60.72 20.12C60.9867 19.76 61.2067 19.32 61.38 18.8C61.5667 18.2667 61.7067 17.6933 61.8 17.08C61.8933 16.4667 61.96 15.8667 62 15.28ZM67.32 14.68L68.66 15.24C68.3267 15.9333 67.9867 16.66 67.64 17.42C67.2933 18.1667 66.9667 18.8067 66.66 19.34L65.68 18.84C65.8667 18.4667 66.06 18.04 66.26 17.56C66.4733 17.0667 66.6733 16.5667 66.86 16.06C67.0467 15.54 67.2 15.08 67.32 14.68ZM65.06 22.48C65.22 22.6267 65.4533 22.8667 65.76 23.2C66.0667 23.5333 66.3933 23.9 66.74 24.3C67.1 24.7 67.4267 25.0733 67.72 25.42C68.0267 25.7533 68.24 25.9933 68.36 26.14L67.32 27.24C67.16 26.9867 66.9333 26.6733 66.64 26.3C66.36 25.9267 66.06 25.5467 65.74 25.16C65.42 24.76 65.1133 24.3867 64.82 24.04C64.54 23.6933 64.3067 23.42 64.12 23.22L65.06 22.48ZM70.4 13.96L71.8 14.2C71.5333 15.4 71.1733 16.54 70.72 17.62C70.2667 18.7 69.7533 19.6133 69.18 20.36C69.0867 20.2933 68.96 20.22 68.8 20.14C68.6533 20.0467 68.5 19.9533 68.34 19.86C68.18 19.7667 68.0333 19.7 67.9 19.66C68.5133 18.9667 69.0267 18.12 69.44 17.12C69.8533 16.1067 70.1733 15.0533 70.4 13.96ZM76.7 20.4L78.1 20.8C77.6733 22.3467 77.06 23.6933 76.26 24.84C75.4733 25.9867 74.48 26.9667 73.28 27.78C72.08 28.58 70.6333 29.22 68.94 29.7C68.8467 29.4867 68.7133 29.2533 68.54 29C68.3667 28.76 68.2 28.56 68.04 28.4C69.64 27.9867 71.0067 27.4267 72.14 26.72C73.2867 26.0133 74.2333 25.1333 74.98 24.08C75.7267 23.0267 76.3 21.8 76.7 20.4ZM81.16 12.58H98.9V13.9H81.16V12.58ZM81.36 16.04H87.5V17.32H81.36V16.04ZM85.06 21.64H88.32V22.92H85.06V21.64ZM88.5 16.88H99V18.16H88.5V16.88ZM85.88 11.2H87.36V15.32H85.88V11.2ZM84.42 18.72H85.74V27.04H84.42V18.72ZM81.9 19.76H83.12V27.6H81.9V19.76ZM92.56 11.2H94.04V15.18H92.56V11.2ZM92.88 15.62H94.26V17.84H92.88V15.62ZM92.66 22.66H93.88V28.98H92.66V22.66ZM87.04 16.04H87.34L87.6 15.96L88.46 16.6C88.0733 17.1733 87.6133 17.7467 87.08 18.32C86.5467 18.88 86.0333 19.3667 85.54 19.78C85.4333 19.6467 85.3 19.5 85.14 19.34C84.9933 19.18 84.86 19.0533 84.74 18.96C85.1533 18.6133 85.5733 18.1867 86 17.68C86.44 17.1733 86.7867 16.7133 87.04 16.3V16.04ZM80.74 27.38C81.3933 27.2333 82.14 27.06 82.98 26.86C83.82 26.66 84.7133 26.44 85.66 26.2C86.62 25.96 87.5733 25.7267 88.52 25.5L88.68 26.78C87.3333 27.1533 85.9867 27.5133 84.64 27.86C83.3067 28.2067 82.12 28.5133 81.08 28.78L80.74 27.38ZM88.58 20.56C89.34 20.5333 90.2133 20.5133 91.2 20.5C92.1867 20.4733 93.24 20.4467 94.36 20.42C95.48 20.38 96.6067 20.3333 97.74 20.28L97.68 21.46C96.6 21.5133 95.5133 21.5667 94.42 21.62C93.34 21.66 92.3133 21.7 91.34 21.74C90.3667 21.7667 89.4867 21.7933 88.7 21.82L88.58 20.56ZM91.92 17.5L93.28 18C92.9733 18.5733 92.6533 19.1667 92.32 19.78C92 20.38 91.6933 20.9 91.4 21.34L90.34 20.88C90.5133 20.5733 90.7 20.2267 90.9 19.84C91.1 19.44 91.2933 19.0333 91.48 18.62C91.6667 18.2067 91.8133 17.8333 91.92 17.5ZM94.98 19.16L96.02 18.52C96.42 18.8267 96.82 19.1667 97.22 19.54C97.6333 19.9133 98.0133 20.2933 98.36 20.68C98.7067 21.0667 98.98 21.4133 99.18 21.72L98.08 22.44C97.88 22.12 97.6133 21.7733 97.28 21.4C96.9467 21.0133 96.58 20.6267 96.18 20.24C95.78 19.84 95.38 19.48 94.98 19.16ZM95.72 22.5H96.98V27.56C96.98 27.7467 96.9867 27.8933 97 28C97.0133 28.1067 97.0333 28.18 97.06 28.22C97.1267 28.2733 97.2267 28.3 97.36 28.3C97.4267 28.3 97.5067 28.3 97.6 28.3C97.6933 28.3 97.78 28.3 97.86 28.3C97.94 28.3 98.0133 28.2933 98.08 28.28C98.1467 28.2667 98.2 28.2533 98.24 28.24C98.28 28.2133 98.32 28.16 98.36 28.08C98.4 28 98.4267 27.9067 98.44 27.8C98.4667 27.6533 98.48 27.4333 98.48 27.14C98.4933 26.8467 98.5067 26.5 98.52 26.1C98.64 26.2067 98.7933 26.3133 98.98 26.42C99.18 26.5133 99.3667 26.5867 99.54 26.64C99.5267 27.0267 99.5067 27.4133 99.48 27.8C99.4533 28.1733 99.4067 28.4333 99.34 28.58C99.3 28.74 99.2333 28.8733 99.14 28.98C99.0467 29.0867 98.94 29.1733 98.82 29.24C98.7 29.2933 98.56 29.3333 98.4 29.36C98.2533 29.3867 98.1067 29.4 97.96 29.4C97.84 29.4 97.6867 29.4 97.5 29.4C97.3267 29.4 97.1867 29.4 97.08 29.4C96.9067 29.4 96.7267 29.3733 96.54 29.32C96.3533 29.2667 96.1933 29.18 96.06 29.06C95.94 28.94 95.8533 28.7733 95.8 28.56C95.7467 28.3467 95.72 27.96 95.72 27.4V22.5ZM89.72 22.52H90.96V24.7C90.96 25.2467 90.8867 25.82 90.74 26.42C90.6067 27.0067 90.3267 27.5733 89.9 28.12C89.4733 28.68 88.8333 29.1733 87.98 29.6C87.8733 29.4667 87.7267 29.32 87.54 29.16C87.3533 29 87.1867 28.8733 87.04 28.78C87.8133 28.3933 88.3867 27.9667 88.76 27.5C89.1467 27.0333 89.4 26.56 89.52 26.08C89.6533 25.5867 89.72 25.12 89.72 24.68V22.52ZM101.22 12.6H118.84V13.94H101.22V12.6ZM105.88 11.2H107.4V15.54H105.88V11.2ZM112.58 11.2H114.1V15.32H112.58V11.2ZM101.16 22.72H118.92V24.08H101.16V22.72ZM109.18 21.18H110.74V29.6H109.18V21.18ZM108.58 23.3L109.82 23.86C109.207 24.6333 108.453 25.3667 107.56 26.06C106.667 26.74 105.713 27.3533 104.7 27.9C103.687 28.4467 102.693 28.8867 101.72 29.22C101.64 29.0867 101.54 28.94 101.42 28.78C101.3 28.62 101.173 28.46 101.04 28.3C100.907 28.14 100.787 28.0133 100.68 27.92C101.413 27.7067 102.153 27.44 102.9 27.12C103.66 26.8 104.393 26.44 105.1 26.04C105.807 25.6267 106.46 25.1933 107.06 24.74C107.66 24.2733 108.167 23.7933 108.58 23.3ZM111.36 23.38C111.907 24.0333 112.607 24.6467 113.46 25.22C114.313 25.7933 115.24 26.3 116.24 26.74C117.24 27.18 118.24 27.5267 119.24 27.78C119.133 27.8733 119.013 28 118.88 28.16C118.747 28.32 118.62 28.48 118.5 28.64C118.393 28.8 118.3 28.9533 118.22 29.1C117.22 28.78 116.213 28.3667 115.2 27.86C114.2 27.34 113.267 26.74 112.4 26.06C111.533 25.38 110.8 24.66 110.2 23.9L111.36 23.38ZM116.22 15.1L117.42 16.28C116.433 16.5067 115.327 16.7067 114.1 16.88C112.887 17.04 111.6 17.18 110.24 17.3C108.893 17.42 107.527 17.5133 106.14 17.58C104.767 17.6467 103.44 17.6933 102.16 17.72C102.147 17.5333 102.1 17.3133 102.02 17.06C101.953 16.7933 101.887 16.58 101.82 16.42C103.073 16.3933 104.373 16.3467 105.72 16.28C107.067 16.2 108.387 16.1067 109.68 16C110.987 15.8933 112.2 15.7667 113.32 15.62C114.44 15.46 115.407 15.2867 116.22 15.1ZM102.72 18.76L103.98 18.22C104.38 18.66 104.753 19.16 105.1 19.72C105.447 20.28 105.693 20.7667 105.84 21.18L104.5 21.76C104.367 21.3333 104.133 20.84 103.8 20.28C103.467 19.72 103.107 19.2133 102.72 18.76ZM108.24 18.22L109.56 17.8C109.853 18.2267 110.12 18.7 110.36 19.22C110.6 19.74 110.76 20.1933 110.84 20.58L109.42 21.06C109.353 20.6733 109.207 20.22 108.98 19.7C108.767 19.1667 108.52 18.6733 108.24 18.22ZM116.14 17.48L117.66 18.04C117.247 18.7067 116.8 19.3933 116.32 20.1C115.853 20.8067 115.427 21.4067 115.04 21.9L113.88 21.36C114.133 21.0267 114.4 20.6333 114.68 20.18C114.96 19.7133 115.227 19.2467 115.48 18.78C115.747 18.3 115.967 17.8667 116.14 17.48Z" fill="black"/>
</svg>
