<svg width="92" height="37" viewBox="0 0 92 37" fill="none" xmlns="http://www.w3.org/2000/svg">
<rect x="0.5" y="0.5" width="91" height="36" fill="white"/>
<rect x="0.5" y="0.5" width="91" height="36" stroke="black"/>
<path d="M17.1 14.32H23.1V15.84H17.1V14.32ZM25.24 9.24H26.82V25.48C26.82 26.0133 26.74 26.4133 26.58 26.68C26.4333 26.9467 26.1933 27.1533 25.86 27.3C25.5267 27.42 25.06 27.5 24.46 27.54C23.86 27.5933 23.1 27.62 22.18 27.62C22.1533 27.46 22.1067 27.28 22.04 27.08C21.9733 26.8933 21.9 26.7 21.82 26.5C21.74 26.3 21.6533 26.1267 21.56 25.98C22.2933 25.9933 22.9467 26 23.52 26C24.1067 26.0133 24.5 26.0133 24.7 26C24.9 25.9867 25.04 25.9467 25.12 25.88C25.2 25.8 25.24 25.6667 25.24 25.48V9.24ZM22.58 14.32H22.9L23.18 14.26L24.2 14.66C23.8533 16.4067 23.3667 17.9867 22.74 19.4C22.1133 20.8133 21.38 22.0467 20.54 23.1C19.7 24.1533 18.7867 25.0067 17.8 25.66C17.72 25.54 17.6067 25.4067 17.46 25.26C17.3133 25.1 17.16 24.9467 17 24.8C16.84 24.6533 16.7 24.5467 16.58 24.48C17.54 23.88 18.42 23.1067 19.22 22.16C20.02 21.2133 20.7067 20.1133 21.28 18.86C21.8667 17.5933 22.3 16.2 22.58 14.68V14.32ZM26.72 12.52C27.0667 13.8533 27.5067 15.1467 28.04 16.4C28.5733 17.6533 29.2 18.82 29.92 19.9C30.64 20.9667 31.46 21.9133 32.38 22.74C33.3 23.5667 34.32 24.22 35.44 24.7C35.32 24.7933 35.1867 24.92 35.04 25.08C34.8933 25.24 34.7533 25.4067 34.62 25.58C34.4867 25.7533 34.3733 25.9133 34.28 26.06C32.76 25.3133 31.4333 24.28 30.3 22.96C29.18 21.6267 28.2267 20.0933 27.44 18.36C26.6667 16.6133 26.0333 14.7533 25.54 12.78L26.72 12.52ZM33.26 12.44L34.64 13.42C34.0933 14.0333 33.4867 14.6733 32.82 15.34C32.1667 15.9933 31.5067 16.62 30.84 17.22C30.1733 17.82 29.5467 18.3467 28.96 18.8L27.9 17.96C28.4733 17.4933 29.0867 16.9467 29.74 16.32C30.4067 15.68 31.0467 15.0267 31.66 14.36C32.2867 13.68 32.82 13.04 33.26 12.44ZM37.14 10.56H54.88V11.86H37.14V10.56ZM40.28 13.76H49.92V14.98H40.28V13.76ZM40.5 22.24H51.46V23.52H40.5V22.24ZM37.28 16.4H42.58V17.64H37.28V16.4ZM41.88 9.18H43.36V13.3H41.88V9.18ZM48.58 9.18H50.06V13.3H48.58V9.18ZM45.24 16.32H46.7V20.26C46.7 20.6067 46.6533 20.8733 46.56 21.06C46.48 21.2467 46.3067 21.3933 46.04 21.5C45.7867 21.5933 45.4467 21.6533 45.02 21.68C44.6067 21.6933 44.0933 21.7 43.48 21.7C43.4533 21.5133 43.3933 21.3133 43.3 21.1C43.2067 20.8733 43.1133 20.6733 43.02 20.5C43.4733 20.5133 43.88 20.52 44.24 20.52C44.6 20.52 44.84 20.52 44.96 20.52C45.1467 20.52 45.24 20.4267 45.24 20.24V16.32ZM39.7 23.82L40.92 24.4C40.6267 24.9867 40.2533 25.58 39.8 26.18C39.36 26.78 38.82 27.28 38.18 27.68L37 26.88C37.6133 26.52 38.1467 26.06 38.6 25.5C39.0667 24.94 39.4333 24.38 39.7 23.82ZM42.82 24.46L44.18 24.28C44.3667 24.76 44.5267 25.28 44.66 25.84C44.7933 26.3867 44.8667 26.8533 44.88 27.24L43.44 27.5C43.4267 27.1 43.36 26.6133 43.24 26.04C43.1333 25.48 42.9933 24.9533 42.82 24.46ZM46.66 24.48L47.9 24.08C48.22 24.5333 48.5133 25.04 48.78 25.6C49.06 26.1467 49.26 26.62 49.38 27.02L48.06 27.48C47.9667 27.08 47.7867 26.5933 47.52 26.02C47.2533 25.46 46.9667 24.9467 46.66 24.48ZM50.64 24.52L51.76 23.8C52.1467 24.08 52.5467 24.4 52.96 24.76C53.3867 25.1067 53.78 25.46 54.14 25.82C54.5133 26.1667 54.8067 26.4933 55.02 26.8L53.86 27.6C53.6467 27.2933 53.36 26.96 53 26.6C52.6533 26.24 52.2733 25.88 51.86 25.52C51.46 25.1467 51.0533 24.8133 50.64 24.52ZM42.3 16.4H42.56L42.82 16.34L43.74 16.72C43.38 17.76 42.8867 18.6933 42.26 19.52C41.6333 20.3467 40.92 21.06 40.12 21.66C39.3333 22.26 38.5133 22.74 37.66 23.1C37.6067 22.98 37.5267 22.8533 37.42 22.72C37.3267 22.5733 37.2267 22.4333 37.12 22.3C37.0133 22.1533 36.9067 22.0333 36.8 21.94C37.5733 21.66 38.3267 21.26 39.06 20.74C39.7933 20.22 40.4467 19.6133 41.02 18.92C41.5933 18.2133 42.02 17.4467 42.3 16.62V16.4ZM49.5 13.76H49.86L50.16 13.68L51.08 14.44C50.48 15 49.7667 15.54 48.94 16.06C48.1267 16.58 47.3333 17.02 46.56 17.38C46.4667 17.2467 46.34 17.1 46.18 16.94C46.02 16.7667 45.88 16.6333 45.76 16.54C46.2133 16.3267 46.6733 16.08 47.14 15.8C47.62 15.52 48.0667 15.2267 48.48 14.92C48.8933 14.6 49.2333 14.3067 49.5 14.04V13.76ZM48.78 15.9C49.1667 16.7667 49.68 17.58 50.32 18.34C50.96 19.0867 51.7 19.74 52.54 20.3C53.38 20.86 54.2733 21.3 55.22 21.62C55.1 21.7133 54.9733 21.8333 54.84 21.98C54.72 22.1133 54.6067 22.26 54.5 22.42C54.3933 22.5667 54.3 22.7067 54.22 22.84C53.2467 22.4667 52.3333 21.9533 51.48 21.3C50.6267 20.6467 49.8667 19.8933 49.2 19.04C48.5467 18.1867 48.0067 17.2667 47.58 16.28L48.78 15.9ZM53.44 15.02L54.64 15.84C54.2133 16.1867 53.7467 16.54 53.24 16.9C52.7467 17.26 52.2467 17.6 51.74 17.92C51.2467 18.24 50.7733 18.52 50.32 18.76L49.38 18.04C49.8067 17.7867 50.2667 17.4867 50.76 17.14C51.2667 16.78 51.7533 16.42 52.22 16.06C52.7 15.6867 53.1067 15.34 53.44 15.02ZM65.24 10.74H66.74V16.42H65.24V10.74ZM58.04 10.12H73.3V11.38H58.04V10.12ZM72.92 10.12H73.16L73.42 10.06L74.5 10.36C74.26 10.9467 74 11.5533 73.72 12.18C73.44 12.7933 73.1667 13.3133 72.9 13.74L71.6 13.4C71.8267 13 72.06 12.52 72.3 11.96C72.5533 11.3867 72.76 10.8533 72.92 10.36V10.12ZM66.06 13H71.5V14.1H66.06V13ZM61.72 13.32C62.1333 14.0533 62.6733 14.6067 63.34 14.98C64.0067 15.3533 64.8133 15.6 65.76 15.72C66.72 15.84 67.8067 15.9 69.02 15.9C69.18 15.9 69.4533 15.9 69.84 15.9C70.24 15.9 70.7 15.9 71.22 15.9C71.74 15.9 72.26 15.9 72.78 15.9C73.3133 15.9 73.7933 15.9 74.22 15.9C74.6467 15.8867 74.9667 15.88 75.18 15.88C75.1133 15.9733 75.04 16.1067 74.96 16.28C74.8933 16.44 74.8333 16.6067 74.78 16.78C74.7267 16.94 74.6867 17.0933 74.66 17.24H73.36H69.02C67.58 17.24 66.3333 17.1533 65.28 16.98C64.2267 16.8067 63.3267 16.4667 62.58 15.96C61.8333 15.4533 61.2133 14.7 60.72 13.7L61.72 13.32ZM60.5 20.14V22.14H71.5V20.14H60.5ZM59.08 18.98H73V23.32H59.08V18.98ZM65.28 17.66H66.76V26.1H65.28V17.66ZM57.34 25.54C58.2333 25.54 59.26 25.5267 60.42 25.5C61.58 25.4733 62.8333 25.4467 64.18 25.42C65.5267 25.38 66.9133 25.34 68.34 25.3C69.78 25.26 71.22 25.22 72.66 25.18L72.6 26.36C70.7733 26.44 68.94 26.52 67.1 26.6C65.26 26.6933 63.5067 26.7667 61.84 26.82C60.1867 26.8867 58.72 26.9467 57.44 27L57.34 25.54ZM69.3 24.1L70.28 23.26C70.8267 23.62 71.4 24.0267 72 24.48C72.6133 24.92 73.1933 25.3533 73.74 25.78C74.2867 26.1933 74.74 26.56 75.1 26.88L74.1 27.84C73.74 27.5067 73.2867 27.12 72.74 26.68C72.1933 26.24 71.62 25.7933 71.02 25.34C70.42 24.8733 69.8467 24.46 69.3 24.1ZM61.08 11.92L62.48 12.26C62.0267 13.66 61.36 14.92 60.48 16.04C59.6 17.1467 58.58 18.0533 57.42 18.76C57.38 18.64 57.3133 18.4933 57.22 18.32C57.14 18.1333 57.0533 17.9467 56.96 17.76C56.8667 17.5733 56.78 17.42 56.7 17.3C57.7 16.7533 58.5867 16.02 59.36 15.1C60.1333 14.18 60.7067 13.12 61.08 11.92Z" fill="black"/>
</svg>
