<svg width="92" height="37" viewBox="0 0 92 37" fill="none" xmlns="http://www.w3.org/2000/svg">
<rect x="0.5" y="0.5" width="91" height="36" fill="white"/>
<rect x="0.5" y="0.5" width="91" height="36" stroke="black"/>
<path d="M17.1 14.24H34.96V15.62H17.1V14.24ZM18.54 10.96H33.64V12.32H18.54V10.96ZM22.08 9.2H23.58V14.9H22.08V9.2ZM28.48 9.2H30V14.9H28.48V9.2ZM25.22 14.98H26.76V23.36H25.22V14.98ZM20.72 21.02V22.8H31.38V21.02H20.72ZM20.72 18.18V19.94H31.38V18.18H20.72ZM19.26 17.08H32.88V23.92H19.26V17.08ZM27.84 25.2L28.72 24.26C29.4667 24.5 30.2133 24.76 30.96 25.04C31.72 25.32 32.4333 25.5933 33.1 25.86C33.7667 26.1133 34.3467 26.36 34.84 26.6L33.74 27.6C33.2733 27.3733 32.7267 27.1267 32.1 26.86C31.4733 26.5933 30.7933 26.3133 30.06 26.02C29.3267 25.74 28.5867 25.4667 27.84 25.2ZM23.04 24.26L24.4 25.14C23.8667 25.4733 23.2467 25.7933 22.54 26.1C21.8333 26.42 21.1 26.7133 20.34 26.98C19.5933 27.2467 18.88 27.4733 18.2 27.66C18.08 27.5 17.92 27.3133 17.72 27.1C17.52 26.8867 17.34 26.7133 17.18 26.58C17.86 26.3933 18.5667 26.1733 19.3 25.92C20.0467 25.6667 20.7533 25.3933 21.42 25.1C22.0867 24.8067 22.6267 24.5267 23.04 24.26ZM39.2 9.44H40.48V16.28C40.48 17.6133 40.42 18.9467 40.3 20.28C40.18 21.6 39.92 22.88 39.52 24.12C39.12 25.3467 38.4933 26.5 37.64 27.58C37.5733 27.4733 37.48 27.36 37.36 27.24C37.24 27.12 37.1133 27 36.98 26.88C36.86 26.7733 36.7467 26.6867 36.64 26.62C37.4133 25.62 37.9733 24.5533 38.32 23.42C38.68 22.2867 38.9133 21.12 39.02 19.92C39.14 18.7067 39.2 17.5 39.2 16.3V9.44ZM37.68 13.38L38.68 13.5C38.6533 14.0467 38.6 14.64 38.52 15.28C38.4533 15.92 38.3533 16.54 38.22 17.14C38.0867 17.7267 37.92 18.2533 37.72 18.72L36.74 18.22C36.9267 17.82 37.08 17.3467 37.2 16.8C37.3333 16.24 37.44 15.6667 37.52 15.08C37.6 14.48 37.6533 13.9133 37.68 13.38ZM41.82 12.42L43 12.8C42.8533 13.2667 42.6933 13.7667 42.52 14.3C42.36 14.82 42.2 15.3267 42.04 15.82C41.8933 16.3 41.7467 16.72 41.6 17.08L40.74 16.78C40.8733 16.3933 41.0067 15.94 41.14 15.42C41.2867 14.9 41.42 14.38 41.54 13.86C41.66 13.3267 41.7533 12.8467 41.82 12.42ZM40.14 20.5C40.2467 20.6333 40.4133 20.8667 40.64 21.2C40.88 21.5333 41.1333 21.9 41.4 22.3C41.6667 22.6867 41.9133 23.0533 42.14 23.4C42.3667 23.7333 42.5267 23.9733 42.62 24.12L41.64 25.18C41.52 24.9267 41.3533 24.62 41.14 24.26C40.9267 23.8867 40.7 23.5067 40.46 23.12C40.2333 22.72 40.0067 22.3467 39.78 22C39.5667 21.6533 39.3867 21.38 39.24 21.18L40.14 20.5ZM47.28 14.46L48.08 13.8C48.4533 14.0267 48.8333 14.2867 49.22 14.58C49.6067 14.8733 49.9667 15.1667 50.3 15.46C50.6333 15.7533 50.9 16.0333 51.1 16.3L50.28 17.02C50.08 16.7533 49.8133 16.4733 49.48 16.18C49.16 15.8733 48.8067 15.5667 48.42 15.26C48.0467 14.9533 47.6667 14.6867 47.28 14.46ZM50.46 17.62L51.34 17.3C51.5933 17.7667 51.8267 18.28 52.04 18.84C52.2667 19.3867 52.46 19.92 52.62 20.44C52.7933 20.9467 52.92 21.4 53 21.8L52.04 22.2C51.9867 21.8133 51.88 21.36 51.72 20.84C51.56 20.3067 51.3667 19.76 51.14 19.2C50.9267 18.6267 50.7 18.1 50.46 17.62ZM47.2 16.76H48.26V22.34C48.26 22.5533 48.2867 22.6867 48.34 22.74C48.3933 22.7933 48.5067 22.82 48.68 22.82C48.7333 22.82 48.8333 22.82 48.98 22.82C49.1267 22.82 49.28 22.82 49.44 22.82C49.6 22.82 49.7067 22.82 49.76 22.82C49.8933 22.82 49.9867 22.7733 50.04 22.68C50.0933 22.5867 50.1333 22.3867 50.16 22.08C50.1867 21.7733 50.2067 21.3067 50.22 20.68C50.34 20.7733 50.4933 20.86 50.68 20.94C50.88 21.02 51.06 21.08 51.22 21.12C51.1933 21.84 51.1333 22.4 51.04 22.8C50.96 23.1867 50.8267 23.46 50.64 23.62C50.4667 23.7667 50.22 23.84 49.9 23.84C49.8333 23.84 49.7 23.84 49.5 23.84C49.3133 23.84 49.1267 23.84 48.94 23.84C48.7533 23.84 48.62 23.84 48.54 23.84C48.0067 23.84 47.6467 23.74 47.46 23.54C47.2867 23.34 47.2 22.9467 47.2 22.36V16.76ZM45.72 17.44L46.66 17.68C46.6067 18.2267 46.54 18.8067 46.46 19.42C46.38 20.02 46.2667 20.5933 46.12 21.14C45.9867 21.6867 45.8133 22.1667 45.6 22.58L44.72 22.1C44.92 21.7133 45.08 21.26 45.2 20.74C45.3333 20.22 45.44 19.6733 45.52 19.1C45.6133 18.5267 45.68 17.9733 45.72 17.44ZM47.5 9.98H53.5V11.34H47.5V9.98ZM53.12 9.98H54.5V25.72C54.5 26.1467 54.44 26.4733 54.32 26.7C54.2 26.94 53.9933 27.12 53.7 27.24C53.4067 27.3467 53 27.4133 52.48 27.44C51.9733 27.4667 51.3267 27.48 50.54 27.48C50.5133 27.2933 50.4533 27.0667 50.36 26.8C50.28 26.5333 50.1933 26.3133 50.1 26.14C50.6733 26.1533 51.2067 26.16 51.7 26.16C52.1933 26.1733 52.52 26.1733 52.68 26.16C52.84 26.1467 52.9533 26.1067 53.02 26.04C53.0867 25.9867 53.12 25.88 53.12 25.72V9.98ZM43.6 9.94L44.72 9.34C44.9867 9.7 45.26 10.0933 45.54 10.52C45.82 10.9467 46.08 11.3667 46.32 11.78C46.56 12.18 46.7467 12.5333 46.88 12.84L45.7 13.54C45.5667 13.22 45.38 12.8533 45.14 12.44C44.9133 12.0267 44.6667 11.6 44.4 11.16C44.1333 10.72 43.8667 10.3133 43.6 9.94ZM43.16 13.24H44.48V27.6H43.16V13.24ZM64.56 22.38H72.12V23.7H64.56V22.38ZM57.02 11.5H63.32V12.86H57.02V11.5ZM62.74 11.5H63L63.24 11.44L64.16 11.74C63.8667 13.9533 63.4 15.98 62.76 17.82C62.1333 19.6467 61.38 21.2467 60.5 22.62C59.62 23.9933 58.6533 25.12 57.6 26C57.48 25.8133 57.32 25.6133 57.12 25.4C56.92 25.1733 56.7333 25 56.56 24.88C57.2933 24.32 57.9867 23.6067 58.64 22.74C59.3067 21.86 59.9133 20.8533 60.46 19.72C61.0067 18.5867 61.4733 17.3533 61.86 16.02C62.26 14.6867 62.5533 13.2933 62.74 11.84V11.5ZM57.36 14.98L58.44 14.24C58.9467 14.92 59.46 15.6467 59.98 16.42C60.5133 17.1933 61.0267 17.9733 61.52 18.76C62.0133 19.5467 62.46 20.2933 62.86 21C63.2733 21.7067 63.6067 22.3467 63.86 22.92L62.66 23.84C62.4067 23.28 62.0867 22.6333 61.7 21.9C61.3133 21.1667 60.8733 20.4067 60.38 19.62C59.9 18.82 59.4 18.02 58.88 17.22C58.3733 16.42 57.8667 15.6733 57.36 14.98ZM73.2 19.22H74.62C74.62 19.22 74.62 19.3 74.62 19.46C74.62 19.6067 74.62 19.7333 74.62 19.84C74.5533 21.4133 74.48 22.68 74.4 23.64C74.3333 24.6 74.2467 25.3267 74.14 25.82C74.0467 26.3133 73.9133 26.6533 73.74 26.84C73.5933 27.04 73.4133 27.18 73.2 27.26C73 27.34 72.76 27.3933 72.48 27.42C72.24 27.4467 71.8933 27.4533 71.44 27.44C71 27.4267 70.54 27.4133 70.06 27.4C70.0467 27.2133 70.0067 27 69.94 26.76C69.8733 26.5333 69.7867 26.34 69.68 26.18C70.16 26.2067 70.6 26.2267 71 26.24C71.4133 26.2533 71.7 26.26 71.86 26.26C72.0333 26.26 72.1667 26.2467 72.26 26.22C72.3533 26.1933 72.44 26.1333 72.52 26.04C72.64 25.9067 72.74 25.6133 72.82 25.16C72.9 24.7067 72.9667 24.02 73.02 23.1C73.0867 22.18 73.1467 20.9667 73.2 19.46V19.22ZM68.58 9.12L70.16 9.38C69.9467 9.82 69.72 10.26 69.48 10.7C69.24 11.1267 69.02 11.4933 68.82 11.8L67.6 11.54C67.7867 11.1933 67.9733 10.7933 68.16 10.34C68.3467 9.87333 68.4867 9.46667 68.58 9.12ZM72.06 11.08H73.44C73.44 11.08 73.44 11.1533 73.44 11.3C73.44 11.4467 73.4333 11.5667 73.42 11.66C73.3667 12.9267 73.3 13.9533 73.22 14.74C73.1533 15.5267 73.0733 16.1267 72.98 16.54C72.8867 16.9533 72.7667 17.2467 72.62 17.42C72.4733 17.5933 72.3133 17.7133 72.14 17.78C71.9667 17.8467 71.76 17.8933 71.52 17.92C71.32 17.9333 71.0467 17.94 70.7 17.94C70.3667 17.94 70.0133 17.9333 69.64 17.92C69.6267 17.7333 69.5867 17.5267 69.52 17.3C69.4667 17.0733 69.3933 16.88 69.3 16.72C69.6467 16.7467 69.96 16.7667 70.24 16.78C70.5333 16.78 70.7467 16.78 70.88 16.78C71 16.78 71.1067 16.7733 71.2 16.76C71.2933 16.7333 71.3733 16.68 71.44 16.6C71.5333 16.48 71.6133 16.24 71.68 15.88C71.76 15.5067 71.8267 14.9533 71.88 14.22C71.9467 13.4867 72.0067 12.5133 72.06 11.3V11.08ZM67.66 13.82L68.52 13.14C68.92 13.4467 69.3267 13.8 69.74 14.2C70.1667 14.5867 70.4933 14.9333 70.72 15.24L69.84 16C69.6133 15.6933 69.2867 15.3333 68.86 14.92C68.4467 14.5067 68.0467 14.14 67.66 13.82ZM72.8 11.08V12.28H66.64V19.22H73.8V20.42H65.22V11.08H72.8Z" fill="black"/>
</svg>
