<svg width="113" height="40" viewBox="0 0 113 40" fill="none" xmlns="http://www.w3.org/2000/svg">
<rect x="0.5" y="0.5" width="112" height="39" fill="white"/>
<rect x="0.5" y="0.5" width="112" height="39" stroke="black"/>
<path d="M8.22 20.42H18.8V21.78H8.22V20.42ZM12.62 18.38H14.1V29.56H12.62V18.38ZM12.6 21.1L13.78 21.5C13.4067 22.4067 12.94 23.2933 12.38 24.16C11.8333 25.0133 11.24 25.8067 10.6 26.54C9.96 27.26 9.31333 27.8667 8.66 28.36C8.59333 28.24 8.49333 28.1067 8.36 27.96C8.24 27.8133 8.11333 27.6733 7.98 27.54C7.86 27.4067 7.74667 27.2933 7.64 27.2C8.28 26.8 8.91333 26.2733 9.54 25.62C10.1667 24.9667 10.7467 24.2467 11.28 23.46C11.8133 22.6733 12.2533 21.8867 12.6 21.1ZM13.06 22.24L14.08 21.48C14.6 21.96 15.14 22.4867 15.7 23.06C16.26 23.6333 16.7867 24.1933 17.28 24.74C17.7733 25.2867 18.1733 25.78 18.48 26.22L17.38 27.1C17.0867 26.6733 16.7 26.18 16.22 25.62C15.74 25.0467 15.22 24.4667 14.66 23.88C14.1133 23.2933 13.58 22.7467 13.06 22.24ZM20.24 13.42H21.66V24.46H20.24V13.42ZM23.9 11.32H25.36V27.64C25.36 28.1067 25.2933 28.46 25.16 28.7C25.04 28.9533 24.84 29.14 24.56 29.26C24.2667 29.3933 23.8667 29.4733 23.36 29.5C22.8667 29.5267 22.22 29.54 21.42 29.54C21.38 29.34 21.3133 29.0933 21.22 28.8C21.14 28.52 21.04 28.2733 20.92 28.06C21.5067 28.0733 22.0333 28.08 22.5 28.08C22.9667 28.0933 23.28 28.1 23.44 28.1C23.6133 28.0867 23.7333 28.0533 23.8 28C23.8667 27.9333 23.9 27.82 23.9 27.66V11.32ZM11.26 12.08H15.54V13.38H11.26V12.08ZM10.48 12.08H11.9V14.02C11.9 14.6067 11.82 15.2267 11.66 15.88C11.5133 16.5333 11.2333 17.1733 10.82 17.8C10.42 18.4133 9.83333 18.9667 9.06 19.46C9.00667 19.3533 8.91333 19.2333 8.78 19.1C8.66 18.9533 8.53333 18.8133 8.4 18.68C8.26667 18.5467 8.14667 18.4467 8.04 18.38C8.73333 17.9533 9.25333 17.4933 9.6 17C9.94667 16.4933 10.18 15.9867 10.3 15.48C10.42 14.96 10.48 14.4667 10.48 14V12.08ZM15.06 12.08H16.5V16.74C16.5 17.0067 16.5133 17.1933 16.54 17.3C16.58 17.4067 16.6667 17.46 16.8 17.46C16.8667 17.46 16.9733 17.46 17.12 17.46C17.2667 17.46 17.4133 17.46 17.56 17.46C17.7067 17.46 17.8133 17.46 17.88 17.46C18 17.46 18.1467 17.4533 18.32 17.44C18.4933 17.4133 18.6333 17.3867 18.74 17.36C18.7667 17.5333 18.7867 17.74 18.8 17.98C18.8133 18.22 18.8333 18.4267 18.86 18.6C18.7533 18.6267 18.6067 18.6467 18.42 18.66C18.2467 18.6733 18.0733 18.68 17.9 18.68C17.82 18.68 17.6933 18.68 17.52 18.68C17.36 18.68 17.1933 18.68 17.02 18.68C16.86 18.68 16.74 18.68 16.66 18.68C16.22 18.68 15.88 18.62 15.64 18.5C15.4133 18.3667 15.26 18.1533 15.18 17.86C15.1 17.5667 15.06 17.1867 15.06 16.72V12.08ZM39.88 12.64H45.14V13.96H39.88V12.64ZM36.58 14.02H39.62V15.28H36.58V14.02ZM33.38 17.94H40.16V19.24H33.38V17.94ZM35.96 11.22H37.34V18.86H35.96V11.22ZM36.2 18.82H37.54V28.06C37.54 28.4067 37.5 28.68 37.42 28.88C37.34 29.0933 37.18 29.26 36.94 29.38C36.7133 29.4733 36.4067 29.5333 36.02 29.56C35.6467 29.5867 35.1933 29.6 34.66 29.6C34.6333 29.4133 34.5733 29.1933 34.48 28.94C34.4 28.7 34.3133 28.4933 34.22 28.32C34.62 28.3333 34.9733 28.34 35.28 28.34C35.6 28.34 35.82 28.3333 35.94 28.32C36.0467 28.32 36.1133 28.3 36.14 28.26C36.18 28.22 36.2 28.1467 36.2 28.04V18.82ZM44.64 12.64H44.86L45.1 12.6L45.94 12.76C45.78 15.6933 45.4333 18.2533 44.9 20.44C44.3667 22.6267 43.66 24.4733 42.78 25.98C41.9133 27.4733 40.8733 28.6733 39.66 29.58C39.5533 29.4067 39.4067 29.2067 39.22 28.98C39.0467 28.7533 38.8733 28.5733 38.7 28.44C39.82 27.6933 40.7933 26.6133 41.62 25.2C42.4467 23.7867 43.1133 22.0533 43.62 20C44.14 17.9467 44.48 15.6 44.64 12.96V12.64ZM34.24 21.04L35.44 21.3C35.3333 21.8733 35.1933 22.4933 35.02 23.16C34.86 23.8133 34.6667 24.4533 34.44 25.08C34.2267 25.6933 33.98 26.2467 33.7 26.74C33.58 26.6467 33.42 26.54 33.22 26.42C33.0333 26.3 32.8667 26.2067 32.72 26.14C32.9867 25.6867 33.22 25.1667 33.42 24.58C33.62 23.98 33.7867 23.3733 33.92 22.76C34.0533 22.1333 34.16 21.56 34.24 21.04ZM38.26 21.42L39.32 21.04C39.52 21.5067 39.7133 22.0067 39.9 22.54C40.0867 23.0733 40.2533 23.5867 40.4 24.08C40.5467 24.56 40.6533 24.98 40.72 25.34L39.6 25.8C39.5333 25.4267 39.4267 24.9867 39.28 24.48C39.1467 23.9733 38.9933 23.4533 38.82 22.92C38.6467 22.3733 38.46 21.8733 38.26 21.42ZM41.62 14.26C41.7667 15.82 41.96 17.3267 42.2 18.78C42.44 20.22 42.7533 21.56 43.14 22.8C43.5267 24.04 43.9933 25.1467 44.54 26.12C45.1 27.0933 45.7667 27.8867 46.54 28.5C46.4333 28.58 46.3133 28.6867 46.18 28.82C46.06 28.9533 45.94 29.0867 45.82 29.22C45.7133 29.3667 45.62 29.5 45.54 29.62C44.46 28.6733 43.58 27.44 42.9 25.92C42.22 24.4 41.6867 22.66 41.3 20.7C40.9133 18.74 40.6133 16.64 40.4 14.4L41.62 14.26ZM28.04 15.54H33.54V16.94H28.04V15.54ZM30.38 11.2H31.72V29.58H30.38V11.2ZM30.38 16.38L31.24 16.64C31.1067 17.4267 30.94 18.2533 30.74 19.12C30.54 19.9733 30.3133 20.8133 30.06 21.64C29.82 22.4667 29.5533 23.24 29.26 23.96C28.9667 24.6667 28.6667 25.2733 28.36 25.78C28.28 25.6067 28.1667 25.4 28.02 25.16C27.8733 24.9067 27.7467 24.7067 27.64 24.56C27.9333 24.1067 28.22 23.56 28.5 22.92C28.78 22.28 29.04 21.5933 29.28 20.86C29.52 20.1133 29.7333 19.36 29.92 18.6C30.12 17.8267 30.2733 17.0867 30.38 16.38ZM31.62 18.16C31.7133 18.2933 31.86 18.52 32.06 18.84C32.26 19.16 32.4733 19.5067 32.7 19.88C32.9267 20.2533 33.1333 20.6067 33.32 20.94C33.5067 21.26 33.6333 21.4867 33.7 21.62L32.96 22.72C32.8667 22.48 32.7333 22.18 32.56 21.82C32.3867 21.4467 32.2 21.06 32 20.66C31.8133 20.2467 31.6333 19.8667 31.46 19.52C31.2867 19.1733 31.1467 18.9067 31.04 18.72L31.62 18.16ZM54.02 16.94H66.02V18.34H54.02V16.94ZM62.58 17.6H64.04V27.7C64.04 28.1533 63.9733 28.4933 63.84 28.72C63.72 28.96 63.4933 29.14 63.16 29.26C62.8133 29.3667 62.3533 29.4333 61.78 29.46C61.2067 29.4867 60.4867 29.5 59.62 29.5C59.58 29.3 59.5067 29.06 59.4 28.78C59.2933 28.5133 59.1867 28.28 59.08 28.08C59.5333 28.0933 59.9667 28.1 60.38 28.1C60.7933 28.1133 61.1467 28.12 61.44 28.12C61.7467 28.12 61.96 28.12 62.08 28.12C62.2667 28.1067 62.3933 28.0667 62.46 28C62.54 27.9467 62.58 27.84 62.58 27.68V17.6ZM52.24 15.96L53.68 16.42C53.2667 17.2867 52.7867 18.14 52.24 18.98C51.6933 19.8067 51.1 20.58 50.46 21.3C49.8333 22.0067 49.1933 22.6333 48.54 23.18C48.4867 23.0733 48.4 22.94 48.28 22.78C48.16 22.6067 48.0333 22.44 47.9 22.28C47.78 22.1067 47.6667 21.9733 47.56 21.88C48.4933 21.16 49.3733 20.28 50.2 19.24C51.0267 18.2 51.7067 17.1067 52.24 15.96ZM54.98 20.2H60.62V25.86H54.98V24.6H59.24V21.46H54.98V20.2ZM54.26 20.2H55.66V27.06H54.26V20.2ZM48.24 12.8H65.88V14.18H48.24V12.8ZM52.78 11.2H54.24V16.02H52.78V11.2ZM59.72 11.2H61.22V16.02H59.72V11.2ZM50.52 19.98L51.98 18.54L52 18.56V29.58H50.52V19.98ZM72.64 11.1L74.2 11.54C73.7867 12.5667 73.3 13.5733 72.74 14.56C72.18 15.5333 71.5733 16.4467 70.92 17.3C70.28 18.14 69.62 18.8867 68.94 19.54C68.8467 19.4333 68.72 19.3133 68.56 19.18C68.4 19.0467 68.2333 18.9133 68.06 18.78C67.9 18.6467 67.7533 18.54 67.62 18.46C68.3133 17.8867 68.9667 17.2067 69.58 16.42C70.2067 15.6333 70.78 14.7867 71.3 13.88C71.8333 12.9733 72.28 12.0467 72.64 11.1ZM72.4 13.48H83.68V14.92H71.68L72.4 13.48ZM83.22 13.48H84.72C84.72 13.48 84.72 13.5267 84.72 13.62C84.72 13.7133 84.72 13.82 84.72 13.94C84.72 14.0467 84.7133 14.14 84.7 14.22C84.66 15.9 84.6067 17.3267 84.54 18.5C84.4867 19.6733 84.4267 20.64 84.36 21.4C84.2933 22.1467 84.2067 22.7333 84.1 23.16C83.9933 23.5867 83.8667 23.8933 83.72 24.08C83.5467 24.3067 83.3533 24.4667 83.14 24.56C82.94 24.6533 82.6867 24.7133 82.38 24.74C82.0867 24.78 81.7067 24.8 81.24 24.8C80.7733 24.7867 80.2733 24.7733 79.74 24.76C79.7267 24.5333 79.68 24.2867 79.6 24.02C79.5333 23.7533 79.44 23.52 79.32 23.32C79.8267 23.3733 80.2933 23.4067 80.72 23.42C81.16 23.42 81.4733 23.42 81.66 23.42C81.8333 23.42 81.9733 23.4 82.08 23.36C82.2 23.32 82.3 23.2533 82.38 23.16C82.4867 23.0133 82.58 22.7533 82.66 22.38C82.7533 21.9933 82.8333 21.4467 82.9 20.74C82.9667 20.02 83.02 19.0933 83.06 17.96C83.1133 16.8133 83.1667 15.4267 83.22 13.8V13.48ZM71.34 21.8H77.58V18.38H70.92V17.04H79.08V23.16H71.34V21.8ZM70.64 21.8H72.12V26.94C72.12 27.2067 72.18 27.42 72.3 27.58C72.4333 27.7267 72.6867 27.8267 73.06 27.88C73.4333 27.9333 73.98 27.96 74.7 27.96C74.9 27.96 75.24 27.96 75.72 27.96C76.2133 27.96 76.7733 27.96 77.4 27.96C78.0267 27.96 78.66 27.96 79.3 27.96C79.94 27.96 80.52 27.96 81.04 27.96C81.56 27.96 81.96 27.96 82.24 27.96C82.84 27.96 83.2933 27.8933 83.6 27.76C83.9067 27.6267 84.12 27.3667 84.24 26.98C84.3733 26.58 84.4667 26 84.52 25.24C84.6533 25.32 84.8067 25.4 84.98 25.48C85.1533 25.5467 85.3267 25.6067 85.5 25.66C85.6867 25.7133 85.8467 25.76 85.98 25.8C85.9 26.52 85.7933 27.1133 85.66 27.58C85.5267 28.0333 85.3267 28.3933 85.06 28.66C84.8067 28.9267 84.4533 29.1133 84 29.22C83.5467 29.3267 82.96 29.38 82.24 29.38C82.12 29.38 81.8667 29.38 81.48 29.38C81.1067 29.38 80.66 29.38 80.14 29.38C79.62 29.38 79.0733 29.38 78.5 29.38C77.9267 29.38 77.3733 29.38 76.84 29.38C76.32 29.38 75.8733 29.38 75.5 29.38C75.1267 29.38 74.88 29.38 74.76 29.38C73.7067 29.38 72.88 29.3133 72.28 29.18C71.68 29.0467 71.2533 28.8067 71 28.46C70.76 28.1133 70.64 27.6133 70.64 26.96V21.8ZM96.24 12.74H97.74V18.42H96.24V12.74ZM89.04 12.12H104.3V13.38H89.04V12.12ZM103.92 12.12H104.16L104.42 12.06L105.5 12.36C105.26 12.9467 105 13.5533 104.72 14.18C104.44 14.7933 104.167 15.3133 103.9 15.74L102.6 15.4C102.827 15 103.06 14.52 103.3 13.96C103.553 13.3867 103.76 12.8533 103.92 12.36V12.12ZM97.06 15H102.5V16.1H97.06V15ZM92.72 15.32C93.1333 16.0533 93.6733 16.6067 94.34 16.98C95.0067 17.3533 95.8133 17.6 96.76 17.72C97.72 17.84 98.8067 17.9 100.02 17.9C100.18 17.9 100.453 17.9 100.84 17.9C101.24 17.9 101.7 17.9 102.22 17.9C102.74 17.9 103.26 17.9 103.78 17.9C104.313 17.9 104.793 17.9 105.22 17.9C105.647 17.8867 105.967 17.88 106.18 17.88C106.113 17.9733 106.04 18.1067 105.96 18.28C105.893 18.44 105.833 18.6067 105.78 18.78C105.727 18.94 105.687 19.0933 105.66 19.24H104.36H100.02C98.58 19.24 97.3333 19.1533 96.28 18.98C95.2267 18.8067 94.3267 18.4667 93.58 17.96C92.8333 17.4533 92.2133 16.7 91.72 15.7L92.72 15.32ZM91.5 22.14V24.14H102.5V22.14H91.5ZM90.08 20.98H104V25.32H90.08V20.98ZM96.28 19.66H97.76V28.1H96.28V19.66ZM88.34 27.54C89.2333 27.54 90.26 27.5267 91.42 27.5C92.58 27.4733 93.8333 27.4467 95.18 27.42C96.5267 27.38 97.9133 27.34 99.34 27.3C100.78 27.26 102.22 27.22 103.66 27.18L103.6 28.36C101.773 28.44 99.94 28.52 98.1 28.6C96.26 28.6933 94.5067 28.7667 92.84 28.82C91.1867 28.8867 89.72 28.9467 88.44 29L88.34 27.54ZM100.3 26.1L101.28 25.26C101.827 25.62 102.4 26.0267 103 26.48C103.613 26.92 104.193 27.3533 104.74 27.78C105.287 28.1933 105.74 28.56 106.1 28.88L105.1 29.84C104.74 29.5067 104.287 29.12 103.74 28.68C103.193 28.24 102.62 27.7933 102.02 27.34C101.42 26.8733 100.847 26.46 100.3 26.1ZM92.08 13.92L93.48 14.26C93.0267 15.66 92.36 16.92 91.48 18.04C90.6 19.1467 89.58 20.0533 88.42 20.76C88.38 20.64 88.3133 20.4933 88.22 20.32C88.14 20.1333 88.0533 19.9467 87.96 19.76C87.8667 19.5733 87.78 19.42 87.7 19.3C88.7 18.7533 89.5867 18.02 90.36 17.1C91.1333 16.18 91.7067 15.12 92.08 13.92Z" fill="black"/>
</svg>
