<svg width="113" height="40" viewBox="0 0 113 40" fill="none" xmlns="http://www.w3.org/2000/svg">
<rect x="0.5" y="0.5" width="112" height="39" fill="white"/>
<rect x="0.5" y="0.5" width="112" height="39" stroke="black"/>
<path d="M9.32 17.64H24.7V19.1H9.32V17.64ZM8.04 27.24H25.98V28.7H8.04V27.24ZM16.16 11.26H17.76V28.18H16.16V11.26ZM28.46 12.46H45.62V13.88H28.46V12.46ZM28.08 27.44H45.94V28.84H28.08V27.44ZM40.42 22.92L42.06 23.34C41.7533 24.0067 41.42 24.6867 41.06 25.38C40.7133 26.0733 40.3867 26.6667 40.08 27.16L38.78 26.74C38.9667 26.3933 39.16 26 39.36 25.56C39.5733 25.1067 39.7733 24.6467 39.96 24.18C40.1467 23.7133 40.3 23.2933 40.42 22.92ZM32.26 23.44L33.62 23.06C33.8333 23.4333 34.04 23.8467 34.24 24.3C34.44 24.74 34.6133 25.1733 34.76 25.6C34.92 26.0133 35.02 26.3867 35.06 26.72L33.62 27.14C33.5667 26.82 33.4733 26.4467 33.34 26.02C33.2067 25.5933 33.0467 25.1533 32.86 24.7C32.6733 24.2333 32.4733 23.8133 32.26 23.44ZM32.2 17.36V21.26H41.92V17.36H32.2ZM30.74 16.02H43.44V22.6H30.74V16.02ZM55.18 26.92H64.72V28.36H55.18V26.92ZM55.22 21.06H64.68V22.52H55.22V21.06ZM59.06 11.24H60.52V27.82H59.06V11.24ZM54.34 15.38H65.42V29.42H63.96V16.84H55.76V29.54H54.34V15.38ZM48.86 12.54L49.72 11.44C50.16 11.6267 50.62 11.8467 51.1 12.1C51.5933 12.3533 52.06 12.6133 52.5 12.88C52.9533 13.1333 53.3267 13.3667 53.62 13.58L52.72 14.84C52.4533 14.6133 52.0933 14.3667 51.64 14.1C51.2 13.82 50.7333 13.54 50.24 13.26C49.76 12.98 49.3 12.74 48.86 12.54ZM47.84 18.02L48.66 16.92C49.0867 17.0933 49.5333 17.3 50 17.54C50.48 17.78 50.94 18.0267 51.38 18.28C51.82 18.5333 52.1733 18.7667 52.44 18.98L51.6 20.24C51.3333 20.0133 50.9867 19.7667 50.56 19.5C50.1333 19.2333 49.68 18.9733 49.2 18.72C48.72 18.4533 48.2667 18.22 47.84 18.02ZM48.52 28.32C48.8267 27.8667 49.1733 27.3267 49.56 26.7C49.9467 26.06 50.3333 25.3933 50.72 24.7C51.1067 23.9933 51.4667 23.3067 51.8 22.64L52.94 23.6C52.6333 24.2133 52.3 24.8533 51.94 25.52C51.5933 26.1867 51.24 26.8467 50.88 27.5C50.52 28.14 50.1667 28.74 49.82 29.3L48.52 28.32ZM70.2 11.44H71.48V18.28C71.48 19.6133 71.42 20.9467 71.3 22.28C71.18 23.6 70.92 24.88 70.52 26.12C70.12 27.3467 69.4933 28.5 68.64 29.58C68.5733 29.4733 68.48 29.36 68.36 29.24C68.24 29.12 68.1133 29 67.98 28.88C67.86 28.7733 67.7467 28.6867 67.64 28.62C68.4133 27.62 68.9733 26.5533 69.32 25.42C69.68 24.2867 69.9133 23.12 70.02 21.92C70.14 20.7067 70.2 19.5 70.2 18.3V11.44ZM68.68 15.38L69.68 15.5C69.6533 16.0467 69.6 16.64 69.52 17.28C69.4533 17.92 69.3533 18.54 69.22 19.14C69.0867 19.7267 68.92 20.2533 68.72 20.72L67.74 20.22C67.9267 19.82 68.08 19.3467 68.2 18.8C68.3333 18.24 68.44 17.6667 68.52 17.08C68.6 16.48 68.6533 15.9133 68.68 15.38ZM72.82 14.42L74 14.8C73.8533 15.2667 73.6933 15.7667 73.52 16.3C73.36 16.82 73.2 17.3267 73.04 17.82C72.8933 18.3 72.7467 18.72 72.6 19.08L71.74 18.78C71.8733 18.3933 72.0067 17.94 72.14 17.42C72.2867 16.9 72.42 16.38 72.54 15.86C72.66 15.3267 72.7533 14.8467 72.82 14.42ZM71.14 22.5C71.2467 22.6333 71.4133 22.8667 71.64 23.2C71.88 23.5333 72.1333 23.9 72.4 24.3C72.6667 24.6867 72.9133 25.0533 73.14 25.4C73.3667 25.7333 73.5267 25.9733 73.62 26.12L72.64 27.18C72.52 26.9267 72.3533 26.62 72.14 26.26C71.9267 25.8867 71.7 25.5067 71.46 25.12C71.2333 24.72 71.0067 24.3467 70.78 24C70.5667 23.6533 70.3867 23.38 70.24 23.18L71.14 22.5ZM78.28 16.46L79.08 15.8C79.4533 16.0267 79.8333 16.2867 80.22 16.58C80.6067 16.8733 80.9667 17.1667 81.3 17.46C81.6333 17.7533 81.9 18.0333 82.1 18.3L81.28 19.02C81.08 18.7533 80.8133 18.4733 80.48 18.18C80.16 17.8733 79.8067 17.5667 79.42 17.26C79.0467 16.9533 78.6667 16.6867 78.28 16.46ZM81.46 19.62L82.34 19.3C82.5933 19.7667 82.8267 20.28 83.04 20.84C83.2667 21.3867 83.46 21.92 83.62 22.44C83.7933 22.9467 83.92 23.4 84 23.8L83.04 24.2C82.9867 23.8133 82.88 23.36 82.72 22.84C82.56 22.3067 82.3667 21.76 82.14 21.2C81.9267 20.6267 81.7 20.1 81.46 19.62ZM78.2 18.76H79.26V24.34C79.26 24.5533 79.2867 24.6867 79.34 24.74C79.3933 24.7933 79.5067 24.82 79.68 24.82C79.7333 24.82 79.8333 24.82 79.98 24.82C80.1267 24.82 80.28 24.82 80.44 24.82C80.6 24.82 80.7067 24.82 80.76 24.82C80.8933 24.82 80.9867 24.7733 81.04 24.68C81.0933 24.5867 81.1333 24.3867 81.16 24.08C81.1867 23.7733 81.2067 23.3067 81.22 22.68C81.34 22.7733 81.4933 22.86 81.68 22.94C81.88 23.02 82.06 23.08 82.22 23.12C82.1933 23.84 82.1333 24.4 82.04 24.8C81.96 25.1867 81.8267 25.46 81.64 25.62C81.4667 25.7667 81.22 25.84 80.9 25.84C80.8333 25.84 80.7 25.84 80.5 25.84C80.3133 25.84 80.1267 25.84 79.94 25.84C79.7533 25.84 79.62 25.84 79.54 25.84C79.0067 25.84 78.6467 25.74 78.46 25.54C78.2867 25.34 78.2 24.9467 78.2 24.36V18.76ZM76.72 19.44L77.66 19.68C77.6067 20.2267 77.54 20.8067 77.46 21.42C77.38 22.02 77.2667 22.5933 77.12 23.14C76.9867 23.6867 76.8133 24.1667 76.6 24.58L75.72 24.1C75.92 23.7133 76.08 23.26 76.2 22.74C76.3333 22.22 76.44 21.6733 76.52 21.1C76.6133 20.5267 76.68 19.9733 76.72 19.44ZM78.5 11.98H84.5V13.34H78.5V11.98ZM84.12 11.98H85.5V27.72C85.5 28.1467 85.44 28.4733 85.32 28.7C85.2 28.94 84.9933 29.12 84.7 29.24C84.4067 29.3467 84 29.4133 83.48 29.44C82.9733 29.4667 82.3267 29.48 81.54 29.48C81.5133 29.2933 81.4533 29.0667 81.36 28.8C81.28 28.5333 81.1933 28.3133 81.1 28.14C81.6733 28.1533 82.2067 28.16 82.7 28.16C83.1933 28.1733 83.52 28.1733 83.68 28.16C83.84 28.1467 83.9533 28.1067 84.02 28.04C84.0867 27.9867 84.12 27.88 84.12 27.72V11.98ZM74.6 11.94L75.72 11.34C75.9867 11.7 76.26 12.0933 76.54 12.52C76.82 12.9467 77.08 13.3667 77.32 13.78C77.56 14.18 77.7467 14.5333 77.88 14.84L76.7 15.54C76.5667 15.22 76.38 14.8533 76.14 14.44C75.9133 14.0267 75.6667 13.6 75.4 13.16C75.1333 12.72 74.8667 12.3133 74.6 11.94ZM74.16 15.24H75.48V29.6H74.16V15.24ZM95.56 24.38H103.12V25.7H95.56V24.38ZM88.02 13.5H94.32V14.86H88.02V13.5ZM93.74 13.5H94L94.24 13.44L95.16 13.74C94.8667 15.9533 94.4 17.98 93.76 19.82C93.1333 21.6467 92.38 23.2467 91.5 24.62C90.62 25.9933 89.6533 27.12 88.6 28C88.48 27.8133 88.32 27.6133 88.12 27.4C87.92 27.1733 87.7333 27 87.56 26.88C88.2933 26.32 88.9867 25.6067 89.64 24.74C90.3067 23.86 90.9133 22.8533 91.46 21.72C92.0067 20.5867 92.4733 19.3533 92.86 18.02C93.26 16.6867 93.5533 15.2933 93.74 13.84V13.5ZM88.36 16.98L89.44 16.24C89.9467 16.92 90.46 17.6467 90.98 18.42C91.5133 19.1933 92.0267 19.9733 92.52 20.76C93.0133 21.5467 93.46 22.2933 93.86 23C94.2733 23.7067 94.6067 24.3467 94.86 24.92L93.66 25.84C93.4067 25.28 93.0867 24.6333 92.7 23.9C92.3133 23.1667 91.8733 22.4067 91.38 21.62C90.9 20.82 90.4 20.02 89.88 19.22C89.3733 18.42 88.8667 17.6733 88.36 16.98ZM104.2 21.22H105.62C105.62 21.22 105.62 21.3 105.62 21.46C105.62 21.6067 105.62 21.7333 105.62 21.84C105.553 23.4133 105.48 24.68 105.4 25.64C105.333 26.6 105.247 27.3267 105.14 27.82C105.047 28.3133 104.913 28.6533 104.74 28.84C104.593 29.04 104.413 29.18 104.2 29.26C104 29.34 103.76 29.3933 103.48 29.42C103.24 29.4467 102.893 29.4533 102.44 29.44C102 29.4267 101.54 29.4133 101.06 29.4C101.047 29.2133 101.007 29 100.94 28.76C100.873 28.5333 100.787 28.34 100.68 28.18C101.16 28.2067 101.6 28.2267 102 28.24C102.413 28.2533 102.7 28.26 102.86 28.26C103.033 28.26 103.167 28.2467 103.26 28.22C103.353 28.1933 103.44 28.1333 103.52 28.04C103.64 27.9067 103.74 27.6133 103.82 27.16C103.9 26.7067 103.967 26.02 104.02 25.1C104.087 24.18 104.147 22.9667 104.2 21.46V21.22ZM99.58 11.12L101.16 11.38C100.947 11.82 100.72 12.26 100.48 12.7C100.24 13.1267 100.02 13.4933 99.82 13.8L98.6 13.54C98.7867 13.1933 98.9733 12.7933 99.16 12.34C99.3467 11.8733 99.4867 11.4667 99.58 11.12ZM103.06 13.08H104.44C104.44 13.08 104.44 13.1533 104.44 13.3C104.44 13.4467 104.433 13.5667 104.42 13.66C104.367 14.9267 104.3 15.9533 104.22 16.74C104.153 17.5267 104.073 18.1267 103.98 18.54C103.887 18.9533 103.767 19.2467 103.62 19.42C103.473 19.5933 103.313 19.7133 103.14 19.78C102.967 19.8467 102.76 19.8933 102.52 19.92C102.32 19.9333 102.047 19.94 101.7 19.94C101.367 19.94 101.013 19.9333 100.64 19.92C100.627 19.7333 100.587 19.5267 100.52 19.3C100.467 19.0733 100.393 18.88 100.3 18.72C100.647 18.7467 100.96 18.7667 101.24 18.78C101.533 18.78 101.747 18.78 101.88 18.78C102 18.78 102.107 18.7733 102.2 18.76C102.293 18.7333 102.373 18.68 102.44 18.6C102.533 18.48 102.613 18.24 102.68 17.88C102.76 17.5067 102.827 16.9533 102.88 16.22C102.947 15.4867 103.007 14.5133 103.06 13.3V13.08ZM98.66 15.82L99.52 15.14C99.92 15.4467 100.327 15.8 100.74 16.2C101.167 16.5867 101.493 16.9333 101.72 17.24L100.84 18C100.613 17.6933 100.287 17.3333 99.86 16.92C99.4467 16.5067 99.0467 16.14 98.66 15.82ZM103.8 13.08V14.28H97.64V21.22H104.8V22.42H96.22V13.08H103.8Z" fill="black"/>
</svg>
