<svg width="97" height="40" viewBox="0 0 97 40" fill="none" xmlns="http://www.w3.org/2000/svg">
<rect x="0.5" y="0.5" width="96" height="39" fill="white"/>
<rect x="0.5" y="0.5" width="96" height="39" stroke="black"/>
<path d="M17.86 17.04V20.22H24.9V17.04H17.86ZM16.44 15.72H26.38V21.56H16.44V15.72ZM23.94 23.42L25.12 22.78C25.5067 23.18 25.9 23.62 26.3 24.1C26.7133 24.5667 27.0867 25.0267 27.42 25.48C27.7667 25.92 28.04 26.32 28.24 26.68L26.98 27.46C26.7933 27.0867 26.5267 26.6667 26.18 26.2C25.8467 25.72 25.48 25.24 25.08 24.76C24.6933 24.2667 24.3133 23.82 23.94 23.42ZM14.86 12.5H27.9V13.92H14.86V12.5ZM20.6 10.2H22.08V13.3H20.6V10.2ZM20.6 20.94H22.08V26.94C22.08 27.3267 22.0267 27.6333 21.92 27.86C21.8267 28.0867 21.6333 28.2533 21.34 28.36C21.0467 28.48 20.6733 28.5533 20.22 28.58C19.7667 28.62 19.2 28.64 18.52 28.64C18.48 28.4267 18.4067 28.1867 18.3 27.92C18.1933 27.6533 18.08 27.42 17.96 27.22C18.4933 27.2333 18.9733 27.24 19.4 27.24C19.8267 27.24 20.1067 27.24 20.24 27.24C20.3867 27.2267 20.48 27.1933 20.52 27.14C20.5733 27.1 20.6 27.0267 20.6 26.92V20.94ZM17.04 22.86L18.46 23.26C18.0333 24.06 17.5133 24.8533 16.9 25.64C16.3 26.4267 15.7 27.0867 15.1 27.62C15.02 27.54 14.9067 27.44 14.76 27.32C14.6133 27.2133 14.4667 27.1067 14.32 27C14.1733 26.9067 14.04 26.8267 13.92 26.76C14.52 26.2667 15.1 25.6733 15.66 24.98C16.22 24.2867 16.68 23.58 17.04 22.86ZM10.04 12.48L11.06 11.5C11.46 11.8067 11.8667 12.14 12.28 12.5C12.7067 12.86 13.1 13.2267 13.46 13.6C13.8333 13.9733 14.1267 14.3133 14.34 14.62L13.26 15.72C13.0467 15.4 12.7667 15.0533 12.42 14.68C12.0733 14.2933 11.6867 13.9067 11.26 13.52C10.8467 13.1333 10.44 12.7867 10.04 12.48ZM9.74 25.24C10.1 24.7333 10.4933 24.1333 10.92 23.44C11.36 22.7333 11.8067 21.9867 12.26 21.2C12.7133 20.4133 13.1267 19.6467 13.5 18.9L14.66 19.84C14.3 20.5333 13.9133 21.26 13.5 22.02C13.1 22.7667 12.6867 23.5 12.26 24.22C11.8333 24.9267 11.4267 25.5867 11.04 26.2L9.74 25.24ZM37.54 16.94H47.4V18.34H37.54V16.94ZM36.36 21.32H48.22V22.74H36.36V21.32ZM41.72 10.22H43.18V28.6H41.72V10.22ZM39.16 11.54L40.56 11.88C40.24 12.72 39.8333 13.54 39.34 14.34C38.86 15.14 38.3667 15.82 37.86 16.38C37.7533 16.3 37.62 16.2133 37.46 16.12C37.3133 16.0267 37.16 15.94 37 15.86C36.8533 15.7667 36.72 15.6933 36.6 15.64C37.1333 15.12 37.62 14.5 38.06 13.78C38.5133 13.0467 38.88 12.3 39.16 11.54ZM44.22 12L45.36 11.36C45.72 11.7733 46.0733 12.2333 46.42 12.74C46.78 13.2467 47.1067 13.74 47.4 14.22C47.6933 14.7 47.92 15.1267 48.08 15.5L46.86 16.24C46.7 15.8533 46.4733 15.42 46.18 14.94C45.9 14.4467 45.5867 13.94 45.24 13.42C44.8933 12.9 44.5533 12.4267 44.22 12ZM29.56 20.84C30.4267 20.6 31.46 20.3133 32.66 19.98C33.8733 19.6333 35.0933 19.28 36.32 18.92L36.52 20.26C35.3733 20.62 34.2267 20.98 33.08 21.34C31.9467 21.7 30.9133 22.02 29.98 22.3L29.56 20.84ZM29.84 14.22H36.3V15.64H29.84V14.22ZM32.62 10.2H34.06V26.86C34.06 27.2733 34.0067 27.5933 33.9 27.82C33.7933 28.0467 33.6133 28.22 33.36 28.34C33.0933 28.4467 32.7467 28.5133 32.32 28.54C31.9067 28.58 31.3667 28.6 30.7 28.6C30.6733 28.4133 30.6133 28.1867 30.52 27.92C30.4267 27.6667 30.3333 27.44 30.24 27.24C30.6933 27.2533 31.1067 27.26 31.48 27.26C31.8533 27.26 32.1067 27.2533 32.24 27.24C32.3733 27.24 32.4667 27.2133 32.52 27.16C32.5867 27.1067 32.62 27.0067 32.62 26.86V10.2ZM57.56 23.38H65.12V24.7H57.56V23.38ZM50.02 12.5H56.32V13.86H50.02V12.5ZM55.74 12.5H56L56.24 12.44L57.16 12.74C56.8667 14.9533 56.4 16.98 55.76 18.82C55.1333 20.6467 54.38 22.2467 53.5 23.62C52.62 24.9933 51.6533 26.12 50.6 27C50.48 26.8133 50.32 26.6133 50.12 26.4C49.92 26.1733 49.7333 26 49.56 25.88C50.2933 25.32 50.9867 24.6067 51.64 23.74C52.3067 22.86 52.9133 21.8533 53.46 20.72C54.0067 19.5867 54.4733 18.3533 54.86 17.02C55.26 15.6867 55.5533 14.2933 55.74 12.84V12.5ZM50.36 15.98L51.44 15.24C51.9467 15.92 52.46 16.6467 52.98 17.42C53.5133 18.1933 54.0267 18.9733 54.52 19.76C55.0133 20.5467 55.46 21.2933 55.86 22C56.2733 22.7067 56.6067 23.3467 56.86 23.92L55.66 24.84C55.4067 24.28 55.0867 23.6333 54.7 22.9C54.3133 22.1667 53.8733 21.4067 53.38 20.62C52.9 19.82 52.4 19.02 51.88 18.22C51.3733 17.42 50.8667 16.6733 50.36 15.98ZM66.2 20.22H67.62C67.62 20.22 67.62 20.3 67.62 20.46C67.62 20.6067 67.62 20.7333 67.62 20.84C67.5533 22.4133 67.48 23.68 67.4 24.64C67.3333 25.6 67.2467 26.3267 67.14 26.82C67.0467 27.3133 66.9133 27.6533 66.74 27.84C66.5933 28.04 66.4133 28.18 66.2 28.26C66 28.34 65.76 28.3933 65.48 28.42C65.24 28.4467 64.8933 28.4533 64.44 28.44C64 28.4267 63.54 28.4133 63.06 28.4C63.0467 28.2133 63.0067 28 62.94 27.76C62.8733 27.5333 62.7867 27.34 62.68 27.18C63.16 27.2067 63.6 27.2267 64 27.24C64.4133 27.2533 64.7 27.26 64.86 27.26C65.0333 27.26 65.1667 27.2467 65.26 27.22C65.3533 27.1933 65.44 27.1333 65.52 27.04C65.64 26.9067 65.74 26.6133 65.82 26.16C65.9 25.7067 65.9667 25.02 66.02 24.1C66.0867 23.18 66.1467 21.9667 66.2 20.46V20.22ZM61.58 10.12L63.16 10.38C62.9467 10.82 62.72 11.26 62.48 11.7C62.24 12.1267 62.02 12.4933 61.82 12.8L60.6 12.54C60.7867 12.1933 60.9733 11.7933 61.16 11.34C61.3467 10.8733 61.4867 10.4667 61.58 10.12ZM65.06 12.08H66.44C66.44 12.08 66.44 12.1533 66.44 12.3C66.44 12.4467 66.4333 12.5667 66.42 12.66C66.3667 13.9267 66.3 14.9533 66.22 15.74C66.1533 16.5267 66.0733 17.1267 65.98 17.54C65.8867 17.9533 65.7667 18.2467 65.62 18.42C65.4733 18.5933 65.3133 18.7133 65.14 18.78C64.9667 18.8467 64.76 18.8933 64.52 18.92C64.32 18.9333 64.0467 18.94 63.7 18.94C63.3667 18.94 63.0133 18.9333 62.64 18.92C62.6267 18.7333 62.5867 18.5267 62.52 18.3C62.4667 18.0733 62.3933 17.88 62.3 17.72C62.6467 17.7467 62.96 17.7667 63.24 17.78C63.5333 17.78 63.7467 17.78 63.88 17.78C64 17.78 64.1067 17.7733 64.2 17.76C64.2933 17.7333 64.3733 17.68 64.44 17.6C64.5333 17.48 64.6133 17.24 64.68 16.88C64.76 16.5067 64.8267 15.9533 64.88 15.22C64.9467 14.4867 65.0067 13.5133 65.06 12.3V12.08ZM60.66 14.82L61.52 14.14C61.92 14.4467 62.3267 14.8 62.74 15.2C63.1667 15.5867 63.4933 15.9333 63.72 16.24L62.84 17C62.6133 16.6933 62.2867 16.3333 61.86 15.92C61.4467 15.5067 61.0467 15.14 60.66 14.82ZM65.8 12.08V13.28H59.64V20.22H66.8V21.42H58.22V12.08H65.8ZM82.24 11.72C81.88 12.3333 81.42 12.9733 80.86 13.64C80.3 14.3067 79.68 14.9467 79 15.56C78.3333 16.1733 77.64 16.7133 76.92 17.18C76.84 16.9933 76.72 16.78 76.56 16.54C76.4 16.3 76.2533 16.1 76.12 15.94C76.8533 15.4867 77.56 14.9467 78.24 14.32C78.92 13.6933 79.54 13.0333 80.1 12.34C80.66 11.6333 81.1133 10.9533 81.46 10.3H82.9C83.3667 11.0067 83.9067 11.7133 84.52 12.42C85.1467 13.1133 85.8067 13.7533 86.5 14.34C87.1933 14.9133 87.8733 15.3933 88.54 15.78C88.3933 15.9533 88.24 16.1667 88.08 16.42C87.92 16.6733 87.78 16.9067 87.66 17.12C86.9933 16.68 86.32 16.16 85.64 15.56C84.9733 14.96 84.34 14.3267 83.74 13.66C83.1533 12.9933 82.6533 12.3467 82.24 11.72ZM82.84 15.38L84.12 15.92C83.6933 16.44 83.1933 16.9467 82.62 17.44C82.06 17.9333 81.46 18.3933 80.82 18.82C80.1933 19.2333 79.5733 19.5933 78.96 19.9C78.84 19.7533 78.6933 19.5867 78.52 19.4C78.3467 19.2133 78.1667 19.06 77.98 18.94C78.5667 18.66 79.16 18.3333 79.76 17.96C80.3733 17.5867 80.9467 17.18 81.48 16.74C82.0267 16.2867 82.48 15.8333 82.84 15.38ZM84.28 18.48L85.58 19.04C85.06 19.72 84.44 20.3667 83.72 20.98C83 21.5933 82.2267 22.1533 81.4 22.66C80.5867 23.1667 79.76 23.6067 78.92 23.98C78.8 23.8067 78.6533 23.62 78.48 23.42C78.3067 23.22 78.1333 23.0533 77.96 22.92C78.7467 22.6 79.54 22.2133 80.34 21.76C81.14 21.2933 81.88 20.78 82.56 20.22C83.2533 19.66 83.8267 19.08 84.28 18.48ZM86.22 21.44L87.56 22.02C86.92 23.06 86.1133 24 85.14 24.84C84.18 25.68 83.0933 26.4133 81.88 27.04C80.6667 27.68 79.3733 28.2067 78 28.62C77.9067 28.4333 77.7733 28.2133 77.6 27.96C77.4267 27.72 77.2467 27.5133 77.06 27.34C78.38 26.9933 79.6267 26.54 80.8 25.98C81.9733 25.4067 83.02 24.7467 83.94 24C84.8733 23.24 85.6333 22.3867 86.22 21.44ZM71.66 11.16H75.78V12.52H71.66V11.16ZM71.72 15.84H75.66V17.22H71.72V15.84ZM71.7 20.64H75.68V22.04H71.7V20.64ZM71.06 11.16H72.38V18.3C72.38 19.06 72.36 19.8933 72.32 20.8C72.2933 21.6933 72.2267 22.6133 72.12 23.56C72.0133 24.4933 71.8533 25.4 71.64 26.28C71.44 27.16 71.1733 27.9667 70.84 28.7C70.7467 28.6333 70.6267 28.5533 70.48 28.46C70.3333 28.3667 70.18 28.28 70.02 28.2C69.8733 28.12 69.74 28.06 69.62 28.02C69.9533 27.3133 70.2133 26.5533 70.4 25.74C70.6 24.9133 70.74 24.0667 70.82 23.2C70.9133 22.3333 70.9733 21.4867 71 20.66C71.04 19.82 71.06 19.0333 71.06 18.3V11.16ZM75.04 11.16H76.42V26.88C76.42 27.2667 76.3733 27.58 76.28 27.82C76.1867 28.06 76.0133 28.2333 75.76 28.34C75.52 28.46 75.1933 28.5333 74.78 28.56C74.38 28.6 73.8533 28.62 73.2 28.62C73.1867 28.4867 73.16 28.3333 73.12 28.16C73.08 28 73.0267 27.8333 72.96 27.66C72.9067 27.4867 72.8467 27.3333 72.78 27.2C73.22 27.2133 73.62 27.22 73.98 27.22C74.34 27.22 74.58 27.22 74.7 27.22C74.9267 27.22 75.04 27.0933 75.04 26.84V11.16Z" fill="black"/>
</svg>
