<svg width="113" height="40" viewBox="0 0 113 40" fill="none" xmlns="http://www.w3.org/2000/svg">
<rect x="0.5" y="0.5" width="112" height="39" fill="white"/>
<rect x="0.5" y="0.5" width="112" height="39" stroke="black"/>
<path d="M9.32 17.64H24.7V19.1H9.32V17.64ZM8.04 27.24H25.98V28.7H8.04V27.24ZM16.16 11.26H17.76V28.18H16.16V11.26ZM28.46 12.46H45.62V13.88H28.46V12.46ZM28.08 27.44H45.94V28.84H28.08V27.44ZM40.42 22.92L42.06 23.34C41.7533 24.0067 41.42 24.6867 41.06 25.38C40.7133 26.0733 40.3867 26.6667 40.08 27.16L38.78 26.74C38.9667 26.3933 39.16 26 39.36 25.56C39.5733 25.1067 39.7733 24.6467 39.96 24.18C40.1467 23.7133 40.3 23.2933 40.42 22.92ZM32.26 23.44L33.62 23.06C33.8333 23.4333 34.04 23.8467 34.24 24.3C34.44 24.74 34.6133 25.1733 34.76 25.6C34.92 26.0133 35.02 26.3867 35.06 26.72L33.62 27.14C33.5667 26.82 33.4733 26.4467 33.34 26.02C33.2067 25.5933 33.0467 25.1533 32.86 24.7C32.6733 24.2333 32.4733 23.8133 32.26 23.44ZM32.2 17.36V21.26H41.92V17.36H32.2ZM30.74 16.02H43.44V22.6H30.74V16.02ZM55.56 24.38H63.12V25.7H55.56V24.38ZM48.02 13.5H54.32V14.86H48.02V13.5ZM53.74 13.5H54L54.24 13.44L55.16 13.74C54.8667 15.9533 54.4 17.98 53.76 19.82C53.1333 21.6467 52.38 23.2467 51.5 24.62C50.62 25.9933 49.6533 27.12 48.6 28C48.48 27.8133 48.32 27.6133 48.12 27.4C47.92 27.1733 47.7333 27 47.56 26.88C48.2933 26.32 48.9867 25.6067 49.64 24.74C50.3067 23.86 50.9133 22.8533 51.46 21.72C52.0067 20.5867 52.4733 19.3533 52.86 18.02C53.26 16.6867 53.5533 15.2933 53.74 13.84V13.5ZM48.36 16.98L49.44 16.24C49.9467 16.92 50.46 17.6467 50.98 18.42C51.5133 19.1933 52.0267 19.9733 52.52 20.76C53.0133 21.5467 53.46 22.2933 53.86 23C54.2733 23.7067 54.6067 24.3467 54.86 24.92L53.66 25.84C53.4067 25.28 53.0867 24.6333 52.7 23.9C52.3133 23.1667 51.8733 22.4067 51.38 21.62C50.9 20.82 50.4 20.02 49.88 19.22C49.3733 18.42 48.8667 17.6733 48.36 16.98ZM64.2 21.22H65.62C65.62 21.22 65.62 21.3 65.62 21.46C65.62 21.6067 65.62 21.7333 65.62 21.84C65.5533 23.4133 65.48 24.68 65.4 25.64C65.3333 26.6 65.2467 27.3267 65.14 27.82C65.0467 28.3133 64.9133 28.6533 64.74 28.84C64.5933 29.04 64.4133 29.18 64.2 29.26C64 29.34 63.76 29.3933 63.48 29.42C63.24 29.4467 62.8933 29.4533 62.44 29.44C62 29.4267 61.54 29.4133 61.06 29.4C61.0467 29.2133 61.0067 29 60.94 28.76C60.8733 28.5333 60.7867 28.34 60.68 28.18C61.16 28.2067 61.6 28.2267 62 28.24C62.4133 28.2533 62.7 28.26 62.86 28.26C63.0333 28.26 63.1667 28.2467 63.26 28.22C63.3533 28.1933 63.44 28.1333 63.52 28.04C63.64 27.9067 63.74 27.6133 63.82 27.16C63.9 26.7067 63.9667 26.02 64.02 25.1C64.0867 24.18 64.1467 22.9667 64.2 21.46V21.22ZM59.58 11.12L61.16 11.38C60.9467 11.82 60.72 12.26 60.48 12.7C60.24 13.1267 60.02 13.4933 59.82 13.8L58.6 13.54C58.7867 13.1933 58.9733 12.7933 59.16 12.34C59.3467 11.8733 59.4867 11.4667 59.58 11.12ZM63.06 13.08H64.44C64.44 13.08 64.44 13.1533 64.44 13.3C64.44 13.4467 64.4333 13.5667 64.42 13.66C64.3667 14.9267 64.3 15.9533 64.22 16.74C64.1533 17.5267 64.0733 18.1267 63.98 18.54C63.8867 18.9533 63.7667 19.2467 63.62 19.42C63.4733 19.5933 63.3133 19.7133 63.14 19.78C62.9667 19.8467 62.76 19.8933 62.52 19.92C62.32 19.9333 62.0467 19.94 61.7 19.94C61.3667 19.94 61.0133 19.9333 60.64 19.92C60.6267 19.7333 60.5867 19.5267 60.52 19.3C60.4667 19.0733 60.3933 18.88 60.3 18.72C60.6467 18.7467 60.96 18.7667 61.24 18.78C61.5333 18.78 61.7467 18.78 61.88 18.78C62 18.78 62.1067 18.7733 62.2 18.76C62.2933 18.7333 62.3733 18.68 62.44 18.6C62.5333 18.48 62.6133 18.24 62.68 17.88C62.76 17.5067 62.8267 16.9533 62.88 16.22C62.9467 15.4867 63.0067 14.5133 63.06 13.3V13.08ZM58.66 15.82L59.52 15.14C59.92 15.4467 60.3267 15.8 60.74 16.2C61.1667 16.5867 61.4933 16.9333 61.72 17.24L60.84 18C60.6133 17.6933 60.2867 17.3333 59.86 16.92C59.4467 16.5067 59.0467 16.14 58.66 15.82ZM63.8 13.08V14.28H57.64V21.22H64.8V22.42H56.22V13.08H63.8ZM75.9 14.22H77.38V29.18H75.9V14.22ZM82.92 11.8L84.3 12.9C83.4467 13.1533 82.5 13.3867 81.46 13.6C80.4333 13.8133 79.3467 14.0133 78.2 14.2C77.0667 14.3733 75.92 14.54 74.76 14.7C73.6 14.8467 72.4667 14.9733 71.36 15.08C71.3467 14.96 71.3133 14.8267 71.26 14.68C71.2067 14.52 71.1467 14.3667 71.08 14.22C71.0267 14.06 70.9733 13.9333 70.92 13.84C71.9867 13.7333 73.08 13.6067 74.2 13.46C75.3333 13.3 76.4333 13.1333 77.5 12.96C78.58 12.7867 79.58 12.6067 80.5 12.42C81.4333 12.22 82.24 12.0133 82.92 11.8ZM70.38 13.42L72.26 13.88C72.2333 14.0267 72.0933 14.1133 71.84 14.14V18.28C71.84 19.0933 71.8 19.9867 71.72 20.96C71.6533 21.9333 71.52 22.9333 71.32 23.96C71.12 24.9733 70.8133 25.9733 70.4 26.96C69.9867 27.9333 69.44 28.84 68.76 29.68C68.6933 29.56 68.5933 29.4333 68.46 29.3C68.3267 29.18 68.1867 29.06 68.04 28.94C67.8933 28.8333 67.76 28.7533 67.64 28.7C68.2533 27.9267 68.7467 27.1 69.12 26.22C69.4933 25.3267 69.7667 24.42 69.94 23.5C70.1133 22.58 70.2267 21.6733 70.28 20.78C70.3467 19.8867 70.38 19.0533 70.38 18.28V13.42ZM82.78 12.84C82.8467 14.5333 82.9467 16.1667 83.08 17.74C83.2133 19.3133 83.4067 20.78 83.66 22.14C83.9267 23.4867 84.2733 24.6933 84.7 25.76C85.1267 26.8133 85.6733 27.68 86.34 28.36C86.22 28.44 86.0867 28.5533 85.94 28.7C85.7933 28.86 85.6533 29.02 85.52 29.18C85.4 29.34 85.3 29.4867 85.22 29.62C84.2733 28.5667 83.54 27.2133 83.02 25.56C82.5133 23.9067 82.14 22.0067 81.9 19.86C81.66 17.7133 81.4867 15.4 81.38 12.92L82.78 12.84ZM97.54 22.96C98.1533 24.48 99.1867 25.6667 100.64 26.52C102.093 27.3733 103.953 27.92 106.22 28.16C106.06 28.32 105.893 28.5267 105.72 28.78C105.56 29.0467 105.433 29.2867 105.34 29.5C103.767 29.26 102.387 28.88 101.2 28.36C100.013 27.84 99.0133 27.1533 98.2 26.3C97.3867 25.4467 96.74 24.4133 96.26 23.2L97.54 22.96ZM96.36 21.7H97.94C97.78 22.4867 97.5667 23.2267 97.3 23.92C97.0467 24.6133 96.7 25.26 96.26 25.86C95.82 26.4467 95.2533 26.98 94.56 27.46C93.88 27.9267 93.0467 28.34 92.06 28.7C91.0733 29.06 89.8933 29.36 88.52 29.6C88.4667 29.4133 88.3667 29.1933 88.22 28.94C88.0733 28.6867 87.9333 28.4867 87.8 28.34C89.08 28.14 90.18 27.8867 91.1 27.58C92.02 27.2733 92.7867 26.92 93.4 26.52C94.0267 26.1067 94.5333 25.6533 94.92 25.16C95.3067 24.6667 95.6133 24.1333 95.84 23.56C96.0667 22.9733 96.24 22.3533 96.36 21.7ZM92.32 22.38L93.5 22.94C93.1933 23.5267 92.8133 24.1467 92.36 24.8C91.92 25.4533 91.42 26.0133 90.86 26.48L89.7 25.68C90.2467 25.2667 90.7467 24.7533 91.2 24.14C91.6667 23.5267 92.04 22.94 92.32 22.38ZM102.64 22.3L103.94 23C103.527 23.5733 103.067 24.1533 102.56 24.74C102.067 25.3133 101.613 25.8133 101.2 26.24L100.12 25.62C100.4 25.3267 100.693 24.9867 101 24.6C101.32 24.2133 101.62 23.82 101.9 23.42C102.193 23.0067 102.44 22.6333 102.64 22.3ZM98.6 14.98H100.02V21.98H98.6V14.98ZM96 12.88V14.56H102.64V12.88H96ZM94.58 11.84H104.12V15.6H94.58V11.84ZM91.88 11.18L93.24 11.62C92.9067 12.3267 92.4933 13.0467 92 13.78C91.5067 14.5 90.9667 15.1867 90.38 15.84C89.7933 16.48 89.18 17.0467 88.54 17.54C88.4867 17.4467 88.4067 17.3333 88.3 17.2C88.2067 17.0533 88.1067 16.9133 88 16.78C87.9067 16.6333 87.8133 16.52 87.72 16.44C88.3067 16 88.8667 15.4933 89.4 14.92C89.9467 14.3333 90.4333 13.72 90.86 13.08C91.2867 12.4267 91.6267 11.7933 91.88 11.18ZM92.92 17.02H105.9V18.14H92.92V17.02ZM90.4 14.38L91.46 13.32L91.84 13.44V22.12H90.4V14.38ZM97.82 17.62L99.06 18.1C98.58 18.5933 98.0267 19.08 97.4 19.56C96.7867 20.0267 96.14 20.4667 95.46 20.88C94.7933 21.28 94.1467 21.6333 93.52 21.94C93.4533 21.8467 93.36 21.74 93.24 21.62C93.12 21.5 92.9933 21.38 92.86 21.26C92.74 21.14 92.6267 21.0467 92.52 20.98C93.16 20.7 93.8067 20.3867 94.46 20.04C95.1133 19.68 95.7333 19.2933 96.32 18.88C96.9067 18.4667 97.4067 18.0467 97.82 17.62ZM100.3 19L101.14 18.16C101.687 18.4133 102.26 18.7067 102.86 19.04C103.473 19.36 104.047 19.6867 104.58 20.02C105.127 20.3533 105.573 20.66 105.92 20.94L105.06 21.88C104.713 21.6 104.273 21.2867 103.74 20.94C103.207 20.5933 102.64 20.2467 102.04 19.9C101.44 19.5533 100.86 19.2533 100.3 19Z" fill="black"/>
</svg>
