<svg width="97" height="40" viewBox="0 0 97 40" fill="none" xmlns="http://www.w3.org/2000/svg">
<rect x="0.5" y="0.5" width="96" height="39" fill="white"/>
<rect x="0.5" y="0.5" width="96" height="39" stroke="black"/>
<path d="M9.92 21.1H28.1V22.36H9.92V21.1ZM10.1 18.08H27.92V19.34H10.1V18.08ZM10.78 12.7H27.28V13.94H10.78V12.7ZM11.72 15.4H26.26V16.62H11.72V15.4ZM16.82 18.96L18.3 19.36C17.86 20.0533 17.3733 20.7867 16.84 21.56C16.32 22.32 15.8 23.0667 15.28 23.8C14.76 24.52 14.2867 25.1533 13.86 25.7L12.44 25.2C12.8667 24.6667 13.34 24.04 13.86 23.32C14.3933 22.6 14.92 21.86 15.44 21.1C15.96 20.3267 16.42 19.6133 16.82 18.96ZM22.82 21.54L24.28 21.96C23.84 23.0667 23.2333 24.02 22.46 24.82C21.7 25.6067 20.76 26.26 19.64 26.78C18.5333 27.2867 17.2333 27.6867 15.74 27.98C14.2467 28.2733 12.5533 28.4867 10.66 28.62C10.62 28.4067 10.54 28.1733 10.42 27.92C10.3133 27.68 10.2 27.4667 10.08 27.28C12.48 27.16 14.5267 26.9 16.22 26.5C17.9267 26.1 19.32 25.5 20.4 24.7C21.48 23.9 22.2867 22.8467 22.82 21.54ZM13.56 25.06L14.32 23.94C15.9733 24.22 17.6133 24.5533 19.24 24.94C20.8667 25.3267 22.3933 25.7267 23.82 26.14C25.2467 26.5533 26.4733 26.9667 27.5 27.38L26.58 28.62C25.5667 28.1933 24.3667 27.7667 22.98 27.34C21.6067 26.9133 20.1133 26.5067 18.5 26.12C16.9 25.7333 15.2533 25.38 13.56 25.06ZM18.18 13.36H19.68V18.86H18.18V13.36ZM22.66 10.18L24.12 10.64C23.84 11.0667 23.5467 11.4933 23.24 11.92C22.9467 12.3333 22.6667 12.6867 22.4 12.98L21.14 12.56C21.3933 12.24 21.66 11.8533 21.94 11.4C22.2333 10.9333 22.4733 10.5267 22.66 10.18ZM13.82 10.72L15.04 10.22C15.3733 10.5533 15.6933 10.9333 16 11.36C16.32 11.7867 16.5467 12.16 16.68 12.48L15.4 13.06C15.2667 12.7267 15.0467 12.34 14.74 11.9C14.4467 11.46 14.14 11.0667 13.82 10.72ZM33.22 10.18H34.66V13.4H33.22V10.18ZM42.16 10.18H43.62V28.62H42.16V10.18ZM30.14 12.8H37.64V14.08H30.14V12.8ZM38 12.54H48.06V13.88H38V12.54ZM29.88 18.24H37.84V19.5H29.88V18.24ZM31.14 14.7L32.26 14.38C32.4733 14.9 32.6467 15.4733 32.78 16.1C32.9133 16.7133 32.9933 17.24 33.02 17.68L31.82 18.04C31.7933 17.6 31.72 17.0667 31.6 16.44C31.48 15.8 31.3267 15.22 31.14 14.7ZM35.56 14.28L36.92 14.62C36.7067 15.2067 36.48 15.8267 36.24 16.48C36 17.12 35.78 17.66 35.58 18.1L34.5 17.78C34.6333 17.46 34.7667 17.1 34.9 16.7C35.0333 16.2867 35.16 15.8667 35.28 15.44C35.4 15.0133 35.4933 14.6267 35.56 14.28ZM29.8 22.58C30.48 22.4733 31.2533 22.3467 32.12 22.2C33 22.04 33.9267 21.8733 34.9 21.7C35.8733 21.5133 36.8467 21.3333 37.82 21.16L37.9 22.4C36.5267 22.6667 35.16 22.94 33.8 23.22C32.44 23.4867 31.22 23.7267 30.14 23.94L29.8 22.58ZM39.74 17V20.02H46.28V17H39.74ZM38.4 15.8H47.68V21.2H38.4V15.8ZM43.9 20.72C44.2467 21.4267 44.6733 22.1467 45.18 22.88C45.6867 23.6 46.2333 24.2733 46.82 24.9C47.42 25.5133 48 26.0133 48.56 26.4C48.4133 26.5333 48.2333 26.7133 48.02 26.94C47.82 27.1533 47.66 27.3533 47.54 27.54C46.9667 27.0733 46.3867 26.4933 45.8 25.8C45.2267 25.0933 44.68 24.3333 44.16 23.52C43.6533 22.7067 43.2133 21.9 42.84 21.1L43.9 20.72ZM41.84 20.74L43.02 21.2C42.6067 22.08 42.0933 22.9333 41.48 23.76C40.88 24.5867 40.22 25.3467 39.5 26.04C38.7933 26.72 38.08 27.28 37.36 27.72C37.28 27.6133 37.18 27.4867 37.06 27.34C36.94 27.2067 36.82 27.0733 36.7 26.94C36.58 26.8067 36.46 26.6933 36.34 26.6C37.06 26.2267 37.7667 25.7333 38.46 25.12C39.1667 24.4933 39.8133 23.8067 40.4 23.06C40.9867 22.3 41.4667 21.5267 41.84 20.74ZM33.22 18.74H34.66V22.1C34.66 22.6067 34.62 23.1533 34.54 23.74C34.46 24.3133 34.3067 24.8933 34.08 25.48C33.8667 26.0667 33.5533 26.6267 33.14 27.16C32.74 27.7067 32.2067 28.2 31.54 28.64C31.4867 28.5467 31.4 28.4333 31.28 28.3C31.1733 28.1667 31.06 28.04 30.94 27.92C30.82 27.8 30.7 27.7 30.58 27.62C31.1933 27.26 31.6733 26.8533 32.02 26.4C32.3667 25.9333 32.6267 25.4467 32.8 24.94C32.9733 24.4333 33.0867 23.94 33.14 23.46C33.1933 22.9667 33.22 22.5067 33.22 22.08V18.74ZM57.56 23.38H65.12V24.7H57.56V23.38ZM50.02 12.5H56.32V13.86H50.02V12.5ZM55.74 12.5H56L56.24 12.44L57.16 12.74C56.8667 14.9533 56.4 16.98 55.76 18.82C55.1333 20.6467 54.38 22.2467 53.5 23.62C52.62 24.9933 51.6533 26.12 50.6 27C50.48 26.8133 50.32 26.6133 50.12 26.4C49.92 26.1733 49.7333 26 49.56 25.88C50.2933 25.32 50.9867 24.6067 51.64 23.74C52.3067 22.86 52.9133 21.8533 53.46 20.72C54.0067 19.5867 54.4733 18.3533 54.86 17.02C55.26 15.6867 55.5533 14.2933 55.74 12.84V12.5ZM50.36 15.98L51.44 15.24C51.9467 15.92 52.46 16.6467 52.98 17.42C53.5133 18.1933 54.0267 18.9733 54.52 19.76C55.0133 20.5467 55.46 21.2933 55.86 22C56.2733 22.7067 56.6067 23.3467 56.86 23.92L55.66 24.84C55.4067 24.28 55.0867 23.6333 54.7 22.9C54.3133 22.1667 53.8733 21.4067 53.38 20.62C52.9 19.82 52.4 19.02 51.88 18.22C51.3733 17.42 50.8667 16.6733 50.36 15.98ZM66.2 20.22H67.62C67.62 20.22 67.62 20.3 67.62 20.46C67.62 20.6067 67.62 20.7333 67.62 20.84C67.5533 22.4133 67.48 23.68 67.4 24.64C67.3333 25.6 67.2467 26.3267 67.14 26.82C67.0467 27.3133 66.9133 27.6533 66.74 27.84C66.5933 28.04 66.4133 28.18 66.2 28.26C66 28.34 65.76 28.3933 65.48 28.42C65.24 28.4467 64.8933 28.4533 64.44 28.44C64 28.4267 63.54 28.4133 63.06 28.4C63.0467 28.2133 63.0067 28 62.94 27.76C62.8733 27.5333 62.7867 27.34 62.68 27.18C63.16 27.2067 63.6 27.2267 64 27.24C64.4133 27.2533 64.7 27.26 64.86 27.26C65.0333 27.26 65.1667 27.2467 65.26 27.22C65.3533 27.1933 65.44 27.1333 65.52 27.04C65.64 26.9067 65.74 26.6133 65.82 26.16C65.9 25.7067 65.9667 25.02 66.02 24.1C66.0867 23.18 66.1467 21.9667 66.2 20.46V20.22ZM61.58 10.12L63.16 10.38C62.9467 10.82 62.72 11.26 62.48 11.7C62.24 12.1267 62.02 12.4933 61.82 12.8L60.6 12.54C60.7867 12.1933 60.9733 11.7933 61.16 11.34C61.3467 10.8733 61.4867 10.4667 61.58 10.12ZM65.06 12.08H66.44C66.44 12.08 66.44 12.1533 66.44 12.3C66.44 12.4467 66.4333 12.5667 66.42 12.66C66.3667 13.9267 66.3 14.9533 66.22 15.74C66.1533 16.5267 66.0733 17.1267 65.98 17.54C65.8867 17.9533 65.7667 18.2467 65.62 18.42C65.4733 18.5933 65.3133 18.7133 65.14 18.78C64.9667 18.8467 64.76 18.8933 64.52 18.92C64.32 18.9333 64.0467 18.94 63.7 18.94C63.3667 18.94 63.0133 18.9333 62.64 18.92C62.6267 18.7333 62.5867 18.5267 62.52 18.3C62.4667 18.0733 62.3933 17.88 62.3 17.72C62.6467 17.7467 62.96 17.7667 63.24 17.78C63.5333 17.78 63.7467 17.78 63.88 17.78C64 17.78 64.1067 17.7733 64.2 17.76C64.2933 17.7333 64.3733 17.68 64.44 17.6C64.5333 17.48 64.6133 17.24 64.68 16.88C64.76 16.5067 64.8267 15.9533 64.88 15.22C64.9467 14.4867 65.0067 13.5133 65.06 12.3V12.08ZM60.66 14.82L61.52 14.14C61.92 14.4467 62.3267 14.8 62.74 15.2C63.1667 15.5867 63.4933 15.9333 63.72 16.24L62.84 17C62.6133 16.6933 62.2867 16.3333 61.86 15.92C61.4467 15.5067 61.0467 15.14 60.66 14.82ZM65.8 12.08V13.28H59.64V20.22H66.8V21.42H58.22V12.08H65.8ZM70.2 12.04H87.78V13.58H70.2V12.04ZM78.74 12.68H80.46V26.14C80.46 26.74 80.3667 27.1867 80.18 27.48C79.9933 27.7733 79.6867 27.9867 79.26 28.12C78.82 28.2533 78.2133 28.3333 77.44 28.36C76.68 28.4 75.7267 28.42 74.58 28.42C74.54 28.2467 74.48 28.06 74.4 27.86C74.32 27.66 74.2333 27.4533 74.14 27.24C74.0467 27.04 73.9467 26.86 73.84 26.7C74.48 26.7133 75.0867 26.7267 75.66 26.74C76.2333 26.7533 76.7333 26.76 77.16 26.76C77.5867 26.76 77.8867 26.7533 78.06 26.74C78.3133 26.7267 78.4867 26.68 78.58 26.6C78.6867 26.52 78.74 26.3667 78.74 26.14V12.68Z" fill="black"/>
</svg>
