<svg width="113" height="40" viewBox="0 0 113 40" fill="none" xmlns="http://www.w3.org/2000/svg">
<rect x="0.5" y="0.5" width="112" height="39" fill="white"/>
<rect x="0.5" y="0.5" width="112" height="39" stroke="black"/>
<path d="M14.32 12H25.28V13.24H14.32V12ZM13.78 14.56H25.84V17.76H24.58V15.78H15.02V17.76H13.78V14.56ZM15.4 17.04H18.4V18.04H15.4V17.04ZM21.04 17.08H24.08V18.08H21.04V17.08ZM21.04 19.36H24.7V20.38H21.04V19.36ZM14.82 19.36H18.38V20.38H14.82V19.36ZM19.1 12.28H20.42V21.04H19.1V12.28ZM19.06 22.2H20.42V28.32H19.06V22.2ZM14.48 21.84H25.3V29.52H23.86V23.04H15.86V29.6H14.48V21.84ZM15.3 24.72H24.56V25.82H15.3V24.72ZM15.26 27.58H24.5V28.78H15.26V27.58ZM7.54 21.54C8.3 21.3267 9.22 21.0533 10.3 20.72C11.38 20.3867 12.4733 20.04 13.58 19.68L13.78 21.04C12.7667 21.3867 11.7467 21.7333 10.72 22.08C9.69333 22.4133 8.76 22.7133 7.92 22.98L7.54 21.54ZM7.84 15.24H13.5V16.64H7.84V15.24ZM10.16 11.2H11.52V27.88C11.52 28.28 11.4667 28.5867 11.36 28.8C11.2667 29.0267 11.0933 29.2067 10.84 29.34C10.6 29.4467 10.28 29.52 9.88 29.56C9.49333 29.6 8.98 29.6133 8.34 29.6C8.32667 29.4267 8.28 29.2067 8.2 28.94C8.12 28.6733 8.02667 28.44 7.92 28.24C8.36 28.2533 8.75333 28.26 9.1 28.26C9.44667 28.26 9.68 28.2533 9.8 28.24C9.93333 28.24 10.0267 28.2133 10.08 28.16C10.1333 28.12 10.16 28.0267 10.16 27.88V11.2ZM31.22 11.18H32.66V14.4H31.22V11.18ZM40.16 11.18H41.62V29.62H40.16V11.18ZM28.14 13.8H35.64V15.08H28.14V13.8ZM36 13.54H46.06V14.88H36V13.54ZM27.88 19.24H35.84V20.5H27.88V19.24ZM29.14 15.7L30.26 15.38C30.4733 15.9 30.6467 16.4733 30.78 17.1C30.9133 17.7133 30.9933 18.24 31.02 18.68L29.82 19.04C29.7933 18.6 29.72 18.0667 29.6 17.44C29.48 16.8 29.3267 16.22 29.14 15.7ZM33.56 15.28L34.92 15.62C34.7067 16.2067 34.48 16.8267 34.24 17.48C34 18.12 33.78 18.66 33.58 19.1L32.5 18.78C32.6333 18.46 32.7667 18.1 32.9 17.7C33.0333 17.2867 33.16 16.8667 33.28 16.44C33.4 16.0133 33.4933 15.6267 33.56 15.28ZM27.8 23.58C28.48 23.4733 29.2533 23.3467 30.12 23.2C31 23.04 31.9267 22.8733 32.9 22.7C33.8733 22.5133 34.8467 22.3333 35.82 22.16L35.9 23.4C34.5267 23.6667 33.16 23.94 31.8 24.22C30.44 24.4867 29.22 24.7267 28.14 24.94L27.8 23.58ZM37.74 18V21.02H44.28V18H37.74ZM36.4 16.8H45.68V22.2H36.4V16.8ZM41.9 21.72C42.2467 22.4267 42.6733 23.1467 43.18 23.88C43.6867 24.6 44.2333 25.2733 44.82 25.9C45.42 26.5133 46 27.0133 46.56 27.4C46.4133 27.5333 46.2333 27.7133 46.02 27.94C45.82 28.1533 45.66 28.3533 45.54 28.54C44.9667 28.0733 44.3867 27.4933 43.8 26.8C43.2267 26.0933 42.68 25.3333 42.16 24.52C41.6533 23.7067 41.2133 22.9 40.84 22.1L41.9 21.72ZM39.84 21.74L41.02 22.2C40.6067 23.08 40.0933 23.9333 39.48 24.76C38.88 25.5867 38.22 26.3467 37.5 27.04C36.7933 27.72 36.08 28.28 35.36 28.72C35.28 28.6133 35.18 28.4867 35.06 28.34C34.94 28.2067 34.82 28.0733 34.7 27.94C34.58 27.8067 34.46 27.6933 34.34 27.6C35.06 27.2267 35.7667 26.7333 36.46 26.12C37.1667 25.4933 37.8133 24.8067 38.4 24.06C38.9867 23.3 39.4667 22.5267 39.84 21.74ZM31.22 19.74H32.66V23.1C32.66 23.6067 32.62 24.1533 32.54 24.74C32.46 25.3133 32.3067 25.8933 32.08 26.48C31.8667 27.0667 31.5533 27.6267 31.14 28.16C30.74 28.7067 30.2067 29.2 29.54 29.64C29.4867 29.5467 29.4 29.4333 29.28 29.3C29.1733 29.1667 29.06 29.04 28.94 28.92C28.82 28.8 28.7 28.7 28.58 28.62C29.1933 28.26 29.6733 27.8533 30.02 27.4C30.3667 26.9333 30.6267 26.4467 30.8 25.94C30.9733 25.4333 31.0867 24.94 31.14 24.46C31.1933 23.9667 31.22 23.5067 31.22 23.08V19.74ZM59.88 12.64H65.14V13.96H59.88V12.64ZM56.58 14.02H59.62V15.28H56.58V14.02ZM53.38 17.94H60.16V19.24H53.38V17.94ZM55.96 11.22H57.34V18.86H55.96V11.22ZM56.2 18.82H57.54V28.06C57.54 28.4067 57.5 28.68 57.42 28.88C57.34 29.0933 57.18 29.26 56.94 29.38C56.7133 29.4733 56.4067 29.5333 56.02 29.56C55.6467 29.5867 55.1933 29.6 54.66 29.6C54.6333 29.4133 54.5733 29.1933 54.48 28.94C54.4 28.7 54.3133 28.4933 54.22 28.32C54.62 28.3333 54.9733 28.34 55.28 28.34C55.6 28.34 55.82 28.3333 55.94 28.32C56.0467 28.32 56.1133 28.3 56.14 28.26C56.18 28.22 56.2 28.1467 56.2 28.04V18.82ZM64.64 12.64H64.86L65.1 12.6L65.94 12.76C65.78 15.6933 65.4333 18.2533 64.9 20.44C64.3667 22.6267 63.66 24.4733 62.78 25.98C61.9133 27.4733 60.8733 28.6733 59.66 29.58C59.5533 29.4067 59.4067 29.2067 59.22 28.98C59.0467 28.7533 58.8733 28.5733 58.7 28.44C59.82 27.6933 60.7933 26.6133 61.62 25.2C62.4467 23.7867 63.1133 22.0533 63.62 20C64.14 17.9467 64.48 15.6 64.64 12.96V12.64ZM54.24 21.04L55.44 21.3C55.3333 21.8733 55.1933 22.4933 55.02 23.16C54.86 23.8133 54.6667 24.4533 54.44 25.08C54.2267 25.6933 53.98 26.2467 53.7 26.74C53.58 26.6467 53.42 26.54 53.22 26.42C53.0333 26.3 52.8667 26.2067 52.72 26.14C52.9867 25.6867 53.22 25.1667 53.42 24.58C53.62 23.98 53.7867 23.3733 53.92 22.76C54.0533 22.1333 54.16 21.56 54.24 21.04ZM58.26 21.42L59.32 21.04C59.52 21.5067 59.7133 22.0067 59.9 22.54C60.0867 23.0733 60.2533 23.5867 60.4 24.08C60.5467 24.56 60.6533 24.98 60.72 25.34L59.6 25.8C59.5333 25.4267 59.4267 24.9867 59.28 24.48C59.1467 23.9733 58.9933 23.4533 58.82 22.92C58.6467 22.3733 58.46 21.8733 58.26 21.42ZM61.62 14.26C61.7667 15.82 61.96 17.3267 62.2 18.78C62.44 20.22 62.7533 21.56 63.14 22.8C63.5267 24.04 63.9933 25.1467 64.54 26.12C65.1 27.0933 65.7667 27.8867 66.54 28.5C66.4333 28.58 66.3133 28.6867 66.18 28.82C66.06 28.9533 65.94 29.0867 65.82 29.22C65.7133 29.3667 65.62 29.5 65.54 29.62C64.46 28.6733 63.58 27.44 62.9 25.92C62.22 24.4 61.6867 22.66 61.3 20.7C60.9133 18.74 60.6133 16.64 60.4 14.4L61.62 14.26ZM48.04 15.54H53.54V16.94H48.04V15.54ZM50.38 11.2H51.72V29.58H50.38V11.2ZM50.38 16.38L51.24 16.64C51.1067 17.4267 50.94 18.2533 50.74 19.12C50.54 19.9733 50.3133 20.8133 50.06 21.64C49.82 22.4667 49.5533 23.24 49.26 23.96C48.9667 24.6667 48.6667 25.2733 48.36 25.78C48.28 25.6067 48.1667 25.4 48.02 25.16C47.8733 24.9067 47.7467 24.7067 47.64 24.56C47.9333 24.1067 48.22 23.56 48.5 22.92C48.78 22.28 49.04 21.5933 49.28 20.86C49.52 20.1133 49.7333 19.36 49.92 18.6C50.12 17.8267 50.2733 17.0867 50.38 16.38ZM51.62 18.16C51.7133 18.2933 51.86 18.52 52.06 18.84C52.26 19.16 52.4733 19.5067 52.7 19.88C52.9267 20.2533 53.1333 20.6067 53.32 20.94C53.5067 21.26 53.6333 21.4867 53.7 21.62L52.96 22.72C52.8667 22.48 52.7333 22.18 52.56 21.82C52.3867 21.4467 52.2 21.06 52 20.66C51.8133 20.2467 51.6333 19.8667 51.46 19.52C51.2867 19.1733 51.1467 18.9067 51.04 18.72L51.62 18.16ZM74.36 19.76C75.2933 22.0267 76.76 23.88 78.76 25.32C80.76 26.76 83.24 27.74 86.2 28.26C86.0933 28.3667 85.98 28.5 85.86 28.66C85.74 28.8333 85.6267 29 85.52 29.16C85.4133 29.3333 85.3267 29.4933 85.26 29.64C83.22 29.2267 81.4067 28.6067 79.82 27.78C78.2467 26.9533 76.8933 25.9067 75.76 24.64C74.6267 23.36 73.7 21.8667 72.98 20.16L74.36 19.76ZM70.76 13.94H84.22V15.38H70.76V13.94ZM71.02 19.06H82.94V20.46H71.02V19.06ZM76.78 11.18H78.32V19.62H76.78V11.18ZM69.96 13.94H71.46V18.9C71.46 19.6733 71.4267 20.52 71.36 21.44C71.3067 22.36 71.1867 23.3 71 24.26C70.8133 25.2067 70.54 26.1333 70.18 27.04C69.8333 27.9333 69.3733 28.76 68.8 29.52C68.72 29.4133 68.6 29.2933 68.44 29.16C68.2933 29.04 68.14 28.92 67.98 28.8C67.8333 28.68 67.7 28.5933 67.58 28.54C68.1267 27.8333 68.5533 27.0733 68.86 26.26C69.18 25.4333 69.42 24.5933 69.58 23.74C69.74 22.8867 69.84 22.0467 69.88 21.22C69.9333 20.38 69.96 19.6 69.96 18.88V13.94ZM83.86 13.94H84.12L84.4 13.86L85.54 14.18C85.26 14.9133 84.9533 15.6667 84.62 16.44C84.3 17.2133 83.9867 17.86 83.68 18.38L82.3 17.96C82.58 17.48 82.86 16.8933 83.14 16.2C83.42 15.4933 83.66 14.82 83.86 14.18V13.94ZM82.58 19.06H82.9L83.2 19L84.18 19.54C83.6733 21.0067 82.9933 22.2933 82.14 23.4C81.3 24.5067 80.3267 25.4667 79.22 26.28C78.1133 27.08 76.9133 27.7467 75.62 28.28C74.3267 28.8267 72.9733 29.26 71.56 29.58C71.5067 29.4467 71.4267 29.2933 71.32 29.12C71.2267 28.9467 71.12 28.7733 71 28.6C70.8933 28.44 70.7867 28.3067 70.68 28.2C72.0533 27.92 73.36 27.5467 74.6 27.08C75.8533 26.6 77 26.0067 78.04 25.3C79.0933 24.58 80 23.7333 80.76 22.76C81.5333 21.7733 82.14 20.6333 82.58 19.34V19.06ZM96.24 12.74H97.74V18.42H96.24V12.74ZM89.04 12.12H104.3V13.38H89.04V12.12ZM103.92 12.12H104.16L104.42 12.06L105.5 12.36C105.26 12.9467 105 13.5533 104.72 14.18C104.44 14.7933 104.167 15.3133 103.9 15.74L102.6 15.4C102.827 15 103.06 14.52 103.3 13.96C103.553 13.3867 103.76 12.8533 103.92 12.36V12.12ZM97.06 15H102.5V16.1H97.06V15ZM92.72 15.32C93.1333 16.0533 93.6733 16.6067 94.34 16.98C95.0067 17.3533 95.8133 17.6 96.76 17.72C97.72 17.84 98.8067 17.9 100.02 17.9C100.18 17.9 100.453 17.9 100.84 17.9C101.24 17.9 101.7 17.9 102.22 17.9C102.74 17.9 103.26 17.9 103.78 17.9C104.313 17.9 104.793 17.9 105.22 17.9C105.647 17.8867 105.967 17.88 106.18 17.88C106.113 17.9733 106.04 18.1067 105.96 18.28C105.893 18.44 105.833 18.6067 105.78 18.78C105.727 18.94 105.687 19.0933 105.66 19.24H104.36H100.02C98.58 19.24 97.3333 19.1533 96.28 18.98C95.2267 18.8067 94.3267 18.4667 93.58 17.96C92.8333 17.4533 92.2133 16.7 91.72 15.7L92.72 15.32ZM91.5 22.14V24.14H102.5V22.14H91.5ZM90.08 20.98H104V25.32H90.08V20.98ZM96.28 19.66H97.76V28.1H96.28V19.66ZM88.34 27.54C89.2333 27.54 90.26 27.5267 91.42 27.5C92.58 27.4733 93.8333 27.4467 95.18 27.42C96.5267 27.38 97.9133 27.34 99.34 27.3C100.78 27.26 102.22 27.22 103.66 27.18L103.6 28.36C101.773 28.44 99.94 28.52 98.1 28.6C96.26 28.6933 94.5067 28.7667 92.84 28.82C91.1867 28.8867 89.72 28.9467 88.44 29L88.34 27.54ZM100.3 26.1L101.28 25.26C101.827 25.62 102.4 26.0267 103 26.48C103.613 26.92 104.193 27.3533 104.74 27.78C105.287 28.1933 105.74 28.56 106.1 28.88L105.1 29.84C104.74 29.5067 104.287 29.12 103.74 28.68C103.193 28.24 102.62 27.7933 102.02 27.34C101.42 26.8733 100.847 26.46 100.3 26.1ZM92.08 13.92L93.48 14.26C93.0267 15.66 92.36 16.92 91.48 18.04C90.6 19.1467 89.58 20.0533 88.42 20.76C88.38 20.64 88.3133 20.4933 88.22 20.32C88.14 20.1333 88.0533 19.9467 87.96 19.76C87.8667 19.5733 87.78 19.42 87.7 19.3C88.7 18.7533 89.5867 18.02 90.36 17.1C91.1333 16.18 91.7067 15.12 92.08 13.92Z" fill="black"/>
</svg>
