<svg width="92" height="37" viewBox="0 0 92 37" fill="none" xmlns="http://www.w3.org/2000/svg">
<rect x="0.5" y="0.5" width="91" height="36" fill="white"/>
<rect x="0.5" y="0.5" width="91" height="36" stroke="black"/>
<path d="M31.96 9.22L33.06 10.44C32.1667 10.7067 31.14 10.9467 29.98 11.16C28.8333 11.36 27.6133 11.5333 26.32 11.68C25.04 11.8267 23.7467 11.9467 22.44 12.04C21.1467 12.1333 19.8933 12.2 18.68 12.24C18.6533 12.0533 18.6 11.8333 18.52 11.58C18.4533 11.3133 18.3867 11.1 18.32 10.94C19.5067 10.8733 20.74 10.7933 22.02 10.7C23.3 10.6067 24.5533 10.4933 25.78 10.36C27.0067 10.2133 28.1467 10.0467 29.2 9.86C30.2667 9.67333 31.1867 9.46 31.96 9.22ZM18.34 14.88H33.92V16.32H18.34V14.88ZM17 19.56H35.06V21.04H17V19.56ZM25.26 11.36H26.8V25.5C26.8 26.0333 26.7133 26.4267 26.54 26.68C26.38 26.9467 26.1133 27.14 25.74 27.26C25.3533 27.38 24.82 27.4533 24.14 27.48C23.4733 27.52 22.6133 27.5333 21.56 27.52C21.52 27.3733 21.4667 27.2067 21.4 27.02C21.3333 26.8467 21.2533 26.6667 21.16 26.48C21.08 26.3067 21 26.16 20.92 26.04C21.48 26.0533 22.0133 26.06 22.52 26.06C23.0267 26.06 23.4667 26.06 23.84 26.06C24.2133 26.06 24.48 26.06 24.64 26.06C24.8667 26.0467 25.0267 26 25.12 25.92C25.2133 25.84 25.26 25.7 25.26 25.5V11.36ZM41.88 12H48.7V13.26H41.88V12ZM42.98 9.22H44.2V22.04H42.98V9.22ZM46.62 9.22H47.86V22H46.62V9.22ZM43.52 15.18H47.32V16.32H43.52V15.18ZM43.26 23.08L44.62 23.42C44.3533 24.18 44.0067 24.9333 43.58 25.68C43.1667 26.4133 42.7267 27.0333 42.26 27.54C42.18 27.4733 42.0733 27.3867 41.94 27.28C41.8067 27.1733 41.6667 27.0667 41.52 26.96C41.3733 26.8533 41.2467 26.7733 41.14 26.72C41.58 26.24 41.9867 25.68 42.36 25.04C42.7333 24.4 43.0333 23.7467 43.26 23.08ZM45.92 23.48L47.02 23.02C47.3133 23.38 47.5933 23.78 47.86 24.22C48.14 24.66 48.3333 25.0467 48.44 25.38L47.28 25.94C47.16 25.5933 46.9733 25.1933 46.72 24.74C46.4667 24.2867 46.2 23.8667 45.92 23.48ZM53.52 9.2L54.78 10.18C54.14 10.58 53.4 10.9533 52.56 11.3C51.7333 11.6333 50.9267 11.9133 50.14 12.14C50.1 11.9933 50.0267 11.82 49.92 11.62C49.8267 11.4067 49.7333 11.2267 49.64 11.08C50.3467 10.8267 51.06 10.5333 51.78 10.2C52.5 9.86667 53.08 9.53333 53.52 9.2ZM49.88 15.7H55.2V17.02H49.88V15.7ZM41.42 21.4H48.84V22.66H41.42V21.4ZM49.2 10.8L50.9 11.38C50.8867 11.5133 50.76 11.5933 50.52 11.62V17.2C50.52 17.9333 50.5 18.74 50.46 19.62C50.42 20.5 50.3333 21.4067 50.2 22.34C50.08 23.26 49.9 24.1733 49.66 25.08C49.42 25.9733 49.0933 26.8133 48.68 27.6C48.6267 27.4933 48.5333 27.38 48.4 27.26C48.28 27.1533 48.1467 27.0467 48 26.94C47.8667 26.8467 47.74 26.7733 47.62 26.72C48.1 25.76 48.4533 24.7267 48.68 23.62C48.9067 22.5 49.0467 21.3867 49.1 20.28C49.1667 19.16 49.2 18.1267 49.2 17.18V10.8ZM52.42 16.16H53.72V27.6H52.42V16.16ZM43.52 18.26H47.32V19.4H43.52V18.26ZM36.54 19.46C37.2733 19.2467 38.1467 18.9733 39.16 18.64C40.1733 18.3067 41.2067 17.9667 42.26 17.62L42.48 19C41.52 19.3333 40.5533 19.6667 39.58 20C38.62 20.3333 37.74 20.64 36.94 20.92L36.54 19.46ZM36.84 13.24H42.16V14.64H36.84V13.24ZM39.18 9.2H40.5V25.92C40.5 26.3067 40.4467 26.6067 40.34 26.82C40.2467 27.0467 40.08 27.22 39.84 27.34C39.6133 27.4467 39.3067 27.5133 38.92 27.54C38.5333 27.58 38.04 27.6 37.44 27.6C37.4 27.4267 37.34 27.2067 37.26 26.94C37.18 26.6867 37.0933 26.4667 37 26.28C37.4267 26.2933 37.8067 26.3 38.14 26.3C38.4867 26.3 38.72 26.2933 38.84 26.28C39.0667 26.28 39.18 26.16 39.18 25.92V9.2ZM64.56 22.38H72.12V23.7H64.56V22.38ZM57.02 11.5H63.32V12.86H57.02V11.5ZM62.74 11.5H63L63.24 11.44L64.16 11.74C63.8667 13.9533 63.4 15.98 62.76 17.82C62.1333 19.6467 61.38 21.2467 60.5 22.62C59.62 23.9933 58.6533 25.12 57.6 26C57.48 25.8133 57.32 25.6133 57.12 25.4C56.92 25.1733 56.7333 25 56.56 24.88C57.2933 24.32 57.9867 23.6067 58.64 22.74C59.3067 21.86 59.9133 20.8533 60.46 19.72C61.0067 18.5867 61.4733 17.3533 61.86 16.02C62.26 14.6867 62.5533 13.2933 62.74 11.84V11.5ZM57.36 14.98L58.44 14.24C58.9467 14.92 59.46 15.6467 59.98 16.42C60.5133 17.1933 61.0267 17.9733 61.52 18.76C62.0133 19.5467 62.46 20.2933 62.86 21C63.2733 21.7067 63.6067 22.3467 63.86 22.92L62.66 23.84C62.4067 23.28 62.0867 22.6333 61.7 21.9C61.3133 21.1667 60.8733 20.4067 60.38 19.62C59.9 18.82 59.4 18.02 58.88 17.22C58.3733 16.42 57.8667 15.6733 57.36 14.98ZM73.2 19.22H74.62C74.62 19.22 74.62 19.3 74.62 19.46C74.62 19.6067 74.62 19.7333 74.62 19.84C74.5533 21.4133 74.48 22.68 74.4 23.64C74.3333 24.6 74.2467 25.3267 74.14 25.82C74.0467 26.3133 73.9133 26.6533 73.74 26.84C73.5933 27.04 73.4133 27.18 73.2 27.26C73 27.34 72.76 27.3933 72.48 27.42C72.24 27.4467 71.8933 27.4533 71.44 27.44C71 27.4267 70.54 27.4133 70.06 27.4C70.0467 27.2133 70.0067 27 69.94 26.76C69.8733 26.5333 69.7867 26.34 69.68 26.18C70.16 26.2067 70.6 26.2267 71 26.24C71.4133 26.2533 71.7 26.26 71.86 26.26C72.0333 26.26 72.1667 26.2467 72.26 26.22C72.3533 26.1933 72.44 26.1333 72.52 26.04C72.64 25.9067 72.74 25.6133 72.82 25.16C72.9 24.7067 72.9667 24.02 73.02 23.1C73.0867 22.18 73.1467 20.9667 73.2 19.46V19.22ZM68.58 9.12L70.16 9.38C69.9467 9.82 69.72 10.26 69.48 10.7C69.24 11.1267 69.02 11.4933 68.82 11.8L67.6 11.54C67.7867 11.1933 67.9733 10.7933 68.16 10.34C68.3467 9.87333 68.4867 9.46667 68.58 9.12ZM72.06 11.08H73.44C73.44 11.08 73.44 11.1533 73.44 11.3C73.44 11.4467 73.4333 11.5667 73.42 11.66C73.3667 12.9267 73.3 13.9533 73.22 14.74C73.1533 15.5267 73.0733 16.1267 72.98 16.54C72.8867 16.9533 72.7667 17.2467 72.62 17.42C72.4733 17.5933 72.3133 17.7133 72.14 17.78C71.9667 17.8467 71.76 17.8933 71.52 17.92C71.32 17.9333 71.0467 17.94 70.7 17.94C70.3667 17.94 70.0133 17.9333 69.64 17.92C69.6267 17.7333 69.5867 17.5267 69.52 17.3C69.4667 17.0733 69.3933 16.88 69.3 16.72C69.6467 16.7467 69.96 16.7667 70.24 16.78C70.5333 16.78 70.7467 16.78 70.88 16.78C71 16.78 71.1067 16.7733 71.2 16.76C71.2933 16.7333 71.3733 16.68 71.44 16.6C71.5333 16.48 71.6133 16.24 71.68 15.88C71.76 15.5067 71.8267 14.9533 71.88 14.22C71.9467 13.4867 72.0067 12.5133 72.06 11.3V11.08ZM67.66 13.82L68.52 13.14C68.92 13.4467 69.3267 13.8 69.74 14.2C70.1667 14.5867 70.4933 14.9333 70.72 15.24L69.84 16C69.6133 15.6933 69.2867 15.3333 68.86 14.92C68.4467 14.5067 68.0467 14.14 67.66 13.82ZM72.8 11.08V12.28H66.64V19.22H73.8V20.42H65.22V11.08H72.8Z" fill="black"/>
</svg>
