<svg width="92" height="37" viewBox="0 0 92 37" fill="none" xmlns="http://www.w3.org/2000/svg">
<rect x="0.5" y="0.5" width="91" height="36" fill="white"/>
<rect x="0.5" y="0.5" width="91" height="36" stroke="black"/>
<path d="M25.92 10.64C25.3733 11.4267 24.6667 12.2467 23.8 13.1C22.9467 13.94 21.9933 14.7467 20.94 15.52C19.9 16.2933 18.8133 16.98 17.68 17.58C17.6133 17.46 17.5267 17.3267 17.42 17.18C17.3133 17.0333 17.2 16.8933 17.08 16.76C16.9733 16.6133 16.86 16.4867 16.74 16.38C17.9 15.8067 19.0133 15.12 20.08 14.32C21.16 13.5067 22.1333 12.6533 23 11.76C23.8667 10.8667 24.56 10.0067 25.08 9.18H26.6C27.1333 9.88667 27.74 10.5867 28.42 11.28C29.1 11.9733 29.82 12.6267 30.58 13.24C31.3533 13.84 32.14 14.3867 32.94 14.88C33.7533 15.3733 34.5533 15.7933 35.34 16.14C35.1533 16.3267 34.9733 16.54 34.8 16.78C34.6267 17.02 34.4733 17.2533 34.34 17.48C33.58 17.08 32.8 16.62 32 16.1C31.2 15.5667 30.42 15 29.66 14.4C28.9133 13.7867 28.22 13.1667 27.58 12.54C26.94 11.9 26.3867 11.2667 25.92 10.64ZM20.98 15.3H31V16.64H20.98V15.3ZM18.38 19.32H33.6V20.64H18.38V19.32ZM17.46 25.64H34.56V26.96H17.46V25.64ZM25.12 15.82H26.7V26.32H25.12V15.82ZM20.04 21.66L21.26 21.18C21.54 21.54 21.8067 21.94 22.06 22.38C22.3267 22.8067 22.56 23.2333 22.76 23.66C22.96 24.0733 23.1 24.4467 23.18 24.78L21.88 25.34C21.8 25.0067 21.6667 24.6267 21.48 24.2C21.2933 23.7733 21.0733 23.34 20.82 22.9C20.5667 22.46 20.3067 22.0467 20.04 21.66ZM30.52 21.14L31.94 21.7C31.5533 22.3267 31.14 22.98 30.7 23.66C30.2733 24.3267 29.8667 24.8867 29.48 25.34L28.36 24.86C28.6 24.5267 28.8533 24.1467 29.12 23.72C29.3867 23.28 29.64 22.8333 29.88 22.38C30.1333 21.9267 30.3467 21.5133 30.52 21.14ZM39.64 9.26L40.98 9.64C40.7267 10.3733 40.4133 11.1 40.04 11.82C39.68 12.5267 39.28 13.2 38.84 13.84C38.4133 14.4667 37.96 15.02 37.48 15.5C37.44 15.3933 37.3733 15.2533 37.28 15.08C37.1867 14.8933 37.0867 14.7067 36.98 14.52C36.8733 14.3333 36.7733 14.1933 36.68 14.1C37.2933 13.5 37.86 12.7733 38.38 11.92C38.9133 11.0667 39.3333 10.18 39.64 9.26ZM39.22 11.46H44V12.88H38.92L39.22 11.46ZM39.9 27.44L39.68 26.08L40.18 25.48L44.16 23.16C44.1867 23.36 44.24 23.5867 44.32 23.84C44.4 24.0933 44.4667 24.2933 44.52 24.44C43.5867 25.0133 42.8333 25.48 42.26 25.84C41.6867 26.1867 41.24 26.46 40.92 26.66C40.6133 26.86 40.3867 27.0133 40.24 27.12C40.0933 27.24 39.98 27.3467 39.9 27.44ZM38.22 15.06H43.72V16.42H38.22V15.06ZM37.26 19.12H44.28V20.5H37.26V19.12ZM44.9 14L54.08 12.64L54.34 13.94L45.14 15.34L44.9 14ZM44.48 18.3L54.64 16.4L54.88 17.72L44.72 19.64L44.48 18.3ZM47.8 9.16H49.24C49.2267 10.7333 49.26 12.2467 49.34 13.7C49.42 15.14 49.5333 16.4933 49.68 17.76C49.84 19.0133 50.0333 20.1533 50.26 21.18C50.5 22.1933 50.7733 23.0733 51.08 23.82C51.3867 24.5533 51.72 25.12 52.08 25.52C52.4533 25.9067 52.8533 26.1 53.28 26.1C53.4533 26.1 53.5933 26.04 53.7 25.92C53.8067 25.7867 53.8933 25.56 53.96 25.24C54.0267 24.9067 54.0733 24.4467 54.1 23.86C54.2467 24.02 54.4267 24.1733 54.64 24.32C54.8533 24.4533 55.04 24.5533 55.2 24.62C55.1067 25.3667 54.98 25.9467 54.82 26.36C54.6733 26.7867 54.4667 27.0867 54.2 27.26C53.9333 27.4333 53.5733 27.52 53.12 27.52C52.4667 27.52 51.88 27.2933 51.36 26.84C50.8533 26.4 50.4 25.7667 50 24.94C49.6133 24.1133 49.28 23.14 49 22.02C48.7333 20.8867 48.5133 19.64 48.34 18.28C48.1667 16.9067 48.0333 15.4533 47.94 13.92C47.86 12.3733 47.8133 10.7867 47.8 9.16ZM50 10.4L50.88 9.56C51.3733 9.78667 51.9 10.06 52.46 10.38C53.02 10.7 53.4533 11 53.76 11.28L52.9 12.22C52.5667 11.9267 52.12 11.6133 51.56 11.28C51.0133 10.9333 50.4933 10.64 50 10.4ZM53.74 19.02L55 19.58C54.32 20.7267 53.4733 21.7867 52.46 22.76C51.4467 23.72 50.32 24.58 49.08 25.34C47.8533 26.1 46.5467 26.7333 45.16 27.24C45.0533 27.0667 44.9133 26.8667 44.74 26.64C44.58 26.4133 44.4133 26.2133 44.24 26.04C45.5733 25.5867 46.84 25.0133 48.04 24.32C49.2533 23.6267 50.3467 22.8333 51.32 21.94C52.3067 21.0467 53.1133 20.0733 53.74 19.02ZM39.9 27.44C39.8467 27.3333 39.7733 27.2133 39.68 27.08C39.6 26.9467 39.5067 26.8133 39.4 26.68C39.3067 26.56 39.22 26.46 39.14 26.38C39.26 26.2867 39.4 26.16 39.56 26C39.7333 25.84 39.88 25.6467 40 25.42C40.12 25.18 40.18 24.9067 40.18 24.6V15.46H41.54V25.68C41.54 25.68 41.48 25.72 41.36 25.8C41.2533 25.88 41.12 25.9867 40.96 26.12C40.8 26.2667 40.6333 26.42 40.46 26.58C40.3 26.74 40.1667 26.8933 40.06 27.04C39.9533 27.2 39.9 27.3333 39.9 27.44ZM65.24 10.74H66.74V16.42H65.24V10.74ZM58.04 10.12H73.3V11.38H58.04V10.12ZM72.92 10.12H73.16L73.42 10.06L74.5 10.36C74.26 10.9467 74 11.5533 73.72 12.18C73.44 12.7933 73.1667 13.3133 72.9 13.74L71.6 13.4C71.8267 13 72.06 12.52 72.3 11.96C72.5533 11.3867 72.76 10.8533 72.92 10.36V10.12ZM66.06 13H71.5V14.1H66.06V13ZM61.72 13.32C62.1333 14.0533 62.6733 14.6067 63.34 14.98C64.0067 15.3533 64.8133 15.6 65.76 15.72C66.72 15.84 67.8067 15.9 69.02 15.9C69.18 15.9 69.4533 15.9 69.84 15.9C70.24 15.9 70.7 15.9 71.22 15.9C71.74 15.9 72.26 15.9 72.78 15.9C73.3133 15.9 73.7933 15.9 74.22 15.9C74.6467 15.8867 74.9667 15.88 75.18 15.88C75.1133 15.9733 75.04 16.1067 74.96 16.28C74.8933 16.44 74.8333 16.6067 74.78 16.78C74.7267 16.94 74.6867 17.0933 74.66 17.24H73.36H69.02C67.58 17.24 66.3333 17.1533 65.28 16.98C64.2267 16.8067 63.3267 16.4667 62.58 15.96C61.8333 15.4533 61.2133 14.7 60.72 13.7L61.72 13.32ZM60.5 20.14V22.14H71.5V20.14H60.5ZM59.08 18.98H73V23.32H59.08V18.98ZM65.28 17.66H66.76V26.1H65.28V17.66ZM57.34 25.54C58.2333 25.54 59.26 25.5267 60.42 25.5C61.58 25.4733 62.8333 25.4467 64.18 25.42C65.5267 25.38 66.9133 25.34 68.34 25.3C69.78 25.26 71.22 25.22 72.66 25.18L72.6 26.36C70.7733 26.44 68.94 26.52 67.1 26.6C65.26 26.6933 63.5067 26.7667 61.84 26.82C60.1867 26.8867 58.72 26.9467 57.44 27L57.34 25.54ZM69.3 24.1L70.28 23.26C70.8267 23.62 71.4 24.0267 72 24.48C72.6133 24.92 73.1933 25.3533 73.74 25.78C74.2867 26.1933 74.74 26.56 75.1 26.88L74.1 27.84C73.74 27.5067 73.2867 27.12 72.74 26.68C72.1933 26.24 71.62 25.7933 71.02 25.34C70.42 24.8733 69.8467 24.46 69.3 24.1ZM61.08 11.92L62.48 12.26C62.0267 13.66 61.36 14.92 60.48 16.04C59.6 17.1467 58.58 18.0533 57.42 18.76C57.38 18.64 57.3133 18.4933 57.22 18.32C57.14 18.1333 57.0533 17.9467 56.96 17.76C56.8667 17.5733 56.78 17.42 56.7 17.3C57.7 16.7533 58.5867 16.02 59.36 15.1C60.1333 14.18 60.7067 13.12 61.08 11.92Z" fill="black"/>
</svg>
