<svg width="97" height="40" viewBox="0 0 97 40" fill="none" xmlns="http://www.w3.org/2000/svg">
<rect x="0.5" y="0.5" width="96" height="39" fill="white"/>
<rect x="0.5" y="0.5" width="96" height="39" stroke="black"/>
<path d="M18.36 10.18L19.84 10.56C19.5467 11.4667 19.1867 12.3467 18.76 13.2C18.3467 14.04 17.8933 14.8267 17.4 15.56C16.92 16.2933 16.4133 16.94 15.88 17.5C15.7733 17.4067 15.64 17.3067 15.48 17.2C15.3333 17.08 15.1733 16.9667 15 16.86C14.84 16.74 14.7 16.6467 14.58 16.58C15.3933 15.82 16.1267 14.8733 16.78 13.74C17.4333 12.6067 17.96 11.42 18.36 10.18ZM25.82 12.68H27.32C27.32 12.68 27.32 12.7267 27.32 12.82C27.32 12.9133 27.32 13.0133 27.32 13.12C27.32 13.2267 27.32 13.32 27.32 13.4C27.2667 15.08 27.2067 16.5067 27.14 17.68C27.0867 18.84 27.0267 19.7933 26.96 20.54C26.8933 21.2867 26.8067 21.8733 26.7 22.3C26.6067 22.7133 26.4933 23.0133 26.36 23.2C26.2 23.4133 26.0267 23.5733 25.84 23.68C25.6533 23.7733 25.4267 23.8333 25.16 23.86C24.9333 23.8867 24.62 23.9 24.22 23.9C23.8333 23.9 23.4267 23.8933 23 23.88C22.9867 23.64 22.9467 23.3867 22.88 23.12C22.8133 22.84 22.7267 22.6 22.62 22.4C23.0067 22.44 23.36 22.4667 23.68 22.48C24.0133 22.48 24.2533 22.48 24.4 22.48C24.5467 22.4933 24.6667 22.48 24.76 22.44C24.8667 22.4 24.9533 22.32 25.02 22.2C25.1267 22.0667 25.2133 21.8133 25.28 21.44C25.36 21.0667 25.4333 20.5333 25.5 19.84C25.5667 19.1333 25.6267 18.2267 25.68 17.12C25.7333 16 25.78 14.6267 25.82 13V12.68ZM17.36 20.56H21.72V17.54H16.76V16.2H23.2V21.9H17.36V20.56ZM16.72 20.56H18.22V26.24C18.22 26.6 18.3267 26.84 18.54 26.96C18.7533 27.08 19.2267 27.14 19.96 27.14C20.1067 27.14 20.34 27.14 20.66 27.14C20.9933 27.14 21.3667 27.14 21.78 27.14C22.2067 27.14 22.6333 27.14 23.06 27.14C23.5 27.14 23.8933 27.14 24.24 27.14C24.6 27.14 24.8733 27.14 25.06 27.14C25.5 27.14 25.8267 27.0733 26.04 26.94C26.2667 26.7933 26.42 26.52 26.5 26.12C26.5933 25.72 26.66 25.1067 26.7 24.28C26.8333 24.3733 26.98 24.46 27.14 24.54C27.3 24.62 27.4667 24.6867 27.64 24.74C27.8267 24.7933 27.9867 24.84 28.12 24.88C28.0533 25.8533 27.9267 26.6 27.74 27.12C27.5533 27.6533 27.26 28.02 26.86 28.22C26.46 28.4333 25.8867 28.54 25.14 28.54C25.02 28.54 24.78 28.54 24.42 28.54C24.0733 28.54 23.6667 28.54 23.2 28.54C22.7467 28.54 22.2867 28.54 21.82 28.54C21.3533 28.54 20.9467 28.54 20.6 28.54C20.2533 28.54 20.0267 28.54 19.92 28.54C19.1067 28.54 18.4667 28.4733 18 28.34C17.5333 28.22 17.2 27.9933 17 27.66C16.8133 27.34 16.72 26.8667 16.72 26.24V20.56ZM10.76 11.46L11.6 10.36C12.0133 10.5333 12.4467 10.74 12.9 10.98C13.3533 11.22 13.78 11.4733 14.18 11.74C14.58 11.9933 14.9 12.2333 15.14 12.46L14.28 13.7C14.0267 13.46 13.7 13.2067 13.3 12.94C12.9133 12.66 12.5 12.3933 12.06 12.14C11.62 11.8733 11.1867 11.6467 10.76 11.46ZM9.76 16.88L10.58 15.74C10.9933 15.9 11.4267 16.0933 11.88 16.32C12.3467 16.5467 12.78 16.78 13.18 17.02C13.5933 17.26 13.9267 17.4867 14.18 17.7L13.3 18.96C13.06 18.7333 12.74 18.4933 12.34 18.24C11.94 17.9867 11.5133 17.74 11.06 17.5C10.62 17.26 10.1867 17.0533 9.76 16.88ZM10.32 27.42C10.64 26.8867 11 26.26 11.4 25.54C11.8 24.82 12.2 24.06 12.6 23.26C13.0133 22.46 13.3933 21.6733 13.74 20.9L14.9 21.8C14.5933 22.5067 14.2533 23.2467 13.88 24.02C13.5067 24.7933 13.1267 25.5533 12.74 26.3C12.3533 27.0333 11.9867 27.7133 11.64 28.34L10.32 27.42ZM17.84 12.68H26.4V14.1H17.84V12.68ZM41.88 11.64H47.14V12.96H41.88V11.64ZM38.58 13.02H41.62V14.28H38.58V13.02ZM35.38 16.94H42.16V18.24H35.38V16.94ZM37.96 10.22H39.34V17.86H37.96V10.22ZM38.2 17.82H39.54V27.06C39.54 27.4067 39.5 27.68 39.42 27.88C39.34 28.0933 39.18 28.26 38.94 28.38C38.7133 28.4733 38.4067 28.5333 38.02 28.56C37.6467 28.5867 37.1933 28.6 36.66 28.6C36.6333 28.4133 36.5733 28.1933 36.48 27.94C36.4 27.7 36.3133 27.4933 36.22 27.32C36.62 27.3333 36.9733 27.34 37.28 27.34C37.6 27.34 37.82 27.3333 37.94 27.32C38.0467 27.32 38.1133 27.3 38.14 27.26C38.18 27.22 38.2 27.1467 38.2 27.04V17.82ZM46.64 11.64H46.86L47.1 11.6L47.94 11.76C47.78 14.6933 47.4333 17.2533 46.9 19.44C46.3667 21.6267 45.66 23.4733 44.78 24.98C43.9133 26.4733 42.8733 27.6733 41.66 28.58C41.5533 28.4067 41.4067 28.2067 41.22 27.98C41.0467 27.7533 40.8733 27.5733 40.7 27.44C41.82 26.6933 42.7933 25.6133 43.62 24.2C44.4467 22.7867 45.1133 21.0533 45.62 19C46.14 16.9467 46.48 14.6 46.64 11.96V11.64ZM36.24 20.04L37.44 20.3C37.3333 20.8733 37.1933 21.4933 37.02 22.16C36.86 22.8133 36.6667 23.4533 36.44 24.08C36.2267 24.6933 35.98 25.2467 35.7 25.74C35.58 25.6467 35.42 25.54 35.22 25.42C35.0333 25.3 34.8667 25.2067 34.72 25.14C34.9867 24.6867 35.22 24.1667 35.42 23.58C35.62 22.98 35.7867 22.3733 35.92 21.76C36.0533 21.1333 36.16 20.56 36.24 20.04ZM40.26 20.42L41.32 20.04C41.52 20.5067 41.7133 21.0067 41.9 21.54C42.0867 22.0733 42.2533 22.5867 42.4 23.08C42.5467 23.56 42.6533 23.98 42.72 24.34L41.6 24.8C41.5333 24.4267 41.4267 23.9867 41.28 23.48C41.1467 22.9733 40.9933 22.4533 40.82 21.92C40.6467 21.3733 40.46 20.8733 40.26 20.42ZM43.62 13.26C43.7667 14.82 43.96 16.3267 44.2 17.78C44.44 19.22 44.7533 20.56 45.14 21.8C45.5267 23.04 45.9933 24.1467 46.54 25.12C47.1 26.0933 47.7667 26.8867 48.54 27.5C48.4333 27.58 48.3133 27.6867 48.18 27.82C48.06 27.9533 47.94 28.0867 47.82 28.22C47.7133 28.3667 47.62 28.5 47.54 28.62C46.46 27.6733 45.58 26.44 44.9 24.92C44.22 23.4 43.6867 21.66 43.3 19.7C42.9133 17.74 42.6133 15.64 42.4 13.4L43.62 13.26ZM30.04 14.54H35.54V15.94H30.04V14.54ZM32.38 10.2H33.72V28.58H32.38V10.2ZM32.38 15.38L33.24 15.64C33.1067 16.4267 32.94 17.2533 32.74 18.12C32.54 18.9733 32.3133 19.8133 32.06 20.64C31.82 21.4667 31.5533 22.24 31.26 22.96C30.9667 23.6667 30.6667 24.2733 30.36 24.78C30.28 24.6067 30.1667 24.4 30.02 24.16C29.8733 23.9067 29.7467 23.7067 29.64 23.56C29.9333 23.1067 30.22 22.56 30.5 21.92C30.78 21.28 31.04 20.5933 31.28 19.86C31.52 19.1133 31.7333 18.36 31.92 17.6C32.12 16.8267 32.2733 16.0867 32.38 15.38ZM33.62 17.16C33.7133 17.2933 33.86 17.52 34.06 17.84C34.26 18.16 34.4733 18.5067 34.7 18.88C34.9267 19.2533 35.1333 19.6067 35.32 19.94C35.5067 20.26 35.6333 20.4867 35.7 20.62L34.96 21.72C34.8667 21.48 34.7333 21.18 34.56 20.82C34.3867 20.4467 34.2 20.06 34 19.66C33.8133 19.2467 33.6333 18.8667 33.46 18.52C33.2867 18.1733 33.1467 17.9067 33.04 17.72L33.62 17.16ZM57.56 23.38H65.12V24.7H57.56V23.38ZM50.02 12.5H56.32V13.86H50.02V12.5ZM55.74 12.5H56L56.24 12.44L57.16 12.74C56.8667 14.9533 56.4 16.98 55.76 18.82C55.1333 20.6467 54.38 22.2467 53.5 23.62C52.62 24.9933 51.6533 26.12 50.6 27C50.48 26.8133 50.32 26.6133 50.12 26.4C49.92 26.1733 49.7333 26 49.56 25.88C50.2933 25.32 50.9867 24.6067 51.64 23.74C52.3067 22.86 52.9133 21.8533 53.46 20.72C54.0067 19.5867 54.4733 18.3533 54.86 17.02C55.26 15.6867 55.5533 14.2933 55.74 12.84V12.5ZM50.36 15.98L51.44 15.24C51.9467 15.92 52.46 16.6467 52.98 17.42C53.5133 18.1933 54.0267 18.9733 54.52 19.76C55.0133 20.5467 55.46 21.2933 55.86 22C56.2733 22.7067 56.6067 23.3467 56.86 23.92L55.66 24.84C55.4067 24.28 55.0867 23.6333 54.7 22.9C54.3133 22.1667 53.8733 21.4067 53.38 20.62C52.9 19.82 52.4 19.02 51.88 18.22C51.3733 17.42 50.8667 16.6733 50.36 15.98ZM66.2 20.22H67.62C67.62 20.22 67.62 20.3 67.62 20.46C67.62 20.6067 67.62 20.7333 67.62 20.84C67.5533 22.4133 67.48 23.68 67.4 24.64C67.3333 25.6 67.2467 26.3267 67.14 26.82C67.0467 27.3133 66.9133 27.6533 66.74 27.84C66.5933 28.04 66.4133 28.18 66.2 28.26C66 28.34 65.76 28.3933 65.48 28.42C65.24 28.4467 64.8933 28.4533 64.44 28.44C64 28.4267 63.54 28.4133 63.06 28.4C63.0467 28.2133 63.0067 28 62.94 27.76C62.8733 27.5333 62.7867 27.34 62.68 27.18C63.16 27.2067 63.6 27.2267 64 27.24C64.4133 27.2533 64.7 27.26 64.86 27.26C65.0333 27.26 65.1667 27.2467 65.26 27.22C65.3533 27.1933 65.44 27.1333 65.52 27.04C65.64 26.9067 65.74 26.6133 65.82 26.16C65.9 25.7067 65.9667 25.02 66.02 24.1C66.0867 23.18 66.1467 21.9667 66.2 20.46V20.22ZM61.58 10.12L63.16 10.38C62.9467 10.82 62.72 11.26 62.48 11.7C62.24 12.1267 62.02 12.4933 61.82 12.8L60.6 12.54C60.7867 12.1933 60.9733 11.7933 61.16 11.34C61.3467 10.8733 61.4867 10.4667 61.58 10.12ZM65.06 12.08H66.44C66.44 12.08 66.44 12.1533 66.44 12.3C66.44 12.4467 66.4333 12.5667 66.42 12.66C66.3667 13.9267 66.3 14.9533 66.22 15.74C66.1533 16.5267 66.0733 17.1267 65.98 17.54C65.8867 17.9533 65.7667 18.2467 65.62 18.42C65.4733 18.5933 65.3133 18.7133 65.14 18.78C64.9667 18.8467 64.76 18.8933 64.52 18.92C64.32 18.9333 64.0467 18.94 63.7 18.94C63.3667 18.94 63.0133 18.9333 62.64 18.92C62.6267 18.7333 62.5867 18.5267 62.52 18.3C62.4667 18.0733 62.3933 17.88 62.3 17.72C62.6467 17.7467 62.96 17.7667 63.24 17.78C63.5333 17.78 63.7467 17.78 63.88 17.78C64 17.78 64.1067 17.7733 64.2 17.76C64.2933 17.7333 64.3733 17.68 64.44 17.6C64.5333 17.48 64.6133 17.24 64.68 16.88C64.76 16.5067 64.8267 15.9533 64.88 15.22C64.9467 14.4867 65.0067 13.5133 65.06 12.3V12.08ZM60.66 14.82L61.52 14.14C61.92 14.4467 62.3267 14.8 62.74 15.2C63.1667 15.5867 63.4933 15.9333 63.72 16.24L62.84 17C62.6133 16.6933 62.2867 16.3333 61.86 15.92C61.4467 15.5067 61.0467 15.14 60.66 14.82ZM65.8 12.08V13.28H59.64V20.22H66.8V21.42H58.22V12.08H65.8ZM82.24 11.72C81.88 12.3333 81.42 12.9733 80.86 13.64C80.3 14.3067 79.68 14.9467 79 15.56C78.3333 16.1733 77.64 16.7133 76.92 17.18C76.84 16.9933 76.72 16.78 76.56 16.54C76.4 16.3 76.2533 16.1 76.12 15.94C76.8533 15.4867 77.56 14.9467 78.24 14.32C78.92 13.6933 79.54 13.0333 80.1 12.34C80.66 11.6333 81.1133 10.9533 81.46 10.3H82.9C83.3667 11.0067 83.9067 11.7133 84.52 12.42C85.1467 13.1133 85.8067 13.7533 86.5 14.34C87.1933 14.9133 87.8733 15.3933 88.54 15.78C88.3933 15.9533 88.24 16.1667 88.08 16.42C87.92 16.6733 87.78 16.9067 87.66 17.12C86.9933 16.68 86.32 16.16 85.64 15.56C84.9733 14.96 84.34 14.3267 83.74 13.66C83.1533 12.9933 82.6533 12.3467 82.24 11.72ZM82.84 15.38L84.12 15.92C83.6933 16.44 83.1933 16.9467 82.62 17.44C82.06 17.9333 81.46 18.3933 80.82 18.82C80.1933 19.2333 79.5733 19.5933 78.96 19.9C78.84 19.7533 78.6933 19.5867 78.52 19.4C78.3467 19.2133 78.1667 19.06 77.98 18.94C78.5667 18.66 79.16 18.3333 79.76 17.96C80.3733 17.5867 80.9467 17.18 81.48 16.74C82.0267 16.2867 82.48 15.8333 82.84 15.38ZM84.28 18.48L85.58 19.04C85.06 19.72 84.44 20.3667 83.72 20.98C83 21.5933 82.2267 22.1533 81.4 22.66C80.5867 23.1667 79.76 23.6067 78.92 23.98C78.8 23.8067 78.6533 23.62 78.48 23.42C78.3067 23.22 78.1333 23.0533 77.96 22.92C78.7467 22.6 79.54 22.2133 80.34 21.76C81.14 21.2933 81.88 20.78 82.56 20.22C83.2533 19.66 83.8267 19.08 84.28 18.48ZM86.22 21.44L87.56 22.02C86.92 23.06 86.1133 24 85.14 24.84C84.18 25.68 83.0933 26.4133 81.88 27.04C80.6667 27.68 79.3733 28.2067 78 28.62C77.9067 28.4333 77.7733 28.2133 77.6 27.96C77.4267 27.72 77.2467 27.5133 77.06 27.34C78.38 26.9933 79.6267 26.54 80.8 25.98C81.9733 25.4067 83.02 24.7467 83.94 24C84.8733 23.24 85.6333 22.3867 86.22 21.44ZM71.66 11.16H75.78V12.52H71.66V11.16ZM71.72 15.84H75.66V17.22H71.72V15.84ZM71.7 20.64H75.68V22.04H71.7V20.64ZM71.06 11.16H72.38V18.3C72.38 19.06 72.36 19.8933 72.32 20.8C72.2933 21.6933 72.2267 22.6133 72.12 23.56C72.0133 24.4933 71.8533 25.4 71.64 26.28C71.44 27.16 71.1733 27.9667 70.84 28.7C70.7467 28.6333 70.6267 28.5533 70.48 28.46C70.3333 28.3667 70.18 28.28 70.02 28.2C69.8733 28.12 69.74 28.06 69.62 28.02C69.9533 27.3133 70.2133 26.5533 70.4 25.74C70.6 24.9133 70.74 24.0667 70.82 23.2C70.9133 22.3333 70.9733 21.4867 71 20.66C71.04 19.82 71.06 19.0333 71.06 18.3V11.16ZM75.04 11.16H76.42V26.88C76.42 27.2667 76.3733 27.58 76.28 27.82C76.1867 28.06 76.0133 28.2333 75.76 28.34C75.52 28.46 75.1933 28.5333 74.78 28.56C74.38 28.6 73.8533 28.62 73.2 28.62C73.1867 28.4867 73.16 28.3333 73.12 28.16C73.08 28 73.0267 27.8333 72.96 27.66C72.9067 27.4867 72.8467 27.3333 72.78 27.2C73.22 27.2133 73.62 27.22 73.98 27.22C74.34 27.22 74.58 27.22 74.7 27.22C74.9267 27.22 75.04 27.0933 75.04 26.84V11.16Z" fill="black"/>
</svg>
