<svg width="97" height="40" viewBox="0 0 97 40" fill="none" xmlns="http://www.w3.org/2000/svg">
<rect x="0.5" y="0.5" width="96" height="39" fill="white"/>
<rect x="0.5" y="0.5" width="96" height="39" stroke="black"/>
<path d="M17.02 18H28.14V19.36H17.02V18ZM21.96 19.08H23.46V26.84C23.46 27.2533 23.4067 27.5667 23.3 27.78C23.1933 28.0067 22.9867 28.18 22.68 28.3C22.3867 28.4067 22 28.4667 21.52 28.48C21.0533 28.5067 20.4867 28.52 19.82 28.52C19.78 28.32 19.7067 28.0867 19.6 27.82C19.4933 27.5667 19.3867 27.34 19.28 27.14C19.6267 27.14 19.96 27.14 20.28 27.14C20.6 27.1533 20.8733 27.16 21.1 27.16C21.34 27.16 21.5067 27.16 21.6 27.16C21.7467 27.1467 21.84 27.12 21.88 27.08C21.9333 27.04 21.96 26.9533 21.96 26.82V19.08ZM17.08 13.18H28.06V17.08H26.62V14.5H18.46V17.08H17.08V13.18ZM21.24 10.54L22.58 10.16C22.8067 10.56 23.0333 11.0133 23.26 11.52C23.5 12.0133 23.6667 12.4267 23.76 12.76L22.34 13.22C22.2467 12.8733 22.0933 12.4467 21.88 11.94C21.68 11.42 21.4667 10.9533 21.24 10.54ZM10.06 14.06H16.34V15.46H10.06V14.06ZM12.86 10.2H14.28V28.58H12.86V10.2ZM12.94 14.96L13.84 15.28C13.68 16.1067 13.48 16.9533 13.24 17.82C13 18.6733 12.7333 19.52 12.44 20.36C12.1467 21.1867 11.8267 21.96 11.48 22.68C11.1467 23.4 10.8 24.0133 10.44 24.52C10.4 24.3733 10.3333 24.2133 10.24 24.04C10.1467 23.8533 10.0467 23.6733 9.94 23.5C9.83333 23.3267 9.73333 23.18 9.64 23.06C9.98667 22.62 10.32 22.0867 10.64 21.46C10.9733 20.8333 11.2867 20.1533 11.58 19.42C11.8867 18.6867 12.1533 17.94 12.38 17.18C12.6067 16.4067 12.7933 15.6667 12.94 14.96ZM14.2 16.16C14.32 16.2933 14.4933 16.5333 14.72 16.88C14.9467 17.2133 15.1933 17.58 15.46 17.98C15.7267 18.38 15.9667 18.7533 16.18 19.1C16.4067 19.4467 16.5667 19.6933 16.66 19.84L15.7 20.96C15.5933 20.72 15.44 20.4067 15.24 20.02C15.0533 19.62 14.8467 19.2133 14.62 18.8C14.3933 18.3733 14.1733 17.98 13.96 17.62C13.76 17.2467 13.5933 16.96 13.46 16.76L14.2 16.16ZM36.66 18.88H48.32V19.96H36.66V18.88ZM39.08 16.72H45.7V17.76H39.08V16.72ZM36.56 11.78H48.22V12.92H36.56V11.78ZM39.46 10.2H40.8V14.18H39.46V10.2ZM43.94 10.2H45.28V14.18H43.94V10.2ZM39.64 21.1L40.52 20.46C41.32 20.94 41.9667 21.4733 42.46 22.06C42.9667 22.6467 43.34 23.2467 43.58 23.86C43.82 24.4733 43.9467 25.06 43.96 25.62C43.9733 26.18 43.8933 26.6733 43.72 27.1C43.5467 27.54 43.2933 27.88 42.96 28.12C42.7067 28.3333 42.4533 28.4733 42.2 28.54C41.96 28.6067 41.68 28.6467 41.36 28.66C41.1867 28.66 41.0067 28.6533 40.82 28.64C40.6333 28.64 40.44 28.6333 40.24 28.62C40.2267 28.46 40.1933 28.26 40.14 28.02C40.0867 27.7933 40 27.5867 39.88 27.4C40.12 27.4267 40.34 27.4467 40.54 27.46C40.7533 27.4733 40.9467 27.48 41.12 27.48C41.3067 27.48 41.4733 27.4667 41.62 27.44C41.78 27.4133 41.9333 27.3267 42.08 27.18C42.3467 26.98 42.5267 26.6533 42.62 26.2C42.7133 25.7333 42.6867 25.2133 42.54 24.64C42.3933 24.0533 42.0867 23.4467 41.62 22.82C41.1533 22.1933 40.4933 21.62 39.64 21.1ZM41.5 21.72L42.42 22.2C41.9667 22.6 41.4067 23.0067 40.74 23.42C40.0733 23.8333 39.38 24.2133 38.66 24.56C37.94 24.9067 37.2733 25.1867 36.66 25.4C36.5667 25.28 36.44 25.1267 36.28 24.94C36.1333 24.7533 35.9933 24.6067 35.86 24.5C36.4867 24.3267 37.1533 24.0933 37.86 23.8C38.58 23.4933 39.26 23.16 39.9 22.8C40.54 22.44 41.0733 22.08 41.5 21.72ZM42.46 23.52L43.44 24C42.9067 24.56 42.2533 25.1133 41.48 25.66C40.72 26.1933 39.92 26.6733 39.08 27.1C38.24 27.54 37.4333 27.9 36.66 28.18C36.5533 28.0333 36.42 27.8667 36.26 27.68C36.1133 27.4933 35.9733 27.34 35.84 27.22C36.6133 26.9933 37.42 26.6867 38.26 26.3C39.1 25.9133 39.8867 25.48 40.62 25C41.3667 24.5067 41.98 24.0133 42.46 23.52ZM47.12 20.7L48.14 21.58C47.6333 21.98 47.1 22.3867 46.54 22.8C45.98 23.2 45.4667 23.54 45 23.82L44.24 23.1C44.5467 22.8867 44.8733 22.64 45.22 22.36C45.58 22.08 45.9267 21.7933 46.26 21.5C46.5933 21.2067 46.88 20.94 47.12 20.7ZM36.94 14.52H47.94V17.56H46.6V15.64H38.22V17.56H36.94V14.52ZM41.88 19.06L42.96 19.48C42.4667 19.92 41.8933 20.34 41.24 20.74C40.5867 21.14 39.9 21.5067 39.18 21.84C38.4733 22.1733 37.78 22.4667 37.1 22.72C37.0067 22.6 36.8733 22.4533 36.7 22.28C36.5267 22.1067 36.3667 21.9667 36.22 21.86C36.9133 21.6467 37.6067 21.3933 38.3 21.1C38.9933 20.8067 39.6533 20.4867 40.28 20.14C40.9067 19.7933 41.44 19.4333 41.88 19.06ZM43.72 19.32C43.9733 20.4 44.3133 21.42 44.74 22.38C45.1667 23.3267 45.6867 24.1667 46.3 24.9C46.9133 25.62 47.6333 26.1867 48.46 26.6C48.3 26.72 48.1267 26.8867 47.94 27.1C47.7533 27.3267 47.6133 27.5267 47.52 27.7C46.68 27.1933 45.94 26.54 45.3 25.74C44.66 24.9267 44.12 23.9933 43.68 22.94C43.24 21.8867 42.8933 20.7533 42.64 19.54L43.72 19.32ZM30.04 14.54H36.3V15.94H30.04V14.54ZM32.72 10.2H34.08V28.58H32.72V10.2ZM32.68 15.38L33.6 15.68C33.4533 16.4667 33.2667 17.2933 33.04 18.16C32.8267 19.0133 32.5733 19.8533 32.28 20.68C32 21.4933 31.7 22.26 31.38 22.98C31.06 23.6867 30.7267 24.2933 30.38 24.8C30.3 24.6 30.18 24.38 30.02 24.14C29.8733 23.8867 29.74 23.6733 29.62 23.5C29.94 23.0467 30.2533 22.5067 30.56 21.88C30.8667 21.2533 31.1533 20.5733 31.42 19.84C31.7 19.1067 31.9467 18.36 32.16 17.6C32.3867 16.8267 32.56 16.0867 32.68 15.38ZM33.98 17.34C34.0867 17.4733 34.2533 17.7067 34.48 18.04C34.7067 18.3733 34.9533 18.74 35.22 19.14C35.4867 19.5267 35.7267 19.8933 35.94 20.24C36.1667 20.5733 36.3267 20.8133 36.42 20.96L35.6 22.06C35.5067 21.8067 35.36 21.4933 35.16 21.12C34.96 20.7333 34.74 20.3333 34.5 19.92C34.26 19.4933 34.04 19.1067 33.84 18.76C33.64 18.4 33.4733 18.1267 33.34 17.94L33.98 17.34ZM57.56 23.38H65.12V24.7H57.56V23.38ZM50.02 12.5H56.32V13.86H50.02V12.5ZM55.74 12.5H56L56.24 12.44L57.16 12.74C56.8667 14.9533 56.4 16.98 55.76 18.82C55.1333 20.6467 54.38 22.2467 53.5 23.62C52.62 24.9933 51.6533 26.12 50.6 27C50.48 26.8133 50.32 26.6133 50.12 26.4C49.92 26.1733 49.7333 26 49.56 25.88C50.2933 25.32 50.9867 24.6067 51.64 23.74C52.3067 22.86 52.9133 21.8533 53.46 20.72C54.0067 19.5867 54.4733 18.3533 54.86 17.02C55.26 15.6867 55.5533 14.2933 55.74 12.84V12.5ZM50.36 15.98L51.44 15.24C51.9467 15.92 52.46 16.6467 52.98 17.42C53.5133 18.1933 54.0267 18.9733 54.52 19.76C55.0133 20.5467 55.46 21.2933 55.86 22C56.2733 22.7067 56.6067 23.3467 56.86 23.92L55.66 24.84C55.4067 24.28 55.0867 23.6333 54.7 22.9C54.3133 22.1667 53.8733 21.4067 53.38 20.62C52.9 19.82 52.4 19.02 51.88 18.22C51.3733 17.42 50.8667 16.6733 50.36 15.98ZM66.2 20.22H67.62C67.62 20.22 67.62 20.3 67.62 20.46C67.62 20.6067 67.62 20.7333 67.62 20.84C67.5533 22.4133 67.48 23.68 67.4 24.64C67.3333 25.6 67.2467 26.3267 67.14 26.82C67.0467 27.3133 66.9133 27.6533 66.74 27.84C66.5933 28.04 66.4133 28.18 66.2 28.26C66 28.34 65.76 28.3933 65.48 28.42C65.24 28.4467 64.8933 28.4533 64.44 28.44C64 28.4267 63.54 28.4133 63.06 28.4C63.0467 28.2133 63.0067 28 62.94 27.76C62.8733 27.5333 62.7867 27.34 62.68 27.18C63.16 27.2067 63.6 27.2267 64 27.24C64.4133 27.2533 64.7 27.26 64.86 27.26C65.0333 27.26 65.1667 27.2467 65.26 27.22C65.3533 27.1933 65.44 27.1333 65.52 27.04C65.64 26.9067 65.74 26.6133 65.82 26.16C65.9 25.7067 65.9667 25.02 66.02 24.1C66.0867 23.18 66.1467 21.9667 66.2 20.46V20.22ZM61.58 10.12L63.16 10.38C62.9467 10.82 62.72 11.26 62.48 11.7C62.24 12.1267 62.02 12.4933 61.82 12.8L60.6 12.54C60.7867 12.1933 60.9733 11.7933 61.16 11.34C61.3467 10.8733 61.4867 10.4667 61.58 10.12ZM65.06 12.08H66.44C66.44 12.08 66.44 12.1533 66.44 12.3C66.44 12.4467 66.4333 12.5667 66.42 12.66C66.3667 13.9267 66.3 14.9533 66.22 15.74C66.1533 16.5267 66.0733 17.1267 65.98 17.54C65.8867 17.9533 65.7667 18.2467 65.62 18.42C65.4733 18.5933 65.3133 18.7133 65.14 18.78C64.9667 18.8467 64.76 18.8933 64.52 18.92C64.32 18.9333 64.0467 18.94 63.7 18.94C63.3667 18.94 63.0133 18.9333 62.64 18.92C62.6267 18.7333 62.5867 18.5267 62.52 18.3C62.4667 18.0733 62.3933 17.88 62.3 17.72C62.6467 17.7467 62.96 17.7667 63.24 17.78C63.5333 17.78 63.7467 17.78 63.88 17.78C64 17.78 64.1067 17.7733 64.2 17.76C64.2933 17.7333 64.3733 17.68 64.44 17.6C64.5333 17.48 64.6133 17.24 64.68 16.88C64.76 16.5067 64.8267 15.9533 64.88 15.22C64.9467 14.4867 65.0067 13.5133 65.06 12.3V12.08ZM60.66 14.82L61.52 14.14C61.92 14.4467 62.3267 14.8 62.74 15.2C63.1667 15.5867 63.4933 15.9333 63.72 16.24L62.84 17C62.6133 16.6933 62.2867 16.3333 61.86 15.92C61.4467 15.5067 61.0467 15.14 60.66 14.82ZM65.8 12.08V13.28H59.64V20.22H66.8V21.42H58.22V12.08H65.8ZM77.9 13.22H79.38V28.18H77.9V13.22ZM84.92 10.8L86.3 11.9C85.4467 12.1533 84.5 12.3867 83.46 12.6C82.4333 12.8133 81.3467 13.0133 80.2 13.2C79.0667 13.3733 77.92 13.54 76.76 13.7C75.6 13.8467 74.4667 13.9733 73.36 14.08C73.3467 13.96 73.3133 13.8267 73.26 13.68C73.2067 13.52 73.1467 13.3667 73.08 13.22C73.0267 13.06 72.9733 12.9333 72.92 12.84C73.9867 12.7333 75.08 12.6067 76.2 12.46C77.3333 12.3 78.4333 12.1333 79.5 11.96C80.58 11.7867 81.58 11.6067 82.5 11.42C83.4333 11.22 84.24 11.0133 84.92 10.8ZM72.38 12.42L74.26 12.88C74.2333 13.0267 74.0933 13.1133 73.84 13.14V17.28C73.84 18.0933 73.8 18.9867 73.72 19.96C73.6533 20.9333 73.52 21.9333 73.32 22.96C73.12 23.9733 72.8133 24.9733 72.4 25.96C71.9867 26.9333 71.44 27.84 70.76 28.68C70.6933 28.56 70.5933 28.4333 70.46 28.3C70.3267 28.18 70.1867 28.06 70.04 27.94C69.8933 27.8333 69.76 27.7533 69.64 27.7C70.2533 26.9267 70.7467 26.1 71.12 25.22C71.4933 24.3267 71.7667 23.42 71.94 22.5C72.1133 21.58 72.2267 20.6733 72.28 19.78C72.3467 18.8867 72.38 18.0533 72.38 17.28V12.42ZM84.78 11.84C84.8467 13.5333 84.9467 15.1667 85.08 16.74C85.2133 18.3133 85.4067 19.78 85.66 21.14C85.9267 22.4867 86.2733 23.6933 86.7 24.76C87.1267 25.8133 87.6733 26.68 88.34 27.36C88.22 27.44 88.0867 27.5533 87.94 27.7C87.7933 27.86 87.6533 28.02 87.52 28.18C87.4 28.34 87.3 28.4867 87.22 28.62C86.2733 27.5667 85.54 26.2133 85.02 24.56C84.5133 22.9067 84.14 21.0067 83.9 18.86C83.66 16.7133 83.4867 14.4 83.38 11.92L84.78 11.84Z" fill="black"/>
</svg>
