<svg width="97" height="40" viewBox="0 0 97 40" fill="none" xmlns="http://www.w3.org/2000/svg">
<rect x="0.5" y="0.5" width="96" height="39" fill="white"/>
<rect x="0.5" y="0.5" width="96" height="39" stroke="black"/>
<path d="M13.22 10.18H14.66V13.4H13.22V10.18ZM22.16 10.18H23.62V28.62H22.16V10.18ZM10.14 12.8H17.64V14.08H10.14V12.8ZM18 12.54H28.06V13.88H18V12.54ZM9.88 18.24H17.84V19.5H9.88V18.24ZM11.14 14.7L12.26 14.38C12.4733 14.9 12.6467 15.4733 12.78 16.1C12.9133 16.7133 12.9933 17.24 13.02 17.68L11.82 18.04C11.7933 17.6 11.72 17.0667 11.6 16.44C11.48 15.8 11.3267 15.22 11.14 14.7ZM15.56 14.28L16.92 14.62C16.7067 15.2067 16.48 15.8267 16.24 16.48C16 17.12 15.78 17.66 15.58 18.1L14.5 17.78C14.6333 17.46 14.7667 17.1 14.9 16.7C15.0333 16.2867 15.16 15.8667 15.28 15.44C15.4 15.0133 15.4933 14.6267 15.56 14.28ZM9.8 22.58C10.48 22.4733 11.2533 22.3467 12.12 22.2C13 22.04 13.9267 21.8733 14.9 21.7C15.8733 21.5133 16.8467 21.3333 17.82 21.16L17.9 22.4C16.5267 22.6667 15.16 22.94 13.8 23.22C12.44 23.4867 11.22 23.7267 10.14 23.94L9.8 22.58ZM19.74 17V20.02H26.28V17H19.74ZM18.4 15.8H27.68V21.2H18.4V15.8ZM23.9 20.72C24.2467 21.4267 24.6733 22.1467 25.18 22.88C25.6867 23.6 26.2333 24.2733 26.82 24.9C27.42 25.5133 28 26.0133 28.56 26.4C28.4133 26.5333 28.2333 26.7133 28.02 26.94C27.82 27.1533 27.66 27.3533 27.54 27.54C26.9667 27.0733 26.3867 26.4933 25.8 25.8C25.2267 25.0933 24.68 24.3333 24.16 23.52C23.6533 22.7067 23.2133 21.9 22.84 21.1L23.9 20.72ZM21.84 20.74L23.02 21.2C22.6067 22.08 22.0933 22.9333 21.48 23.76C20.88 24.5867 20.22 25.3467 19.5 26.04C18.7933 26.72 18.08 27.28 17.36 27.72C17.28 27.6133 17.18 27.4867 17.06 27.34C16.94 27.2067 16.82 27.0733 16.7 26.94C16.58 26.8067 16.46 26.6933 16.34 26.6C17.06 26.2267 17.7667 25.7333 18.46 25.12C19.1667 24.4933 19.8133 23.8067 20.4 23.06C20.9867 22.3 21.4667 21.5267 21.84 20.74ZM13.22 18.74H14.66V22.1C14.66 22.6067 14.62 23.1533 14.54 23.74C14.46 24.3133 14.3067 24.8933 14.08 25.48C13.8667 26.0667 13.5533 26.6267 13.14 27.16C12.74 27.7067 12.2067 28.2 11.54 28.64C11.4867 28.5467 11.4 28.4333 11.28 28.3C11.1733 28.1667 11.06 28.04 10.94 27.92C10.82 27.8 10.7 27.7 10.58 27.62C11.1933 27.26 11.6733 26.8533 12.02 26.4C12.3667 25.9333 12.6267 25.4467 12.8 24.94C12.9733 24.4333 13.0867 23.94 13.14 23.46C13.1933 22.9667 13.22 22.5067 13.22 22.08V18.74ZM42.02 10.36H43.44V20.46C43.44 20.8333 43.3867 21.1267 43.28 21.34C43.1867 21.5533 43.0067 21.72 42.74 21.84C42.4867 21.9467 42.1467 22.02 41.72 22.06C41.3067 22.0867 40.78 22.1 40.14 22.1C40.1 21.9 40.02 21.6733 39.9 21.42C39.7933 21.1667 39.6933 20.9467 39.6 20.76C40.0667 20.7733 40.4933 20.7867 40.88 20.8C41.2667 20.8 41.5267 20.7933 41.66 20.78C41.7933 20.7667 41.8867 20.74 41.94 20.7C41.9933 20.66 42.02 20.5733 42.02 20.44V10.36ZM44.66 13.26L45.9 12.86C46.2467 13.46 46.5733 14.1067 46.88 14.8C47.2 15.48 47.4867 16.14 47.74 16.78C48.0067 17.42 48.2 17.9867 48.32 18.48L46.96 18.98C46.8533 18.4867 46.68 17.9133 46.44 17.26C46.2 16.6067 45.9267 15.9267 45.62 15.22C45.3133 14.5133 44.9933 13.86 44.66 13.26ZM33.12 10.48H34.52V17.14C34.52 18.1533 34.48 19.1667 34.4 20.18C34.32 21.1933 34.1533 22.1867 33.9 23.16C33.66 24.1333 33.2867 25.0667 32.78 25.96C32.2867 26.8533 31.62 27.6933 30.78 28.48C30.7133 28.3733 30.6133 28.2533 30.48 28.12C30.36 27.9867 30.2267 27.8533 30.08 27.72C29.9467 27.6 29.8267 27.5 29.72 27.42C30.48 26.7133 31.0867 25.9533 31.54 25.14C32.0067 24.3133 32.3533 23.46 32.58 22.58C32.8067 21.6867 32.9533 20.7867 33.02 19.88C33.0867 18.96 33.12 18.0467 33.12 17.14V10.48ZM31 14.28L32.1 14.44C32.0867 15.0533 32.0333 15.6867 31.94 16.34C31.8467 16.98 31.7067 17.5867 31.52 18.16C31.3333 18.7333 31.0933 19.2267 30.8 19.64L29.72 19.12C29.9867 18.76 30.2067 18.32 30.38 17.8C30.5667 17.2667 30.7067 16.6933 30.8 16.08C30.8933 15.4667 30.96 14.8667 31 14.28ZM36.32 13.68L37.66 14.24C37.3267 14.9333 36.9867 15.66 36.64 16.42C36.2933 17.1667 35.9667 17.8067 35.66 18.34L34.68 17.84C34.8667 17.4667 35.06 17.04 35.26 16.56C35.4733 16.0667 35.6733 15.5667 35.86 15.06C36.0467 14.54 36.2 14.08 36.32 13.68ZM34.06 21.48C34.22 21.6267 34.4533 21.8667 34.76 22.2C35.0667 22.5333 35.3933 22.9 35.74 23.3C36.1 23.7 36.4267 24.0733 36.72 24.42C37.0267 24.7533 37.24 24.9933 37.36 25.14L36.32 26.24C36.16 25.9867 35.9333 25.6733 35.64 25.3C35.36 24.9267 35.06 24.5467 34.74 24.16C34.42 23.76 34.1133 23.3867 33.82 23.04C33.54 22.6933 33.3067 22.42 33.12 22.22L34.06 21.48ZM39.4 12.96L40.8 13.2C40.5333 14.4 40.1733 15.54 39.72 16.62C39.2667 17.7 38.7533 18.6133 38.18 19.36C38.0867 19.2933 37.96 19.22 37.8 19.14C37.6533 19.0467 37.5 18.9533 37.34 18.86C37.18 18.7667 37.0333 18.7 36.9 18.66C37.5133 17.9667 38.0267 17.12 38.44 16.12C38.8533 15.1067 39.1733 14.0533 39.4 12.96ZM45.7 19.4L47.1 19.8C46.6733 21.3467 46.06 22.6933 45.26 23.84C44.4733 24.9867 43.48 25.9667 42.28 26.78C41.08 27.58 39.6333 28.22 37.94 28.7C37.8467 28.4867 37.7133 28.2533 37.54 28C37.3667 27.76 37.2 27.56 37.04 27.4C38.64 26.9867 40.0067 26.4267 41.14 25.72C42.2867 25.0133 43.2333 24.1333 43.98 23.08C44.7267 22.0267 45.3 20.8 45.7 19.4ZM57.56 23.38H65.12V24.7H57.56V23.38ZM50.02 12.5H56.32V13.86H50.02V12.5ZM55.74 12.5H56L56.24 12.44L57.16 12.74C56.8667 14.9533 56.4 16.98 55.76 18.82C55.1333 20.6467 54.38 22.2467 53.5 23.62C52.62 24.9933 51.6533 26.12 50.6 27C50.48 26.8133 50.32 26.6133 50.12 26.4C49.92 26.1733 49.7333 26 49.56 25.88C50.2933 25.32 50.9867 24.6067 51.64 23.74C52.3067 22.86 52.9133 21.8533 53.46 20.72C54.0067 19.5867 54.4733 18.3533 54.86 17.02C55.26 15.6867 55.5533 14.2933 55.74 12.84V12.5ZM50.36 15.98L51.44 15.24C51.9467 15.92 52.46 16.6467 52.98 17.42C53.5133 18.1933 54.0267 18.9733 54.52 19.76C55.0133 20.5467 55.46 21.2933 55.86 22C56.2733 22.7067 56.6067 23.3467 56.86 23.92L55.66 24.84C55.4067 24.28 55.0867 23.6333 54.7 22.9C54.3133 22.1667 53.8733 21.4067 53.38 20.62C52.9 19.82 52.4 19.02 51.88 18.22C51.3733 17.42 50.8667 16.6733 50.36 15.98ZM66.2 20.22H67.62C67.62 20.22 67.62 20.3 67.62 20.46C67.62 20.6067 67.62 20.7333 67.62 20.84C67.5533 22.4133 67.48 23.68 67.4 24.64C67.3333 25.6 67.2467 26.3267 67.14 26.82C67.0467 27.3133 66.9133 27.6533 66.74 27.84C66.5933 28.04 66.4133 28.18 66.2 28.26C66 28.34 65.76 28.3933 65.48 28.42C65.24 28.4467 64.8933 28.4533 64.44 28.44C64 28.4267 63.54 28.4133 63.06 28.4C63.0467 28.2133 63.0067 28 62.94 27.76C62.8733 27.5333 62.7867 27.34 62.68 27.18C63.16 27.2067 63.6 27.2267 64 27.24C64.4133 27.2533 64.7 27.26 64.86 27.26C65.0333 27.26 65.1667 27.2467 65.26 27.22C65.3533 27.1933 65.44 27.1333 65.52 27.04C65.64 26.9067 65.74 26.6133 65.82 26.16C65.9 25.7067 65.9667 25.02 66.02 24.1C66.0867 23.18 66.1467 21.9667 66.2 20.46V20.22ZM61.58 10.12L63.16 10.38C62.9467 10.82 62.72 11.26 62.48 11.7C62.24 12.1267 62.02 12.4933 61.82 12.8L60.6 12.54C60.7867 12.1933 60.9733 11.7933 61.16 11.34C61.3467 10.8733 61.4867 10.4667 61.58 10.12ZM65.06 12.08H66.44C66.44 12.08 66.44 12.1533 66.44 12.3C66.44 12.4467 66.4333 12.5667 66.42 12.66C66.3667 13.9267 66.3 14.9533 66.22 15.74C66.1533 16.5267 66.0733 17.1267 65.98 17.54C65.8867 17.9533 65.7667 18.2467 65.62 18.42C65.4733 18.5933 65.3133 18.7133 65.14 18.78C64.9667 18.8467 64.76 18.8933 64.52 18.92C64.32 18.9333 64.0467 18.94 63.7 18.94C63.3667 18.94 63.0133 18.9333 62.64 18.92C62.6267 18.7333 62.5867 18.5267 62.52 18.3C62.4667 18.0733 62.3933 17.88 62.3 17.72C62.6467 17.7467 62.96 17.7667 63.24 17.78C63.5333 17.78 63.7467 17.78 63.88 17.78C64 17.78 64.1067 17.7733 64.2 17.76C64.2933 17.7333 64.3733 17.68 64.44 17.6C64.5333 17.48 64.6133 17.24 64.68 16.88C64.76 16.5067 64.8267 15.9533 64.88 15.22C64.9467 14.4867 65.0067 13.5133 65.06 12.3V12.08ZM60.66 14.82L61.52 14.14C61.92 14.4467 62.3267 14.8 62.74 15.2C63.1667 15.5867 63.4933 15.9333 63.72 16.24L62.84 17C62.6133 16.6933 62.2867 16.3333 61.86 15.92C61.4467 15.5067 61.0467 15.14 60.66 14.82ZM65.8 12.08V13.28H59.64V20.22H66.8V21.42H58.22V12.08H65.8ZM69.86 13.06H77.46V14.4H69.86V13.06ZM70 17.42H76.22V18.76H70V17.42ZM73.02 10.2H74.44V18.32H73.02V10.2ZM71.9 18.7C72.2067 20.3667 72.6267 21.7267 73.16 22.78C73.7067 23.82 74.3667 24.6267 75.14 25.2C75.9267 25.7733 76.8267 26.1667 77.84 26.38C78.8667 26.5933 80.02 26.7 81.3 26.7C81.4333 26.7 81.6733 26.7 82.02 26.7C82.3667 26.7 82.7733 26.7 83.24 26.7C83.7067 26.7 84.1933 26.7 84.7 26.7C85.22 26.7 85.72 26.7 86.2 26.7C86.68 26.6867 87.1 26.68 87.46 26.68C87.8333 26.68 88.1 26.68 88.26 26.68C88.1933 26.7867 88.12 26.92 88.04 27.08C87.96 27.2533 87.8933 27.4267 87.84 27.6C87.7867 27.7733 87.7467 27.9267 87.72 28.06H86.62H81.24C79.8 28.06 78.5067 27.9333 77.36 27.68C76.2133 27.44 75.2067 27 74.34 26.36C73.4867 25.7067 72.76 24.7933 72.16 23.62C71.5733 22.4333 71.1 20.9133 70.74 19.06L71.9 18.7ZM77.32 11.32H81.16V12.62H77.32V11.32ZM82.64 11.32H86.72V12.62H82.64V11.32ZM80.54 11.32H81.84V23.88C81.84 24.2533 81.7933 24.5467 81.7 24.76C81.6067 24.9733 81.4267 25.1333 81.16 25.24C80.9067 25.3467 80.56 25.4133 80.12 25.44C79.68 25.4667 79.1267 25.48 78.46 25.48C78.4333 25.3067 78.38 25.1 78.3 24.86C78.22 24.6067 78.1333 24.3867 78.04 24.2C78.5333 24.2133 78.98 24.2267 79.38 24.24C79.7933 24.24 80.0667 24.2333 80.2 24.22C80.4267 24.2067 80.54 24.0933 80.54 23.88V11.32ZM86.04 11.32H87.34V23.84C87.34 24.2133 87.2867 24.5133 87.18 24.74C87.0867 24.9533 86.9067 25.1133 86.64 25.22C86.3867 25.3267 86.04 25.3933 85.6 25.42C85.16 25.4333 84.5933 25.44 83.9 25.44C83.8733 25.2667 83.82 25.06 83.74 24.82C83.66 24.5667 83.5733 24.3533 83.48 24.18C83.9867 24.1933 84.4467 24.2 84.86 24.2C85.2733 24.2 85.5467 24.1933 85.68 24.18C85.92 24.18 86.04 24.0667 86.04 23.84V11.32ZM80.02 13.32L81.2 13.7C80.7733 14.3533 80.2533 15 79.64 15.64C79.04 16.28 78.4533 16.82 77.88 17.26C77.8 17.18 77.7 17.0933 77.58 17C77.46 16.9067 77.3333 16.8133 77.2 16.72C77.08 16.6267 76.9733 16.5467 76.88 16.48C77.4667 16.0667 78.04 15.58 78.6 15.02C79.16 14.46 79.6333 13.8933 80.02 13.32ZM80.08 17.58L81.28 17.94C80.7867 18.8867 80.1733 19.8 79.44 20.68C78.72 21.56 77.98 22.3067 77.22 22.92C77.1533 22.84 77.06 22.7467 76.94 22.64C76.8333 22.52 76.72 22.4067 76.6 22.3C76.48 22.18 76.3733 22.0867 76.28 22.02C77.0267 21.4733 77.74 20.8133 78.42 20.04C79.1 19.2533 79.6533 18.4333 80.08 17.58ZM85.48 13.32L86.68 13.7C86.2533 14.34 85.7333 14.98 85.12 15.62C84.52 16.26 83.9333 16.8067 83.36 17.26C83.24 17.1533 83.08 17.02 82.88 16.86C82.68 16.6867 82.5067 16.5533 82.36 16.46C82.9333 16.0467 83.5 15.5667 84.06 15.02C84.6333 14.46 85.1067 13.8933 85.48 13.32ZM85.56 17.58L86.76 17.96C86.2933 18.8667 85.7133 19.7533 85.02 20.62C84.34 21.4867 83.6533 22.22 82.96 22.82C82.8933 22.74 82.8 22.6533 82.68 22.56C82.56 22.4533 82.4333 22.3467 82.3 22.24C82.18 22.1333 82.0733 22.0533 81.98 22C82.6867 21.44 83.36 20.7733 84 20C84.64 19.2267 85.16 18.42 85.56 17.58ZM75.72 17.42H76.02L76.3 17.38L77.16 17.72C76.8267 19.5333 76.34 21.1467 75.7 22.56C75.06 23.9733 74.2933 25.1867 73.4 26.2C72.52 27.2133 71.5533 28.0333 70.5 28.66C70.4467 28.54 70.36 28.4 70.24 28.24C70.1333 28.08 70.02 27.9267 69.9 27.78C69.7933 27.6467 69.6933 27.5333 69.6 27.44C70.6 26.88 71.5133 26.1467 72.34 25.24C73.1667 24.3333 73.8667 23.2533 74.44 22C75.0267 20.7467 75.4533 19.3267 75.72 17.74V17.42Z" fill="black"/>
</svg>
