<svg width="92" height="37" viewBox="0 0 92 37" fill="none" xmlns="http://www.w3.org/2000/svg">
<rect x="0.5" y="0.5" width="91" height="36" fill="white"/>
<rect x="0.5" y="0.5" width="91" height="36" stroke="black"/>
<path d="M20.22 9.18H21.66V12.4H20.22V9.18ZM29.16 9.18H30.62V27.62H29.16V9.18ZM17.14 11.8H24.64V13.08H17.14V11.8ZM25 11.54H35.06V12.88H25V11.54ZM16.88 17.24H24.84V18.5H16.88V17.24ZM18.14 13.7L19.26 13.38C19.4733 13.9 19.6467 14.4733 19.78 15.1C19.9133 15.7133 19.9933 16.24 20.02 16.68L18.82 17.04C18.7933 16.6 18.72 16.0667 18.6 15.44C18.48 14.8 18.3267 14.22 18.14 13.7ZM22.56 13.28L23.92 13.62C23.7067 14.2067 23.48 14.8267 23.24 15.48C23 16.12 22.78 16.66 22.58 17.1L21.5 16.78C21.6333 16.46 21.7667 16.1 21.9 15.7C22.0333 15.2867 22.16 14.8667 22.28 14.44C22.4 14.0133 22.4933 13.6267 22.56 13.28ZM16.8 21.58C17.48 21.4733 18.2533 21.3467 19.12 21.2C20 21.04 20.9267 20.8733 21.9 20.7C22.8733 20.5133 23.8467 20.3333 24.82 20.16L24.9 21.4C23.5267 21.6667 22.16 21.94 20.8 22.22C19.44 22.4867 18.22 22.7267 17.14 22.94L16.8 21.58ZM26.74 16V19.02H33.28V16H26.74ZM25.4 14.8H34.68V20.2H25.4V14.8ZM30.9 19.72C31.2467 20.4267 31.6733 21.1467 32.18 21.88C32.6867 22.6 33.2333 23.2733 33.82 23.9C34.42 24.5133 35 25.0133 35.56 25.4C35.4133 25.5333 35.2333 25.7133 35.02 25.94C34.82 26.1533 34.66 26.3533 34.54 26.54C33.9667 26.0733 33.3867 25.4933 32.8 24.8C32.2267 24.0933 31.68 23.3333 31.16 22.52C30.6533 21.7067 30.2133 20.9 29.84 20.1L30.9 19.72ZM28.84 19.74L30.02 20.2C29.6067 21.08 29.0933 21.9333 28.48 22.76C27.88 23.5867 27.22 24.3467 26.5 25.04C25.7933 25.72 25.08 26.28 24.36 26.72C24.28 26.6133 24.18 26.4867 24.06 26.34C23.94 26.2067 23.82 26.0733 23.7 25.94C23.58 25.8067 23.46 25.6933 23.34 25.6C24.06 25.2267 24.7667 24.7333 25.46 24.12C26.1667 23.4933 26.8133 22.8067 27.4 22.06C27.9867 21.3 28.4667 20.5267 28.84 19.74ZM20.22 17.74H21.66V21.1C21.66 21.6067 21.62 22.1533 21.54 22.74C21.46 23.3133 21.3067 23.8933 21.08 24.48C20.8667 25.0667 20.5533 25.6267 20.14 26.16C19.74 26.7067 19.2067 27.2 18.54 27.64C18.4867 27.5467 18.4 27.4333 18.28 27.3C18.1733 27.1667 18.06 27.04 17.94 26.92C17.82 26.8 17.7 26.7 17.58 26.62C18.1933 26.26 18.6733 25.8533 19.02 25.4C19.3667 24.9333 19.6267 24.4467 19.8 23.94C19.9733 23.4333 20.0867 22.94 20.14 22.46C20.1933 21.9667 20.22 21.5067 20.22 21.08V17.74ZM36.94 18.14H55.1V19.64H36.94V18.14ZM45.26 14.92H46.82V25.66C46.82 26.1667 46.74 26.5467 46.58 26.8C46.4333 27.0533 46.1733 27.24 45.8 27.36C45.4267 27.48 44.9067 27.56 44.24 27.6C43.5867 27.64 42.78 27.6533 41.82 27.64C41.7933 27.4933 41.74 27.3267 41.66 27.14C41.5933 26.9667 41.5133 26.78 41.42 26.58C41.34 26.3933 41.26 26.2333 41.18 26.1C41.7133 26.1133 42.22 26.12 42.7 26.12C43.1933 26.1333 43.6133 26.14 43.96 26.14C44.32 26.14 44.5733 26.14 44.72 26.14C44.9333 26.1133 45.0733 26.0667 45.14 26C45.22 25.9467 45.26 25.8267 45.26 25.64V14.92ZM39.02 10.58H52.06V12.08H39.02V10.58ZM51.56 10.58H51.94L52.28 10.5L53.42 11.36C52.82 11.96 52.12 12.5733 51.32 13.2C50.5333 13.8133 49.7133 14.3933 48.86 14.94C48.02 15.4867 47.2133 15.96 46.44 16.36C46.36 16.2533 46.26 16.1333 46.14 16C46.0333 15.8667 45.9133 15.74 45.78 15.62C45.66 15.4867 45.5533 15.38 45.46 15.3C46.1933 14.94 46.9467 14.5133 47.72 14.02C48.4933 13.5133 49.22 12.9933 49.9 12.46C50.58 11.9133 51.1333 11.4067 51.56 10.94V10.58ZM64.56 22.38H72.12V23.7H64.56V22.38ZM57.02 11.5H63.32V12.86H57.02V11.5ZM62.74 11.5H63L63.24 11.44L64.16 11.74C63.8667 13.9533 63.4 15.98 62.76 17.82C62.1333 19.6467 61.38 21.2467 60.5 22.62C59.62 23.9933 58.6533 25.12 57.6 26C57.48 25.8133 57.32 25.6133 57.12 25.4C56.92 25.1733 56.7333 25 56.56 24.88C57.2933 24.32 57.9867 23.6067 58.64 22.74C59.3067 21.86 59.9133 20.8533 60.46 19.72C61.0067 18.5867 61.4733 17.3533 61.86 16.02C62.26 14.6867 62.5533 13.2933 62.74 11.84V11.5ZM57.36 14.98L58.44 14.24C58.9467 14.92 59.46 15.6467 59.98 16.42C60.5133 17.1933 61.0267 17.9733 61.52 18.76C62.0133 19.5467 62.46 20.2933 62.86 21C63.2733 21.7067 63.6067 22.3467 63.86 22.92L62.66 23.84C62.4067 23.28 62.0867 22.6333 61.7 21.9C61.3133 21.1667 60.8733 20.4067 60.38 19.62C59.9 18.82 59.4 18.02 58.88 17.22C58.3733 16.42 57.8667 15.6733 57.36 14.98ZM73.2 19.22H74.62C74.62 19.22 74.62 19.3 74.62 19.46C74.62 19.6067 74.62 19.7333 74.62 19.84C74.5533 21.4133 74.48 22.68 74.4 23.64C74.3333 24.6 74.2467 25.3267 74.14 25.82C74.0467 26.3133 73.9133 26.6533 73.74 26.84C73.5933 27.04 73.4133 27.18 73.2 27.26C73 27.34 72.76 27.3933 72.48 27.42C72.24 27.4467 71.8933 27.4533 71.44 27.44C71 27.4267 70.54 27.4133 70.06 27.4C70.0467 27.2133 70.0067 27 69.94 26.76C69.8733 26.5333 69.7867 26.34 69.68 26.18C70.16 26.2067 70.6 26.2267 71 26.24C71.4133 26.2533 71.7 26.26 71.86 26.26C72.0333 26.26 72.1667 26.2467 72.26 26.22C72.3533 26.1933 72.44 26.1333 72.52 26.04C72.64 25.9067 72.74 25.6133 72.82 25.16C72.9 24.7067 72.9667 24.02 73.02 23.1C73.0867 22.18 73.1467 20.9667 73.2 19.46V19.22ZM68.58 9.12L70.16 9.38C69.9467 9.82 69.72 10.26 69.48 10.7C69.24 11.1267 69.02 11.4933 68.82 11.8L67.6 11.54C67.7867 11.1933 67.9733 10.7933 68.16 10.34C68.3467 9.87333 68.4867 9.46667 68.58 9.12ZM72.06 11.08H73.44C73.44 11.08 73.44 11.1533 73.44 11.3C73.44 11.4467 73.4333 11.5667 73.42 11.66C73.3667 12.9267 73.3 13.9533 73.22 14.74C73.1533 15.5267 73.0733 16.1267 72.98 16.54C72.8867 16.9533 72.7667 17.2467 72.62 17.42C72.4733 17.5933 72.3133 17.7133 72.14 17.78C71.9667 17.8467 71.76 17.8933 71.52 17.92C71.32 17.9333 71.0467 17.94 70.7 17.94C70.3667 17.94 70.0133 17.9333 69.64 17.92C69.6267 17.7333 69.5867 17.5267 69.52 17.3C69.4667 17.0733 69.3933 16.88 69.3 16.72C69.6467 16.7467 69.96 16.7667 70.24 16.78C70.5333 16.78 70.7467 16.78 70.88 16.78C71 16.78 71.1067 16.7733 71.2 16.76C71.2933 16.7333 71.3733 16.68 71.44 16.6C71.5333 16.48 71.6133 16.24 71.68 15.88C71.76 15.5067 71.8267 14.9533 71.88 14.22C71.9467 13.4867 72.0067 12.5133 72.06 11.3V11.08ZM67.66 13.82L68.52 13.14C68.92 13.4467 69.3267 13.8 69.74 14.2C70.1667 14.5867 70.4933 14.9333 70.72 15.24L69.84 16C69.6133 15.6933 69.2867 15.3333 68.86 14.92C68.4467 14.5067 68.0467 14.14 67.66 13.82ZM72.8 11.08V12.28H66.64V19.22H73.8V20.42H65.22V11.08H72.8Z" fill="black"/>
</svg>
