<svg width="393" height="292" viewBox="0 0 393 292" fill="none" xmlns="http://www.w3.org/2000/svg">
<rect x="155.003" y="193.707" width="18.9183" height="85.5437" rx="9.45916" fill="url(#paint0_linear_54_56)"/>
<rect x="155.003" y="253.752" width="18.9183" height="25.4986" rx="9.45916" fill="#5C5959"/>
<rect x="320.333" y="193.707" width="18.9183" height="85.5437" rx="9.45916" fill="url(#paint1_linear_54_56)"/>
<rect x="320.333" y="253.752" width="18.9183" height="25.4986" rx="9.45916" fill="#5C5959"/>
<rect x="100.305" y="82.6648" width="273.904" height="132.428" rx="66.2141" fill="url(#paint2_linear_54_56)"/>
<path d="M52.1864 37.8366L38.409 46.4732L28.9498 27.9662L21.547 0C21.547 0 35.5301 23.031 36.7639 24.4704C37.9977 25.9099 52.1864 37.8366 52.1864 37.8366Z" fill="url(#paint3_linear_54_56)"/>
<path d="M100.305 41.9493L114.082 50.5859L123.541 32.0789L130.944 4.11267C130.944 4.11267 116.961 27.1437 115.727 28.5831C114.493 30.0225 100.305 41.9493 100.305 41.9493Z" fill="url(#paint4_linear_54_56)"/>
<path d="M74.8057 30.8451C93.532 30.8451 110.199 40.9323 120.886 56.6166L137.747 36.68L154.864 41.9173L138.074 65.0462L124.582 62.7084C130.051 72.8809 133.206 84.8567 133.206 97.6761C133.206 134.586 107.059 164.507 74.8057 164.507C42.5525 164.507 16.4063 134.586 16.4062 97.6761C16.4062 83.5928 20.2128 70.5268 26.7129 59.7523L1.48145 51.3265L0 33.4876L27.7061 40.5091L30.5645 54.0492C41.2738 39.8397 57.1219 30.8452 74.8057 30.8451Z" fill="url(#paint5_linear_54_56)"/>
<ellipse cx="53.4202" cy="80.6085" rx="4.11268" ry="10.2817" fill="black"/>
<ellipse cx="96.192" cy="80.6085" rx="4.11268" ry="10.2817" fill="black"/>
<mask id="path-11-outside-1_54_56" maskUnits="userSpaceOnUse" x="16.2766" y="117.082" width="118" height="64" fill="black">
<rect fill="white" x="16.2766" y="117.082" width="118" height="64"/>
<path d="M102.275 127.082C103.01 127.082 103.727 127.163 104.417 127.314C105.204 127.161 106.009 127.082 106.827 127.082C115.945 127.082 123.336 136.889 123.336 148.986C123.336 161.083 115.945 170.89 106.827 170.89C106.009 170.89 105.204 170.81 104.417 170.657C103.727 170.808 103.01 170.89 102.275 170.89H50.8967C49.5472 170.89 48.2607 170.622 47.0861 170.137C45.7147 170.627 44.2734 170.89 42.7853 170.89C33.6679 170.89 26.2766 161.083 26.2766 148.986C26.2766 136.889 33.6679 127.082 42.7853 127.082C44.2737 127.082 45.7154 127.345 47.0871 127.835C48.2614 127.35 49.5475 127.082 50.8967 127.082H102.275Z"/>
</mask>
<path d="M102.275 127.082C103.01 127.082 103.727 127.163 104.417 127.314C105.204 127.161 106.009 127.082 106.827 127.082C115.945 127.082 123.336 136.889 123.336 148.986C123.336 161.083 115.945 170.89 106.827 170.89C106.009 170.89 105.204 170.81 104.417 170.657C103.727 170.808 103.01 170.89 102.275 170.89H50.8967C49.5472 170.89 48.2607 170.622 47.0861 170.137C45.7147 170.627 44.2734 170.89 42.7853 170.89C33.6679 170.89 26.2766 161.083 26.2766 148.986C26.2766 136.889 33.6679 127.082 42.7853 127.082C44.2737 127.082 45.7154 127.345 47.0871 127.835C48.2614 127.35 49.5475 127.082 50.8967 127.082H102.275Z" fill="url(#paint6_linear_54_56)"/>
<path d="M104.417 127.314L102.284 137.084L104.299 137.524L106.322 137.131L104.417 127.314ZM106.827 127.082L106.827 117.082H106.827V127.082ZM123.336 148.986H133.336V148.986L123.336 148.986ZM106.827 170.89V180.89H106.827L106.827 170.89ZM104.417 170.657L106.323 160.84L104.299 160.447L102.284 160.887L104.417 170.657ZM50.8967 170.89L50.8965 180.89H50.8967V170.89ZM47.0861 170.137L50.8999 160.893L47.3446 159.426L43.7228 160.72L47.0861 170.137ZM42.7853 170.89V180.89H42.7855L42.7853 170.89ZM26.2766 148.986L16.2766 148.986V148.986H26.2766ZM42.7853 127.082L42.7855 117.082H42.7853V127.082ZM47.0871 127.835L43.7232 137.252L47.3448 138.546L50.8999 137.079L47.0871 127.835ZM50.8967 127.082V117.082H50.8965L50.8967 127.082ZM102.275 127.082V137.082C102.272 137.082 102.27 137.082 102.271 137.082C102.272 137.082 102.276 137.082 102.284 137.084L104.417 127.314L106.55 117.544C105.185 117.246 103.753 117.082 102.275 117.082V127.082ZM104.417 127.314L106.322 137.131C106.494 137.098 106.661 137.082 106.827 137.082V127.082V117.082C105.357 117.082 103.914 117.225 102.512 117.497L104.417 127.314ZM106.827 127.082L106.827 137.082C107.554 137.082 108.957 137.449 110.515 139.516C112.077 141.588 113.336 144.903 113.336 148.986L123.336 148.986L133.336 148.986C133.336 140.971 130.9 133.334 126.487 127.479C122.07 121.618 115.218 117.082 106.827 117.082L106.827 127.082ZM123.336 148.986H113.336C113.336 153.069 112.077 156.384 110.515 158.456C108.957 160.523 107.554 160.89 106.827 160.89L106.827 170.89L106.827 180.89C115.218 180.89 122.07 176.354 126.487 170.493C130.9 164.638 133.336 157.001 133.336 148.986H123.336ZM106.827 170.89V160.89C106.669 160.89 106.502 160.875 106.323 160.84L104.417 170.657L102.512 180.474C103.906 180.744 105.349 180.89 106.827 180.89V170.89ZM104.417 170.657L102.284 160.887C102.271 160.89 102.265 160.891 102.264 160.891C102.264 160.891 102.267 160.89 102.275 160.89V170.89V180.89C103.762 180.89 105.194 180.723 106.55 180.427L104.417 170.657ZM102.275 170.89V160.89H50.8967V170.89V180.89H102.275V170.89ZM50.8967 170.89L50.8968 160.89C50.8911 160.89 50.8882 160.89 50.8879 160.89C50.8875 160.89 50.8885 160.89 50.8904 160.89C50.8947 160.891 50.8983 160.893 50.8999 160.893L47.0861 170.137L43.2724 179.382C45.6299 180.354 48.2103 180.89 50.8965 180.89L50.8967 170.89ZM47.0861 170.137L43.7228 160.72C43.3842 160.841 43.0787 160.89 42.7852 160.89L42.7853 170.89L42.7855 180.89C45.4681 180.89 48.0452 180.413 50.4495 179.555L47.0861 170.137ZM42.7853 170.89V160.89C42.0588 160.89 40.6559 160.523 39.0978 158.456C37.536 156.384 36.2766 153.069 36.2766 148.986H26.2766H16.2766C16.2766 157.001 18.7127 164.638 23.126 170.493C27.5429 176.354 34.3944 180.89 42.7853 180.89V170.89ZM26.2766 148.986L36.2766 148.986C36.2766 144.903 37.5361 141.588 39.0978 139.516C40.656 137.449 42.0589 137.082 42.7853 137.082V127.082V117.082C34.3944 117.082 27.5429 121.618 23.1261 127.479C18.7128 133.334 16.2766 140.971 16.2766 148.986L26.2766 148.986ZM42.7853 127.082L42.7852 137.082C43.0801 137.082 43.3859 137.131 43.7232 137.252L47.0871 127.835L50.451 118.417C48.045 117.558 45.4672 117.082 42.7855 117.082L42.7853 127.082ZM47.0871 127.835L50.8999 137.079C50.8993 137.079 50.8962 137.081 50.8919 137.081C50.89 137.082 50.8889 137.082 50.889 137.082C50.8891 137.082 50.8915 137.082 50.8968 137.082L50.8967 127.082L50.8965 117.082C48.209 117.082 45.6295 117.619 43.2743 118.59L47.0871 127.835ZM50.8967 127.082V137.082H102.275V127.082V117.082H50.8967V127.082Z" fill="white" mask="url(#path-11-outside-1_54_56)"/>
<circle cx="53.2146" cy="148.673" r="8.01972" fill="#9B3E58"/>
<circle cx="95.9864" cy="148.673" r="8.01972" fill="#9B3E58"/>
<rect x="123.336" y="206.456" width="18.9183" height="85.5437" rx="9.45916" fill="url(#paint7_linear_54_56)"/>
<rect x="123.336" y="266.501" width="18.9183" height="25.4986" rx="9.45916" fill="#5C5959"/>
<rect x="287.02" y="206.456" width="18.9183" height="85.5437" rx="9.45916" fill="url(#paint8_linear_54_56)"/>
<rect x="287.02" y="266.501" width="18.9183" height="25.4986" rx="9.45916" fill="#5C5959"/>
<path d="M359 108C408.517 133.499 407.118 147.893 394.986 171.746L372.366 189.02" stroke="black"/>
<defs>
<linearGradient id="paint0_linear_54_56" x1="164.462" y1="193.707" x2="164.462" y2="279.251" gradientUnits="userSpaceOnUse">
<stop stop-color="#FCFEF0"/>
<stop offset="1" stop-color="#979890"/>
</linearGradient>
<linearGradient id="paint1_linear_54_56" x1="329.792" y1="193.707" x2="329.792" y2="279.251" gradientUnits="userSpaceOnUse">
<stop stop-color="#FCFEF0"/>
<stop offset="1" stop-color="#979890"/>
</linearGradient>
<linearGradient id="paint2_linear_54_56" x1="237.257" y1="85.9549" x2="237.257" y2="169.031" gradientUnits="userSpaceOnUse">
<stop stop-color="#CF702C"/>
<stop offset="1" stop-color="#864415"/>
</linearGradient>
<linearGradient id="paint3_linear_54_56" x1="36.8667" y1="0" x2="36.8667" y2="46.4732" gradientUnits="userSpaceOnUse">
<stop stop-color="#D9D9D9"/>
<stop offset="1" stop-color="#737373"/>
</linearGradient>
<linearGradient id="paint4_linear_54_56" x1="115.624" y1="4.11267" x2="115.624" y2="50.5859" gradientUnits="userSpaceOnUse">
<stop stop-color="#D9D9D9"/>
<stop offset="1" stop-color="#737373"/>
</linearGradient>
<linearGradient id="paint5_linear_54_56" x1="77.4321" y1="30.8451" x2="77.4321" y2="164.507" gradientUnits="userSpaceOnUse">
<stop stop-color="#D6742E"/>
<stop offset="1" stop-color="#552706"/>
</linearGradient>
<linearGradient id="paint6_linear_54_56" x1="74.8063" y1="127.082" x2="74.8063" y2="170.89" gradientUnits="userSpaceOnUse">
<stop stop-color="#F8CFDB"/>
<stop offset="1" stop-color="#936975"/>
</linearGradient>
<linearGradient id="paint7_linear_54_56" x1="132.795" y1="242.854" x2="132.795" y2="292" gradientUnits="userSpaceOnUse">
<stop stop-color="#FCFEF0"/>
<stop offset="1" stop-color="#979890"/>
</linearGradient>
<linearGradient id="paint8_linear_54_56" x1="296.479" y1="242.854" x2="296.479" y2="292" gradientUnits="userSpaceOnUse">
<stop stop-color="#FCFEF0"/>
<stop offset="1" stop-color="#979890"/>
</linearGradient>
</defs>
</svg>
