<svg width="222" height="135" viewBox="0 0 222 135" fill="none" xmlns="http://www.w3.org/2000/svg">
<path d="M61.7801 58.4684L64.0736 54.0254L64.0736 54.0254L61.7801 58.4684ZM69.3303 81.1182L73.8033 83.3526L73.8167 83.3257L73.8298 83.2986L69.3303 81.1182ZM69.133 81.5131L64.66 79.2788L62.4794 83.6442L66.7905 85.9304L69.133 81.5131ZM69.523 81.72L71.9283 77.3365L71.8971 77.3194L71.8655 77.3027L69.523 81.72ZM76.4864 104.557L80.9293 106.851L80.9294 106.851L76.4864 104.557ZM53.4416 111.91L55.7351 107.467L51.3508 105.204L49.0295 109.558L53.4416 111.91ZM53.2339 112.3L57.6174 114.705L57.6319 114.678L57.646 114.652L53.2339 112.3ZM30.3968 119.263L28.1032 123.706L28.1033 123.706L30.3968 119.263ZM22.8466 96.613L18.3786 94.3688L18.3626 94.4007L18.347 94.4328L22.8466 96.613ZM23.0448 96.2186L27.5128 98.4628L29.7031 94.1022L25.3971 91.8065L23.0448 96.2186ZM22.6552 96.0109L20.25 100.394L20.2764 100.409L20.3029 100.423L22.6552 96.0109ZM15.6919 73.1738L11.249 70.8802L11.2489 70.8803L15.6919 73.1738ZM38.7362 65.8217L36.4427 70.2647L40.8367 72.533L43.1535 68.1643L38.7362 65.8217ZM38.943 65.4317L34.5595 63.0265L34.5424 63.0577L34.5257 63.0892L38.943 65.4317ZM61.7801 58.4684L59.4866 62.9113C65.3334 65.9295 67.6828 73.0522 64.8307 78.9379L69.3303 81.1182L73.8298 83.2986C79.0412 72.544 74.7526 59.5381 64.0736 54.0254L61.7801 58.4684ZM69.3303 81.1182L64.8573 78.8839L64.66 79.2788L69.133 81.5131L73.606 83.7475L73.8033 83.3526L69.3303 81.1182ZM69.133 81.5131L66.7905 85.9304L67.1805 86.1373L69.523 81.72L71.8655 77.3027L71.4756 77.0958L69.133 81.5131ZM69.523 81.72L67.1177 86.1034C72.8513 89.2496 75.0614 96.4169 72.0434 102.264L76.4864 104.557L80.9294 106.851C86.4417 96.1717 82.405 83.0854 71.9283 77.3365L69.523 81.72ZM76.4864 104.557L72.0435 102.264C68.977 108.204 61.6753 110.533 55.7351 107.467L53.4416 111.91L51.1481 116.353C61.9958 121.953 75.3296 117.698 80.9293 106.851L76.4864 104.557ZM53.4416 111.91L49.0295 109.558L48.8218 109.947L53.2339 112.3L57.646 114.652L57.8537 114.262L53.4416 111.91ZM53.2339 112.3L48.8505 109.894C45.7042 115.628 38.5369 117.838 32.6904 114.82L30.3968 119.263L28.1033 123.706C38.7823 129.219 51.8685 125.181 57.6174 114.705L53.2339 112.3ZM30.3968 119.263L32.6904 114.82C26.8439 111.802 24.4944 104.679 27.3463 98.7933L22.8466 96.613L18.347 94.4328C13.1361 105.187 17.4246 118.193 28.1032 123.706L30.3968 119.263ZM22.8466 96.613L27.3147 98.8573L27.5128 98.4628L23.0448 96.2186L18.5767 93.9743L18.3786 94.3688L22.8466 96.613ZM23.0448 96.2186L25.3971 91.8065L25.0075 91.5988L22.6552 96.0109L20.3029 100.423L20.6925 100.631L23.0448 96.2186ZM22.6552 96.0109L25.0605 91.6274C19.3267 88.4813 17.1166 81.3141 20.1348 75.4673L15.6919 73.1738L11.2489 70.8803C5.73623 81.5592 9.77287 94.6455 20.25 100.394L22.6552 96.0109ZM15.6919 73.1738L20.1348 75.4674C23.2011 69.5276 30.5023 67.1982 36.4427 70.2647L38.7362 65.8217L41.0297 61.3788C30.1824 55.7792 16.849 60.0325 11.249 70.8802L15.6919 73.1738ZM38.7362 65.8217L43.1535 68.1643L43.3603 67.7743L38.943 65.4317L34.5257 63.0892L34.3189 63.4792L38.7362 65.8217ZM38.943 65.4317L43.3265 67.837C46.4725 62.1033 53.6398 59.8932 59.4866 62.9113L61.7801 58.4684L64.0736 54.0254C53.3947 48.513 40.3083 52.5494 34.5595 63.0265L38.943 65.4317Z" fill="url(#paint0_linear_19_1809)"/>
<path d="M199.849 26.4813L203.72 23.3161L203.719 23.3161L199.849 26.4813ZM197.774 50.266L200.99 54.0943L201.013 54.075L201.036 54.0553L197.774 50.266ZM197.436 50.55L194.219 46.7217L190.483 49.8607L193.53 53.6722L197.436 50.55ZM197.711 50.8948L201.661 47.8287L201.639 47.8005L201.617 47.7727L197.711 50.8948ZM195.023 74.6181L198.188 78.4887L198.188 78.4887L195.023 74.6181ZM170.954 72.2048L174.825 69.0396L171.701 65.22L167.841 68.2925L170.954 72.2048ZM170.609 72.4797L173.675 76.4292L173.699 76.4107L173.722 76.392L170.609 72.4797ZM146.886 69.7914L143.015 72.9565L143.015 72.9566L146.886 69.7914ZM148.961 46.0067L145.753 42.1713L145.726 42.1942L145.699 42.2175L148.961 46.0067ZM149.3 45.7235L152.507 49.5589L156.25 46.4282L153.212 42.61L149.3 45.7235ZM149.025 45.3781L145.075 48.4443L145.094 48.468L145.112 48.4916L149.025 45.3781ZM151.713 21.6548L148.548 17.7841L148.548 17.7841L151.713 21.6548ZM175.781 24.0687L171.91 27.2339L175.041 31.0619L178.903 27.9741L175.781 24.0687ZM176.126 23.7931L173.059 19.8436L173.031 19.8654L173.003 19.8877L176.126 23.7931ZM199.849 26.4813L195.978 29.6465C200.144 34.7401 199.468 42.2098 194.511 46.4768L197.774 50.266L201.036 54.0553C210.093 46.2585 211.327 32.6195 203.72 23.3161L199.849 26.4813ZM197.774 50.266L194.557 46.4378L194.219 46.7217L197.436 50.55L200.652 54.3783L200.99 54.0943L197.774 50.266ZM197.436 50.55L193.53 53.6722L193.806 54.017L197.711 50.8948L201.617 47.7727L201.341 47.4279L197.436 50.55ZM197.711 50.8948L193.762 53.9609C197.772 59.127 196.951 66.5823 191.858 70.7475L195.023 74.6181L198.188 78.4887C207.491 70.881 208.989 57.2684 201.661 47.8287L197.711 50.8948ZM195.023 74.6181L191.858 70.7475C186.683 74.9792 179.057 74.2146 174.825 69.0396L170.954 72.2048L167.084 75.3699C174.812 84.8202 188.738 86.2167 198.188 78.4887L195.023 74.6181ZM170.954 72.2048L167.841 68.2925L167.495 68.5674L170.609 72.4797L173.722 76.392L174.068 76.1171L170.954 72.2048ZM170.609 72.4797L167.543 68.5301C162.377 72.5407 154.921 71.7197 150.756 66.6263L146.886 69.7914L143.015 72.9566C150.623 82.26 164.235 83.7574 173.675 76.4292L170.609 72.4797ZM146.886 69.7914L150.756 66.6264C146.591 61.5328 147.267 54.0629 152.223 49.7959L148.961 46.0067L145.699 42.2175C136.642 50.0143 135.407 63.6533 143.015 72.9565L146.886 69.7914ZM148.961 46.0067L152.169 49.8421L152.507 49.5589L149.3 45.7235L146.092 41.8881L145.753 42.1713L148.961 46.0067ZM149.3 45.7235L153.212 42.61L152.937 42.2646L149.025 45.3781L145.112 48.4916L145.387 48.837L149.3 45.7235ZM149.025 45.3781L152.974 42.3119C148.963 37.1458 149.784 29.6907 154.878 25.5254L151.713 21.6548L148.548 17.7841C139.244 25.3919 137.746 39.0045 145.075 48.4443L149.025 45.3781ZM151.713 21.6548L154.878 25.5254C160.053 21.294 167.678 22.0587 171.91 27.2339L175.781 24.0687L179.651 20.9036C171.924 11.4535 157.998 10.0562 148.548 17.7841L151.713 21.6548ZM175.781 24.0687L178.903 27.9741L179.248 27.6985L176.126 23.7931L173.003 19.8877L172.659 20.1633L175.781 24.0687ZM176.126 23.7931L179.192 27.7425C184.358 23.7319 191.813 24.5529 195.978 29.6465L199.849 26.4813L203.719 23.3161C196.112 14.013 182.499 12.5149 173.059 19.8436L176.126 23.7931Z" fill="url(#paint1_linear_19_1809)"/>
<defs>
<linearGradient id="paint0_linear_19_1809" x1="19.7285" y1="66.3238" x2="58.549" y2="116.6" gradientUnits="userSpaceOnUse">
<stop stop-color="#F2BD13"/>
<stop offset="1" stop-color="#B99111"/>
</linearGradient>
<linearGradient id="paint1_linear_19_1809" x1="151.712" y1="21.6551" x2="195.023" y2="74.6184" gradientUnits="userSpaceOnUse">
<stop stop-color="#F27013"/>
<stop offset="1" stop-color="#8C410B"/>
</linearGradient>
</defs>
</svg>
