<svg width="390" height="266" viewBox="0 0 390 266" fill="none" xmlns="http://www.w3.org/2000/svg">
<path d="M418.1 113.94C415.529 100.639 405.446 90.6578 392.302 84.9366C379.133 79.2044 362.417 77.4788 345.212 80.804L347.11 90.6223C362.589 87.6307 377.221 89.2781 388.311 94.1056C399.427 98.9441 406.517 106.709 408.281 115.838C410.046 124.967 406.36 134.815 397.847 143.447C389.354 152.06 376.39 159.041 360.911 162.032L362.808 171.851C380.014 168.525 394.882 160.695 404.967 150.469C415.033 140.262 420.67 127.242 418.1 113.94Z" fill="#848282"/>
<path d="M7.87408 170.596C5.5733 157.244 11.4782 144.34 21.7542 134.339C32.0505 124.318 47.0837 116.79 64.3618 113.812L66.0601 123.667C50.5135 126.346 37.4011 133.065 28.7289 141.505C20.037 149.965 16.1501 159.736 17.7288 168.897C19.3077 178.059 26.2409 185.966 37.2632 191.028C48.2602 196.079 62.8653 198.021 78.4119 195.342L80.1102 205.197C62.8321 208.174 46.146 206.112 33.0895 200.115C20.0587 194.131 10.175 183.947 7.87408 170.596Z" fill="#ECE9E9"/>
<g clip-path="url(#paint0_diamond_19_1806_clip_path)" data-figma-skip-parse="true"><g transform="matrix(0.280013 -0.0407292 0.058289 0.400737 121.6 265.193)"><rect x="0" y="0" width="965.886" height="549.987" fill="url(#paint0_diamond_19_1806)" opacity="1" shape-rendering="crispEdges"/><rect x="0" y="0" width="965.886" height="549.987" transform="scale(1 -1)" fill="url(#paint0_diamond_19_1806)" opacity="1" shape-rendering="crispEdges"/><rect x="0" y="0" width="965.886" height="549.987" transform="scale(-1 1)" fill="url(#paint0_diamond_19_1806)" opacity="1" shape-rendering="crispEdges"/><rect x="0" y="0" width="965.886" height="549.987" transform="scale(-1)" fill="url(#paint0_diamond_19_1806)" opacity="1" shape-rendering="crispEdges"/></g></g><path d="M88.8615 248.26C76.6667 213.326 59.2335 99.7683 59.2335 99.7683C152.457 126.832 234.604 137.334 341.646 52.6381C341.646 52.6381 370.441 139.834 361.818 201.13C353.195 262.426 101.056 283.195 88.8615 248.26Z" data-figma-gradient-fill="{&#34;type&#34;:&#34;GRADIENT_DIAMOND&#34;,&#34;stops&#34;:[{&#34;color&#34;:{&#34;r&#34;:0.98013073205947876,&#34;g&#34;:0.96923381090164185,&#34;b&#34;:0.96923381090164185,&#34;a&#34;:1.0},&#34;position&#34;:0.0},{&#34;color&#34;:{&#34;r&#34;:0.51644760370254517,&#34;g&#34;:0.50982326269149780,&#34;b&#34;:0.50982326269149780,&#34;a&#34;:1.0},&#34;position&#34;:0.95192307233810425}],&#34;stopsVar&#34;:[{&#34;color&#34;:{&#34;r&#34;:0.98013073205947876,&#34;g&#34;:0.96923381090164185,&#34;b&#34;:0.96923381090164185,&#34;a&#34;:1.0},&#34;position&#34;:0.0},{&#34;color&#34;:{&#34;r&#34;:0.51644760370254517,&#34;g&#34;:0.50982326269149780,&#34;b&#34;:0.50982326269149780,&#34;a&#34;:1.0},&#34;position&#34;:0.95192307233810425}],&#34;transform&#34;:{&#34;m00&#34;:560.02575683593750,&#34;m01&#34;:116.57803344726562,&#34;m02&#34;:-216.70181274414062,&#34;m10&#34;:-81.458305358886719,&#34;m11&#34;:801.474121093750,&#34;m12&#34;:-94.814521789550781},&#34;opacity&#34;:1.0,&#34;blendMode&#34;:&#34;NORMAL&#34;,&#34;visible&#34;:true}"/>
<path d="M342.797 48.456C346.576 75.2174 285.537 105.964 206.461 117.131C127.386 128.298 60.2194 115.656 56.4402 88.8942C52.6611 62.1327 113.701 31.3858 192.776 20.2191C271.851 9.05239 339.018 21.6945 342.797 48.456Z" fill="url(#paint1_linear_19_1806)"/>
<defs>
<clipPath id="paint0_diamond_19_1806_clip_path"><path d="M88.8615 248.26C76.6667 213.326 59.2335 99.7683 59.2335 99.7683C152.457 126.832 234.604 137.334 341.646 52.6381C341.646 52.6381 370.441 139.834 361.818 201.13C353.195 262.426 101.056 283.195 88.8615 248.26Z"/></clipPath><linearGradient id="paint0_diamond_19_1806" x1="0" y1="0" x2="500" y2="500" gradientUnits="userSpaceOnUse">
<stop stop-color="#FAF7F7"/>
<stop offset="0.951923" stop-color="#848282"/>
</linearGradient>
<linearGradient id="paint1_linear_19_1806" x1="176.339" y1="24.2761" x2="193.571" y2="119.171" gradientUnits="userSpaceOnUse">
<stop stop-color="#F6F1F1"/>
<stop offset="1" stop-color="#7E7C7C"/>
</linearGradient>
</defs>
</svg>
