<svg width="430" height="258" viewBox="0 0 430 258" fill="none" xmlns="http://www.w3.org/2000/svg">
<rect width="151.422" height="39.394" transform="matrix(0.927519 -0.373777 0.316055 0.948741 273.204 97.2304)" fill="url(#paint0_linear_19_1822)"/>
<g clip-path="url(#paint1_diamond_19_1822_clip_path)" data-figma-skip-parse="true"><g transform="matrix(0.127173 0.0231856 -0.0476641 0.288095 133.639 164.938)"><rect x="0" y="0" width="1228.46" height="348.271" fill="url(#paint1_diamond_19_1822)" opacity="1" shape-rendering="crispEdges"/><rect x="0" y="0" width="1228.46" height="348.271" transform="scale(1 -1)" fill="url(#paint1_diamond_19_1822)" opacity="1" shape-rendering="crispEdges"/><rect x="0" y="0" width="1228.46" height="348.271" transform="scale(-1 1)" fill="url(#paint1_diamond_19_1822)" opacity="1" shape-rendering="crispEdges"/><rect x="0" y="0" width="1228.46" height="348.271" transform="scale(-1)" fill="url(#paint1_diamond_19_1822)" opacity="1" shape-rendering="crispEdges"/></g></g><path d="M287.783 141.789L-5.93971 69.108L-1.71645 128.351L26.5258 180.507L67.9921 219.759L142.765 237.058L198.976 229.612L251.94 197.463L287.783 141.789Z" data-figma-gradient-fill="{&#34;type&#34;:&#34;GRADIENT_DIAMOND&#34;,&#34;stops&#34;:[{&#34;color&#34;:{&#34;r&#34;:0.92549020051956177,&#34;g&#34;:0.91372549533843994,&#34;b&#34;:0.91372549533843994,&#34;a&#34;:1.0},&#34;position&#34;:0.0},{&#34;color&#34;:{&#34;r&#34;:0.51764708757400513,&#34;g&#34;:0.50980395078659058,&#34;b&#34;:0.50980395078659058,&#34;a&#34;:1.0},&#34;position&#34;:1.0}],&#34;stopsVar&#34;:[{&#34;color&#34;:{&#34;r&#34;:0.92549020051956177,&#34;g&#34;:0.91372549533843994,&#34;b&#34;:0.91372549533843994,&#34;a&#34;:1.0},&#34;position&#34;:0.0},{&#34;color&#34;:{&#34;r&#34;:0.51764708757400513,&#34;g&#34;:0.50980395078659058,&#34;b&#34;:0.50980395078659058,&#34;a&#34;:1.0},&#34;position&#34;:1.0}],&#34;transform&#34;:{&#34;m00&#34;:254.34597778320312,&#34;m01&#34;:-95.328208923339844,&#34;m02&#34;:54.129730224609375,&#34;m10&#34;:46.371200561523438,&#34;m11&#34;:576.19042968750,&#34;m12&#34;:-146.34280395507812},&#34;opacity&#34;:1.0,&#34;blendMode&#34;:&#34;NORMAL&#34;,&#34;visible&#34;:true}"/>
<ellipse cx="150.956" cy="70.2871" rx="150.956" ry="70.2871" transform="matrix(0.972721 0.231979 -0.208916 0.977934 8.66278 1.42322)" fill="url(#paint2_linear_19_1822)"/>
<defs>
<clipPath id="paint1_diamond_19_1822_clip_path"><path d="M287.783 141.789L-5.93971 69.108L-1.71645 128.351L26.5258 180.507L67.9921 219.759L142.765 237.058L198.976 229.612L251.94 197.463L287.783 141.789Z"/></clipPath><linearGradient id="paint0_linear_19_1822" x1="0" y1="19.697" x2="151.422" y2="19.697" gradientUnits="userSpaceOnUse">
<stop stop-color="#737373"/>
<stop offset="1" stop-color="#D9D9D9"/>
</linearGradient>
<linearGradient id="paint1_diamond_19_1822" x1="0" y1="0" x2="500" y2="500" gradientUnits="userSpaceOnUse">
<stop stop-color="#ECE9E9"/>
<stop offset="1" stop-color="#848282"/>
</linearGradient>
<linearGradient id="paint2_linear_19_1822" x1="28.3795" y1="14.1633" x2="220.452" y2="119.937" gradientUnits="userSpaceOnUse">
<stop stop-color="#E9E7E7"/>
<stop offset="1" stop-color="#838282"/>
</linearGradient>
</defs>
</svg>
