<svg width="306" height="258" viewBox="0 0 306 258" fill="none" xmlns="http://www.w3.org/2000/svg">
<path d="M37.2255 53.6737L74.8919 16.0612L120.77 19.5122L138.717 141.493L94.0438 156.477L37.2255 53.6737Z" fill="url(#paint0_linear_19_1927)"/>
<path fill-rule="evenodd" clip-rule="evenodd" d="M254.77 80.982C261.772 69.8466 276.953 67.7755 288.678 76.3562C300.403 84.937 304.231 100.92 297.228 112.056C291.395 121.333 288.683 110.326 281.162 101.431L272.233 114.628L261.37 106.056L270.045 93.2356C259.543 88.8917 248.902 90.3139 254.77 80.982Z" fill="url(#paint1_linear_19_1927)"/>
<mask id="mask0_19_1927" style="mask-type:alpha" maskUnits="userSpaceOnUse" x="-7" y="75" width="296" height="155">
<ellipse cx="150.956" cy="70.2871" rx="150.956" ry="70.2871" transform="matrix(0.972721 0.231979 -0.208916 0.977934 8.66278 49.0293)" fill="url(#paint2_linear_19_1927)"/>
</mask>
<g mask="url(#mask0_19_1927)">
<path d="M83.9861 217.755C78.1688 206.009 83.6295 190.467 96.1831 183.043C108.737 175.619 123.629 179.123 129.447 190.87C134.293 200.656 124.002 198.315 113.172 201.554L119.769 216.081L107.629 222.679L101.221 208.565C92.7127 216.717 88.861 227.599 83.9861 217.755Z" fill="url(#paint3_linear_19_1927)"/>
</g>
<mask id="mask1_19_1927" style="mask-type:alpha" maskUnits="userSpaceOnUse" x="-7" y="75" width="296" height="155">
<ellipse cx="150.956" cy="70.2871" rx="150.956" ry="70.2871" transform="matrix(0.972721 0.231979 -0.208916 0.977934 8.66278 49.0293)" fill="url(#paint4_linear_19_1927)"/>
</mask>
<g mask="url(#mask1_19_1927)">
<path d="M190.222 158.354L219.209 168.094L230.937 194.949L177.791 242.166L157.591 221.598L190.222 158.354Z" fill="url(#paint5_linear_19_1927)"/>
</g>
<rect x="166.112" y="151.892" width="16.3478" height="27.7168" rx="5" transform="rotate(4.30172 166.112 151.892)" fill="#F5F7E5"/>
<path d="M204.288 161.99C203.071 178.171 190.375 160.944 173.213 159.653C156.051 158.362 140.921 173.496 142.138 157.315C143.355 141.135 158.255 129.065 175.417 130.356C192.579 131.647 205.505 145.81 204.288 161.99Z" fill="url(#paint6_linear_19_1927)"/>
<ellipse cx="19.6749" cy="26.7374" rx="19.6749" ry="26.7374" transform="matrix(0.836425 0.548081 -0.491694 0.870768 248.762 132.538)" fill="url(#paint7_linear_19_1927)"/>
<ellipse cx="13.3362" cy="21.3056" rx="13.3362" ry="21.3056" transform="matrix(0.724563 -0.689209 0.627893 0.7783 35.6864 148.654)" fill="#EEE84B"/>
<ellipse cx="13.3362" cy="14.4325" rx="13.3362" ry="14.4325" transform="matrix(0.724563 -0.689209 0.627893 0.7783 130.527 80.1077)" fill="#EEE84B"/>
<ellipse cx="9.28153" cy="10.0444" rx="9.28153" ry="10.0444" transform="matrix(0.724563 -0.689209 0.627893 0.7783 182.44 30.174)" fill="#EEE84B"/>
<ellipse cx="13.3362" cy="14.4325" rx="13.3362" ry="14.4325" transform="matrix(0.724563 -0.689209 0.627893 0.7783 106.907 176.169)" fill="#EEE84B"/>
<ellipse cx="2.66725" cy="2.6632" rx="2.66725" ry="2.6632" transform="matrix(0.724563 -0.689209 0.627893 0.7783 226.882 134.051)" fill="#EEE84B"/>
<ellipse cx="5.3345" cy="2.6632" rx="5.3345" ry="2.6632" transform="matrix(0.724563 -0.689209 0.627893 0.7783 255.704 200.4)" fill="#EEE84B"/>
<ellipse cx="2.66725" cy="2.6632" rx="2.66725" ry="2.6632" transform="matrix(0.724563 -0.689209 0.627893 0.7783 278.43 129.842)" fill="#EEE84B"/>
<ellipse cx="2.66725" cy="2.6632" rx="2.66725" ry="2.6632" transform="matrix(0.724563 -0.689209 0.627893 0.7783 49.2703 111.493)" fill="#EEE84B"/>
<ellipse cx="2.66725" cy="2.6632" rx="2.66725" ry="2.6632" transform="matrix(0.724563 -0.689209 0.627893 0.7783 168.892 60.4534)" fill="#EEE84B"/>
<ellipse cx="2.66725" cy="2.6632" rx="2.66725" ry="2.6632" transform="matrix(0.724563 -0.689209 0.627893 0.7783 142.549 206.341)" fill="#EEE84B"/>
<path d="M193.293 67.3908L214.09 43.1865L234.814 50.4511L240.758 84.029L225.644 110.225L216.092 111.172L204.65 136.269L197.296 133.691L201.385 106.016L192.218 98.5081L193.293 67.3908Z" fill="url(#paint8_linear_19_1927)"/>
<ellipse cx="13.3362" cy="14.4325" rx="13.3362" ry="14.4325" transform="matrix(0.724563 -0.689209 0.627893 0.7783 -10.1584 70.637)" fill="#EEE84B"/>
<defs>
<linearGradient id="paint0_linear_19_1927" x1="120.118" y1="163.997" x2="69.7484" y2="19.6917" gradientUnits="userSpaceOnUse">
<stop stop-color="white"/>
<stop offset="1" stop-color="#6A8D26"/>
</linearGradient>
<linearGradient id="paint1_linear_19_1927" x1="276.694" y1="70.35" x2="272.549" y2="101.859" gradientUnits="userSpaceOnUse">
<stop stop-color="#B2591A"/>
<stop offset="1" stop-color="#261203"/>
</linearGradient>
<linearGradient id="paint2_linear_19_1927" x1="28.3795" y1="14.1633" x2="220.452" y2="119.937" gradientUnits="userSpaceOnUse">
<stop stop-color="#E9E7E7"/>
<stop offset="1" stop-color="#838282"/>
</linearGradient>
<linearGradient id="paint3_linear_19_1927" x1="85.6159" y1="191.875" x2="110.765" y2="208.002" gradientUnits="userSpaceOnUse">
<stop stop-color="#B2591A"/>
<stop offset="1" stop-color="#F5F7E5"/>
</linearGradient>
<linearGradient id="paint4_linear_19_1927" x1="28.3795" y1="14.1633" x2="220.452" y2="119.937" gradientUnits="userSpaceOnUse">
<stop stop-color="#E9E7E7"/>
<stop offset="1" stop-color="#838282"/>
</linearGradient>
<linearGradient id="paint5_linear_19_1927" x1="161.596" y1="238.553" x2="224.761" y2="175.049" gradientUnits="userSpaceOnUse">
<stop stop-color="white"/>
<stop offset="1" stop-color="#86B923"/>
</linearGradient>
<linearGradient id="paint6_linear_19_1927" x1="159.417" y1="131.932" x2="174.91" y2="165.821" gradientUnits="userSpaceOnUse">
<stop stop-color="#B2591A"/>
<stop offset="1" stop-color="#261203"/>
</linearGradient>
<linearGradient id="paint7_linear_19_1927" x1="2.47226" y1="18.2154" x2="39.5956" y2="39.5384" gradientUnits="userSpaceOnUse">
<stop stop-color="#F38E77"/>
<stop offset="1" stop-color="#F0ED98"/>
</linearGradient>
<linearGradient id="paint8_linear_19_1927" x1="225.789" y1="47.2875" x2="193.401" y2="141.414" gradientUnits="userSpaceOnUse">
<stop stop-color="#E2B00D"/>
<stop offset="1" stop-color="white"/>
</linearGradient>
</defs>
</svg>
