<svg width="92" height="37" viewBox="0 0 92 37" fill="none" xmlns="http://www.w3.org/2000/svg">
<rect x="0.5" y="0.5" width="91" height="36" fill="white"/>
<rect x="0.5" y="0.5" width="91" height="36" stroke="black"/>
<path d="M19.1 25.32H33.18V26.64H19.1V25.32ZM25.8 11.1H34.58V12.46H25.8V11.1ZM18.24 14.4H33.8V27.54H32.32V15.72H19.66V27.6H18.24V14.4ZM25 9.2H26.52V14.84H25V9.2ZM28.9 16L30.44 16.56C29.76 17.6533 28.96 18.6933 28.04 19.68C27.12 20.6533 26.14 21.5467 25.1 22.36C24.0733 23.16 23.0267 23.86 21.96 24.46C21.8667 24.3667 21.74 24.2467 21.58 24.1C21.42 23.9533 21.2533 23.8133 21.08 23.68C20.92 23.5467 20.7733 23.4333 20.64 23.34C21.7467 22.8067 22.8133 22.16 23.84 21.4C24.8667 20.64 25.8133 19.8067 26.68 18.9C27.5467 17.98 28.2867 17.0133 28.9 16ZM21.38 17.68L22.38 16.62C23.1533 17.06 23.9533 17.5533 24.78 18.1C25.62 18.6333 26.4267 19.1933 27.2 19.78C27.9733 20.3533 28.6867 20.9267 29.34 21.5C30.0067 22.0733 30.56 22.6133 31 23.12L29.86 24.36C29.4333 23.84 28.9 23.2933 28.26 22.72C27.6333 22.1333 26.9333 21.54 26.16 20.94C25.4 20.34 24.6067 19.76 23.78 19.2C22.9667 18.64 22.1667 18.1333 21.38 17.68ZM43.86 11.46H52V12.78H43.86V11.46ZM46.4 22.02H53.12V23.24H46.4V22.02ZM46.4 25.54H53.12V26.8H46.4V25.54ZM42.94 15.22H55.18V16.56H42.94V15.22ZM47.36 9.2H48.82V16.22H47.36V9.2ZM45.64 18.56H53.9V27.58H52.44V19.84H47.06V27.58H45.64V18.56ZM53.56 9.92L54.9 10.44C53.9933 12.04 52.9333 13.5333 51.72 14.92C50.52 16.3067 49.2133 17.5667 47.8 18.7C46.3867 19.82 44.9067 20.7933 43.36 21.62C43.2933 21.5267 43.1933 21.4067 43.06 21.26C42.94 21.1 42.8133 20.9467 42.68 20.8C42.56 20.64 42.4467 20.5133 42.34 20.42C43.8867 19.6733 45.36 18.7733 46.76 17.72C48.16 16.6533 49.4333 15.46 50.58 14.14C51.74 12.82 52.7333 11.4133 53.56 9.92ZM37.36 10.14L38.42 9.34C39.3 10.14 40.0067 10.9667 40.54 11.82C41.0733 12.66 41.4733 13.52 41.74 14.4C42.0067 15.28 42.18 16.18 42.26 17.1C42.3533 18.0067 42.4 18.94 42.4 19.9C42.4 20.8733 42.3733 21.8067 42.32 22.7C42.2667 23.58 42.1667 24.3667 42.02 25.06C41.8733 25.74 41.6667 26.2667 41.4 26.64C41.1333 27.0133 40.76 27.2333 40.28 27.3C39.9467 27.3667 39.58 27.4 39.18 27.4C38.7933 27.4133 38.3933 27.4133 37.98 27.4C37.9667 27.16 37.92 26.9067 37.84 26.64C37.7733 26.3733 37.6733 26.1333 37.54 25.92C37.9933 25.9467 38.4 25.96 38.76 25.96C39.1333 25.96 39.4267 25.9533 39.64 25.94C39.7867 25.9133 39.9133 25.8733 40.02 25.82C40.1267 25.7667 40.2133 25.6933 40.28 25.6C40.4533 25.3733 40.5867 24.9733 40.68 24.4C40.7867 23.8267 40.86 23.1467 40.9 22.36C40.94 21.5733 40.96 20.7467 40.96 19.88C40.96 18.6667 40.88 17.5067 40.72 16.4C40.56 15.28 40.2267 14.2 39.72 13.16C39.2133 12.12 38.4267 11.1133 37.36 10.14ZM40.94 16.28L42.06 16.92C41.7533 17.6267 41.3533 18.3467 40.86 19.08C40.3667 19.8 39.8333 20.48 39.26 21.12C38.6867 21.76 38.12 22.3 37.56 22.74C37.4533 22.54 37.3133 22.32 37.14 22.08C36.9667 21.8267 36.8 21.6133 36.64 21.44C37.1867 21.08 37.7333 20.6267 38.28 20.08C38.8267 19.52 39.3333 18.9133 39.8 18.26C40.28 17.5933 40.66 16.9333 40.94 16.28ZM41.8 9.5L42.92 10.24C42.52 10.9467 42.0133 11.6867 41.4 12.46C40.8 13.22 40.1533 13.9467 39.46 14.64C38.78 15.32 38.12 15.9 37.48 16.38C37.3733 16.1667 37.2333 15.9267 37.06 15.66C36.9 15.3933 36.74 15.18 36.58 15.02C37.2067 14.62 37.8467 14.12 38.5 13.52C39.1667 12.9067 39.7867 12.2533 40.36 11.56C40.9467 10.8533 41.4267 10.1667 41.8 9.5ZM58.88 11.34V14.94H61.92V11.34H58.88ZM57.62 10.06H63.22V16.2H57.62V10.06ZM59.96 15.54H61.2V24.86H59.96V15.54ZM57.58 18.1H58.76V25.42H57.58V18.1ZM56.7 25.08C57.3 24.9467 57.9867 24.7867 58.76 24.6C59.5333 24.4 60.3533 24.1933 61.22 23.98C62.0867 23.7533 62.96 23.5267 63.84 23.3L63.98 24.62C62.7533 24.9533 61.52 25.2867 60.28 25.62C59.0533 25.94 57.96 26.2333 57 26.5L56.7 25.08ZM60.58 19.14H63.52V20.46H60.58V19.14ZM68.6 9.28H70.1V11.82H68.6V9.28ZM68.66 17.1H70.04V27.54H68.66V17.1ZM71.72 12.04L73.22 12.46C73.0067 12.94 72.7733 13.4267 72.52 13.92C72.28 14.4 72.0667 14.8133 71.88 15.16L70.6 14.78C70.7333 14.5267 70.8667 14.24 71 13.92C71.1333 13.6 71.2667 13.2733 71.4 12.94C71.5333 12.5933 71.64 12.2933 71.72 12.04ZM65.8 12.5L67.08 12.14C67.3067 12.54 67.5133 12.9867 67.7 13.48C67.8867 13.96 68.02 14.38 68.1 14.74L66.74 15.16C66.6733 14.7867 66.5467 14.3533 66.36 13.86C66.1867 13.3533 66 12.9 65.8 12.5ZM64 11H74.98V12.28H64V11ZM64 14.96H75V18.44H73.58V16.24H65.36V18.44H64V14.96ZM64.9 18.82H73.28V20.1H66.26V25.24H64.9V18.82ZM72.64 18.82H74.02V23.88C74.02 24.2 73.98 24.4667 73.9 24.68C73.8333 24.88 73.6867 25.04 73.46 25.16C73.22 25.2667 72.92 25.3333 72.56 25.36C72.2133 25.3867 71.78 25.4 71.26 25.4C71.2333 25.2 71.1733 24.98 71.08 24.74C71 24.4867 70.9067 24.2667 70.8 24.08C71.1733 24.0933 71.5067 24.1 71.8 24.1C72.0933 24.1 72.2867 24.1 72.38 24.1C72.5533 24.1 72.64 24.02 72.64 23.86V18.82Z" fill="black"/>
</svg>
