<svg width="122" height="40" viewBox="0 0 122 40" fill="none" xmlns="http://www.w3.org/2000/svg">
<rect x="0.5" y="0.5" width="121" height="39" fill="white"/>
<rect x="0.5" y="0.5" width="121" height="39" stroke="black"/>
<path d="M15.22 10.18H16.66V13.4H15.22V10.18ZM24.16 10.18H25.62V28.62H24.16V10.18ZM12.14 12.8H19.64V14.08H12.14V12.8ZM20 12.54H30.06V13.88H20V12.54ZM11.88 18.24H19.84V19.5H11.88V18.24ZM13.14 14.7L14.26 14.38C14.4733 14.9 14.6467 15.4733 14.78 16.1C14.9133 16.7133 14.9933 17.24 15.02 17.68L13.82 18.04C13.7933 17.6 13.72 17.0667 13.6 16.44C13.48 15.8 13.3267 15.22 13.14 14.7ZM17.56 14.28L18.92 14.62C18.7067 15.2067 18.48 15.8267 18.24 16.48C18 17.12 17.78 17.66 17.58 18.1L16.5 17.78C16.6333 17.46 16.7667 17.1 16.9 16.7C17.0333 16.2867 17.16 15.8667 17.28 15.44C17.4 15.0133 17.4933 14.6267 17.56 14.28ZM11.8 22.58C12.48 22.4733 13.2533 22.3467 14.12 22.2C15 22.04 15.9267 21.8733 16.9 21.7C17.8733 21.5133 18.8467 21.3333 19.82 21.16L19.9 22.4C18.5267 22.6667 17.16 22.94 15.8 23.22C14.44 23.4867 13.22 23.7267 12.14 23.94L11.8 22.58ZM21.74 17V20.02H28.28V17H21.74ZM20.4 15.8H29.68V21.2H20.4V15.8ZM25.9 20.72C26.2467 21.4267 26.6733 22.1467 27.18 22.88C27.6867 23.6 28.2333 24.2733 28.82 24.9C29.42 25.5133 30 26.0133 30.56 26.4C30.4133 26.5333 30.2333 26.7133 30.02 26.94C29.82 27.1533 29.66 27.3533 29.54 27.54C28.9667 27.0733 28.3867 26.4933 27.8 25.8C27.2267 25.0933 26.68 24.3333 26.16 23.52C25.6533 22.7067 25.2133 21.9 24.84 21.1L25.9 20.72ZM23.84 20.74L25.02 21.2C24.6067 22.08 24.0933 22.9333 23.48 23.76C22.88 24.5867 22.22 25.3467 21.5 26.04C20.7933 26.72 20.08 27.28 19.36 27.72C19.28 27.6133 19.18 27.4867 19.06 27.34C18.94 27.2067 18.82 27.0733 18.7 26.94C18.58 26.8067 18.46 26.6933 18.34 26.6C19.06 26.2267 19.7667 25.7333 20.46 25.12C21.1667 24.4933 21.8133 23.8067 22.4 23.06C22.9867 22.3 23.4667 21.5267 23.84 20.74ZM15.22 18.74H16.66V22.1C16.66 22.6067 16.62 23.1533 16.54 23.74C16.46 24.3133 16.3067 24.8933 16.08 25.48C15.8667 26.0667 15.5533 26.6267 15.14 27.16C14.74 27.7067 14.2067 28.2 13.54 28.64C13.4867 28.5467 13.4 28.4333 13.28 28.3C13.1733 28.1667 13.06 28.04 12.94 27.92C12.82 27.8 12.7 27.7 12.58 27.62C13.1933 27.26 13.6733 26.8533 14.02 26.4C14.3667 25.9333 14.6267 25.4467 14.8 24.94C14.9733 24.4333 15.0867 23.94 15.14 23.46C15.1933 22.9667 15.22 22.5067 15.22 22.08V18.74ZM44.02 10.36H45.44V20.46C45.44 20.8333 45.3867 21.1267 45.28 21.34C45.1867 21.5533 45.0067 21.72 44.74 21.84C44.4867 21.9467 44.1467 22.02 43.72 22.06C43.3067 22.0867 42.78 22.1 42.14 22.1C42.1 21.9 42.02 21.6733 41.9 21.42C41.7933 21.1667 41.6933 20.9467 41.6 20.76C42.0667 20.7733 42.4933 20.7867 42.88 20.8C43.2667 20.8 43.5267 20.7933 43.66 20.78C43.7933 20.7667 43.8867 20.74 43.94 20.7C43.9933 20.66 44.02 20.5733 44.02 20.44V10.36ZM46.66 13.26L47.9 12.86C48.2467 13.46 48.5733 14.1067 48.88 14.8C49.2 15.48 49.4867 16.14 49.74 16.78C50.0067 17.42 50.2 17.9867 50.32 18.48L48.96 18.98C48.8533 18.4867 48.68 17.9133 48.44 17.26C48.2 16.6067 47.9267 15.9267 47.62 15.22C47.3133 14.5133 46.9933 13.86 46.66 13.26ZM35.12 10.48H36.52V17.14C36.52 18.1533 36.48 19.1667 36.4 20.18C36.32 21.1933 36.1533 22.1867 35.9 23.16C35.66 24.1333 35.2867 25.0667 34.78 25.96C34.2867 26.8533 33.62 27.6933 32.78 28.48C32.7133 28.3733 32.6133 28.2533 32.48 28.12C32.36 27.9867 32.2267 27.8533 32.08 27.72C31.9467 27.6 31.8267 27.5 31.72 27.42C32.48 26.7133 33.0867 25.9533 33.54 25.14C34.0067 24.3133 34.3533 23.46 34.58 22.58C34.8067 21.6867 34.9533 20.7867 35.02 19.88C35.0867 18.96 35.12 18.0467 35.12 17.14V10.48ZM33 14.28L34.1 14.44C34.0867 15.0533 34.0333 15.6867 33.94 16.34C33.8467 16.98 33.7067 17.5867 33.52 18.16C33.3333 18.7333 33.0933 19.2267 32.8 19.64L31.72 19.12C31.9867 18.76 32.2067 18.32 32.38 17.8C32.5667 17.2667 32.7067 16.6933 32.8 16.08C32.8933 15.4667 32.96 14.8667 33 14.28ZM38.32 13.68L39.66 14.24C39.3267 14.9333 38.9867 15.66 38.64 16.42C38.2933 17.1667 37.9667 17.8067 37.66 18.34L36.68 17.84C36.8667 17.4667 37.06 17.04 37.26 16.56C37.4733 16.0667 37.6733 15.5667 37.86 15.06C38.0467 14.54 38.2 14.08 38.32 13.68ZM36.06 21.48C36.22 21.6267 36.4533 21.8667 36.76 22.2C37.0667 22.5333 37.3933 22.9 37.74 23.3C38.1 23.7 38.4267 24.0733 38.72 24.42C39.0267 24.7533 39.24 24.9933 39.36 25.14L38.32 26.24C38.16 25.9867 37.9333 25.6733 37.64 25.3C37.36 24.9267 37.06 24.5467 36.74 24.16C36.42 23.76 36.1133 23.3867 35.82 23.04C35.54 22.6933 35.3067 22.42 35.12 22.22L36.06 21.48ZM41.4 12.96L42.8 13.2C42.5333 14.4 42.1733 15.54 41.72 16.62C41.2667 17.7 40.7533 18.6133 40.18 19.36C40.0867 19.2933 39.96 19.22 39.8 19.14C39.6533 19.0467 39.5 18.9533 39.34 18.86C39.18 18.7667 39.0333 18.7 38.9 18.66C39.5133 17.9667 40.0267 17.12 40.44 16.12C40.8533 15.1067 41.1733 14.0533 41.4 12.96ZM47.7 19.4L49.1 19.8C48.6733 21.3467 48.06 22.6933 47.26 23.84C46.4733 24.9867 45.48 25.9667 44.28 26.78C43.08 27.58 41.6333 28.22 39.94 28.7C39.8467 28.4867 39.7133 28.2533 39.54 28C39.3667 27.76 39.2 27.56 39.04 27.4C40.64 26.9867 42.0067 26.4267 43.14 25.72C44.2867 25.0133 45.2333 24.1333 45.98 23.08C46.7267 22.0267 47.3 20.8 47.7 19.4ZM58.86 12.46H67V13.78H58.86V12.46ZM61.4 23.02H68.12V24.24H61.4V23.02ZM61.4 26.54H68.12V27.8H61.4V26.54ZM57.94 16.22H70.18V17.56H57.94V16.22ZM62.36 10.2H63.82V17.22H62.36V10.2ZM60.64 19.56H68.9V28.58H67.44V20.84H62.06V28.58H60.64V19.56ZM68.56 10.92L69.9 11.44C68.9933 13.04 67.9333 14.5333 66.72 15.92C65.52 17.3067 64.2133 18.5667 62.8 19.7C61.3867 20.82 59.9067 21.7933 58.36 22.62C58.2933 22.5267 58.1933 22.4067 58.06 22.26C57.94 22.1 57.8133 21.9467 57.68 21.8C57.56 21.64 57.4467 21.5133 57.34 21.42C58.8867 20.6733 60.36 19.7733 61.76 18.72C63.16 17.6533 64.4333 16.46 65.58 15.14C66.74 13.82 67.7333 12.4133 68.56 10.92ZM52.36 11.14L53.42 10.34C54.3 11.14 55.0067 11.9667 55.54 12.82C56.0733 13.66 56.4733 14.52 56.74 15.4C57.0067 16.28 57.18 17.18 57.26 18.1C57.3533 19.0067 57.4 19.94 57.4 20.9C57.4 21.8733 57.3733 22.8067 57.32 23.7C57.2667 24.58 57.1667 25.3667 57.02 26.06C56.8733 26.74 56.6667 27.2667 56.4 27.64C56.1333 28.0133 55.76 28.2333 55.28 28.3C54.9467 28.3667 54.58 28.4 54.18 28.4C53.7933 28.4133 53.3933 28.4133 52.98 28.4C52.9667 28.16 52.92 27.9067 52.84 27.64C52.7733 27.3733 52.6733 27.1333 52.54 26.92C52.9933 26.9467 53.4 26.96 53.76 26.96C54.1333 26.96 54.4267 26.9533 54.64 26.94C54.7867 26.9133 54.9133 26.8733 55.02 26.82C55.1267 26.7667 55.2133 26.6933 55.28 26.6C55.4533 26.3733 55.5867 25.9733 55.68 25.4C55.7867 24.8267 55.86 24.1467 55.9 23.36C55.94 22.5733 55.96 21.7467 55.96 20.88C55.96 19.6667 55.88 18.5067 55.72 17.4C55.56 16.28 55.2267 15.2 54.72 14.16C54.2133 13.12 53.4267 12.1133 52.36 11.14ZM55.94 17.28L57.06 17.92C56.7533 18.6267 56.3533 19.3467 55.86 20.08C55.3667 20.8 54.8333 21.48 54.26 22.12C53.6867 22.76 53.12 23.3 52.56 23.74C52.4533 23.54 52.3133 23.32 52.14 23.08C51.9667 22.8267 51.8 22.6133 51.64 22.44C52.1867 22.08 52.7333 21.6267 53.28 21.08C53.8267 20.52 54.3333 19.9133 54.8 19.26C55.28 18.5933 55.66 17.9333 55.94 17.28ZM56.8 10.5L57.92 11.24C57.52 11.9467 57.0133 12.6867 56.4 13.46C55.8 14.22 55.1533 14.9467 54.46 15.64C53.78 16.32 53.12 16.9 52.48 17.38C52.3733 17.1667 52.2333 16.9267 52.06 16.66C51.9 16.3933 51.74 16.18 51.58 16.02C52.2067 15.62 52.8467 15.12 53.5 14.52C54.1667 13.9067 54.7867 13.2533 55.36 12.56C55.9467 11.8533 56.4267 11.1667 56.8 10.5ZM72.3 11.36H89.76V12.86H72.3V11.36ZM76.14 15.8H85.66V17.2H76.14V15.8ZM76.14 20.2H85.66V21.62H76.14V20.2ZM71.96 24.94C73.0533 24.8867 74.3 24.82 75.7 24.74C77.1 24.66 78.5933 24.5667 80.18 24.46C81.7667 24.3533 83.3867 24.2467 85.04 24.14C86.7067 24.02 88.3467 23.9067 89.96 23.8L89.92 25.26C88.32 25.3667 86.7067 25.48 85.08 25.6C83.4533 25.72 81.86 25.84 80.3 25.96C78.74 26.0667 77.2667 26.1667 75.88 26.26C74.5067 26.3533 73.2667 26.44 72.16 26.52L71.96 24.94ZM75.42 12.42H77V25.32H75.42V12.42ZM85.04 12.4H86.64V28.58H85.04V12.4ZM97.02 10.98H104.56V12.34H97.02V10.98ZM96.28 10.98H97.78V13.68C97.78 14.2133 97.7133 14.7533 97.58 15.3C97.4467 15.8467 97.2067 16.38 96.86 16.9C96.5133 17.42 96.0267 17.9133 95.4 18.38C94.7867 18.8333 93.9867 19.2333 93 19.58C92.96 19.46 92.8867 19.32 92.78 19.16C92.6733 19 92.56 18.84 92.44 18.68C92.32 18.52 92.22 18.4 92.14 18.32C93.0333 18.0267 93.7533 17.6933 94.3 17.32C94.8467 16.9467 95.26 16.56 95.54 16.16C95.8333 15.7467 96.0267 15.3267 96.12 14.9C96.2267 14.4733 96.28 14.0467 96.28 13.62V10.98ZM103.8 10.98H105.3V16.04C105.3 16.3067 105.34 16.48 105.42 16.56C105.5 16.64 105.687 16.68 105.98 16.68C106.047 16.68 106.167 16.68 106.34 16.68C106.513 16.68 106.7 16.68 106.9 16.68C107.113 16.68 107.307 16.68 107.48 16.68C107.653 16.68 107.787 16.68 107.88 16.68C108.067 16.68 108.207 16.6133 108.3 16.48C108.407 16.3467 108.48 16.0867 108.52 15.7C108.573 15.3 108.607 14.7 108.62 13.9C108.727 13.98 108.86 14.06 109.02 14.14C109.18 14.22 109.34 14.2933 109.5 14.36C109.673 14.4133 109.827 14.46 109.96 14.5C109.92 15.4467 109.833 16.18 109.7 16.7C109.58 17.2067 109.387 17.56 109.12 17.76C108.867 17.9467 108.5 18.04 108.02 18.04C107.94 18.04 107.793 18.04 107.58 18.04C107.367 18.04 107.14 18.04 106.9 18.04C106.66 18.04 106.433 18.04 106.22 18.04C106.02 18.04 105.873 18.04 105.78 18.04C105.273 18.04 104.873 17.9867 104.58 17.88C104.3 17.76 104.1 17.56 103.98 17.28C103.86 16.9867 103.8 16.58 103.8 16.06V10.98ZM92.1 20.7H109.92V22.06H92.1V20.7ZM100.2 18.22H101.72V28.6H100.2V18.22ZM99.54 21.34L100.66 21.82C100.073 22.7 99.3467 23.5333 98.48 24.32C97.6133 25.0933 96.6867 25.7933 95.7 26.42C94.7133 27.0467 93.7333 27.5533 92.76 27.94C92.6933 27.82 92.6 27.68 92.48 27.52C92.36 27.3733 92.2333 27.2267 92.1 27.08C91.98 26.9467 91.8667 26.8333 91.76 26.74C92.7333 26.3933 93.7067 25.9467 94.68 25.4C95.6667 24.84 96.58 24.2133 97.42 23.52C98.2733 22.8133 98.98 22.0867 99.54 21.34ZM102.4 21.32C102.947 22.0667 103.64 22.7867 104.48 23.48C105.333 24.16 106.26 24.7733 107.26 25.32C108.273 25.8533 109.28 26.28 110.28 26.6C110.16 26.6933 110.033 26.8133 109.9 26.96C109.78 27.1067 109.66 27.2533 109.54 27.4C109.433 27.56 109.333 27.7 109.24 27.82C108.253 27.4467 107.253 26.96 106.24 26.36C105.24 25.7467 104.307 25.0533 103.44 24.28C102.573 23.5067 101.847 22.6933 101.26 21.84L102.4 21.32Z" fill="black"/>
</svg>
