<svg width="97" height="40" viewBox="0 0 97 40" fill="none" xmlns="http://www.w3.org/2000/svg">
<rect x="0.5" y="0.5" width="96" height="39" fill="white"/>
<rect x="0.5" y="0.5" width="96" height="39" stroke="black"/>
<path d="M23.34 15.88H24.74V20.78H23.34V15.88ZM21.22 21.68H22.56V27.24C22.56 27.5733 22.5133 27.8267 22.42 28C22.34 28.1733 22.18 28.3067 21.94 28.4C21.7 28.4933 21.3867 28.5467 21 28.56C20.6133 28.5867 20.12 28.5933 19.52 28.58C19.48 28.42 19.4067 28.2333 19.3 28.02C19.2067 27.82 19.1133 27.64 19.02 27.48C19.46 27.4933 19.8533 27.5 20.2 27.5C20.56 27.5133 20.7933 27.5133 20.9 27.5C21.1133 27.4867 21.22 27.3933 21.22 27.22V21.68ZM24.76 20.58C25.04 20.9667 25.38 21.36 25.78 21.76C26.1933 22.1467 26.6333 22.5 27.1 22.82C27.58 23.14 28.06 23.4 28.54 23.6C28.3933 23.7067 28.2333 23.86 28.06 24.06C27.9 24.26 27.76 24.4333 27.64 24.58C27.16 24.3267 26.68 24.0067 26.2 23.62C25.72 23.2333 25.2667 22.8067 24.84 22.34C24.4267 21.8733 24.0733 21.4133 23.78 20.96L24.76 20.58ZM22.84 25.68L23.54 24.86C24.3 25.18 25.0533 25.54 25.8 25.94C26.56 26.34 27.1867 26.7133 27.68 27.06L26.82 27.94C26.3533 27.5933 25.76 27.2133 25.04 26.8C24.32 26.3867 23.5867 26.0133 22.84 25.68ZM24.9 22.36L25.86 22.92C25.58 23.2533 25.2933 23.5733 25 23.88C24.7067 24.1867 24.4333 24.4533 24.18 24.68L23.34 24.16C23.5933 23.92 23.8667 23.6267 24.16 23.28C24.4667 22.92 24.7133 22.6133 24.9 22.36ZM16.36 17.42H27.52V18.54H16.36V17.42ZM15.64 19.98H28.16V21.1H15.64V19.98ZM18.92 15.88H20.28V20.74H18.92V15.88ZM15.6 26.76C16.2 26.56 16.9067 26.2933 17.72 25.96C18.5467 25.6267 19.38 25.2867 20.22 24.94L20.46 25.88C19.7 26.2267 18.9467 26.5733 18.2 26.92C17.4667 27.2533 16.7733 27.56 16.12 27.84L15.6 26.76ZM19.24 20.54L20.28 20.98C19.9733 21.42 19.5933 21.8667 19.14 22.32C18.6867 22.76 18.2 23.1733 17.68 23.56C17.1733 23.9333 16.68 24.24 16.2 24.48C16.0933 24.3333 15.9533 24.16 15.78 23.96C15.62 23.76 15.46 23.6 15.3 23.48C15.78 23.2933 16.2667 23.0467 16.76 22.74C17.2533 22.42 17.72 22.0733 18.16 21.7C18.6 21.3133 18.96 20.9267 19.24 20.54ZM17.98 23.14L18.9 22.56C19.18 22.7867 19.4533 23.0533 19.72 23.36C19.9867 23.6667 20.1867 23.9467 20.32 24.2L19.34 24.84C19.22 24.6 19.0267 24.32 18.76 24C18.5067 23.68 18.2467 23.3933 17.98 23.14ZM18.24 13.96V15.18H25.62V13.96H18.24ZM18.24 11.8V13H25.62V11.8H18.24ZM16.9 10.78H27V16.22H16.9V10.78ZM12.68 10.42H14.02V17.24C14.02 18.5867 13.9467 19.9333 13.8 21.28C13.6667 22.6133 13.3733 23.9067 12.92 25.16C12.4667 26.4 11.7533 27.5533 10.78 28.62C10.7133 28.5267 10.62 28.4133 10.5 28.28C10.38 28.1467 10.2533 28.02 10.12 27.9C10 27.78 9.88667 27.6867 9.78 27.62C10.66 26.6333 11.3 25.5733 11.7 24.44C12.1133 23.2933 12.38 22.1133 12.5 20.9C12.62 19.6733 12.68 18.4533 12.68 17.24V10.42ZM10.92 14.3L11.96 14.46C11.96 15.1133 11.92 15.7667 11.84 16.42C11.76 17.0733 11.6267 17.6933 11.44 18.28C11.2667 18.8667 11.0267 19.3667 10.72 19.78L9.76 19.16C10.0267 18.8 10.24 18.36 10.4 17.84C10.56 17.32 10.68 16.7533 10.76 16.14C10.8533 15.5267 10.9067 14.9133 10.92 14.3ZM15.52 13.52L16.74 14C16.4733 14.6933 16.1867 15.4333 15.88 16.22C15.5867 16.9933 15.3 17.6467 15.02 18.18L14.14 17.78C14.3 17.3933 14.4667 16.9467 14.64 16.44C14.8133 15.9333 14.9733 15.4267 15.12 14.92C15.28 14.4 15.4133 13.9333 15.52 13.52ZM13.62 21.46C13.74 21.5933 13.9333 21.8267 14.2 22.16C14.4667 22.4933 14.7467 22.86 15.04 23.26C15.3333 23.6467 15.6 24.0067 15.84 24.34C16.0933 24.6733 16.2733 24.9133 16.38 25.06L15.38 26.1C15.2467 25.86 15.06 25.56 14.82 25.2C14.5933 24.8267 14.3467 24.4467 14.08 24.06C13.8133 23.66 13.5533 23.2933 13.3 22.96C13.06 22.6133 12.86 22.34 12.7 22.14L13.62 21.46ZM42.02 10.36H43.44V20.46C43.44 20.8333 43.3867 21.1267 43.28 21.34C43.1867 21.5533 43.0067 21.72 42.74 21.84C42.4867 21.9467 42.1467 22.02 41.72 22.06C41.3067 22.0867 40.78 22.1 40.14 22.1C40.1 21.9 40.02 21.6733 39.9 21.42C39.7933 21.1667 39.6933 20.9467 39.6 20.76C40.0667 20.7733 40.4933 20.7867 40.88 20.8C41.2667 20.8 41.5267 20.7933 41.66 20.78C41.7933 20.7667 41.8867 20.74 41.94 20.7C41.9933 20.66 42.02 20.5733 42.02 20.44V10.36ZM44.66 13.26L45.9 12.86C46.2467 13.46 46.5733 14.1067 46.88 14.8C47.2 15.48 47.4867 16.14 47.74 16.78C48.0067 17.42 48.2 17.9867 48.32 18.48L46.96 18.98C46.8533 18.4867 46.68 17.9133 46.44 17.26C46.2 16.6067 45.9267 15.9267 45.62 15.22C45.3133 14.5133 44.9933 13.86 44.66 13.26ZM33.12 10.48H34.52V17.14C34.52 18.1533 34.48 19.1667 34.4 20.18C34.32 21.1933 34.1533 22.1867 33.9 23.16C33.66 24.1333 33.2867 25.0667 32.78 25.96C32.2867 26.8533 31.62 27.6933 30.78 28.48C30.7133 28.3733 30.6133 28.2533 30.48 28.12C30.36 27.9867 30.2267 27.8533 30.08 27.72C29.9467 27.6 29.8267 27.5 29.72 27.42C30.48 26.7133 31.0867 25.9533 31.54 25.14C32.0067 24.3133 32.3533 23.46 32.58 22.58C32.8067 21.6867 32.9533 20.7867 33.02 19.88C33.0867 18.96 33.12 18.0467 33.12 17.14V10.48ZM31 14.28L32.1 14.44C32.0867 15.0533 32.0333 15.6867 31.94 16.34C31.8467 16.98 31.7067 17.5867 31.52 18.16C31.3333 18.7333 31.0933 19.2267 30.8 19.64L29.72 19.12C29.9867 18.76 30.2067 18.32 30.38 17.8C30.5667 17.2667 30.7067 16.6933 30.8 16.08C30.8933 15.4667 30.96 14.8667 31 14.28ZM36.32 13.68L37.66 14.24C37.3267 14.9333 36.9867 15.66 36.64 16.42C36.2933 17.1667 35.9667 17.8067 35.66 18.34L34.68 17.84C34.8667 17.4667 35.06 17.04 35.26 16.56C35.4733 16.0667 35.6733 15.5667 35.86 15.06C36.0467 14.54 36.2 14.08 36.32 13.68ZM34.06 21.48C34.22 21.6267 34.4533 21.8667 34.76 22.2C35.0667 22.5333 35.3933 22.9 35.74 23.3C36.1 23.7 36.4267 24.0733 36.72 24.42C37.0267 24.7533 37.24 24.9933 37.36 25.14L36.32 26.24C36.16 25.9867 35.9333 25.6733 35.64 25.3C35.36 24.9267 35.06 24.5467 34.74 24.16C34.42 23.76 34.1133 23.3867 33.82 23.04C33.54 22.6933 33.3067 22.42 33.12 22.22L34.06 21.48ZM39.4 12.96L40.8 13.2C40.5333 14.4 40.1733 15.54 39.72 16.62C39.2667 17.7 38.7533 18.6133 38.18 19.36C38.0867 19.2933 37.96 19.22 37.8 19.14C37.6533 19.0467 37.5 18.9533 37.34 18.86C37.18 18.7667 37.0333 18.7 36.9 18.66C37.5133 17.9667 38.0267 17.12 38.44 16.12C38.8533 15.1067 39.1733 14.0533 39.4 12.96ZM45.7 19.4L47.1 19.8C46.6733 21.3467 46.06 22.6933 45.26 23.84C44.4733 24.9867 43.48 25.9667 42.28 26.78C41.08 27.58 39.6333 28.22 37.94 28.7C37.8467 28.4867 37.7133 28.2533 37.54 28C37.3667 27.76 37.2 27.56 37.04 27.4C38.64 26.9867 40.0067 26.4267 41.14 25.72C42.2867 25.0133 43.2333 24.1333 43.98 23.08C44.7267 22.0267 45.3 20.8 45.7 19.4ZM51.74 10.8H56.1V12.18H51.74V10.8ZM51.74 15.48H56.14V16.86H51.74V15.48ZM59.08 18.38H66.58V19.8H59.08V18.38ZM51.7 20.28H56.14V21.68H51.7V20.28ZM51.08 10.8H52.46V18.06C52.46 18.8467 52.44 19.6933 52.4 20.6C52.3733 21.5067 52.3067 22.44 52.2 23.4C52.0933 24.3467 51.94 25.2667 51.74 26.16C51.54 27.0533 51.2733 27.8733 50.94 28.62C50.8467 28.54 50.72 28.4533 50.56 28.36C50.4133 28.28 50.26 28.1933 50.1 28.1C49.9533 28.02 49.82 27.96 49.7 27.92C50.02 27.2133 50.2733 26.4467 50.46 25.62C50.6467 24.78 50.7867 23.92 50.88 23.04C50.9733 22.16 51.0267 21.2933 51.04 20.44C51.0667 19.5867 51.08 18.7933 51.08 18.06V10.8ZM55.28 10.8H56.7V26.62C56.7 27.02 56.6467 27.34 56.54 27.58C56.4467 27.8333 56.2733 28.02 56.02 28.14C55.7533 28.26 55.4067 28.3333 54.98 28.36C54.5667 28.4 54.0267 28.42 53.36 28.42C53.3467 28.2867 53.3133 28.1267 53.26 27.94C53.22 27.7667 53.1667 27.5867 53.1 27.4C53.0467 27.2267 52.98 27.08 52.9 26.96C53.38 26.9733 53.8067 26.98 54.18 26.98C54.5533 26.98 54.8067 26.98 54.94 26.98C55.1667 26.98 55.28 26.8533 55.28 26.6V10.8ZM58.98 11.18H67.34V20.88H65.88V12.6H58.98V11.18ZM58.26 11.18H59.7V25.48C59.7 25.8533 59.7333 26.14 59.8 26.34C59.8667 26.5267 60 26.66 60.2 26.74C60.4133 26.8067 60.7133 26.84 61.1 26.84C61.22 26.84 61.42 26.84 61.7 26.84C61.98 26.84 62.2933 26.84 62.64 26.84C63 26.84 63.36 26.84 63.72 26.84C64.08 26.84 64.4067 26.84 64.7 26.84C64.9933 26.84 65.2133 26.84 65.36 26.84C65.76 26.84 66.0533 26.74 66.24 26.54C66.44 26.3267 66.58 25.96 66.66 25.44C66.7533 24.92 66.82 24.18 66.86 23.22C67.06 23.3533 67.2867 23.48 67.54 23.6C67.8067 23.7067 68.0467 23.7867 68.26 23.84C68.18 24.9333 68.0533 25.8067 67.88 26.46C67.7067 27.1 67.4333 27.56 67.06 27.84C66.6867 28.1333 66.1467 28.28 65.44 28.28C65.3333 28.28 65.1267 28.28 64.82 28.28C64.5267 28.28 64.1867 28.28 63.8 28.28C63.4133 28.28 63.02 28.28 62.62 28.28C62.2333 28.28 61.8933 28.28 61.6 28.28C61.3067 28.28 61.1133 28.28 61.02 28.28C60.3133 28.28 59.76 28.2 59.36 28.04C58.96 27.88 58.6733 27.5933 58.5 27.18C58.34 26.78 58.26 26.2067 58.26 25.46V11.18ZM62.16 11.72H63.44V19.12H62.16V11.72ZM71.56 10.94H75.66V12.3H71.56V10.94ZM71.5 15.62H75.42V17H71.5V15.62ZM71.46 20.42H75.46V21.82H71.46V20.42ZM70.96 10.94H72.28V18.12C72.28 18.8933 72.26 19.7333 72.22 20.64C72.1933 21.5467 72.1267 22.4667 72.02 23.4C71.9133 24.3333 71.76 25.2467 71.56 26.14C71.36 27.0333 71.1 27.8467 70.78 28.58C70.6867 28.5 70.5667 28.4133 70.42 28.32C70.2867 28.24 70.14 28.16 69.98 28.08C69.8333 28 69.7 27.9467 69.58 27.92C69.9 27.2133 70.1533 26.4467 70.34 25.62C70.5267 24.7933 70.66 23.9467 70.74 23.08C70.8333 22.2 70.8933 21.34 70.92 20.5C70.9467 19.6467 70.96 18.8533 70.96 18.12V10.94ZM74.8 10.94H76.16V26.72C76.16 27.08 76.1133 27.3733 76.02 27.6C75.94 27.84 75.78 28.02 75.54 28.14C75.3 28.26 74.9867 28.3333 74.6 28.36C74.2267 28.4 73.7333 28.42 73.12 28.42C73.0933 28.2333 73.04 28 72.96 27.72C72.88 27.44 72.8 27.2067 72.72 27.02C73.1333 27.0333 73.5 27.04 73.82 27.04C74.1533 27.04 74.3733 27.04 74.48 27.04C74.6933 27.0267 74.8 26.9133 74.8 26.7V10.94ZM77.28 11.14H85.52V12.56H77.28V11.14ZM86.4 16.68H87.82C87.82 16.68 87.8133 16.7267 87.8 16.82C87.8 16.9133 87.7933 17.0133 87.78 17.12C87.78 17.2267 87.7733 17.32 87.76 17.4C87.6667 19.1467 87.56 20.6333 87.44 21.86C87.3333 23.0867 87.2133 24.0933 87.08 24.88C86.96 25.6667 86.8267 26.2867 86.68 26.74C86.5333 27.18 86.3733 27.5067 86.2 27.72C86.0133 27.9467 85.8133 28.1067 85.6 28.2C85.4 28.2933 85.1533 28.3533 84.86 28.38C84.62 28.4067 84.3133 28.42 83.94 28.42C83.5667 28.42 83.1667 28.4067 82.74 28.38C82.74 28.18 82.7 27.9467 82.62 27.68C82.5533 27.4267 82.4667 27.2067 82.36 27.02C82.7733 27.06 83.1533 27.0867 83.5 27.1C83.8467 27.1133 84.1067 27.12 84.28 27.12C84.44 27.12 84.5667 27.1 84.66 27.06C84.7667 27.0333 84.8733 26.96 84.98 26.84C85.1667 26.64 85.34 26.1933 85.5 25.5C85.6733 24.8067 85.8333 23.7733 85.98 22.4C86.1267 21.0267 86.2667 19.22 86.4 16.98V16.68ZM77.86 18.3C77.8333 18.18 77.78 18.0333 77.7 17.86C77.62 17.6867 77.54 17.5067 77.46 17.32C77.38 17.1333 77.3067 16.9867 77.24 16.88C77.5067 16.84 77.82 16.7267 78.18 16.54C78.5533 16.34 78.9333 16.1133 79.32 15.86C79.5333 15.74 79.8467 15.54 80.26 15.26C80.6867 14.9667 81.16 14.62 81.68 14.22C82.2133 13.8067 82.7533 13.36 83.3 12.88C83.86 12.4 84.3867 11.9067 84.88 11.4V11.3L85.6 11L86.74 11.84C85.4067 13.04 84.0933 14.1267 82.8 15.1C81.5067 16.0733 80.24 16.8933 79 17.56V17.6C79 17.6 78.94 17.62 78.82 17.66C78.7133 17.7 78.58 17.76 78.42 17.84C78.2733 17.9067 78.14 17.98 78.02 18.06C77.9133 18.14 77.86 18.22 77.86 18.3ZM77.86 18.3V17.08L78.7 16.68H86.86L86.84 18.06H79.54C79.1133 18.06 78.7467 18.08 78.44 18.12C78.1467 18.1467 77.9533 18.2067 77.86 18.3ZM83.78 17.42L85.14 17.68C84.4733 20.1333 83.5533 22.2733 82.38 24.1C81.2067 25.9133 79.7733 27.4067 78.08 28.58C78.0133 28.5 77.9067 28.4067 77.76 28.3C77.6133 28.1933 77.46 28.0867 77.3 27.98C77.1533 27.8733 77.02 27.7867 76.9 27.72C78.6333 26.64 80.0667 25.2267 81.2 23.48C82.3467 21.72 83.2067 19.7 83.78 17.42ZM80.62 17.4L81.9 17.66C81.5133 19.0333 80.96 20.2933 80.24 21.44C79.52 22.5733 78.7133 23.52 77.82 24.28C77.74 24.2 77.6333 24.1067 77.5 24C77.3667 23.8933 77.2267 23.7933 77.08 23.7C76.9467 23.5933 76.8267 23.5067 76.72 23.44C77.6267 22.76 78.4133 21.9 79.08 20.86C79.76 19.82 80.2733 18.6667 80.62 17.4Z" fill="black"/>
</svg>
