<svg width="141" height="40" viewBox="0 0 141 40" fill="none" xmlns="http://www.w3.org/2000/svg">
<rect x="0.5" y="0.5" width="140" height="39" fill="white"/>
<rect x="0.5" y="0.5" width="140" height="39" stroke="black"/>
<path d="M23.26 20.5H28.16V21.68H23.26V20.5ZM20.18 13.88C20.9267 13.8533 21.7733 13.82 22.72 13.78C23.68 13.74 24.6933 13.6933 25.76 13.64C26.8267 13.5867 27.9 13.5333 28.98 13.48L28.96 14.7C27.9333 14.7667 26.8933 14.8333 25.84 14.9C24.8 14.9533 23.8067 15.0067 22.86 15.06C21.9133 15.1133 21.0533 15.16 20.28 15.2L20.18 13.88ZM23.96 18.58L25.34 18.92C24.8467 20.0667 24.1933 21.1133 23.38 22.06C22.58 23.0067 21.72 23.8 20.8 24.44C20.7333 24.3467 20.6333 24.24 20.5 24.12C20.38 23.9867 20.2467 23.86 20.1 23.74C19.9667 23.62 19.8467 23.52 19.74 23.44C20.66 22.8933 21.4933 22.2 22.24 21.36C22.9867 20.52 23.56 19.5933 23.96 18.58ZM27.8 20.5H28.08L28.32 20.44L29.22 20.82C28.7667 22.22 28.1067 23.4333 27.24 24.46C26.3867 25.4733 25.4 26.3133 24.28 26.98C23.1733 27.6467 21.9933 28.1733 20.74 28.56C20.66 28.4 20.54 28.2 20.38 27.96C20.2333 27.72 20.0933 27.5333 19.96 27.4C21.12 27.0933 22.22 26.64 23.26 26.04C24.3133 25.44 25.24 24.7 26.04 23.82C26.84 22.9267 27.4267 21.9 27.8 20.74V20.5ZM23.44 21.56C23.84 22.4933 24.38 23.3533 25.06 24.14C25.7533 24.9133 26.56 25.58 27.48 26.14C28.4133 26.6867 29.4333 27.1 30.54 27.38C30.3933 27.5267 30.2267 27.72 30.04 27.96C29.8667 28.2 29.7333 28.4133 29.64 28.6C28.4667 28.2533 27.4 27.76 26.44 27.12C25.4933 26.4933 24.66 25.74 23.94 24.86C23.2333 23.98 22.66 22.9933 22.22 21.9L23.44 21.56ZM22.72 14.8H24.04C23.9733 15.5867 23.8333 16.2867 23.62 16.9C23.4067 17.5133 23.0733 18.0467 22.62 18.5C22.18 18.9533 21.56 19.3333 20.76 19.64C20.6933 19.48 20.58 19.2933 20.42 19.08C20.26 18.8667 20.1067 18.7 19.96 18.58C20.64 18.3533 21.1667 18.0667 21.54 17.72C21.9267 17.3733 22.2067 16.96 22.38 16.48C22.5533 15.9867 22.6667 15.4267 22.72 14.8ZM25.68 14.76H27V17.34C27 17.5267 27.0267 17.6467 27.08 17.7C27.1333 17.74 27.26 17.76 27.46 17.76C27.5133 17.76 27.62 17.76 27.78 17.76C27.9533 17.76 28.1267 17.76 28.3 17.76C28.4867 17.76 28.62 17.76 28.7 17.76C28.82 17.76 28.9067 17.7333 28.96 17.68C29.0267 17.6133 29.0733 17.4733 29.1 17.26C29.14 17.0467 29.1667 16.7133 29.18 16.26C29.3133 16.3667 29.4933 16.46 29.72 16.54C29.9467 16.62 30.1533 16.6867 30.34 16.74C30.2733 17.62 30.1333 18.2067 29.92 18.5C29.72 18.7933 29.3733 18.94 28.88 18.94C28.8133 18.94 28.7067 18.94 28.56 18.94C28.4133 18.94 28.2467 18.94 28.06 18.94C27.8867 18.94 27.7267 18.94 27.58 18.94C27.4333 18.94 27.3333 18.94 27.28 18.94C26.8533 18.94 26.52 18.8933 26.28 18.8C26.0533 18.7067 25.8933 18.5467 25.8 18.32C25.72 18.08 25.68 17.7533 25.68 17.34V14.76ZM23.52 10.16L24.98 10.62C24.7533 11.0733 24.5067 11.5533 24.24 12.06C23.9867 12.5533 23.7267 13.0333 23.46 13.5C23.1933 13.9533 22.94 14.36 22.7 14.72L21.56 14.3C21.7867 13.9267 22.02 13.5 22.26 13.02C22.5133 12.5267 22.7467 12.0267 22.96 11.52C23.1867 11.0133 23.3733 10.56 23.52 10.16ZM26.42 12.16L27.5 11.58C27.8733 11.9133 28.2467 12.2867 28.62 12.7C29.0067 13.1 29.36 13.5067 29.68 13.92C30 14.32 30.2533 14.6867 30.44 15.02L29.28 15.68C29.1067 15.36 28.8667 14.9933 28.56 14.58C28.2533 14.1667 27.9133 13.7533 27.54 13.34C27.1667 12.9133 26.7933 12.52 26.42 12.16ZM12.26 14.86H19.98V28.26H18.78V16.14H13.44V28.52H12.26V14.86ZM12.78 22.7H19.48V23.88H12.78V22.7ZM12.78 25.9H19.48V27.12H12.78V25.9ZM12.08 11.1H20.06V12.38H12.08V11.1ZM14.4 11.5H15.5V15.86H14.4V11.5ZM16.66 11.5H17.76V15.86H16.66V11.5ZM14.66 15.78H15.52V17.66C15.52 18.0467 15.48 18.4667 15.4 18.92C15.32 19.3733 15.1667 19.82 14.94 20.26C14.7133 20.7 14.3933 21.1067 13.98 21.48C13.9133 21.3867 13.8067 21.28 13.66 21.16C13.5267 21.04 13.4133 20.9533 13.32 20.9C13.7067 20.5667 13.9933 20.22 14.18 19.86C14.38 19.4867 14.5067 19.1133 14.56 18.74C14.6267 18.3533 14.66 17.9867 14.66 17.64V15.78ZM16.62 15.78H17.48V19.28C17.48 19.4 17.4933 19.48 17.52 19.52C17.5467 19.5467 17.62 19.56 17.74 19.56C17.78 19.56 17.8467 19.56 17.94 19.56C18.0467 19.56 18.1467 19.56 18.24 19.56C18.3467 19.56 18.4267 19.56 18.48 19.56C18.5867 19.56 18.66 19.5533 18.7 19.54C18.7533 19.5267 18.7867 19.5133 18.8 19.5C18.88 19.58 18.9933 19.6467 19.14 19.7C19.3 19.7533 19.4467 19.8 19.58 19.84C19.4733 20.24 19.16 20.44 18.64 20.44C18.6 20.44 18.5067 20.44 18.36 20.44C18.2267 20.44 18.0867 20.44 17.94 20.44C17.8067 20.44 17.7133 20.44 17.66 20.44C17.26 20.44 16.9867 20.3667 16.84 20.22C16.6933 20.0733 16.62 19.7667 16.62 19.3V15.78ZM36.62 10.2H38.08V14.48H36.62V10.2ZM43.82 10.2H45.28V14.48H43.82V10.2ZM32.24 11.76H49.84V13.1H32.24V11.76ZM43.92 16.18V18.14H47.46V16.18H43.92ZM39.22 16.18V18.14H42.68V16.18H39.22ZM34.62 16.18V18.14H37.96V16.18H34.62ZM33.28 14.94H48.88V19.4H33.28V14.94ZM36.5 23.76L37.54 22.92C38.0067 23.1467 38.4867 23.4133 38.98 23.72C39.4733 24.0133 39.94 24.32 40.38 24.64C40.82 24.96 41.1867 25.2533 41.48 25.52L40.36 26.46C40.08 26.2067 39.72 25.92 39.28 25.6C38.8533 25.2667 38.3933 24.94 37.9 24.62C37.42 24.3 36.9533 24.0133 36.5 23.76ZM37.18 20.92H46.64V22.24H37.18V20.92ZM38.82 19.3L40.24 19.82C39.76 20.4067 39.1733 20.9667 38.48 21.5C37.8 22.0333 37.06 22.52 36.26 22.96C35.46 23.3867 34.6533 23.7533 33.84 24.06C33.76 23.9533 33.6667 23.8333 33.56 23.7C33.4667 23.5667 33.3667 23.4333 33.26 23.3C33.1533 23.1667 33.0533 23.0533 32.96 22.96C33.72 22.7067 34.48 22.3867 35.24 22C36 21.6133 36.6933 21.1867 37.32 20.72C37.96 20.2533 38.46 19.78 38.82 19.3ZM46.3 20.92H46.62L46.9 20.86L47.86 21.54C47.1933 22.6733 46.3533 23.6533 45.34 24.48C44.34 25.2933 43.1933 25.9733 41.9 26.52C40.6067 27.0667 39.2267 27.5133 37.76 27.86C36.2933 28.2067 34.7867 28.4733 33.24 28.66C33.2 28.54 33.1333 28.4 33.04 28.24C32.9467 28.08 32.8467 27.92 32.74 27.76C32.6467 27.6 32.5533 27.4667 32.46 27.36C33.9933 27.2133 35.4667 26.9933 36.88 26.7C38.3067 26.4067 39.6267 26.02 40.84 25.54C42.0667 25.0467 43.1467 24.44 44.08 23.72C45.0133 23 45.7533 22.1467 46.3 21.16V20.92ZM58.4 10.24H60.08V28.58H58.4V10.24ZM59.68 17.64L60.56 16.4C61.2267 16.6933 61.9467 17.0267 62.72 17.4C63.5067 17.76 64.2867 18.1333 65.06 18.52C65.8467 18.9067 66.58 19.2867 67.26 19.66C67.94 20.0333 68.52 20.3733 69 20.68L68.04 22.14C67.5867 21.8333 67.0267 21.4867 66.36 21.1C65.6933 20.7133 64.9733 20.32 64.2 19.92C63.44 19.5067 62.6667 19.1067 61.88 18.72C61.1067 18.32 60.3733 17.96 59.68 17.64ZM73.88 12.34V15.94H76.92V12.34H73.88ZM72.62 11.06H78.22V17.2H72.62V11.06ZM74.96 16.54H76.2V25.86H74.96V16.54ZM72.58 19.1H73.76V26.42H72.58V19.1ZM71.7 26.08C72.3 25.9467 72.9867 25.7867 73.76 25.6C74.5333 25.4 75.3533 25.1933 76.22 24.98C77.0867 24.7533 77.96 24.5267 78.84 24.3L78.98 25.62C77.7533 25.9533 76.52 26.2867 75.28 26.62C74.0533 26.94 72.96 27.2333 72 27.5L71.7 26.08ZM75.58 20.14H78.52V21.46H75.58V20.14ZM83.6 10.28H85.1V12.82H83.6V10.28ZM83.66 18.1H85.04V28.54H83.66V18.1ZM86.72 13.04L88.22 13.46C88.0067 13.94 87.7733 14.4267 87.52 14.92C87.28 15.4 87.0667 15.8133 86.88 16.16L85.6 15.78C85.7333 15.5267 85.8667 15.24 86 14.92C86.1333 14.6 86.2667 14.2733 86.4 13.94C86.5333 13.5933 86.64 13.2933 86.72 13.04ZM80.8 13.5L82.08 13.14C82.3067 13.54 82.5133 13.9867 82.7 14.48C82.8867 14.96 83.02 15.38 83.1 15.74L81.74 16.16C81.6733 15.7867 81.5467 15.3533 81.36 14.86C81.1867 14.3533 81 13.9 80.8 13.5ZM79 12H89.98V13.28H79V12ZM79 15.96H90V19.44H88.58V17.24H80.36V19.44H79V15.96ZM79.9 19.82H88.28V21.1H81.26V26.24H79.9V19.82ZM87.64 19.82H89.02V24.88C89.02 25.2 88.98 25.4667 88.9 25.68C88.8333 25.88 88.6867 26.04 88.46 26.16C88.22 26.2667 87.92 26.3333 87.56 26.36C87.2133 26.3867 86.78 26.4 86.26 26.4C86.2333 26.2 86.1733 25.98 86.08 25.74C86 25.4867 85.9067 25.2667 85.8 25.08C86.1733 25.0933 86.5067 25.1 86.8 25.1C87.0933 25.1 87.2867 25.1 87.38 25.1C87.5533 25.1 87.64 25.02 87.64 24.86V19.82ZM96.98 15.6L98.46 16.04C97.9933 16.9733 97.4533 17.88 96.84 18.76C96.2267 19.64 95.5733 20.46 94.88 21.22C94.2 21.98 93.5067 22.6467 92.8 23.22C92.7067 23.1267 92.58 23.0133 92.42 22.88C92.2733 22.7467 92.12 22.6133 91.96 22.48C91.8 22.3467 91.66 22.24 91.54 22.16C92.26 21.64 92.96 21.0333 93.64 20.34C94.32 19.6467 94.9467 18.8933 95.52 18.08C96.0933 17.2667 96.58 16.44 96.98 15.6ZM101.22 15.78H102.7V25.88C102.7 26.3067 102.773 26.5867 102.92 26.72C103.08 26.84 103.42 26.9 103.94 26.9C104.06 26.9 104.28 26.9 104.6 26.9C104.933 26.9 105.293 26.9 105.68 26.9C106.08 26.9 106.453 26.9 106.8 26.9C107.147 26.9 107.4 26.9 107.56 26.9C107.88 26.9 108.12 26.82 108.28 26.66C108.44 26.5 108.553 26.2 108.62 25.76C108.687 25.3067 108.74 24.6533 108.78 23.8C108.9 23.88 109.04 23.96 109.2 24.04C109.36 24.12 109.527 24.1933 109.7 24.26C109.873 24.3133 110.027 24.36 110.16 24.4C110.093 25.4 109.98 26.1867 109.82 26.76C109.673 27.3333 109.427 27.7333 109.08 27.96C108.747 28.1867 108.267 28.3 107.64 28.3C107.547 28.3 107.367 28.3 107.1 28.3C106.847 28.3 106.553 28.3 106.22 28.3C105.887 28.3 105.547 28.3 105.2 28.3C104.867 28.3 104.573 28.3 104.32 28.3C104.067 28.3 103.9 28.3 103.82 28.3C103.14 28.3 102.613 28.2267 102.24 28.08C101.867 27.9467 101.6 27.7 101.44 27.34C101.293 26.9933 101.22 26.5067 101.22 25.88V15.78ZM108.18 17.5L109.32 18.66C108.707 19.06 108.007 19.4667 107.22 19.88C106.433 20.28 105.613 20.6667 104.76 21.04C103.92 21.4133 103.1 21.7667 102.3 22.1C102.26 21.94 102.18 21.7533 102.06 21.54C101.953 21.3133 101.847 21.1267 101.74 20.98C102.527 20.66 103.313 20.3067 104.1 19.92C104.9 19.52 105.653 19.1133 106.36 18.7C107.08 18.2867 107.687 17.8867 108.18 17.5ZM92.2 12.04H109.78V13.48H92.2V12.04ZM97.02 10.2H98.48V15.6H97.02V10.2ZM103.56 10.2H105.06V15.7H103.56V10.2ZM95.32 19.38L96.78 17.92L96.8 17.94V28.6H95.32V19.38ZM112.92 11.52L113.76 10.46C114.187 10.6467 114.62 10.86 115.06 11.1C115.513 11.34 115.94 11.5867 116.34 11.84C116.753 12.0933 117.087 12.3333 117.34 12.56L116.44 13.76C116.187 13.52 115.86 13.2667 115.46 13C115.073 12.7333 114.653 12.4733 114.2 12.22C113.76 11.9533 113.333 11.72 112.92 11.52ZM111.92 17.02L112.76 15.94C113.187 16.1133 113.62 16.32 114.06 16.56C114.513 16.8 114.94 17.0467 115.34 17.3C115.753 17.5533 116.087 17.7933 116.34 18.02L115.46 19.24C115.207 19.0133 114.88 18.7667 114.48 18.5C114.093 18.2333 113.673 17.9733 113.22 17.72C112.767 17.4533 112.333 17.22 111.92 17.02ZM112.48 27.32C112.787 26.8133 113.127 26.2067 113.5 25.5C113.887 24.78 114.267 24.02 114.64 23.22C115.027 22.42 115.38 21.6467 115.7 20.9L116.9 21.78C116.607 22.4733 116.287 23.2 115.94 23.96C115.593 24.72 115.233 25.4667 114.86 26.2C114.5 26.92 114.153 27.5867 113.82 28.2L112.48 27.32ZM117.88 11.14H126.8V12.56H117.88V11.14ZM128.3 16.66H129.8C129.8 16.66 129.793 16.7067 129.78 16.8C129.78 16.8933 129.78 17 129.78 17.12C129.78 17.2267 129.773 17.32 129.76 17.4C129.653 19.1467 129.54 20.6333 129.42 21.86C129.313 23.0867 129.193 24.0933 129.06 24.88C128.94 25.6667 128.807 26.2867 128.66 26.74C128.513 27.18 128.353 27.5067 128.18 27.72C127.98 27.9733 127.773 28.1467 127.56 28.24C127.36 28.3333 127.113 28.3933 126.82 28.42C126.567 28.4467 126.247 28.4533 125.86 28.44C125.487 28.44 125.087 28.4333 124.66 28.42C124.66 28.2067 124.62 27.96 124.54 27.68C124.473 27.4133 124.38 27.1867 124.26 27C124.673 27.04 125.053 27.06 125.4 27.06C125.747 27.0733 126.007 27.08 126.18 27.08C126.34 27.0933 126.473 27.08 126.58 27.04C126.687 27 126.787 26.92 126.88 26.8C127.08 26.6 127.26 26.1533 127.42 25.46C127.593 24.7667 127.747 23.74 127.88 22.38C128.027 21.0067 128.167 19.2 128.3 16.96V16.66ZM118.62 18.32C118.593 18.2 118.54 18.0533 118.46 17.88C118.393 17.7067 118.313 17.5333 118.22 17.36C118.14 17.1733 118.067 17.02 118 16.9C118.267 16.8467 118.593 16.7333 118.98 16.56C119.38 16.3733 119.787 16.1533 120.2 15.9C120.413 15.7667 120.74 15.56 121.18 15.28C121.633 15 122.14 14.66 122.7 14.26C123.273 13.8467 123.86 13.4 124.46 12.92C125.073 12.44 125.64 11.9467 126.16 11.44V11.34L126.9 11.02L128.02 11.88C126.58 13.0933 125.167 14.1867 123.78 15.16C122.393 16.12 121.047 16.9267 119.74 17.58V17.64C119.74 17.64 119.68 17.66 119.56 17.7C119.453 17.74 119.327 17.7933 119.18 17.86C119.033 17.9267 118.9 18 118.78 18.08C118.673 18.16 118.62 18.24 118.62 18.32ZM118.62 18.32V17.06L119.48 16.66H128.8V18.08H120.42C119.94 18.08 119.54 18.1 119.22 18.14C118.913 18.18 118.713 18.24 118.62 18.32ZM125.42 17.44L126.78 17.74C126.06 20.1933 125.067 22.3333 123.8 24.16C122.547 25.9733 121.02 27.4533 119.22 28.6C119.14 28.52 119.027 28.42 118.88 28.3C118.747 28.18 118.6 28.0667 118.44 27.96C118.293 27.8533 118.16 27.7667 118.04 27.7C119.88 26.6467 121.407 25.2533 122.62 23.52C123.847 21.7733 124.78 19.7467 125.42 17.44ZM121.62 17.56L122.98 17.88C122.513 19.24 121.86 20.46 121.02 21.54C120.18 22.62 119.26 23.52 118.26 24.24C118.18 24.16 118.067 24.0667 117.92 23.96C117.787 23.84 117.64 23.7267 117.48 23.62C117.333 23.5133 117.207 23.42 117.1 23.34C118.113 22.7133 119.013 21.9 119.8 20.9C120.6 19.9 121.207 18.7867 121.62 17.56Z" fill="black"/>
</svg>
