<svg width="66" height="40" viewBox="0 0 66 40" fill="none" xmlns="http://www.w3.org/2000/svg">
<rect x="0.5" y="0.5" width="65" height="39" fill="white"/>
<rect x="0.5" y="0.5" width="65" height="39" stroke="black"/>
<path d="M21.78 11.88H30.92V27.84H29.36V13.3H23.26V28H21.78V11.88ZM22.64 24.72H30.06V26.14H22.64V24.72ZM13.64 21.1C14.24 20.9533 14.92 20.7733 15.68 20.56C16.4533 20.3467 17.2667 20.12 18.12 19.88C18.9867 19.6267 19.8533 19.3733 20.72 19.12L20.9 20.5C19.7133 20.8733 18.5067 21.24 17.28 21.6C16.0667 21.96 14.98 22.2867 14.02 22.58L13.64 21.1ZM13.88 13.88H20.72V15.28H13.88V13.88ZM16.78 10.2H18.28V26.8C18.28 27.2267 18.2267 27.5533 18.12 27.78C18.0133 28.0067 17.8267 28.18 17.56 28.3C17.2933 28.42 16.9467 28.5 16.52 28.54C16.0933 28.58 15.5467 28.5933 14.88 28.58C14.84 28.3933 14.7733 28.16 14.68 27.88C14.5867 27.6133 14.4867 27.3733 14.38 27.16C14.8333 27.1733 15.2467 27.18 15.62 27.18C16.0067 27.18 16.2667 27.18 16.4 27.18C16.5333 27.18 16.6267 27.1467 16.68 27.08C16.7467 27.0267 16.78 26.9333 16.78 26.8V10.2ZM42.56 10.26H44.14C44.06 11.4333 43.92 12.5333 43.72 13.56C43.5333 14.5867 43.2333 15.5267 42.82 16.38C42.4067 17.22 41.8267 17.9733 41.08 18.64C40.3333 19.3067 39.36 19.8667 38.16 20.32C38.08 20.1467 37.9467 19.9533 37.76 19.74C37.5867 19.5133 37.42 19.3333 37.26 19.2C38.3533 18.8 39.2333 18.3067 39.9 17.72C40.5667 17.1333 41.08 16.46 41.44 15.7C41.8 14.94 42.06 14.1067 42.22 13.2C42.38 12.2933 42.4933 11.3133 42.56 10.26ZM42.04 16.3L43 15.28C43.6267 15.6267 44.2933 16.02 45 16.46C45.7067 16.8867 46.38 17.3133 47.02 17.74C47.66 18.1667 48.1867 18.5533 48.6 18.9L47.6 20.08C47.2 19.7333 46.6867 19.34 46.06 18.9C45.4333 18.4467 44.7667 17.9933 44.06 17.54C43.3533 17.0733 42.68 16.66 42.04 16.3ZM42.44 18.9H43.98C43.7933 19.8867 43.4867 20.84 43.06 21.76C42.6467 22.68 42.0467 23.5133 41.26 24.26C40.4733 24.9933 39.4133 25.6067 38.08 26.1C37.9867 25.9267 37.8533 25.7333 37.68 25.52C37.52 25.2933 37.3533 25.1133 37.18 24.98C38.1 24.6733 38.8667 24.3 39.48 23.86C40.1067 23.4067 40.6133 22.9133 41 22.38C41.4 21.8467 41.7067 21.2867 41.92 20.7C42.1467 20.1 42.32 19.5 42.44 18.9ZM42.18 22L43.22 21.04C43.8067 21.44 44.4267 21.88 45.08 22.36C45.7467 22.8267 46.38 23.2933 46.98 23.76C47.58 24.2267 48.0733 24.6467 48.46 25.02L47.36 26.12C46.9867 25.7467 46.5067 25.32 45.92 24.84C45.3333 24.36 44.7133 23.8667 44.06 23.36C43.4067 22.8533 42.78 22.4 42.18 22ZM34.92 13.16H50.2V14.62H36.42V28.6H34.92V13.16ZM49.6 13.16H51.08V26.7C51.08 27.1667 51.02 27.5267 50.9 27.78C50.78 28.0467 50.5533 28.24 50.22 28.36C49.9 28.48 49.4467 28.5533 48.86 28.58C48.2733 28.62 47.5533 28.64 46.7 28.64C46.6733 28.4267 46.6133 28.1667 46.52 27.86C46.4267 27.5667 46.3267 27.3133 46.22 27.1C46.8733 27.1267 47.4733 27.14 48.02 27.14C48.58 27.1533 48.9533 27.1533 49.14 27.14C49.3267 27.1267 49.4467 27.0867 49.5 27.02C49.5667 26.9533 49.6 26.8333 49.6 26.66V13.16Z" fill="black"/>
</svg>
