<svg width="97" height="40" viewBox="0 0 97 40" fill="none" xmlns="http://www.w3.org/2000/svg">
<rect x="0.5" y="0.5" width="96" height="39" fill="white"/>
<rect x="0.5" y="0.5" width="96" height="39" stroke="black"/>
<path d="M13.1 20.68H25.2V28.56H23.66V21.9H14.58V28.6H13.1V20.68ZM13.98 23.68H24.18V24.8H13.98V23.68ZM13.98 26.68H24.32V27.88H13.98V26.68ZM10.14 14.8H27.88V16.16H10.14V14.8ZM18.2 12.06H19.76V20.14H18.2V12.06ZM17.46 15.12L18.66 15.62C18.22 16.2733 17.6933 16.9067 17.08 17.52C16.4667 18.1333 15.8067 18.7067 15.1 19.24C14.4067 19.7733 13.6867 20.26 12.94 20.7C12.2067 21.14 11.4733 21.5067 10.74 21.8C10.6733 21.6667 10.58 21.5267 10.46 21.38C10.3533 21.2333 10.2333 21.0933 10.1 20.96C9.98 20.8133 9.86 20.6867 9.74 20.58C10.46 20.3267 11.1867 20.0067 11.92 19.62C12.6667 19.2333 13.38 18.8 14.06 18.32C14.7533 17.84 15.3933 17.3333 15.98 16.8C16.5667 16.2533 17.06 15.6933 17.46 15.12ZM20.48 15.16C20.8933 15.6933 21.4 16.22 22 16.74C22.6133 17.2467 23.2667 17.7267 23.96 18.18C24.6533 18.6333 25.3733 19.0467 26.12 19.42C26.8667 19.7933 27.5933 20.1067 28.3 20.36C28.1933 20.4533 28.0733 20.5733 27.94 20.72C27.82 20.8667 27.7 21.0133 27.58 21.16C27.4733 21.3067 27.3867 21.44 27.32 21.56C26.6 21.28 25.8667 20.9333 25.12 20.52C24.3867 20.0933 23.66 19.6267 22.94 19.12C22.2333 18.6 21.5667 18.0533 20.94 17.48C20.3133 16.8933 19.7667 16.3 19.3 15.7L20.48 15.16ZM24.56 10.34L25.7 11.54C24.8333 11.7667 23.8533 11.9667 22.76 12.14C21.68 12.3133 20.54 12.4667 19.34 12.6C18.14 12.7333 16.9267 12.8467 15.7 12.94C14.4733 13.02 13.2867 13.0867 12.14 13.14C12.1267 12.9533 12.08 12.74 12 12.5C11.92 12.2467 11.84 12.0333 11.76 11.86C12.8933 11.8067 14.06 11.7333 15.26 11.64C16.46 11.5467 17.6333 11.44 18.78 11.32C19.9267 11.1867 20.9933 11.04 21.98 10.88C22.98 10.72 23.84 10.54 24.56 10.34ZM33.22 10.18H34.66V13.4H33.22V10.18ZM42.16 10.18H43.62V28.62H42.16V10.18ZM30.14 12.8H37.64V14.08H30.14V12.8ZM38 12.54H48.06V13.88H38V12.54ZM29.88 18.24H37.84V19.5H29.88V18.24ZM31.14 14.7L32.26 14.38C32.4733 14.9 32.6467 15.4733 32.78 16.1C32.9133 16.7133 32.9933 17.24 33.02 17.68L31.82 18.04C31.7933 17.6 31.72 17.0667 31.6 16.44C31.48 15.8 31.3267 15.22 31.14 14.7ZM35.56 14.28L36.92 14.62C36.7067 15.2067 36.48 15.8267 36.24 16.48C36 17.12 35.78 17.66 35.58 18.1L34.5 17.78C34.6333 17.46 34.7667 17.1 34.9 16.7C35.0333 16.2867 35.16 15.8667 35.28 15.44C35.4 15.0133 35.4933 14.6267 35.56 14.28ZM29.8 22.58C30.48 22.4733 31.2533 22.3467 32.12 22.2C33 22.04 33.9267 21.8733 34.9 21.7C35.8733 21.5133 36.8467 21.3333 37.82 21.16L37.9 22.4C36.5267 22.6667 35.16 22.94 33.8 23.22C32.44 23.4867 31.22 23.7267 30.14 23.94L29.8 22.58ZM39.74 17V20.02H46.28V17H39.74ZM38.4 15.8H47.68V21.2H38.4V15.8ZM43.9 20.72C44.2467 21.4267 44.6733 22.1467 45.18 22.88C45.6867 23.6 46.2333 24.2733 46.82 24.9C47.42 25.5133 48 26.0133 48.56 26.4C48.4133 26.5333 48.2333 26.7133 48.02 26.94C47.82 27.1533 47.66 27.3533 47.54 27.54C46.9667 27.0733 46.3867 26.4933 45.8 25.8C45.2267 25.0933 44.68 24.3333 44.16 23.52C43.6533 22.7067 43.2133 21.9 42.84 21.1L43.9 20.72ZM41.84 20.74L43.02 21.2C42.6067 22.08 42.0933 22.9333 41.48 23.76C40.88 24.5867 40.22 25.3467 39.5 26.04C38.7933 26.72 38.08 27.28 37.36 27.72C37.28 27.6133 37.18 27.4867 37.06 27.34C36.94 27.2067 36.82 27.0733 36.7 26.94C36.58 26.8067 36.46 26.6933 36.34 26.6C37.06 26.2267 37.7667 25.7333 38.46 25.12C39.1667 24.4933 39.8133 23.8067 40.4 23.06C40.9867 22.3 41.4667 21.5267 41.84 20.74ZM33.22 18.74H34.66V22.1C34.66 22.6067 34.62 23.1533 34.54 23.74C34.46 24.3133 34.3067 24.8933 34.08 25.48C33.8667 26.0667 33.5533 26.6267 33.14 27.16C32.74 27.7067 32.2067 28.2 31.54 28.64C31.4867 28.5467 31.4 28.4333 31.28 28.3C31.1733 28.1667 31.06 28.04 30.94 27.92C30.82 27.8 30.7 27.7 30.58 27.62C31.1933 27.26 31.6733 26.8533 32.02 26.4C32.3667 25.9333 32.6267 25.4467 32.8 24.94C32.9733 24.4333 33.0867 23.94 33.14 23.46C33.1933 22.9667 33.22 22.5067 33.22 22.08V18.74ZM56.86 12.46H65V13.78H56.86V12.46ZM59.4 23.02H66.12V24.24H59.4V23.02ZM59.4 26.54H66.12V27.8H59.4V26.54ZM55.94 16.22H68.18V17.56H55.94V16.22ZM60.36 10.2H61.82V17.22H60.36V10.2ZM58.64 19.56H66.9V28.58H65.44V20.84H60.06V28.58H58.64V19.56ZM66.56 10.92L67.9 11.44C66.9933 13.04 65.9333 14.5333 64.72 15.92C63.52 17.3067 62.2133 18.5667 60.8 19.7C59.3867 20.82 57.9067 21.7933 56.36 22.62C56.2933 22.5267 56.1933 22.4067 56.06 22.26C55.94 22.1 55.8133 21.9467 55.68 21.8C55.56 21.64 55.4467 21.5133 55.34 21.42C56.8867 20.6733 58.36 19.7733 59.76 18.72C61.16 17.6533 62.4333 16.46 63.58 15.14C64.74 13.82 65.7333 12.4133 66.56 10.92ZM50.36 11.14L51.42 10.34C52.3 11.14 53.0067 11.9667 53.54 12.82C54.0733 13.66 54.4733 14.52 54.74 15.4C55.0067 16.28 55.18 17.18 55.26 18.1C55.3533 19.0067 55.4 19.94 55.4 20.9C55.4 21.8733 55.3733 22.8067 55.32 23.7C55.2667 24.58 55.1667 25.3667 55.02 26.06C54.8733 26.74 54.6667 27.2667 54.4 27.64C54.1333 28.0133 53.76 28.2333 53.28 28.3C52.9467 28.3667 52.58 28.4 52.18 28.4C51.7933 28.4133 51.3933 28.4133 50.98 28.4C50.9667 28.16 50.92 27.9067 50.84 27.64C50.7733 27.3733 50.6733 27.1333 50.54 26.92C50.9933 26.9467 51.4 26.96 51.76 26.96C52.1333 26.96 52.4267 26.9533 52.64 26.94C52.7867 26.9133 52.9133 26.8733 53.02 26.82C53.1267 26.7667 53.2133 26.6933 53.28 26.6C53.4533 26.3733 53.5867 25.9733 53.68 25.4C53.7867 24.8267 53.86 24.1467 53.9 23.36C53.94 22.5733 53.96 21.7467 53.96 20.88C53.96 19.6667 53.88 18.5067 53.72 17.4C53.56 16.28 53.2267 15.2 52.72 14.16C52.2133 13.12 51.4267 12.1133 50.36 11.14ZM53.94 17.28L55.06 17.92C54.7533 18.6267 54.3533 19.3467 53.86 20.08C53.3667 20.8 52.8333 21.48 52.26 22.12C51.6867 22.76 51.12 23.3 50.56 23.74C50.4533 23.54 50.3133 23.32 50.14 23.08C49.9667 22.8267 49.8 22.6133 49.64 22.44C50.1867 22.08 50.7333 21.6267 51.28 21.08C51.8267 20.52 52.3333 19.9133 52.8 19.26C53.28 18.5933 53.66 17.9333 53.94 17.28ZM54.8 10.5L55.92 11.24C55.52 11.9467 55.0133 12.6867 54.4 13.46C53.8 14.22 53.1533 14.9467 52.46 15.64C51.78 16.32 51.12 16.9 50.48 17.38C50.3733 17.1667 50.2333 16.9267 50.06 16.66C49.9 16.3933 49.74 16.18 49.58 16.02C50.2067 15.62 50.8467 15.12 51.5 14.52C52.1667 13.9067 52.7867 13.2533 53.36 12.56C53.9467 11.8533 54.4267 11.1667 54.8 10.5ZM71.88 12.34V15.94H74.92V12.34H71.88ZM70.62 11.06H76.22V17.2H70.62V11.06ZM72.96 16.54H74.2V25.86H72.96V16.54ZM70.58 19.1H71.76V26.42H70.58V19.1ZM69.7 26.08C70.3 25.9467 70.9867 25.7867 71.76 25.6C72.5333 25.4 73.3533 25.1933 74.22 24.98C75.0867 24.7533 75.96 24.5267 76.84 24.3L76.98 25.62C75.7533 25.9533 74.52 26.2867 73.28 26.62C72.0533 26.94 70.96 27.2333 70 27.5L69.7 26.08ZM73.58 20.14H76.52V21.46H73.58V20.14ZM81.6 10.28H83.1V12.82H81.6V10.28ZM81.66 18.1H83.04V28.54H81.66V18.1ZM84.72 13.04L86.22 13.46C86.0067 13.94 85.7733 14.4267 85.52 14.92C85.28 15.4 85.0667 15.8133 84.88 16.16L83.6 15.78C83.7333 15.5267 83.8667 15.24 84 14.92C84.1333 14.6 84.2667 14.2733 84.4 13.94C84.5333 13.5933 84.64 13.2933 84.72 13.04ZM78.8 13.5L80.08 13.14C80.3067 13.54 80.5133 13.9867 80.7 14.48C80.8867 14.96 81.02 15.38 81.1 15.74L79.74 16.16C79.6733 15.7867 79.5467 15.3533 79.36 14.86C79.1867 14.3533 79 13.9 78.8 13.5ZM77 12H87.98V13.28H77V12ZM77 15.96H88V19.44H86.58V17.24H78.36V19.44H77V15.96ZM77.9 19.82H86.28V21.1H79.26V26.24H77.9V19.82ZM85.64 19.82H87.02V24.88C87.02 25.2 86.98 25.4667 86.9 25.68C86.8333 25.88 86.6867 26.04 86.46 26.16C86.22 26.2667 85.92 26.3333 85.56 26.36C85.2133 26.3867 84.78 26.4 84.26 26.4C84.2333 26.2 84.1733 25.98 84.08 25.74C84 25.4867 83.9067 25.2667 83.8 25.08C84.1733 25.0933 84.5067 25.1 84.8 25.1C85.0933 25.1 85.2867 25.1 85.38 25.1C85.5533 25.1 85.64 25.02 85.64 24.86V19.82Z" fill="black"/>
</svg>
