<svg width="113" height="40" viewBox="0 0 113 40" fill="none" xmlns="http://www.w3.org/2000/svg">
<rect x="0.5" y="0.5" width="112" height="39" fill="white"/>
<rect x="0.5" y="0.5" width="112" height="39" stroke="black"/>
<path d="M24.08 11.34L25.12 12.54C24.44 12.74 23.68 12.9333 22.84 13.12C22.0133 13.3067 21.14 13.4733 20.22 13.62C19.3 13.7667 18.3733 13.9 17.44 14.02C16.5067 14.1267 15.6 14.22 14.72 14.3C14.68 14.1267 14.6133 13.92 14.52 13.68C14.44 13.4267 14.36 13.22 14.28 13.06C15.1467 12.98 16.0333 12.88 16.94 12.76C17.8467 12.64 18.74 12.5067 19.62 12.36C20.5 12.2 21.32 12.04 22.08 11.88C22.8533 11.7067 23.52 11.5267 24.08 11.34ZM14.3 17.36H26.18V18.78H14.3V17.36ZM15.34 22.14H25.02V29.52H23.46V23.52H16.82V29.6H15.34V22.14ZM16.16 27.42H24.16V28.78H16.16V27.42ZM19.38 12.98H20.9V22.92H19.38V12.98ZM8.98 12.64L9.94 11.72C10.2867 12 10.6467 12.3133 11.02 12.66C11.3933 12.9933 11.7467 13.3267 12.08 13.66C12.4267 13.9933 12.7 14.2933 12.9 14.56L11.86 15.64C11.66 15.36 11.4 15.0467 11.08 14.7C10.76 14.3533 10.4133 14 10.04 13.64C9.68 13.28 9.32667 12.9467 8.98 12.64ZM10.46 29.04L10.16 27.64L10.54 27.02L14.12 24.28C14.2 24.4667 14.3 24.6867 14.42 24.94C14.54 25.1933 14.64 25.3867 14.72 25.52C13.8667 26.1867 13.1733 26.7333 12.64 27.16C12.12 27.5733 11.7133 27.9 11.42 28.14C11.1267 28.38 10.9133 28.5667 10.78 28.7C10.6467 28.8333 10.54 28.9467 10.46 29.04ZM7.86 17.48H11.42V18.92H7.86V17.48ZM10.46 29.04C10.4067 28.9333 10.3267 28.8 10.22 28.64C10.1267 28.4933 10.02 28.3467 9.9 28.2C9.78 28.0533 9.67333 27.94 9.58 27.86C9.71333 27.7667 9.86 27.6267 10.02 27.44C10.1933 27.2533 10.34 27.0267 10.46 26.76C10.5933 26.4933 10.66 26.2067 10.66 25.9V17.48H12.08V27.14C12.08 27.14 11.9933 27.2133 11.82 27.36C11.66 27.4933 11.4733 27.6667 11.26 27.88C11.06 28.08 10.8733 28.2867 10.7 28.5C10.54 28.7133 10.46 28.8933 10.46 29.04ZM36.96 13.72H46V15.04H36.96V13.72ZM37.2 16.86H44.32V18.16H37.2V16.86ZM34.6 21.12H46.4V22.52H34.6V21.12ZM36.14 25.64H46.16V26.94H36.14V25.64ZM37.32 11.14L38.78 11.46C38.4333 12.7133 37.9733 13.9067 37.4 15.04C36.84 16.1733 36.2267 17.1267 35.56 17.9C35.48 17.82 35.36 17.7267 35.2 17.62C35.04 17.5133 34.8733 17.4067 34.7 17.3C34.54 17.1933 34.4 17.1067 34.28 17.04C34.9733 16.3333 35.58 15.46 36.1 14.42C36.62 13.3667 37.0267 12.2733 37.32 11.14ZM36.52 16.86H37.9C37.8067 17.74 37.7067 18.68 37.6 19.68C37.4933 20.68 37.3733 21.68 37.24 22.68C37.12 23.68 37 24.6333 36.88 25.54C36.76 26.4333 36.6467 27.2267 36.54 27.92L35.12 27.8C35.24 27.1067 35.3667 26.3133 35.5 25.42C35.6467 24.5267 35.78 23.58 35.9 22.58C36.0333 21.58 36.1533 20.5933 36.26 19.62C36.3667 18.6333 36.4533 17.7133 36.52 16.86ZM40.16 17.44H41.5C41.46 18.1467 41.4067 18.9 41.34 19.7C41.2733 20.5 41.2 21.3 41.12 22.1C41.0533 22.9 40.98 23.66 40.9 24.38C40.8333 25.1 40.76 25.7333 40.68 26.28H39.38C39.4467 25.72 39.52 25.08 39.6 24.36C39.68 23.64 39.7533 22.88 39.82 22.08C39.9 21.2667 39.9667 20.4667 40.02 19.68C40.0867 18.88 40.1333 18.1333 40.16 17.44ZM44 16.86H45.36C45.36 16.86 45.36 16.9067 45.36 17C45.36 17.0933 45.36 17.1933 45.36 17.3C45.36 17.4067 45.36 17.4933 45.36 17.56C45.2667 19.5333 45.18 21.2 45.1 22.56C45.02 23.92 44.9267 25.0333 44.82 25.9C44.7133 26.7533 44.6 27.4133 44.48 27.88C44.36 28.3333 44.22 28.6667 44.06 28.88C43.8733 29.12 43.6733 29.2867 43.46 29.38C43.26 29.4733 43.02 29.5333 42.74 29.56C42.4867 29.5867 42.1667 29.5933 41.78 29.58C41.3933 29.58 40.98 29.5667 40.54 29.54C40.5267 29.38 40.4867 29.1867 40.42 28.96C40.3667 28.7467 40.2933 28.56 40.2 28.4C40.64 28.44 41.0333 28.46 41.38 28.46C41.7267 28.4733 41.9867 28.48 42.16 28.48C42.32 28.4933 42.4533 28.4733 42.56 28.42C42.6667 28.38 42.7667 28.3 42.86 28.18C42.9933 28.02 43.1133 27.7133 43.22 27.26C43.3267 26.8067 43.4267 26.16 43.52 25.32C43.6133 24.4667 43.7 23.3733 43.78 22.04C43.86 20.7067 43.9333 19.0867 44 17.18V16.86ZM28.04 15.54H34.5V16.94H28.04V15.54ZM30.84 11.2H32.22V29.58H30.84V11.2ZM30.8 16.38L31.74 16.68C31.58 17.48 31.38 18.3067 31.14 19.16C30.9133 20.0133 30.6533 20.8533 30.36 21.68C30.0667 22.5067 29.7533 23.2733 29.42 23.98C29.0867 24.6867 28.74 25.2933 28.38 25.8C28.3133 25.6 28.2 25.38 28.04 25.14C27.88 24.8867 27.74 24.6733 27.62 24.5C27.9533 24.0467 28.28 23.5067 28.6 22.88C28.92 22.2533 29.22 21.5733 29.5 20.84C29.78 20.1067 30.0333 19.36 30.26 18.6C30.4867 17.8267 30.6667 17.0867 30.8 16.38ZM32.12 18.3C32.24 18.4467 32.4133 18.6867 32.64 19.02C32.88 19.3533 33.1333 19.72 33.4 20.12C33.68 20.52 33.9333 20.8933 34.16 21.24C34.3867 21.5733 34.54 21.8133 34.62 21.96L33.8 23.08C33.68 22.8267 33.5133 22.5133 33.3 22.14C33.1 21.7533 32.88 21.3533 32.64 20.94C32.4 20.5133 32.1733 20.1267 31.96 19.78C31.7467 19.42 31.5733 19.1333 31.44 18.92L32.12 18.3ZM48.32 24.32C48.3067 24.2133 48.2667 24.0733 48.2 23.9C48.1467 23.7133 48.0867 23.5267 48.02 23.34C47.9533 23.1533 47.8867 22.9933 47.82 22.86C48.0467 22.82 48.2867 22.6867 48.54 22.46C48.8067 22.22 49.1067 21.92 49.44 21.56C49.6267 21.3867 49.8867 21.0933 50.22 20.68C50.5667 20.2667 50.96 19.78 51.4 19.22C51.84 18.66 52.28 18.0533 52.72 17.4C53.16 16.7333 53.5733 16.0667 53.96 15.4L55.3 16.24C54.4333 17.5867 53.4867 18.8933 52.46 20.16C51.4333 21.4267 50.4067 22.54 49.38 23.5V23.54C49.38 23.54 49.3267 23.5667 49.22 23.62C49.1133 23.66 48.9867 23.72 48.84 23.8C48.7067 23.88 48.5867 23.9667 48.48 24.06C48.3733 24.1533 48.32 24.24 48.32 24.32ZM48.32 24.32L48.26 23.08L49.04 22.56L54.98 21.74C54.9667 21.9267 54.9667 22.1533 54.98 22.42C54.9933 22.6867 55.0133 22.9 55.04 23.06C53.6533 23.2733 52.54 23.4467 51.7 23.58C50.8733 23.7133 50.2333 23.8267 49.78 23.92C49.3267 24.0133 49 24.0933 48.8 24.16C48.6 24.2133 48.44 24.2667 48.32 24.32ZM48.18 19.52C48.1533 19.4 48.1067 19.2533 48.04 19.08C47.9867 18.8933 47.9267 18.7067 47.86 18.52C47.7933 18.32 47.7333 18.1533 47.68 18.02C47.8667 17.98 48.0533 17.8533 48.24 17.64C48.44 17.4267 48.66 17.1533 48.9 16.82C49.02 16.6467 49.2 16.3733 49.44 16C49.68 15.6267 49.9467 15.18 50.24 14.66C50.5333 14.14 50.8267 13.5867 51.12 13C51.4133 12.4 51.68 11.8 51.92 11.2L53.42 11.82C53.0333 12.6467 52.6067 13.4733 52.14 14.3C51.6733 15.1133 51.1933 15.8933 50.7 16.64C50.2067 17.3733 49.7067 18.0467 49.2 18.66V18.68C49.2 18.68 49.1467 18.7067 49.04 18.76C48.9467 18.8133 48.8267 18.8867 48.68 18.98C48.5467 19.0733 48.4267 19.1667 48.32 19.26C48.2267 19.3533 48.18 19.44 48.18 19.52ZM48.18 19.52L48.16 18.36L48.92 17.88L53.2 17.5C53.16 17.7 53.1267 17.9267 53.1 18.18C53.0867 18.4333 53.0733 18.6333 53.06 18.78C52.0867 18.8867 51.3 18.98 50.7 19.06C50.1 19.1267 49.6333 19.1867 49.3 19.24C48.98 19.2933 48.7333 19.34 48.56 19.38C48.4 19.42 48.2733 19.4667 48.18 19.52ZM47.76 26.94C48.36 26.8333 49.04 26.7067 49.8 26.56C50.5733 26.4133 51.3933 26.2533 52.26 26.08C53.1267 25.9067 53.9933 25.7267 54.86 25.54L55.02 26.96C53.78 27.2267 52.5467 27.4933 51.32 27.76C50.0933 28.0267 49 28.2733 48.04 28.5L47.76 26.94ZM55.46 13.08H65.72V14.58H55.46V13.08ZM55.18 26.8H66.14V28.3H55.18V26.8ZM59.82 13.56H61.44V27.66H59.82V13.56ZM70.8 11.34H72.1V18.1C72.1 19.1133 72.06 20.12 71.98 21.12C71.9133 22.12 71.7667 23.1067 71.54 24.08C71.3267 25.04 70.9933 25.9667 70.54 26.86C70.1 27.7533 69.5 28.6 68.74 29.4C68.6867 29.2933 68.6 29.18 68.48 29.06C68.36 28.94 68.2333 28.82 68.1 28.7C67.98 28.58 67.8667 28.4867 67.76 28.42C68.6667 27.46 69.3333 26.4133 69.76 25.28C70.2 24.1467 70.48 22.9667 70.6 21.74C70.7333 20.5133 70.8 19.3 70.8 18.1V11.34ZM73.6 14.64L74.78 15.14C74.5267 15.8067 74.2667 16.52 74 17.28C73.7467 18.04 73.5 18.6867 73.26 19.22L72.42 18.8C72.5533 18.44 72.6933 18.0133 72.84 17.52C73 17.0267 73.1467 16.5267 73.28 16.02C73.4133 15.5133 73.52 15.0533 73.6 14.64ZM71.74 22.46C71.8733 22.5933 72.08 22.8267 72.36 23.16C72.64 23.4933 72.9333 23.86 73.24 24.26C73.56 24.6467 73.8533 25.0067 74.12 25.34C74.3867 25.6733 74.58 25.9067 74.7 26.04L73.68 27.1C73.5333 26.86 73.3333 26.56 73.08 26.2C72.8267 25.84 72.5533 25.46 72.26 25.06C71.9667 24.66 71.6867 24.2933 71.42 23.96C71.1667 23.6133 70.9533 23.34 70.78 23.14L71.74 22.46ZM69.1 15.26L70.22 15.42C70.1933 15.98 70.1333 16.5733 70.04 17.2C69.9467 17.8267 69.8267 18.4333 69.68 19.02C69.5333 19.6067 69.3467 20.1333 69.12 20.6L68.02 20.1C68.2333 19.7 68.4133 19.2267 68.56 18.68C68.7067 18.1333 68.8267 17.5667 68.92 16.98C69.0133 16.38 69.0733 15.8067 69.1 15.26ZM74.96 14.16L85.36 13.12L85.56 14.38L75.16 15.44L74.96 14.16ZM77.46 11.3H78.84C78.9067 12.5 79.1067 13.62 79.44 14.66C79.7733 15.7 80.1867 16.6067 80.68 17.38C81.1867 18.1533 81.7267 18.7533 82.3 19.18C82.8867 19.6067 83.4733 19.8133 84.06 19.8C84.3267 19.8 84.5133 19.6533 84.62 19.36C84.7267 19.0533 84.8067 18.5333 84.86 17.8C84.9933 17.9333 85.16 18.0533 85.36 18.16C85.56 18.2667 85.7533 18.3467 85.94 18.4C85.86 19.12 85.7467 19.68 85.6 20.08C85.4533 20.4667 85.2467 20.74 84.98 20.9C84.7267 21.06 84.3933 21.14 83.98 21.14C83.1667 21.14 82.3867 20.8867 81.64 20.38C80.8933 19.8733 80.22 19.1733 79.62 18.28C79.0333 17.3733 78.5467 16.3267 78.16 15.14C77.7867 13.9533 77.5533 12.6733 77.46 11.3ZM83.94 15.02L85.26 15.54C84.5933 16.3933 83.7467 17.1533 82.72 17.82C81.6933 18.4733 80.5733 19.04 79.36 19.52C78.16 19.9867 76.9533 20.38 75.74 20.7C75.6867 20.6067 75.6 20.48 75.48 20.32C75.3733 20.16 75.26 20.0067 75.14 19.86C75.0333 19.7133 74.9267 19.5933 74.82 19.5C76.0333 19.2333 77.2267 18.9 78.4 18.5C79.5733 18.0867 80.64 17.5933 81.6 17.02C82.5733 16.4333 83.3533 15.7667 83.94 15.02ZM74.46 21.9H85.8V23.2H74.46V21.9ZM80.92 22.52H82.38V27.52C82.38 27.76 82.4133 27.9133 82.48 27.98C82.56 28.0467 82.7067 28.08 82.92 28.08C83 28.08 83.14 28.08 83.34 28.08C83.5533 28.08 83.7667 28.08 83.98 28.08C84.1933 28.08 84.34 28.08 84.42 28.08C84.5667 28.08 84.6733 28.0333 84.74 27.94C84.8067 27.8467 84.86 27.6533 84.9 27.36C84.94 27.0533 84.9667 26.6067 84.98 26.02C85.1267 26.1267 85.32 26.2267 85.56 26.32C85.8133 26.4133 86.04 26.4867 86.24 26.54C86.2 27.26 86.12 27.82 86 28.22C85.8933 28.62 85.7267 28.9 85.5 29.06C85.2733 29.22 84.9667 29.3 84.58 29.3C84.5133 29.3 84.3867 29.3 84.2 29.3C84.0267 29.3 83.8333 29.3 83.62 29.3C83.42 29.3 83.2333 29.3 83.06 29.3C82.8867 29.3 82.7667 29.3 82.7 29.3C82.22 29.3 81.8533 29.2467 81.6 29.14C81.3467 29.0333 81.1667 28.8467 81.06 28.58C80.9667 28.3267 80.92 27.9733 80.92 27.52V22.52ZM77.56 22.5H79.04C78.9733 23.42 78.8667 24.2533 78.72 25C78.5733 25.7467 78.34 26.4067 78.02 26.98C77.7 27.5533 77.2533 28.06 76.68 28.5C76.1067 28.94 75.3667 29.3133 74.46 29.62C74.4067 29.4867 74.3267 29.34 74.22 29.18C74.1267 29.0333 74.02 28.88 73.9 28.72C73.7933 28.5733 73.68 28.4533 73.56 28.36C74.3733 28.12 75.0267 27.8267 75.52 27.48C76.0267 27.12 76.42 26.7067 76.7 26.24C76.98 25.76 77.18 25.2133 77.3 24.6C77.42 23.9867 77.5067 23.2867 77.56 22.5ZM96.56 11.26H98.14C98.06 12.4333 97.92 13.5333 97.72 14.56C97.5333 15.5867 97.2333 16.5267 96.82 17.38C96.4067 18.22 95.8267 18.9733 95.08 19.64C94.3333 20.3067 93.36 20.8667 92.16 21.32C92.08 21.1467 91.9467 20.9533 91.76 20.74C91.5867 20.5133 91.42 20.3333 91.26 20.2C92.3533 19.8 93.2333 19.3067 93.9 18.72C94.5667 18.1333 95.08 17.46 95.44 16.7C95.8 15.94 96.06 15.1067 96.22 14.2C96.38 13.2933 96.4933 12.3133 96.56 11.26ZM96.04 17.3L97 16.28C97.6267 16.6267 98.2933 17.02 99 17.46C99.7067 17.8867 100.38 18.3133 101.02 18.74C101.66 19.1667 102.187 19.5533 102.6 19.9L101.6 21.08C101.2 20.7333 100.687 20.34 100.06 19.9C99.4333 19.4467 98.7667 18.9933 98.06 18.54C97.3533 18.0733 96.68 17.66 96.04 17.3ZM96.44 19.9H97.98C97.7933 20.8867 97.4867 21.84 97.06 22.76C96.6467 23.68 96.0467 24.5133 95.26 25.26C94.4733 25.9933 93.4133 26.6067 92.08 27.1C91.9867 26.9267 91.8533 26.7333 91.68 26.52C91.52 26.2933 91.3533 26.1133 91.18 25.98C92.1 25.6733 92.8667 25.3 93.48 24.86C94.1067 24.4067 94.6133 23.9133 95 23.38C95.4 22.8467 95.7067 22.2867 95.92 21.7C96.1467 21.1 96.32 20.5 96.44 19.9ZM96.18 23L97.22 22.04C97.8067 22.44 98.4267 22.88 99.08 23.36C99.7467 23.8267 100.38 24.2933 100.98 24.76C101.58 25.2267 102.073 25.6467 102.46 26.02L101.36 27.12C100.987 26.7467 100.507 26.32 99.92 25.84C99.3333 25.36 98.7133 24.8667 98.06 24.36C97.4067 23.8533 96.78 23.4 96.18 23ZM88.92 14.16H104.2V15.62H90.42V29.6H88.92V14.16ZM103.6 14.16H105.08V27.7C105.08 28.1667 105.02 28.5267 104.9 28.78C104.78 29.0467 104.553 29.24 104.22 29.36C103.9 29.48 103.447 29.5533 102.86 29.58C102.273 29.62 101.553 29.64 100.7 29.64C100.673 29.4267 100.613 29.1667 100.52 28.86C100.427 28.5667 100.327 28.3133 100.22 28.1C100.873 28.1267 101.473 28.14 102.02 28.14C102.58 28.1533 102.953 28.1533 103.14 28.14C103.327 28.1267 103.447 28.0867 103.5 28.02C103.567 27.9533 103.6 27.8333 103.6 27.66V14.16Z" fill="black"/>
</svg>
