<svg width="113" height="40" viewBox="0 0 113 40" fill="none" xmlns="http://www.w3.org/2000/svg">
<rect x="0.5" y="0.5" width="112" height="39" fill="white"/>
<rect x="0.5" y="0.5" width="112" height="39" stroke="black"/>
<path d="M8.28 13.26H25.74V14.64H8.28V13.26ZM9.7 17.22H24.46V18.64H9.7V17.22ZM8.14 21.72H25.88V23.14H8.14V21.72ZM12.88 11.2H14.34V16.6H12.88V11.2ZM19.56 11.2H21.06V16.6H19.56V11.2ZM16.34 17.64H17.86V27.62C17.86 28.1 17.7867 28.46 17.64 28.7C17.4933 28.94 17.24 29.1267 16.88 29.26C16.52 29.38 16.0333 29.4533 15.42 29.48C14.8067 29.5067 14.0333 29.52 13.1 29.52C13.0733 29.3733 13.0267 29.2067 12.96 29.02C12.8933 28.8467 12.82 28.6667 12.74 28.48C12.66 28.3067 12.58 28.1533 12.5 28.02C13.0067 28.0333 13.4867 28.04 13.94 28.04C14.3933 28.0533 14.7867 28.0533 15.12 28.04C15.4533 28.04 15.6867 28.04 15.82 28.04C16.02 28.04 16.1533 28.0133 16.22 27.96C16.3 27.8933 16.34 27.7733 16.34 27.6V17.64ZM37.58 11.4H39.12C39.1067 12.92 39.08 14.3667 39.04 15.74C39 17.1133 38.8933 18.4 38.72 19.6C38.5467 20.7867 38.2533 21.8933 37.84 22.92C37.44 23.9467 36.8667 24.88 36.12 25.72C35.3867 26.5467 34.44 27.28 33.28 27.92C32.12 28.56 30.6933 29.0933 29 29.52C28.92 29.3333 28.7933 29.1133 28.62 28.86C28.4467 28.62 28.28 28.42 28.12 28.26C29.7467 27.8733 31.1067 27.3933 32.2 26.82C33.3067 26.2333 34.2 25.56 34.88 24.8C35.5733 24.04 36.1067 23.1933 36.48 22.26C36.8533 21.3133 37.1133 20.28 37.26 19.16C37.42 18.04 37.5067 16.8333 37.52 15.54C37.5467 14.2333 37.5667 12.8533 37.58 11.4ZM28.14 20.36H45.92V21.78H28.14V20.36ZM37.74 24.7L38.54 23.62C39.4733 24.06 40.3933 24.54 41.3 25.06C42.2067 25.5667 43.0533 26.0867 43.84 26.62C44.6267 27.1533 45.3 27.6667 45.86 28.16L44.86 29.32C44.3267 28.8133 43.6733 28.2933 42.9 27.76C42.14 27.2133 41.3133 26.68 40.42 26.16C39.54 25.6267 38.6467 25.14 37.74 24.7ZM30.84 13.18L31.66 12.1C32.2067 12.2733 32.7667 12.4933 33.34 12.76C33.9267 13.0267 34.48 13.3 35 13.58C35.52 13.86 35.9467 14.14 36.28 14.42L35.4 15.64C35.08 15.36 34.6667 15.0733 34.16 14.78C33.6533 14.4733 33.1067 14.18 32.52 13.9C31.9467 13.62 31.3867 13.38 30.84 13.18ZM29.04 16.82L29.94 15.76C30.4867 15.96 31.0467 16.2 31.62 16.48C32.1933 16.7467 32.74 17.0333 33.26 17.34C33.78 17.6333 34.2067 17.92 34.54 18.2L33.58 19.38C33.26 19.1 32.8467 18.8067 32.34 18.5C31.8333 18.18 31.2933 17.8733 30.72 17.58C30.1467 17.2867 29.5867 17.0333 29.04 16.82ZM48.14 12.56H65.88V13.86H48.14V12.56ZM51.28 15.76H60.92V16.98H51.28V15.76ZM51.5 24.24H62.46V25.52H51.5V24.24ZM48.28 18.4H53.58V19.64H48.28V18.4ZM52.88 11.18H54.36V15.3H52.88V11.18ZM59.58 11.18H61.06V15.3H59.58V11.18ZM56.24 18.32H57.7V22.26C57.7 22.6067 57.6533 22.8733 57.56 23.06C57.48 23.2467 57.3067 23.3933 57.04 23.5C56.7867 23.5933 56.4467 23.6533 56.02 23.68C55.6067 23.6933 55.0933 23.7 54.48 23.7C54.4533 23.5133 54.3933 23.3133 54.3 23.1C54.2067 22.8733 54.1133 22.6733 54.02 22.5C54.4733 22.5133 54.88 22.52 55.24 22.52C55.6 22.52 55.84 22.52 55.96 22.52C56.1467 22.52 56.24 22.4267 56.24 22.24V18.32ZM50.7 25.82L51.92 26.4C51.6267 26.9867 51.2533 27.58 50.8 28.18C50.36 28.78 49.82 29.28 49.18 29.68L48 28.88C48.6133 28.52 49.1467 28.06 49.6 27.5C50.0667 26.94 50.4333 26.38 50.7 25.82ZM53.82 26.46L55.18 26.28C55.3667 26.76 55.5267 27.28 55.66 27.84C55.7933 28.3867 55.8667 28.8533 55.88 29.24L54.44 29.5C54.4267 29.1 54.36 28.6133 54.24 28.04C54.1333 27.48 53.9933 26.9533 53.82 26.46ZM57.66 26.48L58.9 26.08C59.22 26.5333 59.5133 27.04 59.78 27.6C60.06 28.1467 60.26 28.62 60.38 29.02L59.06 29.48C58.9667 29.08 58.7867 28.5933 58.52 28.02C58.2533 27.46 57.9667 26.9467 57.66 26.48ZM61.64 26.52L62.76 25.8C63.1467 26.08 63.5467 26.4 63.96 26.76C64.3867 27.1067 64.78 27.46 65.14 27.82C65.5133 28.1667 65.8067 28.4933 66.02 28.8L64.86 29.6C64.6467 29.2933 64.36 28.96 64 28.6C63.6533 28.24 63.2733 27.88 62.86 27.52C62.46 27.1467 62.0533 26.8133 61.64 26.52ZM53.3 18.4H53.56L53.82 18.34L54.74 18.72C54.38 19.76 53.8867 20.6933 53.26 21.52C52.6333 22.3467 51.92 23.06 51.12 23.66C50.3333 24.26 49.5133 24.74 48.66 25.1C48.6067 24.98 48.5267 24.8533 48.42 24.72C48.3267 24.5733 48.2267 24.4333 48.12 24.3C48.0133 24.1533 47.9067 24.0333 47.8 23.94C48.5733 23.66 49.3267 23.26 50.06 22.74C50.7933 22.22 51.4467 21.6133 52.02 20.92C52.5933 20.2133 53.02 19.4467 53.3 18.62V18.4ZM60.5 15.76H60.86L61.16 15.68L62.08 16.44C61.48 17 60.7667 17.54 59.94 18.06C59.1267 18.58 58.3333 19.02 57.56 19.38C57.4667 19.2467 57.34 19.1 57.18 18.94C57.02 18.7667 56.88 18.6333 56.76 18.54C57.2133 18.3267 57.6733 18.08 58.14 17.8C58.62 17.52 59.0667 17.2267 59.48 16.92C59.8933 16.6 60.2333 16.3067 60.5 16.04V15.76ZM59.78 17.9C60.1667 18.7667 60.68 19.58 61.32 20.34C61.96 21.0867 62.7 21.74 63.54 22.3C64.38 22.86 65.2733 23.3 66.22 23.62C66.1 23.7133 65.9733 23.8333 65.84 23.98C65.72 24.1133 65.6067 24.26 65.5 24.42C65.3933 24.5667 65.3 24.7067 65.22 24.84C64.2467 24.4667 63.3333 23.9533 62.48 23.3C61.6267 22.6467 60.8667 21.8933 60.2 21.04C59.5467 20.1867 59.0067 19.2667 58.58 18.28L59.78 17.9ZM64.44 17.02L65.64 17.84C65.2133 18.1867 64.7467 18.54 64.24 18.9C63.7467 19.26 63.2467 19.6 62.74 19.92C62.2467 20.24 61.7733 20.52 61.32 20.76L60.38 20.04C60.8067 19.7867 61.2667 19.4867 61.76 19.14C62.2667 18.78 62.7533 18.42 63.22 18.06C63.7 17.6867 64.1067 17.34 64.44 17.02ZM77.46 11.2H78.84V19.64C78.84 20.64 78.7933 21.6067 78.7 22.54C78.62 23.4733 78.44 24.3667 78.16 25.22C77.88 26.06 77.4667 26.8533 76.92 27.6C76.3867 28.3333 75.66 29.0067 74.74 29.62C74.6733 29.5133 74.5733 29.3933 74.44 29.26C74.3067 29.14 74.1733 29.02 74.04 28.9C73.9067 28.78 73.7867 28.6867 73.68 28.62C74.52 28.06 75.1933 27.4467 75.7 26.78C76.2067 26.1133 76.5867 25.4 76.84 24.64C77.0933 23.88 77.26 23.0867 77.34 22.26C77.42 21.42 77.46 20.5467 77.46 19.64V11.2ZM80.92 11.2H82.34V29.58H80.92V11.2ZM74.18 14.62H78.08V16H74.18V14.62ZM81.66 14.62H85.86V16H81.66V14.62ZM81.74 18.8H85.66V20.16H81.74V18.8ZM81.64 23.16H86.2V24.54H81.64V23.16ZM74.32 18.8H78.12V20.16H74.32V18.8ZM73.2 24.02C73.7733 23.86 74.44 23.66 75.2 23.42C75.9733 23.18 76.7733 22.9267 77.6 22.66L77.82 23.84C77.1267 24.1067 76.4333 24.3667 75.74 24.62C75.0467 24.86 74.3933 25.0933 73.78 25.32L73.2 24.02ZM67.56 21.58C68.3333 21.3533 69.2667 21.0733 70.36 20.74C71.4667 20.3933 72.5867 20.04 73.72 19.68L73.94 21.06C72.9 21.4067 71.8533 21.7533 70.8 22.1C69.7467 22.4467 68.7933 22.7533 67.94 23.02L67.56 21.58ZM67.84 15.24H73.9V16.64H67.84V15.24ZM70.34 11.22H71.74V27.86C71.74 28.26 71.6867 28.5733 71.58 28.8C71.4867 29.0267 71.3133 29.2 71.06 29.32C70.82 29.44 70.5 29.52 70.1 29.56C69.7 29.6 69.18 29.6133 68.54 29.6C68.5267 29.4267 68.4733 29.2 68.38 28.92C68.3 28.6533 68.2133 28.4133 68.12 28.2C68.5467 28.2133 68.9333 28.22 69.28 28.22C69.64 28.2333 69.88 28.2333 70 28.22C70.12 28.22 70.2067 28.1933 70.26 28.14C70.3133 28.1 70.34 28.0067 70.34 27.86V11.22ZM88.58 17.24H105.42V21.08H103.98V18.56H89.96V21.08H88.58V17.24ZM91.38 12.06H102.6V17.88H101.1V13.26H92.82V17.86H91.38V12.06ZM91.62 19.8H101.66V21.02H93.06V29.6H91.62V19.8ZM95.88 14.52H101.66V15.56H97.22V17.96H95.88V14.52ZM100.96 19.8H102.42V28.02C102.42 28.4067 102.36 28.7 102.24 28.9C102.133 29.1133 101.933 29.2733 101.64 29.38C101.347 29.4867 100.94 29.5467 100.42 29.56C99.9 29.5867 99.2533 29.6 98.48 29.6C98.4533 29.4133 98.3933 29.2 98.3 28.96C98.2067 28.7333 98.1133 28.5333 98.02 28.36C98.4067 28.3733 98.7733 28.38 99.12 28.38C99.4667 28.38 99.7667 28.3733 100.02 28.36C100.287 28.36 100.467 28.36 100.56 28.36C100.707 28.3467 100.807 28.3133 100.86 28.26C100.927 28.22 100.96 28.1333 100.96 28V19.8ZM92.34 22.54H101.74V23.66H92.34V22.54ZM92.34 25.24H101.74V26.4H92.34V25.24Z" fill="black"/>
</svg>
