<svg width="127" height="40" viewBox="0 0 127 40" fill="none" xmlns="http://www.w3.org/2000/svg">
<rect x="0.5" y="0.5" width="126" height="39" fill="white"/>
<rect x="0.5" y="0.5" width="126" height="39" stroke="black"/>
<path d="M22.86 17.04V20.22H29.9V17.04H22.86ZM21.44 15.72H31.38V21.56H21.44V15.72ZM28.94 23.42L30.12 22.78C30.5067 23.18 30.9 23.62 31.3 24.1C31.7133 24.5667 32.0867 25.0267 32.42 25.48C32.7667 25.92 33.04 26.32 33.24 26.68L31.98 27.46C31.7933 27.0867 31.5267 26.6667 31.18 26.2C30.8467 25.72 30.48 25.24 30.08 24.76C29.6933 24.2667 29.3133 23.82 28.94 23.42ZM19.86 12.5H32.9V13.92H19.86V12.5ZM25.6 10.2H27.08V13.3H25.6V10.2ZM25.6 20.94H27.08V26.94C27.08 27.3267 27.0267 27.6333 26.92 27.86C26.8267 28.0867 26.6333 28.2533 26.34 28.36C26.0467 28.48 25.6733 28.5533 25.22 28.58C24.7667 28.62 24.2 28.64 23.52 28.64C23.48 28.4267 23.4067 28.1867 23.3 27.92C23.1933 27.6533 23.08 27.42 22.96 27.22C23.4933 27.2333 23.9733 27.24 24.4 27.24C24.8267 27.24 25.1067 27.24 25.24 27.24C25.3867 27.2267 25.48 27.1933 25.52 27.14C25.5733 27.1 25.6 27.0267 25.6 26.92V20.94ZM22.04 22.86L23.46 23.26C23.0333 24.06 22.5133 24.8533 21.9 25.64C21.3 26.4267 20.7 27.0867 20.1 27.62C20.02 27.54 19.9067 27.44 19.76 27.32C19.6133 27.2133 19.4667 27.1067 19.32 27C19.1733 26.9067 19.04 26.8267 18.92 26.76C19.52 26.2667 20.1 25.6733 20.66 24.98C21.22 24.2867 21.68 23.58 22.04 22.86ZM15.04 12.48L16.06 11.5C16.46 11.8067 16.8667 12.14 17.28 12.5C17.7067 12.86 18.1 13.2267 18.46 13.6C18.8333 13.9733 19.1267 14.3133 19.34 14.62L18.26 15.72C18.0467 15.4 17.7667 15.0533 17.42 14.68C17.0733 14.2933 16.6867 13.9067 16.26 13.52C15.8467 13.1333 15.44 12.7867 15.04 12.48ZM14.74 25.24C15.1 24.7333 15.4933 24.1333 15.92 23.44C16.36 22.7333 16.8067 21.9867 17.26 21.2C17.7133 20.4133 18.1267 19.6467 18.5 18.9L19.66 19.84C19.3 20.5333 18.9133 21.26 18.5 22.02C18.1 22.7667 17.6867 23.5 17.26 24.22C16.8333 24.9267 16.4267 25.5867 16.04 26.2L14.74 25.24ZM42.54 16.94H52.4V18.34H42.54V16.94ZM41.36 21.32H53.22V22.74H41.36V21.32ZM46.72 10.22H48.18V28.6H46.72V10.22ZM44.16 11.54L45.56 11.88C45.24 12.72 44.8333 13.54 44.34 14.34C43.86 15.14 43.3667 15.82 42.86 16.38C42.7533 16.3 42.62 16.2133 42.46 16.12C42.3133 16.0267 42.16 15.94 42 15.86C41.8533 15.7667 41.72 15.6933 41.6 15.64C42.1333 15.12 42.62 14.5 43.06 13.78C43.5133 13.0467 43.88 12.3 44.16 11.54ZM49.22 12L50.36 11.36C50.72 11.7733 51.0733 12.2333 51.42 12.74C51.78 13.2467 52.1067 13.74 52.4 14.22C52.6933 14.7 52.92 15.1267 53.08 15.5L51.86 16.24C51.7 15.8533 51.4733 15.42 51.18 14.94C50.9 14.4467 50.5867 13.94 50.24 13.42C49.8933 12.9 49.5533 12.4267 49.22 12ZM34.56 20.84C35.4267 20.6 36.46 20.3133 37.66 19.98C38.8733 19.6333 40.0933 19.28 41.32 18.92L41.52 20.26C40.3733 20.62 39.2267 20.98 38.08 21.34C36.9467 21.7 35.9133 22.02 34.98 22.3L34.56 20.84ZM34.84 14.22H41.3V15.64H34.84V14.22ZM37.62 10.2H39.06V26.86C39.06 27.2733 39.0067 27.5933 38.9 27.82C38.7933 28.0467 38.6133 28.22 38.36 28.34C38.0933 28.4467 37.7467 28.5133 37.32 28.54C36.9067 28.58 36.3667 28.6 35.7 28.6C35.6733 28.4133 35.6133 28.1867 35.52 27.92C35.4267 27.6667 35.3333 27.44 35.24 27.24C35.6933 27.2533 36.1067 27.26 36.48 27.26C36.8533 27.26 37.1067 27.2533 37.24 27.24C37.3733 27.24 37.4667 27.2133 37.52 27.16C37.5867 27.1067 37.62 27.0067 37.62 26.86V10.2ZM61.86 12.46H70V13.78H61.86V12.46ZM64.4 23.02H71.12V24.24H64.4V23.02ZM64.4 26.54H71.12V27.8H64.4V26.54ZM60.94 16.22H73.18V17.56H60.94V16.22ZM65.36 10.2H66.82V17.22H65.36V10.2ZM63.64 19.56H71.9V28.58H70.44V20.84H65.06V28.58H63.64V19.56ZM71.56 10.92L72.9 11.44C71.9933 13.04 70.9333 14.5333 69.72 15.92C68.52 17.3067 67.2133 18.5667 65.8 19.7C64.3867 20.82 62.9067 21.7933 61.36 22.62C61.2933 22.5267 61.1933 22.4067 61.06 22.26C60.94 22.1 60.8133 21.9467 60.68 21.8C60.56 21.64 60.4467 21.5133 60.34 21.42C61.8867 20.6733 63.36 19.7733 64.76 18.72C66.16 17.6533 67.4333 16.46 68.58 15.14C69.74 13.82 70.7333 12.4133 71.56 10.92ZM55.36 11.14L56.42 10.34C57.3 11.14 58.0067 11.9667 58.54 12.82C59.0733 13.66 59.4733 14.52 59.74 15.4C60.0067 16.28 60.18 17.18 60.26 18.1C60.3533 19.0067 60.4 19.94 60.4 20.9C60.4 21.8733 60.3733 22.8067 60.32 23.7C60.2667 24.58 60.1667 25.3667 60.02 26.06C59.8733 26.74 59.6667 27.2667 59.4 27.64C59.1333 28.0133 58.76 28.2333 58.28 28.3C57.9467 28.3667 57.58 28.4 57.18 28.4C56.7933 28.4133 56.3933 28.4133 55.98 28.4C55.9667 28.16 55.92 27.9067 55.84 27.64C55.7733 27.3733 55.6733 27.1333 55.54 26.92C55.9933 26.9467 56.4 26.96 56.76 26.96C57.1333 26.96 57.4267 26.9533 57.64 26.94C57.7867 26.9133 57.9133 26.8733 58.02 26.82C58.1267 26.7667 58.2133 26.6933 58.28 26.6C58.4533 26.3733 58.5867 25.9733 58.68 25.4C58.7867 24.8267 58.86 24.1467 58.9 23.36C58.94 22.5733 58.96 21.7467 58.96 20.88C58.96 19.6667 58.88 18.5067 58.72 17.4C58.56 16.28 58.2267 15.2 57.72 14.16C57.2133 13.12 56.4267 12.1133 55.36 11.14ZM58.94 17.28L60.06 17.92C59.7533 18.6267 59.3533 19.3467 58.86 20.08C58.3667 20.8 57.8333 21.48 57.26 22.12C56.6867 22.76 56.12 23.3 55.56 23.74C55.4533 23.54 55.3133 23.32 55.14 23.08C54.9667 22.8267 54.8 22.6133 54.64 22.44C55.1867 22.08 55.7333 21.6267 56.28 21.08C56.8267 20.52 57.3333 19.9133 57.8 19.26C58.28 18.5933 58.66 17.9333 58.94 17.28ZM59.8 10.5L60.92 11.24C60.52 11.9467 60.0133 12.6867 59.4 13.46C58.8 14.22 58.1533 14.9467 57.46 15.64C56.78 16.32 56.12 16.9 55.48 17.38C55.3733 17.1667 55.2333 16.9267 55.06 16.66C54.9 16.3933 54.74 16.18 54.58 16.02C55.2067 15.62 55.8467 15.12 56.5 14.52C57.1667 13.9067 57.7867 13.2533 58.36 12.56C58.9467 11.8533 59.4267 11.1667 59.8 10.5ZM75.3 11.36H92.76V12.86H75.3V11.36ZM79.14 15.8H88.66V17.2H79.14V15.8ZM79.14 20.2H88.66V21.62H79.14V20.2ZM74.96 24.94C76.0533 24.8867 77.3 24.82 78.7 24.74C80.1 24.66 81.5933 24.5667 83.18 24.46C84.7667 24.3533 86.3867 24.2467 88.04 24.14C89.7067 24.02 91.3467 23.9067 92.96 23.8L92.92 25.26C91.32 25.3667 89.7067 25.48 88.08 25.6C86.4533 25.72 84.86 25.84 83.3 25.96C81.74 26.0667 80.2667 26.1667 78.88 26.26C77.5067 26.3533 76.2667 26.44 75.16 26.52L74.96 24.94ZM78.42 12.42H80V25.32H78.42V12.42ZM88.04 12.4H89.64V28.58H88.04V12.4ZM100.02 10.98H107.56V12.34H100.02V10.98ZM99.28 10.98H100.78V13.68C100.78 14.2133 100.713 14.7533 100.58 15.3C100.447 15.8467 100.207 16.38 99.86 16.9C99.5133 17.42 99.0267 17.9133 98.4 18.38C97.7867 18.8333 96.9867 19.2333 96 19.58C95.96 19.46 95.8867 19.32 95.78 19.16C95.6733 19 95.56 18.84 95.44 18.68C95.32 18.52 95.22 18.4 95.14 18.32C96.0333 18.0267 96.7533 17.6933 97.3 17.32C97.8467 16.9467 98.26 16.56 98.54 16.16C98.8333 15.7467 99.0267 15.3267 99.12 14.9C99.2267 14.4733 99.28 14.0467 99.28 13.62V10.98ZM106.8 10.98H108.3V16.04C108.3 16.3067 108.34 16.48 108.42 16.56C108.5 16.64 108.687 16.68 108.98 16.68C109.047 16.68 109.167 16.68 109.34 16.68C109.513 16.68 109.7 16.68 109.9 16.68C110.113 16.68 110.307 16.68 110.48 16.68C110.653 16.68 110.787 16.68 110.88 16.68C111.067 16.68 111.207 16.6133 111.3 16.48C111.407 16.3467 111.48 16.0867 111.52 15.7C111.573 15.3 111.607 14.7 111.62 13.9C111.727 13.98 111.86 14.06 112.02 14.14C112.18 14.22 112.34 14.2933 112.5 14.36C112.673 14.4133 112.827 14.46 112.96 14.5C112.92 15.4467 112.833 16.18 112.7 16.7C112.58 17.2067 112.387 17.56 112.12 17.76C111.867 17.9467 111.5 18.04 111.02 18.04C110.94 18.04 110.793 18.04 110.58 18.04C110.367 18.04 110.14 18.04 109.9 18.04C109.66 18.04 109.433 18.04 109.22 18.04C109.02 18.04 108.873 18.04 108.78 18.04C108.273 18.04 107.873 17.9867 107.58 17.88C107.3 17.76 107.1 17.56 106.98 17.28C106.86 16.9867 106.8 16.58 106.8 16.06V10.98ZM95.1 20.7H112.92V22.06H95.1V20.7ZM103.2 18.22H104.72V28.6H103.2V18.22ZM102.54 21.34L103.66 21.82C103.073 22.7 102.347 23.5333 101.48 24.32C100.613 25.0933 99.6867 25.7933 98.7 26.42C97.7133 27.0467 96.7333 27.5533 95.76 27.94C95.6933 27.82 95.6 27.68 95.48 27.52C95.36 27.3733 95.2333 27.2267 95.1 27.08C94.98 26.9467 94.8667 26.8333 94.76 26.74C95.7333 26.3933 96.7067 25.9467 97.68 25.4C98.6667 24.84 99.58 24.2133 100.42 23.52C101.273 22.8133 101.98 22.0867 102.54 21.34ZM105.4 21.32C105.947 22.0667 106.64 22.7867 107.48 23.48C108.333 24.16 109.26 24.7733 110.26 25.32C111.273 25.8533 112.28 26.28 113.28 26.6C113.16 26.6933 113.033 26.8133 112.9 26.96C112.78 27.1067 112.66 27.2533 112.54 27.4C112.433 27.56 112.333 27.7 112.24 27.82C111.253 27.4467 110.253 26.96 109.24 26.36C108.24 25.7467 107.307 25.0533 106.44 24.28C105.573 23.5067 104.847 22.6933 104.26 21.84L105.4 21.32Z" fill="black"/>
</svg>
