<svg width="83" height="40" viewBox="0 0 83 40" fill="none" xmlns="http://www.w3.org/2000/svg">
<rect x="0.5" y="0.5" width="82" height="39" fill="white"/>
<rect x="0.5" y="0.5" width="82" height="39" stroke="black"/>
<path d="M15.1 26.32H29.18V27.64H15.1V26.32ZM21.8 12.1H30.58V13.46H21.8V12.1ZM14.24 15.4H29.8V28.54H28.32V16.72H15.66V28.6H14.24V15.4ZM21 10.2H22.52V15.84H21V10.2ZM24.9 17L26.44 17.56C25.76 18.6533 24.96 19.6933 24.04 20.68C23.12 21.6533 22.14 22.5467 21.1 23.36C20.0733 24.16 19.0267 24.86 17.96 25.46C17.8667 25.3667 17.74 25.2467 17.58 25.1C17.42 24.9533 17.2533 24.8133 17.08 24.68C16.92 24.5467 16.7733 24.4333 16.64 24.34C17.7467 23.8067 18.8133 23.16 19.84 22.4C20.8667 21.64 21.8133 20.8067 22.68 19.9C23.5467 18.98 24.2867 18.0133 24.9 17ZM17.38 18.68L18.38 17.62C19.1533 18.06 19.9533 18.5533 20.78 19.1C21.62 19.6333 22.4267 20.1933 23.2 20.78C23.9733 21.3533 24.6867 21.9267 25.34 22.5C26.0067 23.0733 26.56 23.6133 27 24.12L25.86 25.36C25.4333 24.84 24.9 24.2933 24.26 23.72C23.6333 23.1333 22.9333 22.54 22.16 21.94C21.4 21.34 20.6067 20.76 19.78 20.2C18.9667 19.64 18.1667 19.1333 17.38 18.68ZM39.86 12.46H48V13.78H39.86V12.46ZM42.4 23.02H49.12V24.24H42.4V23.02ZM42.4 26.54H49.12V27.8H42.4V26.54ZM38.94 16.22H51.18V17.56H38.94V16.22ZM43.36 10.2H44.82V17.22H43.36V10.2ZM41.64 19.56H49.9V28.58H48.44V20.84H43.06V28.58H41.64V19.56ZM49.56 10.92L50.9 11.44C49.9933 13.04 48.9333 14.5333 47.72 15.92C46.52 17.3067 45.2133 18.5667 43.8 19.7C42.3867 20.82 40.9067 21.7933 39.36 22.62C39.2933 22.5267 39.1933 22.4067 39.06 22.26C38.94 22.1 38.8133 21.9467 38.68 21.8C38.56 21.64 38.4467 21.5133 38.34 21.42C39.8867 20.6733 41.36 19.7733 42.76 18.72C44.16 17.6533 45.4333 16.46 46.58 15.14C47.74 13.82 48.7333 12.4133 49.56 10.92ZM33.36 11.14L34.42 10.34C35.3 11.14 36.0067 11.9667 36.54 12.82C37.0733 13.66 37.4733 14.52 37.74 15.4C38.0067 16.28 38.18 17.18 38.26 18.1C38.3533 19.0067 38.4 19.94 38.4 20.9C38.4 21.8733 38.3733 22.8067 38.32 23.7C38.2667 24.58 38.1667 25.3667 38.02 26.06C37.8733 26.74 37.6667 27.2667 37.4 27.64C37.1333 28.0133 36.76 28.2333 36.28 28.3C35.9467 28.3667 35.58 28.4 35.18 28.4C34.7933 28.4133 34.3933 28.4133 33.98 28.4C33.9667 28.16 33.92 27.9067 33.84 27.64C33.7733 27.3733 33.6733 27.1333 33.54 26.92C33.9933 26.9467 34.4 26.96 34.76 26.96C35.1333 26.96 35.4267 26.9533 35.64 26.94C35.7867 26.9133 35.9133 26.8733 36.02 26.82C36.1267 26.7667 36.2133 26.6933 36.28 26.6C36.4533 26.3733 36.5867 25.9733 36.68 25.4C36.7867 24.8267 36.86 24.1467 36.9 23.36C36.94 22.5733 36.96 21.7467 36.96 20.88C36.96 19.6667 36.88 18.5067 36.72 17.4C36.56 16.28 36.2267 15.2 35.72 14.16C35.2133 13.12 34.4267 12.1133 33.36 11.14ZM36.94 17.28L38.06 17.92C37.7533 18.6267 37.3533 19.3467 36.86 20.08C36.3667 20.8 35.8333 21.48 35.26 22.12C34.6867 22.76 34.12 23.3 33.56 23.74C33.4533 23.54 33.3133 23.32 33.14 23.08C32.9667 22.8267 32.8 22.6133 32.64 22.44C33.1867 22.08 33.7333 21.6267 34.28 21.08C34.8267 20.52 35.3333 19.9133 35.8 19.26C36.28 18.5933 36.66 17.9333 36.94 17.28ZM37.8 10.5L38.92 11.24C38.52 11.9467 38.0133 12.6867 37.4 13.46C36.8 14.22 36.1533 14.9467 35.46 15.64C34.78 16.32 34.12 16.9 33.48 17.38C33.3733 17.1667 33.2333 16.9267 33.06 16.66C32.9 16.3933 32.74 16.18 32.58 16.02C33.2067 15.62 33.8467 15.12 34.5 14.52C35.1667 13.9067 35.7867 13.2533 36.36 12.56C36.9467 11.8533 37.4267 11.1667 37.8 10.5ZM53.3 11.36H70.76V12.86H53.3V11.36ZM57.14 15.8H66.66V17.2H57.14V15.8ZM57.14 20.2H66.66V21.62H57.14V20.2ZM52.96 24.94C54.0533 24.8867 55.3 24.82 56.7 24.74C58.1 24.66 59.5933 24.5667 61.18 24.46C62.7667 24.3533 64.3867 24.2467 66.04 24.14C67.7067 24.02 69.3467 23.9067 70.96 23.8L70.92 25.26C69.32 25.3667 67.7067 25.48 66.08 25.6C64.4533 25.72 62.86 25.84 61.3 25.96C59.74 26.0667 58.2667 26.1667 56.88 26.26C55.5067 26.3533 54.2667 26.44 53.16 26.52L52.96 24.94ZM56.42 12.42H58V25.32H56.42V12.42ZM66.04 12.4H67.64V28.58H66.04V12.4Z" fill="black"/>
</svg>
