<svg width="97" height="40" viewBox="0 0 97 40" fill="none" xmlns="http://www.w3.org/2000/svg">
<rect x="0.5" y="0.5" width="96" height="39" fill="white"/>
<rect x="0.5" y="0.5" width="96" height="39" stroke="black"/>
<path d="M18.56 10.26H20.14C20.06 11.4333 19.92 12.5333 19.72 13.56C19.5333 14.5867 19.2333 15.5267 18.82 16.38C18.4067 17.22 17.8267 17.9733 17.08 18.64C16.3333 19.3067 15.36 19.8667 14.16 20.32C14.08 20.1467 13.9467 19.9533 13.76 19.74C13.5867 19.5133 13.42 19.3333 13.26 19.2C14.3533 18.8 15.2333 18.3067 15.9 17.72C16.5667 17.1333 17.08 16.46 17.44 15.7C17.8 14.94 18.06 14.1067 18.22 13.2C18.38 12.2933 18.4933 11.3133 18.56 10.26ZM18.04 16.3L19 15.28C19.6267 15.6267 20.2933 16.02 21 16.46C21.7067 16.8867 22.38 17.3133 23.02 17.74C23.66 18.1667 24.1867 18.5533 24.6 18.9L23.6 20.08C23.2 19.7333 22.6867 19.34 22.06 18.9C21.4333 18.4467 20.7667 17.9933 20.06 17.54C19.3533 17.0733 18.68 16.66 18.04 16.3ZM18.44 18.9H19.98C19.7933 19.8867 19.4867 20.84 19.06 21.76C18.6467 22.68 18.0467 23.5133 17.26 24.26C16.4733 24.9933 15.4133 25.6067 14.08 26.1C13.9867 25.9267 13.8533 25.7333 13.68 25.52C13.52 25.2933 13.3533 25.1133 13.18 24.98C14.1 24.6733 14.8667 24.3 15.48 23.86C16.1067 23.4067 16.6133 22.9133 17 22.38C17.4 21.8467 17.7067 21.2867 17.92 20.7C18.1467 20.1 18.32 19.5 18.44 18.9ZM18.18 22L19.22 21.04C19.8067 21.44 20.4267 21.88 21.08 22.36C21.7467 22.8267 22.38 23.2933 22.98 23.76C23.58 24.2267 24.0733 24.6467 24.46 25.02L23.36 26.12C22.9867 25.7467 22.5067 25.32 21.92 24.84C21.3333 24.36 20.7133 23.8667 20.06 23.36C19.4067 22.8533 18.78 22.4 18.18 22ZM10.92 13.16H26.2V14.62H12.42V28.6H10.92V13.16ZM25.6 13.16H27.08V26.7C27.08 27.1667 27.02 27.5267 26.9 27.78C26.78 28.0467 26.5533 28.24 26.22 28.36C25.9 28.48 25.4467 28.5533 24.86 28.58C24.2733 28.62 23.5533 28.64 22.7 28.64C22.6733 28.4267 22.6133 28.1667 22.52 27.86C22.4267 27.5667 22.3267 27.3133 22.22 27.1C22.8733 27.1267 23.4733 27.14 24.02 27.14C24.58 27.1533 24.9533 27.1533 25.14 27.14C25.3267 27.1267 25.4467 27.0867 25.5 27.02C25.5667 26.9533 25.6 26.8333 25.6 26.66V13.16ZM31.9 13.34H36.18V14.62H31.9V13.34ZM32.04 10.24L33.42 10.5C33.2467 11.5667 33.0267 12.6133 32.76 13.64C32.5067 14.6667 32.2067 15.6333 31.86 16.54C31.5267 17.4333 31.1467 18.2267 30.72 18.92C30.6533 18.84 30.5467 18.74 30.4 18.62C30.2667 18.5 30.1267 18.3867 29.98 18.28C29.8333 18.16 29.7067 18.0733 29.6 18.02C30.0133 17.38 30.3733 16.6467 30.68 15.82C30.9867 14.9933 31.2533 14.1067 31.48 13.16C31.7067 12.2 31.8933 11.2267 32.04 10.24ZM35.74 13.34H35.98L36.22 13.26L37.2 13.58C36.9733 14.3133 36.7133 15.0667 36.42 15.84C36.14 16.6 35.8533 17.2467 35.56 17.78L34.4 17.36C34.64 16.88 34.88 16.2933 35.12 15.6C35.3733 14.8933 35.58 14.22 35.74 13.58V13.34ZM32.38 28.38L32.12 26.98L32.5 26.34L36.14 23.66C36.1933 23.8467 36.2667 24.0667 36.36 24.32C36.4667 24.56 36.56 24.7533 36.64 24.9C35.7867 25.5667 35.0933 26.1067 34.56 26.52C34.0267 26.9333 33.6133 27.2533 33.32 27.48C33.04 27.72 32.8333 27.9067 32.7 28.04C32.5667 28.1733 32.46 28.2867 32.38 28.38ZM32.4 28.42C32.3467 28.3133 32.2667 28.1933 32.16 28.06C32.0667 27.94 31.9667 27.8133 31.86 27.68C31.7533 27.5467 31.66 27.4467 31.58 27.38C31.74 27.2467 31.9133 27.0133 32.1 26.68C32.3 26.3333 32.4 25.9133 32.4 25.42V17.34H33.78V26.5C33.78 26.5 33.7067 26.5733 33.56 26.72C33.4267 26.8667 33.2667 27.0467 33.08 27.26C32.9067 27.4733 32.7467 27.68 32.6 27.88C32.4667 28.0933 32.4 28.2733 32.4 28.42ZM37.32 14.42H47.62V15.86H37.32V14.42ZM36.7 19.88H48.06V21.32H36.7V19.88ZM43.72 14.84H45.14V28.52H43.72V14.84ZM38.38 10.88L39.66 10.36C39.9133 10.7067 40.16 11.0867 40.4 11.5C40.64 11.9133 40.86 12.32 41.06 12.72C41.26 13.1067 41.4133 13.4467 41.52 13.74L40.14 14.38C40.0467 14.0733 39.9067 13.72 39.72 13.32C39.5333 12.9067 39.32 12.4867 39.08 12.06C38.8533 11.6333 38.62 11.24 38.38 10.88ZM45.18 10.24L46.76 10.78C46.52 11.2733 46.2667 11.7867 46 12.32C45.7333 12.8533 45.4667 13.3667 45.2 13.86C44.9467 14.34 44.7 14.7667 44.46 15.14L43.26 14.64C43.4867 14.2533 43.72 13.8067 43.96 13.3C44.2 12.78 44.4267 12.2533 44.64 11.72C44.8667 11.1733 45.0467 10.68 45.18 10.24ZM39.72 14.86H41.16V19.68C41.16 20.4 41.1133 21.16 41.02 21.96C40.94 22.7467 40.7667 23.5467 40.5 24.36C40.2333 25.16 39.8333 25.9333 39.3 26.68C38.7667 27.4133 38.0533 28.08 37.16 28.68C37.0933 28.56 37 28.4333 36.88 28.3C36.7733 28.1667 36.6533 28.0333 36.52 27.9C36.3867 27.78 36.2667 27.6867 36.16 27.62C36.9867 27.1 37.64 26.5133 38.12 25.86C38.6 25.1933 38.9533 24.5 39.18 23.78C39.4067 23.06 39.5533 22.3533 39.62 21.66C39.6867 20.9533 39.72 20.2933 39.72 19.68V14.86ZM50.14 11.56H67.88V12.86H50.14V11.56ZM53.28 14.76H62.92V15.98H53.28V14.76ZM53.5 23.24H64.46V24.52H53.5V23.24ZM50.28 17.4H55.58V18.64H50.28V17.4ZM54.88 10.18H56.36V14.3H54.88V10.18ZM61.58 10.18H63.06V14.3H61.58V10.18ZM58.24 17.32H59.7V21.26C59.7 21.6067 59.6533 21.8733 59.56 22.06C59.48 22.2467 59.3067 22.3933 59.04 22.5C58.7867 22.5933 58.4467 22.6533 58.02 22.68C57.6067 22.6933 57.0933 22.7 56.48 22.7C56.4533 22.5133 56.3933 22.3133 56.3 22.1C56.2067 21.8733 56.1133 21.6733 56.02 21.5C56.4733 21.5133 56.88 21.52 57.24 21.52C57.6 21.52 57.84 21.52 57.96 21.52C58.1467 21.52 58.24 21.4267 58.24 21.24V17.32ZM52.7 24.82L53.92 25.4C53.6267 25.9867 53.2533 26.58 52.8 27.18C52.36 27.78 51.82 28.28 51.18 28.68L50 27.88C50.6133 27.52 51.1467 27.06 51.6 26.5C52.0667 25.94 52.4333 25.38 52.7 24.82ZM55.82 25.46L57.18 25.28C57.3667 25.76 57.5267 26.28 57.66 26.84C57.7933 27.3867 57.8667 27.8533 57.88 28.24L56.44 28.5C56.4267 28.1 56.36 27.6133 56.24 27.04C56.1333 26.48 55.9933 25.9533 55.82 25.46ZM59.66 25.48L60.9 25.08C61.22 25.5333 61.5133 26.04 61.78 26.6C62.06 27.1467 62.26 27.62 62.38 28.02L61.06 28.48C60.9667 28.08 60.7867 27.5933 60.52 27.02C60.2533 26.46 59.9667 25.9467 59.66 25.48ZM63.64 25.52L64.76 24.8C65.1467 25.08 65.5467 25.4 65.96 25.76C66.3867 26.1067 66.78 26.46 67.14 26.82C67.5133 27.1667 67.8067 27.4933 68.02 27.8L66.86 28.6C66.6467 28.2933 66.36 27.96 66 27.6C65.6533 27.24 65.2733 26.88 64.86 26.52C64.46 26.1467 64.0533 25.8133 63.64 25.52ZM55.3 17.4H55.56L55.82 17.34L56.74 17.72C56.38 18.76 55.8867 19.6933 55.26 20.52C54.6333 21.3467 53.92 22.06 53.12 22.66C52.3333 23.26 51.5133 23.74 50.66 24.1C50.6067 23.98 50.5267 23.8533 50.42 23.72C50.3267 23.5733 50.2267 23.4333 50.12 23.3C50.0133 23.1533 49.9067 23.0333 49.8 22.94C50.5733 22.66 51.3267 22.26 52.06 21.74C52.7933 21.22 53.4467 20.6133 54.02 19.92C54.5933 19.2133 55.02 18.4467 55.3 17.62V17.4ZM62.5 14.76H62.86L63.16 14.68L64.08 15.44C63.48 16 62.7667 16.54 61.94 17.06C61.1267 17.58 60.3333 18.02 59.56 18.38C59.4667 18.2467 59.34 18.1 59.18 17.94C59.02 17.7667 58.88 17.6333 58.76 17.54C59.2133 17.3267 59.6733 17.08 60.14 16.8C60.62 16.52 61.0667 16.2267 61.48 15.92C61.8933 15.6 62.2333 15.3067 62.5 15.04V14.76ZM61.78 16.9C62.1667 17.7667 62.68 18.58 63.32 19.34C63.96 20.0867 64.7 20.74 65.54 21.3C66.38 21.86 67.2733 22.3 68.22 22.62C68.1 22.7133 67.9733 22.8333 67.84 22.98C67.72 23.1133 67.6067 23.26 67.5 23.42C67.3933 23.5667 67.3 23.7067 67.22 23.84C66.2467 23.4667 65.3333 22.9533 64.48 22.3C63.6267 21.6467 62.8667 20.8933 62.2 20.04C61.5467 19.1867 61.0067 18.2667 60.58 17.28L61.78 16.9ZM66.44 16.02L67.64 16.84C67.2133 17.1867 66.7467 17.54 66.24 17.9C65.7467 18.26 65.2467 18.6 64.74 18.92C64.2467 19.24 63.7733 19.52 63.32 19.76L62.38 19.04C62.8067 18.7867 63.2667 18.4867 63.76 18.14C64.2667 17.78 64.7533 17.42 65.22 17.06C65.7 16.6867 66.1067 16.34 66.44 16.02ZM78.24 11.74H79.74V17.42H78.24V11.74ZM71.04 11.12H86.3V12.38H71.04V11.12ZM85.92 11.12H86.16L86.42 11.06L87.5 11.36C87.26 11.9467 87 12.5533 86.72 13.18C86.44 13.7933 86.1667 14.3133 85.9 14.74L84.6 14.4C84.8267 14 85.06 13.52 85.3 12.96C85.5533 12.3867 85.76 11.8533 85.92 11.36V11.12ZM79.06 14H84.5V15.1H79.06V14ZM74.72 14.32C75.1333 15.0533 75.6733 15.6067 76.34 15.98C77.0067 16.3533 77.8133 16.6 78.76 16.72C79.72 16.84 80.8067 16.9 82.02 16.9C82.18 16.9 82.4533 16.9 82.84 16.9C83.24 16.9 83.7 16.9 84.22 16.9C84.74 16.9 85.26 16.9 85.78 16.9C86.3133 16.9 86.7933 16.9 87.22 16.9C87.6467 16.8867 87.9667 16.88 88.18 16.88C88.1133 16.9733 88.04 17.1067 87.96 17.28C87.8933 17.44 87.8333 17.6067 87.78 17.78C87.7267 17.94 87.6867 18.0933 87.66 18.24H86.36H82.02C80.58 18.24 79.3333 18.1533 78.28 17.98C77.2267 17.8067 76.3267 17.4667 75.58 16.96C74.8333 16.4533 74.2133 15.7 73.72 14.7L74.72 14.32ZM73.5 21.14V23.14H84.5V21.14H73.5ZM72.08 19.98H86V24.32H72.08V19.98ZM78.28 18.66H79.76V27.1H78.28V18.66ZM70.34 26.54C71.2333 26.54 72.26 26.5267 73.42 26.5C74.58 26.4733 75.8333 26.4467 77.18 26.42C78.5267 26.38 79.9133 26.34 81.34 26.3C82.78 26.26 84.22 26.22 85.66 26.18L85.6 27.36C83.7733 27.44 81.94 27.52 80.1 27.6C78.26 27.6933 76.5067 27.7667 74.84 27.82C73.1867 27.8867 71.72 27.9467 70.44 28L70.34 26.54ZM82.3 25.1L83.28 24.26C83.8267 24.62 84.4 25.0267 85 25.48C85.6133 25.92 86.1933 26.3533 86.74 26.78C87.2867 27.1933 87.74 27.56 88.1 27.88L87.1 28.84C86.74 28.5067 86.2867 28.12 85.74 27.68C85.1933 27.24 84.62 26.7933 84.02 26.34C83.42 25.8733 82.8467 25.46 82.3 25.1ZM74.08 12.92L75.48 13.26C75.0267 14.66 74.36 15.92 73.48 17.04C72.6 18.1467 71.58 19.0533 70.42 19.76C70.38 19.64 70.3133 19.4933 70.22 19.32C70.14 19.1333 70.0533 18.9467 69.96 18.76C69.8667 18.5733 69.78 18.42 69.7 18.3C70.7 17.7533 71.5867 17.02 72.36 16.1C73.1333 15.18 73.7067 14.12 74.08 12.92Z" fill="black"/>
</svg>
