<svg width="53" height="374" viewBox="0 0 53 374" fill="none" xmlns="http://www.w3.org/2000/svg">
<path d="M0.321924 372.915L-1.81519e-05 373.298L0.765108 373.942L1.08705 373.559L0.704489 373.237L0.321924 372.915ZM1.13046 1.63048C0.872306 1.72852 0.742515 2.01728 0.84056 2.27543L2.4383 6.48224C2.53634 6.74039 2.8251 6.87018 3.08325 6.77213C3.3414 6.67409 3.47119 6.38533 3.37314 6.12718L1.95293 2.3878L5.69232 0.967585C5.95047 0.86954 6.08026 0.580786 5.98221 0.322635C5.88417 0.064485 5.59542 -0.0653061 5.33726 0.0327389L1.13046 1.63048ZM0.704489 373.237L1.08705 373.559C16.1289 355.685 28.382 325.622 37.1374 290.117C45.8967 254.596 51.1697 213.566 52.2138 173.704C53.2579 133.846 50.0745 95.1306 41.9056 64.2455C33.7458 33.3947 20.5715 10.2084 1.51297 1.64185L1.30798 2.0979L1.103 2.55395C19.7211 10.9226 32.7931 33.7037 40.9388 64.5012C49.0754 95.2642 52.2567 133.878 51.2142 173.678C50.1717 213.475 44.9068 254.433 36.1664 289.877C27.4221 325.338 15.2138 355.219 0.321924 372.915L0.704489 373.237Z" fill="black"/>
</svg>
