<svg width="8" height="31" viewBox="0 0 8 31" fill="none" xmlns="http://www.w3.org/2000/svg">
<path d="M7.84805 0.636622L7.91891 0.141668L6.92901 -5.24351e-05L6.85815 0.494902L7.3531 0.565762L7.84805 0.636622ZM2.79885 29.8822C2.96447 30.1032 3.27786 30.148 3.49882 29.9824L7.09964 27.2835C7.3206 27.1179 7.36547 26.8045 7.19985 26.5835C7.03423 26.3626 6.72084 26.3177 6.49988 26.4833L3.29916 28.8824L0.900122 25.6816C0.734503 25.4607 0.421116 25.4158 0.200152 25.5814C-0.0208115 25.747 -0.0656777 26.0604 0.099941 26.2814L2.79885 29.8822ZM7.3531 0.565762L6.85815 0.494902L2.70399 29.5115L3.19895 29.5823L3.6939 29.6532L7.84805 0.636622L7.3531 0.565762Z" fill="black"/>
</svg>
