<svg width="97" height="284" viewBox="0 0 97 284" fill="none" xmlns="http://www.w3.org/2000/svg">
<path d="M94.1178 0.498888L94.084 3.50331e-05L93.0863 0.0677189L93.1201 0.566573L93.619 0.53273L94.1178 0.498888ZM46.2394 184.234L46.2538 183.734L46.2394 184.234ZM54.2391 257.98L53.8561 257.658L53.8561 257.659L54.2391 257.98ZM0.504249 234.474L0.0326175 234.308L0.00552473 234.385L0.00430469 234.466L0.504249 234.474ZM32.4374 283.037C32.6606 283.2 32.9734 283.151 33.136 282.928L35.7853 279.29C35.9479 279.067 35.8987 278.754 35.6755 278.592C35.4523 278.429 35.1396 278.478 34.977 278.701L32.622 281.935L29.3887 279.58C29.1655 279.417 28.8528 279.466 28.6902 279.689C28.5276 279.913 28.5768 280.225 28.8 280.388L32.4374 283.037ZM93.619 0.53273L93.1201 0.566573C95.8104 40.2231 96.9121 99.2191 91.48 147.331C88.7631 171.394 84.4163 192.689 77.8407 207.477C74.5528 214.871 70.7249 220.599 66.3008 224.238C61.8934 227.863 56.887 229.425 51.1745 228.492L51.0939 228.986L51.0134 229.479C57.0354 230.462 62.3272 228.801 66.936 225.01C71.5282 221.233 75.4348 215.349 78.7544 207.884C85.3938 192.952 89.7538 171.533 92.4737 147.443C97.9152 99.2482 96.8102 40.1862 94.1178 0.498888L93.619 0.53273ZM51.0939 228.986L51.1745 228.492C39.5004 226.587 32.189 222.827 28.0584 218.341C23.9431 213.87 22.9399 208.629 23.9739 203.62C25.0115 198.594 28.1053 193.793 32.1948 190.284C36.2856 186.773 41.3259 184.594 46.2251 184.734L46.2394 184.234L46.2538 183.734C41.0456 183.585 35.7717 185.897 31.5435 189.525C27.314 193.155 24.0838 198.142 22.9946 203.418C21.9018 208.711 22.9688 214.288 27.3227 219.018C31.6614 223.731 39.2182 227.554 51.0134 229.479L51.0939 228.986ZM46.2394 184.234L46.2251 184.734C57.7506 185.065 64.8364 188.677 68.8262 194.084C72.8289 199.509 73.7978 206.847 72.8436 214.795C70.9343 230.698 61.3619 248.713 53.8561 257.658L54.2391 257.98L54.6221 258.301C62.2248 249.24 71.8993 231.049 73.8365 214.914C74.8056 206.843 73.8475 199.205 69.6308 193.491C65.4012 187.759 57.975 184.071 46.2538 183.734L46.2394 184.234ZM54.2391 257.98L53.8561 257.659C43.8381 269.599 30.5436 271.027 19.7942 265.886C9.02128 260.735 0.78742 248.974 1.00419 234.481L0.504249 234.474L0.00430469 234.466C-0.218414 249.356 8.24396 261.471 19.3628 266.789C30.505 272.117 44.2977 270.607 54.6221 258.301L54.2391 257.98ZM0.504249 234.474L0.97588 234.64C1.92543 231.942 3.05086 230.608 4.19366 230.161C5.30699 229.725 6.63238 230.063 8.1842 231.228C9.72836 232.387 11.3919 234.292 13.1044 236.745C14.8126 239.192 16.5507 242.156 18.2503 245.407C21.6494 251.908 24.8795 259.528 27.3953 266.384C29.9145 273.249 31.7038 279.313 32.2379 282.711L32.7318 282.633L33.2257 282.556C32.6757 279.056 30.8573 272.916 28.3341 266.039C25.8074 259.154 22.5604 251.493 19.1365 244.944C17.4245 241.669 15.6646 238.665 13.9244 236.173C12.1885 233.686 10.4533 231.681 8.78449 230.428C7.12332 229.181 5.42145 228.607 3.82938 229.23C2.26678 229.841 1.00866 231.535 0.0326175 234.308L0.504249 234.474Z" fill="black"/>
</svg>
