<svg width="57" height="112" viewBox="0 0 57 112" fill="none" xmlns="http://www.w3.org/2000/svg">
<path d="M56.1272 111.379L56.6204 111.296L56.4553 110.31L55.9621 110.392L56.0447 110.886L56.1272 111.379ZM3.54032 65.5992L3.04671 65.6789L3.54032 65.5992ZM42.2091 65.5992L42.6064 65.9027L42.6412 65.8571L42.6648 65.8048L42.2091 65.5992ZM3.87813 0.131383C3.67455 -0.0551891 3.35827 -0.0414004 3.1717 0.162181L0.131328 3.47973C-0.0552444 3.68331 -0.0414557 3.9996 0.162126 4.18617C0.365707 4.37274 0.681989 4.35895 0.868562 4.15537L3.57111 1.20644L6.52005 3.90899C6.72363 4.09556 7.03991 4.08177 7.22648 3.87819C7.41306 3.67461 7.39927 3.35833 7.19569 3.17175L3.87813 0.131383ZM56.0447 110.886L55.9621 110.392C47.5941 111.793 36.3151 111.099 26.2897 104.817C16.2806 98.5449 7.44651 86.6562 4.03392 65.5195L3.54032 65.5992L3.04671 65.6789C6.49553 87.04 15.4585 99.2098 25.7587 105.664C36.0426 112.108 47.5851 112.808 56.1272 111.379L56.0447 110.886ZM3.54032 65.5992L4.03392 65.5195C2.37063 55.2174 5.10911 47.5031 9.80223 42.353C14.5069 37.1902 21.2105 34.5659 27.5343 34.5225C33.8612 34.4792 39.7372 37.0143 42.876 42.0805C46.0108 47.1401 46.5029 54.8674 41.7533 65.3935L42.2091 65.5992L42.6648 65.8048C47.4937 55.1029 47.0989 46.9977 43.7261 41.5538C40.3573 36.1166 34.105 33.4775 27.5275 33.5225C20.947 33.5676 13.9702 36.2945 9.06309 41.6794C4.14445 47.077 1.33981 55.1067 3.04671 65.6789L3.54032 65.5992ZM42.2091 65.5992L41.8117 65.2956C39.7212 68.032 37.6235 69.6171 35.572 70.2834C33.5333 70.9456 31.4833 70.7191 29.435 69.7214C25.2954 67.7052 21.2115 62.5597 17.5549 55.4206C10.261 41.1803 4.86499 19.4055 4.03984 0.478223L3.54032 0.5L3.04079 0.521777C3.87117 19.569 9.29535 41.4885 16.6648 55.8765C20.3399 63.0516 24.5486 68.4537 28.9971 70.6204C31.2428 71.7142 33.5608 71.988 35.8809 71.2345C38.1881 70.4852 40.4398 68.7387 42.6064 65.9027L42.2091 65.5992Z" fill="black"/>
</svg>
