<svg width="36" height="31" viewBox="0 0 36 31" fill="none" xmlns="http://www.w3.org/2000/svg">
<path d="M35.3217 1.08721L35.7045 0.765485L35.061 -1.49012e-06L34.6783 0.321725L35 0.704468L35.3217 1.08721ZM0.00186503 29.6613C-0.0219636 29.9364 0.181742 30.1788 0.456854 30.2026L4.94007 30.5909C5.21518 30.6147 5.45752 30.411 5.48135 30.1359C5.50518 29.8608 5.30147 29.6185 5.02636 29.5946L1.04128 29.2495L1.38644 25.2644C1.41027 24.9893 1.20657 24.7469 0.931455 24.7231C0.656343 24.6993 0.414004 24.903 0.390175 25.1781L0.00186503 29.6613ZM35 0.704468L34.6783 0.321725L0.178274 29.3217L0.5 29.7045L0.821726 30.0872L35.3217 1.08721L35 0.704468Z" fill="black"/>
</svg>
