<svg width="129" height="274" viewBox="0 0 129 274" fill="none" xmlns="http://www.w3.org/2000/svg">
<path d="M1.58218 0.538024L1.6014 0.038394L0.602144 -5.68628e-05L0.582918 0.499573L1.08255 0.518799L1.58218 0.538024ZM128.974 268.701C129.062 268.44 128.922 268.156 128.66 268.068L124.398 266.624C124.137 266.535 123.853 266.676 123.764 266.937C123.676 267.199 123.816 267.483 124.077 267.571L127.866 268.854L126.583 272.643C126.494 272.904 126.635 273.188 126.896 273.277C127.158 273.365 127.441 273.225 127.53 272.964L128.974 268.701ZM1.08255 0.518799L0.582918 0.499573C-0.70785 34.044 -0.186889 86.4875 5.57261 134.81C8.45227 158.971 12.6433 182.117 18.5787 201.362C24.5085 220.588 32.2019 235.998 42.1361 244.604L42.4635 244.226L42.7908 243.848C33.0765 235.433 25.4506 220.25 19.5342 201.067C13.6235 181.902 9.44154 158.821 6.56558 134.692C0.813847 86.4343 0.292843 34.0452 1.58218 0.538024L1.08255 0.518799ZM42.4635 244.226L42.1361 244.604C81.5587 278.754 116.206 275.172 128.721 268.989L128.5 268.541L128.279 268.093C116.183 274.068 81.9622 277.78 42.7908 243.848L42.4635 244.226Z" fill="black"/>
</svg>
