<svg width="20" height="25" viewBox="0 0 20 25" fill="none" xmlns="http://www.w3.org/2000/svg">
<path d="M1.10296 0.404606L0.809246 -3.28794e-05L-3.03357e-05 0.587395L0.293684 0.992034L0.698322 0.698321L1.10296 0.404606ZM17.8388 24.914C18.1115 24.9573 18.3677 24.7713 18.4111 24.4986L19.117 20.0543C19.1603 19.7816 18.9743 19.5254 18.7016 19.4821C18.4289 19.4388 18.1727 19.6247 18.1294 19.8974L17.5019 23.8479L13.5514 23.2204C13.2787 23.1771 13.0225 23.3631 12.9792 23.6358C12.9358 23.9085 13.1218 24.1647 13.3945 24.2081L17.8388 24.914ZM0.698322 0.698321L0.293684 0.992034L17.5126 24.7139L17.9173 24.4202L18.3219 24.1265L1.10296 0.404606L0.698322 0.698321Z" fill="black"/>
</svg>
