<svg width="72" height="69" viewBox="0 0 72 69" fill="none" xmlns="http://www.w3.org/2000/svg">
<path d="M0.423257 62.7764L-2.62198e-05 62.5102L0.532259 61.6637L0.955541 61.9298L0.689397 62.3531L0.423257 62.7764ZM50.4519 45.9705L50.877 46.2338L50.4519 45.9705ZM23.5154 34.7398L23.0317 34.8665L23.0172 34.811L23.0156 34.7537L23.5154 34.7398ZM69.24 0.0298829C69.4997 -0.064009 69.7863 0.070397 69.8802 0.330087L71.4103 4.56198C71.5041 4.82167 71.3697 5.10831 71.1101 5.2022C70.8504 5.29609 70.5637 5.16168 70.4698 4.90199L69.1098 1.14031L65.3481 2.50036C65.0884 2.59425 64.8018 2.45985 64.7079 2.20016C64.614 1.94047 64.7484 1.65383 65.0081 1.55994L69.24 0.0298829ZM0.689397 62.3531L0.955541 61.9298C6.35824 65.3268 14.3868 68.106 23.1629 66.6359C31.9201 65.169 41.5086 59.4565 50.0269 45.7072L50.4519 45.9705L50.877 46.2338C42.2395 60.1756 32.4244 66.0985 23.3281 67.6222C14.2507 69.1427 5.97587 66.2676 0.423257 62.7764L0.689397 62.3531ZM50.4519 45.9705L50.0269 45.7072C54.1684 39.0223 54.4999 32.8769 52.7442 27.9549C50.9828 23.017 47.1035 19.2618 42.7403 17.4074C38.3745 15.5518 33.5907 15.6217 29.9719 18.2177C26.3591 20.8095 23.7727 26.0174 24.0152 34.7259L23.5154 34.7398L23.0156 34.7537C22.7678 25.853 25.4099 20.2598 29.389 17.4052C33.3623 14.5548 38.5339 14.533 43.1314 16.4871C47.7316 18.4422 51.8237 22.398 53.6861 27.619C55.5542 32.8559 55.1621 39.3173 50.877 46.2338L50.4519 45.9705ZM23.5154 34.7398L23.9991 34.6132C24.6547 37.117 25.6446 38.8078 26.8545 39.8474C28.054 40.8781 29.515 41.3079 31.2053 41.2076C34.634 41.0041 38.9512 38.6193 43.5738 34.6979C52.7865 26.8826 62.8766 13.2554 68.9573 0.287817L69.41 0.500093L69.8627 0.71237C63.7312 13.7883 53.5596 27.5381 44.2207 35.4604C39.5676 39.4078 35.0365 41.9819 31.2646 42.2058C29.3546 42.3192 27.6272 41.8299 26.2027 40.6058C24.7886 39.3907 23.7189 37.4912 23.0317 34.8665L23.5154 34.7398Z" fill="black"/>
</svg>
